<?xml version="1.0" standalone="no"?>
<!DOCTYPE svg PUBLIC "-//W3C//DTD SVG 20010904//EN"
 "http://www.w3.org/TR/2001/REC-SVG-20010904/DTD/svg10.dtd">
<svg version="1.0" xmlns="http://www.w3.org/2000/svg"
 width="512.000000pt" height="512.000000pt" viewBox="0 0 512.000000 512.000000"
 preserveAspectRatio="xMidYMid meet">
<metadata>
Created by potrace 1.14, written by Peter Selinger 2001-2017
</metadata>
<g transform="translate(0.000000,512.000000) scale(0.100000,-0.100000)"
fill="#000000" stroke="none">
<path d="M0 2560 l0 -2560 2560 0 2560 0 0 2560 0 2560 -2560 0 -2560 0 0
-2560z m2785 1604 c278 -42 531 -144 720 -290 110 -84 247 -215 319 -303 47
-59 206 -357 206 -386 0 -5 -26 38 -58 98 -162 304 -378 516 -688 673 -168 85
-400 150 -490 137 -32 -4 -45 -3 -41 4 5 7 -6 10 -30 7 -21 -2 -96 -5 -168 -8
-145 -5 -293 -32 -427 -76 -89 -30 -207 -86 -243 -115 -11 -9 3 -4 32 9 79 39
275 102 393 127 86 18 137 22 280 22 196 0 211 -3 400 -67 275 -94 497 -230
666 -408 82 -87 196 -244 209 -288 4 -14 -20 16 -53 65 -221 331 -536 547
-922 631 -116 26 -449 27 -560 2 -200 -44 -386 -124 -538 -231 -72 -51 -312
-287 -312 -306 0 -5 -28 -53 -61 -106 -204 -325 -271 -695 -193 -1073 59 -289
232 -586 449 -776 123 -107 217 -166 364 -227 53 -22 104 -45 114 -50 125 -69
492 -102 698 -63 391 74 735 302 961 639 34 50 65 89 69 88 11 -4 87 148 122
242 38 100 74 244 91 364 9 57 18 106 22 110 12 11 -4 -284 -21 -369 -29 -154
-128 -442 -182 -535 -22 -37 -22 -38 -3 -15 46 52 127 203 193 360 30 68 18
-5 -17 -113 -62 -189 -149 -334 -292 -485 -396 -421 -957 -600 -1517 -483
-131 27 -204 53 -342 121 -527 257 -869 735 -935 1305 -85 747 366 1462 1075
1703 248 85 461 104 710 66z m-558 -596 c13 -12 23 -27 23 -34 0 -13 22 -19
113 -29 81 -9 189 -65 257 -134 94 -96 140 -209 140 -348 0 -82 -1 -81 74 -58
35 11 96 15 205 15 l157 0 11 30 c13 34 51 55 85 47 25 -7 217 -124 248 -152
29 -26 35 -78 15 -112 -10 -17 -64 -57 -136 -101 -142 -87 -169 -91 -209 -28
l-25 38 -140 -4 c-163 -5 -206 -20 -252 -90 l-28 -42 -3 -435 c-2 -293 -6
-439 -14 -448 -7 -9 -45 -13 -134 -13 -112 0 -124 2 -134 19 -6 11 -10 89 -10
182 0 190 -12 230 -83 277 -39 26 -46 27 -199 30 -153 4 -158 3 -158 -16 0
-23 -44 -62 -70 -62 -20 0 -234 128 -267 160 -29 28 -31 87 -4 121 17 22 214
148 252 161 26 10 78 -19 84 -45 l7 -25 171 -5 c124 -3 184 -9 216 -21 24 -9
45 -16 47 -16 2 0 4 146 4 325 0 361 -1 367 -63 422 -57 50 -157 71 -157 34 0
-24 -45 -61 -74 -61 -25 0 -242 131 -268 162 -10 12 -18 36 -18 58 0 51 17 69
145 149 120 76 154 85 192 49z"/>
<path d="M2065 3454 c-72 -46 -100 -69 -100 -83 0 -15 28 -38 105 -85 l105
-65 3 27 c6 42 20 52 76 52 91 0 155 -25 213 -85 30 -31 57 -69 63 -92 7 -21
14 -108 17 -193 l5 -155 70 69 71 69 -5 111 c-5 96 -9 120 -36 179 -38 83
-114 161 -195 200 -46 22 -80 30 -159 36 -104 8 -118 15 -118 59 0 12 -3 22
-7 21 -5 0 -53 -29 -108 -65z"/>
<path d="M3270 2956 c0 -13 -6 -28 -13 -34 -7 -6 -92 -12 -208 -14 l-195 -3
-76 -38 c-88 -43 -152 -107 -195 -195 -25 -50 -28 -71 -31 -167 l-4 -111 71
-72 71 -72 0 143 c0 78 5 159 10 179 19 68 70 130 133 162 56 28 64 30 220 34
188 5 217 -2 217 -48 0 -16 3 -30 6 -30 11 0 202 121 215 136 10 12 10 18 -2
29 -24 23 -192 125 -206 125 -7 0 -13 -11 -13 -24z"/>
<path d="M1845 2407 c-70 -44 -100 -69 -100 -82 0 -14 30 -38 99 -82 55 -35
103 -63 108 -63 4 0 8 10 8 23 0 44 14 47 196 47 190 0 228 -8 294 -60 22 -17
51 -55 66 -86 25 -52 28 -68 32 -210 l5 -154 69 0 70 0 -4 173 c-3 168 -4 173
-34 237 -39 83 -83 133 -157 181 -83 54 -161 69 -354 69 -168 0 -183 4 -183
47 0 13 -3 23 -7 23 -5 0 -53 -29 -108 -63z"/>
</g>
</svg>
