<svg width="6" height="12" viewBox="0 0 6 12" fill="none" xmlns="http://www.w3.org/2000/svg">
<path d="M4.19101 6.00153L0.218987 10.5012C0.0784807 10.661 -0.000291348 10.8775 4.76837e-07 11.1031C0.000292301 11.3287 0.0796242 11.5449 0.220543 11.7042C0.361462 11.8635 0.552426 11.9528 0.751424 11.9525C0.950422 11.9522 1.14115 11.8622 1.28166 11.7025L5.78168 6.60619C5.91765 6.45144 5.99578 6.24324 5.99983 6.02487C6.00389 5.80649 5.93356 5.59475 5.80346 5.43365L1.28477 0.297553C1.14426 0.137788 0.953533 0.0478477 0.754535 0.0475168C0.555537 0.0471859 0.364573 0.136493 0.223654 0.29579C0.0827351 0.455087 0.00340319 0.671326 0.00311136 0.896936C0.00281954 1.12255 0.0815921 1.33905 0.222098 1.49881L4.19101 6.00153Z" fill="#444444"/>
</svg>
