<svg width="8" height="12" viewBox="0 0 8 12" fill="none" xmlns="http://www.w3.org/2000/svg">
<path d="M0.790068 9.87999L4.67007 5.99999L0.790068 2.11999C0.697486 2.02741 0.624046 1.9175 0.573941 1.79653C0.523836 1.67557 0.498047 1.54592 0.498047 1.41499C0.498047 1.28406 0.523836 1.15441 0.573941 1.03345C0.624046 0.912482 0.697486 0.802571 0.790068 0.70999C0.88265 0.617408 0.99256 0.543968 1.11352 0.493863C1.23449 0.443758 1.36414 0.417969 1.49507 0.417969C1.626 0.417969 1.75565 0.443758 1.87661 0.493863C1.99757 0.543968 2.10749 0.617408 2.20007 0.70999L6.79007 5.29999C7.18007 5.68999 7.18007 6.31999 6.79007 6.70999L2.20007 11.3C2.10755 11.3927 1.99767 11.4662 1.87669 11.5164C1.75572 11.5666 1.62604 11.5924 1.49507 11.5924C1.3641 11.5924 1.23442 11.5666 1.11344 11.5164C0.99247 11.4662 0.882581 11.3927 0.790068 11.3C0.410068 10.91 0.400068 10.27 0.790068 9.87999Z" fill="white"/>
</svg>
