<svg width="12" height="6" viewBox="0 0 12 6" fill="none" xmlns="http://www.w3.org/2000/svg">
<path d="M5.99835 4.19112L1.49866 0.21908C1.3389 0.0785728 1.12239 -0.000199795 0.896784 9.20296e-05C0.671173 0.000383854 0.454934 0.0797157 0.295637 0.220636C0.13634 0.361556 0.0470335 0.55252 0.0473642 0.751519C0.0476949 0.950518 0.137636 1.14125 0.2974 1.28176L5.39369 5.78181C5.54844 5.91777 5.75664 5.9959 5.97501 5.99996C6.19338 6.00401 6.40513 5.93368 6.56623 5.80358L11.7023 1.28487C11.8621 1.14436 11.952 0.953629 11.9524 0.75463C11.9527 0.555631 11.8634 0.364666 11.7041 0.223747C11.5448 0.0828266 11.3286 0.00349474 11.1029 0.00320292C10.8773 0.00291157 10.6608 0.0816841 10.5011 0.222191L5.99835 4.19112Z" fill="#444444"/>
</svg>
