<svg width="11" height="10" viewBox="0 0 11 10" fill="none" xmlns="http://www.w3.org/2000/svg">
<path d="M1.87613 1.92712C2.0301 2.39794 2.22479 2.84664 2.45741 3.26247L2.04534 4.05911C1.67854 3.46588 1.37447 2.81606 1.14563 2.1179L1.87613 1.92712ZM8.33351 7.14248C8.77841 7.1641 9.22035 7.13481 9.65449 7.05588L9.86365 7.8568C9.21244 7.97519 8.56155 7.99589 7.92003 7.93375L8.33351 7.14248ZM2.0598 0.730782L0.366587 1.17298C0.100511 1.24246 -0.054017 1.5412 0.0231914 1.83684C1.34135 6.88423 6.09116 10.0134 10.6338 8.82701C10.8999 8.75753 11.0544 8.45878 10.9772 8.16314L10.4873 6.28717C10.4101 5.99153 10.1292 5.8065 9.86312 5.87599C9.26324 6.03265 8.6498 6.07802 8.05603 6.02063C8.00295 6.01382 7.94969 6.01799 7.89904 6.03292C7.77326 6.06577 7.66635 6.15111 7.59627 6.27851L6.8408 7.73902C5.26601 7.31794 3.82683 6.36982 2.72763 5.0293L3.4831 3.56879C3.57925 3.38291 3.5632 3.16316 3.46086 2.98893C3.11563 2.41765 2.85334 1.79411 2.68395 1.14197C2.60674 0.846328 2.32587 0.661294 2.0598 0.730782Z" fill="#444444"/>
</svg>
