<svg width="25" height="20" viewBox="0 0 25 20" fill="none" xmlns="http://www.w3.org/2000/svg">
<path d="M12.0065 7.87394e-06C9.71754 -0.00261453 7.47566 0.649853 5.54561 1.88035C3.61556 3.11085 2.07796 4.86798 1.1144 6.94422C0.150845 9.02046 -0.198422 11.3291 0.107852 13.5974C0.414127 15.8658 1.36315 17.9991 2.84284 19.7455L3.06102 20H20.9519L21.1701 19.7455C22.6498 17.9991 23.5988 15.8658 23.9051 13.5974C24.2114 11.3291 23.8621 9.02046 22.8985 6.94422C21.935 4.86798 20.3974 3.11085 18.4673 1.88035C16.5373 0.649853 14.2954 -0.00261453 12.0065 7.87394e-06ZM20.2537 18.5455H3.7592C2.45424 16.9125 1.66665 14.9271 1.49738 12.8436H4.00647V11.3891H1.49738C1.61918 9.07981 2.50135 6.87564 4.00647 5.12001L5.78829 6.90182L6.81374 5.87637L5.04647 4.08728C6.77976 2.55531 8.97121 1.63986 11.2792 1.48364V4.0291H12.7337V1.49092C15.2832 1.6758 17.6782 2.78228 19.4715 4.60373C21.2649 6.42519 22.334 8.83709 22.4792 11.3891H19.9483V12.8436H22.5156C22.3463 14.9271 21.5587 16.9125 20.2537 18.5455Z" fill="white"/>
</svg>
