<svg width="25" height="20" viewBox="0 0 25 20" fill="none" xmlns="http://www.w3.org/2000/svg">
<path d="M17.2284 5.86938L12.9302 10.0948C12.4665 9.8715 11.9388 9.81924 11.4404 9.94731C10.9419 10.0754 10.5048 10.3755 10.2062 10.7947C9.90765 11.2139 9.76687 11.7251 9.80875 12.2381C9.85064 12.751 10.0725 13.2326 10.4351 13.5978C10.7977 13.963 11.2778 14.1883 11.7904 14.2338C12.303 14.2793 12.8152 14.1421 13.2365 13.8465C13.6578 13.5509 13.961 13.1159 14.0926 12.6184C14.2242 12.1208 14.1757 11.5928 13.9556 11.1276L18.2611 6.90211L17.2284 5.86938Z" fill="#A95867"/>
<path d="M12.0065 7.87394e-06C9.71754 -0.00261453 7.47566 0.649853 5.54561 1.88035C3.61556 3.11085 2.07796 4.86798 1.1144 6.94422C0.150845 9.02046 -0.198422 11.3291 0.107852 13.5974C0.414127 15.8658 1.36315 17.9991 2.84284 19.7455L3.06102 20H20.9519L21.1701 19.7455C22.6498 17.9991 23.5988 15.8658 23.9051 13.5974C24.2114 11.3291 23.8621 9.02046 22.8985 6.94422C21.935 4.86798 20.3974 3.11085 18.4673 1.88035C16.5373 0.649853 14.2954 -0.00261453 12.0065 7.87394e-06ZM20.2537 18.5455H3.7592C2.45424 16.9125 1.66665 14.9271 1.49738 12.8436H4.00647V11.3891H1.49738C1.61918 9.07981 2.50135 6.87564 4.00647 5.12001L5.78829 6.90182L6.81374 5.87637L5.04647 4.08728C6.77976 2.55531 8.97121 1.63986 11.2792 1.48364V4.0291H12.7337V1.49092C15.2832 1.6758 17.6782 2.78228 19.4715 4.60373C21.2649 6.42519 22.334 8.83709 22.4792 11.3891H19.9483V12.8436H22.5156C22.3463 14.9271 21.5587 16.9125 20.2537 18.5455Z" fill="#A95867"/>
</svg>
