<svg width="17" height="20" viewBox="0 0 17 20" fill="none" xmlns="http://www.w3.org/2000/svg">
<path d="M5.47754 6.84668H6.84682V15.0624H5.47754V6.84668Z" fill="#A85766"/>
<path d="M9.58496 6.84668H10.9542V15.0624H9.58496V6.84668Z" fill="#A85766"/>
<path d="M0 2.73853V4.10781H1.36928V17.8006C1.36928 18.1638 1.51354 18.5121 1.77033 18.7688C2.02712 19.0256 2.37541 19.1699 2.73856 19.1699H13.6928C14.056 19.1699 14.4042 19.0256 14.661 18.7688C14.9178 18.5121 15.0621 18.1638 15.0621 17.8006V4.10781H16.4314V2.73853H0ZM2.73856 17.8006V4.10781H13.6928V17.8006H2.73856Z" fill="#A85766"/>
<path d="M5.47754 0H10.9547V1.36928H5.47754V0Z" fill="#A85766"/>
</svg>
