<svg width="18" height="18" viewBox="0 0 18 18" fill="none" xmlns="http://www.w3.org/2000/svg">
<path d="M7.655 14.41H9.355V12.7264H7.655V14.41ZM8.505 0.932861C6.82287 0.932861 5.17852 1.42687 3.77988 2.35243C2.38124 3.27799 1.29113 4.59351 0.647408 6.13266C0.00368518 7.6718 -0.164742 9.36543 0.163425 10.9994C0.491592 12.6333 1.30162 14.1342 2.49106 15.3122C3.68051 16.4902 5.19595 17.2924 6.84576 17.6175C8.49557 17.9425 10.2056 17.7757 11.7597 17.1381C13.3138 16.5006 14.6421 15.421 15.5767 14.0358C16.5112 12.6506 17.01 11.022 17.01 9.35608C17.0092 7.12235 16.1129 4.98033 14.5181 3.40084C12.9232 1.82135 10.7604 0.933649 8.505 0.932861ZM8.505 16.0947C7.16009 16.0947 5.84538 15.6997 4.72713 14.9597C3.60887 14.2197 2.7373 13.1679 2.22262 11.9373C1.70795 10.7067 1.57328 9.35257 1.83566 8.04619C2.09804 6.7398 2.74568 5.5398 3.69668 4.59795C4.64767 3.6561 5.85932 3.01469 7.17839 2.75483C8.49746 2.49498 9.86471 2.62834 11.1073 3.13807C12.3498 3.6478 13.4118 4.51099 14.159 5.61849C14.9062 6.72599 15.305 8.02806 15.305 9.36004C15.3016 11.1451 14.584 12.8561 13.3095 14.1184C12.035 15.3806 10.3074 16.0913 8.505 16.0947ZM8.505 4.30215C8.05826 4.3015 7.61576 4.38805 7.20281 4.55686C6.78985 4.72567 6.41454 4.97342 6.09832 5.28596C5.78209 5.5985 5.53116 5.96969 5.35987 6.37833C5.18857 6.78696 5.10027 7.22503 5.1 7.66748H6.8C6.8 7.22094 6.97911 6.7927 7.29792 6.47695C7.61673 6.16121 8.04914 5.98382 8.5 5.98382C8.95087 5.98382 9.38327 6.16121 9.70209 6.47695C10.0209 6.7927 10.2 7.22094 10.2 7.66748C10.2 9.35113 7.648 9.14117 7.648 11.8796H9.348C9.348 9.98399 11.9 9.77402 11.9 7.66748C11.9 6.77527 11.5425 5.91953 10.9059 5.28818C10.2694 4.65683 9.40587 4.30148 8.505 4.30017V4.30215Z" fill="#A85766"/>
</svg>
