<svg width="24" height="22" viewBox="0 0 24 22" fill="none" xmlns="http://www.w3.org/2000/svg">
<path d="M22.8111 10.8234L12.883 0.900617L12.2175 0.235159C12.0659 0.0845357 11.8608 0 11.6471 0C11.4334 0 11.2283 0.0845357 11.0767 0.235159L0.48315 10.8234C0.327782 10.9781 0.204993 11.1625 0.122029 11.3655C0.0390653 11.5685 -0.00239114 11.786 0.0001065 12.0053C0.010384 12.9097 0.763212 13.6317 1.66763 13.6317H2.75962V22H20.5346V13.6317H21.6497C22.0891 13.6317 22.5027 13.4595 22.8136 13.1486C22.9667 12.9961 23.088 12.8146 23.1705 12.6148C23.2529 12.415 23.295 12.2009 23.2941 11.9847C23.2941 11.5479 23.122 11.1343 22.8111 10.8234ZM13.086 20.1501H10.2083V14.9086H13.086V20.1501ZM18.6846 11.7818V20.1501H14.7304V14.292C14.7304 13.7242 14.2704 13.2643 13.7026 13.2643H9.5916C9.02377 13.2643 8.56385 13.7242 8.56385 14.292V20.1501H4.60957V11.7818H2.14297L11.6497 2.28292L12.2432 2.87644L21.1538 11.7818H18.6846Z" fill="white"/>
</svg>
