<svg width="18" height="18" viewBox="0 0 18 18" fill="none" xmlns="http://www.w3.org/2000/svg">
<path d="M10.44 8.01C10.53 8.1 10.62 8.1 10.8 8.1H17.1C17.64 8.1 18 7.74 18 7.2C18 7.02 18 6.93 17.91 6.84L14.76 0.54C14.49 0.0899999 13.95 -0.09 13.5 0.18C13.41 0.27 13.23 0.36 13.14 0.54L9.99 6.84C9.81 7.2 9.99 7.74 10.44 8.01ZM13.95 2.88L15.66 6.3H12.24L13.95 2.88ZM4.05 0C1.8 0 4.69387e-08 1.8 4.69387e-08 4.05C4.69387e-08 6.3 1.8 8.1 4.05 8.1C6.3 8.1 8.1 6.3 8.1 4.05C8.1 1.8 6.3 0 4.05 0ZM4.05 6.3C2.79 6.3 1.8 5.31 1.8 4.05C1.8 2.79 2.79 1.8 4.05 1.8C5.31 1.8 6.3 2.79 6.3 4.05C6.3 5.31 5.31 6.3 4.05 6.3ZM7.83 10.17C7.47 9.81 6.93 9.81 6.57 10.17L4.05 12.69L1.53 10.17C1.17 9.81 0.63 9.81 0.27 10.17C-0.09 10.53 -0.09 11.07 0.27 11.43L2.79 13.95L0.27 16.47C-0.09 16.83 -0.09 17.37 0.27 17.73C0.63 18.09 1.17 18.09 1.53 17.73L4.05 15.21L6.57 17.73C6.93 18.09 7.47 18.09 7.83 17.73C8.19 17.37 8.19 16.83 7.83 16.47L5.31 13.95L7.83 11.43C8.19 11.07 8.19 10.53 7.83 10.17ZM17.1 9.9H10.8C10.26 9.9 9.9 10.26 9.9 10.8V17.1C9.9 17.64 10.26 18 10.8 18H17.1C17.64 18 18 17.64 18 17.1V10.8C18 10.26 17.64 9.9 17.1 9.9ZM16.2 16.2H11.7V11.7H16.2V16.2Z" fill="white"/>
</svg>
