<svg width="360" height="618" viewBox="0 0 360 618" fill="none" xmlns="http://www.w3.org/2000/svg">
<mask id="mask0_1679_1719" style="mask-type:alpha" maskUnits="userSpaceOnUse" x="0" y="0" width="360" height="618">
<path d="M0 0H360V618H0V0Z" fill="#9B9B9B"/>
</mask>
<g mask="url(#mask0_1679_1719)">
<path opacity="0.81" d="M513.603 839.983C611.1 745.914 611.1 593.397 513.603 499.328C416.106 405.258 258.032 405.258 160.534 499.328C63.0372 593.397 63.0371 745.914 160.534 839.983C258.032 934.053 416.106 934.053 513.603 839.983Z" stroke="#F3C1BF" stroke-opacity="0.45" stroke-linecap="round" stroke-linejoin="round"/>
<path opacity="0.81" d="M336.96 901.193C469.554 901.193 577.044 797.483 577.044 669.55C577.044 541.617 469.554 437.906 336.96 437.906C204.365 437.906 96.8755 541.617 96.8755 669.55C96.8755 797.483 204.365 901.193 336.96 901.193Z" stroke="#F3C1BF" stroke-opacity="0.45" stroke-linecap="round" stroke-linejoin="round"/>
<path opacity="0.81" d="M500.121 826.972C590.171 740.088 590.171 599.22 500.121 512.336C410.07 425.451 264.07 425.451 174.019 512.336C83.9686 599.22 83.9686 740.088 174.019 826.972C264.07 913.857 410.07 913.857 500.121 826.972Z" stroke="#F3C1BF" stroke-opacity="0.45" stroke-linecap="round" stroke-linejoin="round"/>
<path opacity="0.81" d="M336.959 882.178C458.669 882.178 557.335 786.981 557.335 669.55C557.335 552.119 458.669 456.922 336.959 456.922C215.249 456.922 116.583 552.119 116.583 669.55C116.583 786.981 215.249 882.178 336.959 882.178Z" stroke="#F3C1BF" stroke-opacity="0.45" stroke-linecap="round" stroke-linejoin="round"/>
<path opacity="0.81" d="M336.959 873.535C453.722 873.535 548.377 782.208 548.377 669.55C548.377 556.893 453.722 465.566 336.959 465.566C220.197 465.566 125.542 556.893 125.542 669.55C125.542 782.208 220.197 873.535 336.959 873.535Z" stroke="#F3C1BF" stroke-opacity="0.45" stroke-linecap="round" stroke-linejoin="round"/>
<path opacity="0.81" d="M336.959 864.891C448.774 864.891 539.418 777.434 539.418 669.55C539.418 561.666 448.774 474.209 336.959 474.209C225.144 474.209 134.5 561.666 134.5 669.55C134.5 777.434 225.144 864.891 336.959 864.891Z" stroke="#F3C1BF" stroke-opacity="0.45" stroke-linecap="round" stroke-linejoin="round"/>
<path opacity="0.81" d="M336.959 854.519C442.837 854.519 528.668 771.705 528.668 669.55C528.668 567.394 442.837 484.581 336.959 484.581C231.081 484.581 145.25 567.394 145.25 669.55C145.25 771.705 231.081 854.519 336.959 854.519Z" stroke="#F3C1BF" stroke-opacity="0.45" stroke-linecap="round" stroke-linejoin="round"/>
<path opacity="0.81" d="M336.96 845.875C437.89 845.875 519.71 766.932 519.71 669.55C519.71 572.168 437.89 493.224 336.96 493.224C236.029 493.224 154.209 572.168 154.209 669.55C154.209 766.932 236.029 845.875 336.96 845.875Z" stroke="#F3C1BF" stroke-opacity="0.45" stroke-linecap="round" stroke-linejoin="round"/>
<path opacity="0.81" d="M336.959 837.232C432.942 837.232 510.751 762.158 510.751 669.55C510.751 576.942 432.942 501.868 336.959 501.868C240.976 501.868 163.167 576.942 163.167 669.55C163.167 762.158 240.976 837.232 336.959 837.232Z" stroke="#F3C1BF" stroke-opacity="0.45" stroke-linecap="round" stroke-linejoin="round"/>
<path opacity="0.81" d="M337.855 828.588C428.396 828.588 501.793 757.771 501.793 670.414C501.793 583.057 428.396 512.24 337.855 512.24C247.315 512.24 173.917 583.057 173.917 670.414C173.917 757.771 247.315 828.588 337.855 828.588Z" stroke="#F3C1BF" stroke-opacity="0.45" stroke-linecap="round" stroke-linejoin="round"/>
<path opacity="0.81" d="M336.959 818.217C422.057 818.217 491.043 751.656 491.043 669.55C491.043 587.444 422.057 520.883 336.959 520.883C251.861 520.883 182.875 587.444 182.875 669.55C182.875 751.656 251.861 818.217 336.959 818.217Z" stroke="#F3C1BF" stroke-opacity="0.45" stroke-linecap="round" stroke-linejoin="round"/>
<path opacity="0.81" d="M336.959 809.573C417.11 809.573 482.085 746.883 482.085 669.55C482.085 592.217 417.11 529.527 336.959 529.527C256.809 529.527 191.834 592.217 191.834 669.55C191.834 746.883 256.809 809.573 336.959 809.573Z" stroke="#F3C1BF" stroke-opacity="0.45" stroke-linecap="round" stroke-linejoin="round"/>
<path opacity="0.81" d="M341.939 800.121C416.58 797.556 474.933 737.096 472.274 665.079C469.615 593.062 406.952 536.761 332.311 539.326C257.67 541.892 199.317 602.352 201.976 674.369C204.635 746.385 267.298 802.687 341.939 800.121Z" stroke="#F3C1BF" stroke-opacity="0.45" stroke-linecap="round" stroke-linejoin="round"/>
<path opacity="0.81" d="M336.96 790.558C406.225 790.558 462.377 736.381 462.377 669.55C462.377 602.719 406.225 548.542 336.96 548.542C267.694 548.542 211.542 602.719 211.542 669.55C211.542 736.381 267.694 790.558 336.96 790.558Z" stroke="#F3C1BF" stroke-opacity="0.45" stroke-linecap="round" stroke-linejoin="round"/>
<path opacity="0.81" d="M341.259 781.735C405.375 779.532 455.499 727.597 453.215 665.735C450.931 603.874 397.104 555.511 332.988 557.715C268.873 559.918 218.748 611.854 221.032 673.715C223.316 735.577 277.143 783.939 341.259 781.735Z" stroke="#F3C1BF" stroke-opacity="0.45" stroke-linecap="round" stroke-linejoin="round"/>
<path opacity="0.81" d="M337.855 773.271C396.731 773.271 444.459 727.22 444.459 670.414C444.459 613.608 396.731 567.558 337.855 567.558C278.979 567.558 231.25 613.608 231.25 670.414C231.25 727.22 278.979 773.271 337.855 773.271Z" stroke="#F3C1BF" stroke-opacity="0.45" stroke-linecap="round" stroke-linejoin="round"/>
<path opacity="0.81" d="M340.58 763.331C394.161 761.49 436.051 718.088 434.142 666.39C432.233 614.693 387.25 574.276 333.668 576.118C280.087 577.959 238.198 621.361 240.106 673.059C242.015 724.757 286.999 765.173 340.58 763.331Z" stroke="#F3C1BF" stroke-opacity="0.45" stroke-linecap="round" stroke-linejoin="round"/>
<path opacity="0.81" d="M336.959 754.255C385.446 754.255 424.751 716.332 424.751 669.55C424.751 622.769 385.446 584.845 336.959 584.845C288.473 584.845 249.167 622.769 249.167 669.55C249.167 716.332 288.473 754.255 336.959 754.255Z" stroke="#F3C1BF" stroke-opacity="0.45" stroke-linecap="round" stroke-linejoin="round"/>
<path opacity="0.81" d="M339.904 744.944C382.96 743.464 416.621 708.587 415.087 667.045C413.553 625.502 377.406 593.025 334.35 594.505C291.293 595.984 257.632 630.861 259.166 672.404C260.7 713.946 296.847 746.424 339.904 744.944Z" stroke="#F3C1BF" stroke-opacity="0.45" stroke-linecap="round" stroke-linejoin="round"/>
<path opacity="0.81" d="M336.96 735.24C374.561 735.24 405.043 705.83 405.043 669.55C405.043 633.271 374.561 603.86 336.96 603.86C299.358 603.86 268.876 633.271 268.876 669.55C268.876 705.83 299.358 735.24 336.96 735.24Z" stroke="#F3C1BF" stroke-opacity="0.45" stroke-linecap="round" stroke-linejoin="round"/>
<path opacity="0.81" d="M339.219 726.556C371.75 725.438 397.183 699.087 396.024 667.7C394.865 636.312 367.554 611.774 335.023 612.892C302.491 614.01 277.059 640.361 278.218 671.749C279.377 703.136 306.688 727.674 339.219 726.556Z" stroke="#F3C1BF" stroke-opacity="0.45" stroke-linecap="round" stroke-linejoin="round"/>
<path opacity="0.81" d="M188.313 191.703C284.099 99.2839 284.099 -50.5573 188.312 -142.977C92.5256 -235.396 -62.7756 -235.396 -158.562 -142.977C-254.349 -50.5573 -254.349 99.2839 -158.563 191.703C-62.7756 284.122 92.5256 284.122 188.313 191.703Z" stroke="#F3C1BF" stroke-opacity="0.45" stroke-linecap="round" stroke-linejoin="round"/>
<path opacity="0.81" d="M14.8842 251.963C145.171 251.963 250.789 150.058 250.789 24.3517C250.789 -101.354 145.171 -203.259 14.8842 -203.259C-115.402 -203.259 -221.021 -101.354 -221.021 24.3517C-221.021 150.058 -115.402 251.963 14.8842 251.963Z" stroke="#F3C1BF" stroke-opacity="0.45" stroke-linecap="round" stroke-linejoin="round"/>
<path opacity="0.81" d="M175.067 178.921C263.537 93.5602 263.537 -44.8362 175.067 -130.197C86.5959 -215.557 -56.8436 -215.557 -145.314 -130.197C-233.785 -44.8362 -233.785 93.5603 -145.314 178.921C-56.8437 264.281 86.5958 264.281 175.067 178.921Z" stroke="#F3C1BF" stroke-opacity="0.45" stroke-linecap="round" stroke-linejoin="round"/>
<path opacity="0.81" d="M14.8839 233.888C134.824 233.888 232.054 140.076 232.054 24.3527C232.054 -91.3703 134.824 -185.182 14.8839 -185.182C-105.056 -185.182 -202.287 -91.3703 -202.287 24.3527C-202.287 140.076 -105.056 233.888 14.8839 233.888Z" stroke="#F3C1BF" stroke-opacity="0.45" stroke-linecap="round" stroke-linejoin="round"/>
<path opacity="0.81" d="M14.8823 224.857C129.653 224.857 222.694 135.088 222.694 24.3516C222.694 -86.3844 129.653 -176.154 14.8823 -176.154C-99.8888 -176.154 -192.929 -86.3844 -192.929 24.3516C-192.929 135.088 -99.8888 224.857 14.8823 224.857Z" stroke="#F3C1BF" stroke-opacity="0.45" stroke-linecap="round" stroke-linejoin="round"/>
<path opacity="0.81" d="M14.8839 215.813C124.477 215.813 213.32 130.094 213.32 24.3538C213.32 -81.3864 124.477 -167.106 14.8839 -167.106C-94.7093 -167.106 -183.552 -81.3864 -183.552 24.3538C-183.552 130.094 -94.7093 215.813 14.8839 215.813Z" stroke="#F3C1BF" stroke-opacity="0.45" stroke-linecap="round" stroke-linejoin="round"/>
<path opacity="0.81" d="M14.884 206.767C119.299 206.767 203.945 125.097 203.945 24.3527C203.945 -76.3917 119.299 -158.061 14.884 -158.061C-89.5314 -158.061 -174.177 -76.3917 -174.177 24.3527C-174.177 125.097 -89.5314 206.767 14.884 206.767Z" stroke="#F3C1BF" stroke-opacity="0.45" stroke-linecap="round" stroke-linejoin="round"/>
<path opacity="0.81" d="M14.8835 197.735C114.13 197.735 194.585 120.109 194.585 24.3515C194.585 -71.4058 114.13 -149.032 14.8835 -149.032C-84.3631 -149.032 -164.818 -71.4058 -164.818 24.3515C-164.818 120.109 -84.3631 197.735 14.8835 197.735Z" stroke="#F3C1BF" stroke-opacity="0.45" stroke-linecap="round" stroke-linejoin="round"/>
<path opacity="0.81" d="M14.8818 188.69C108.951 188.69 185.208 115.113 185.208 24.3518C185.208 -66.4097 108.951 -139.986 14.8818 -139.986C-79.187 -139.986 -155.445 -66.4097 -155.445 24.3518C-155.445 115.113 -79.187 188.69 14.8818 188.69Z" stroke="#F3C1BF" stroke-opacity="0.45" stroke-linecap="round" stroke-linejoin="round"/>
<path opacity="0.81" d="M14.8831 179.661C103.783 179.661 175.851 110.127 175.851 24.3526C175.851 -61.4219 103.783 -130.956 14.8831 -130.956C-74.0168 -130.956 -146.084 -61.4219 -146.084 24.3526C-146.084 110.127 -74.0168 179.661 14.8831 179.661Z" stroke="#F3C1BF" stroke-opacity="0.45" stroke-linecap="round" stroke-linejoin="round"/>
<path opacity="0.81" d="M14.8862 170.614C98.6083 170.614 166.478 105.13 166.478 24.3513C166.478 -56.4273 98.6083 -121.911 14.8862 -121.911C-68.8359 -121.911 -136.706 -56.4273 -136.706 24.3513C-136.706 105.13 -68.8359 170.614 14.8862 170.614Z" stroke="#F3C1BF" stroke-opacity="0.45" stroke-linecap="round" stroke-linejoin="round"/>
<path opacity="0.81" d="M14.8825 161.569C93.4268 161.569 157.099 100.135 157.099 24.352C157.099 -51.4308 93.4268 -112.865 14.8825 -112.865C-63.6617 -112.865 -127.334 -51.4308 -127.334 24.352C-127.334 100.135 -63.6617 161.569 14.8825 161.569Z" stroke="#F3C1BF" stroke-opacity="0.45" stroke-linecap="round" stroke-linejoin="round"/>
<path opacity="0.81" d="M19.6601 152.541C92.9915 150.02 150.321 90.6205 147.709 19.8673C145.096 -50.8859 83.532 -106.2 10.2006 -103.679C-63.1308 -101.159 -120.46 -41.759 -117.848 28.9942C-115.236 99.7474 -53.6713 155.061 19.6601 152.541Z" stroke="#F3C1BF" stroke-opacity="0.45" stroke-linecap="round" stroke-linejoin="round"/>
<path opacity="0.81" d="M14.8841 143.493C83.0817 143.493 138.367 90.152 138.367 24.3521C138.367 -41.4478 83.0817 -94.7892 14.8841 -94.7892C-53.3135 -94.7892 -108.599 -41.4478 -108.599 24.3521C-108.599 90.152 -53.3135 143.493 14.8841 143.493Z" stroke="#F3C1BF" stroke-opacity="0.45" stroke-linecap="round" stroke-linejoin="round"/>
<path opacity="0.81" d="M18.9914 134.476C81.9823 132.312 131.228 81.2876 128.984 20.5112C126.74 -40.2651 73.8567 -87.7791 10.8658 -85.6141C-52.1252 -83.4492 -101.37 -32.4252 -99.1266 28.3512C-96.8828 89.1275 -43.9996 136.641 18.9914 134.476Z" stroke="#F3C1BF" stroke-opacity="0.45" stroke-linecap="round" stroke-linejoin="round"/>
<path opacity="0.81" d="M14.8827 125.417C72.7336 125.417 119.631 80.1687 119.631 24.3517C119.631 -31.4654 72.7336 -76.714 14.8827 -76.714C-42.9683 -76.714 -89.8657 -31.4654 -89.8657 24.3517C-89.8657 80.1687 -42.9683 125.417 14.8827 125.417Z" stroke="#F3C1BF" stroke-opacity="0.45" stroke-linecap="round" stroke-linejoin="round"/>
<path opacity="0.81" d="M18.3242 116.396C70.9657 114.587 112.12 71.946 110.245 21.1552C108.37 -29.6355 64.1751 -69.3428 11.5337 -67.5336C-41.1078 -65.7244 -82.2621 -23.0837 -80.3869 27.707C-78.5118 78.4978 -34.3172 118.205 18.3242 116.396Z" stroke="#F3C1BF" stroke-opacity="0.45" stroke-linecap="round" stroke-linejoin="round"/>
<path opacity="0.81" d="M14.8852 107.343C62.3895 107.343 100.899 70.1868 100.899 24.3527C100.899 -21.4814 62.3895 -58.6373 14.8852 -58.6373C-32.6191 -58.6373 -71.1289 -21.4814 -71.1289 24.3527C-71.1289 70.1868 -32.6191 107.343 14.8852 107.343Z" stroke="#F3C1BF" stroke-opacity="0.45" stroke-linecap="round" stroke-linejoin="round"/>
<path opacity="0.81" d="M17.6603 98.3306C59.9614 96.8767 93.0315 62.612 91.5247 21.7982C90.0179 -19.0156 54.5047 -50.9232 12.2037 -49.4693C-30.0974 -48.0155 -63.1676 -13.7508 -61.6608 27.063C-60.154 67.8768 -24.6407 99.7844 17.6603 98.3306Z" stroke="#F3C1BF" stroke-opacity="0.45" stroke-linecap="round" stroke-linejoin="round"/>
<path opacity="0.81" d="M14.8823 89.2663C52.0399 89.2663 82.1621 60.2031 82.1621 24.3519C82.1621 -11.4993 52.0399 -40.5625 14.8823 -40.5625C-22.2753 -40.5625 -52.3975 -11.4993 -52.3975 24.3519C-52.3975 60.2031 -22.2753 89.2663 14.8823 89.2663Z" stroke="#F3C1BF" stroke-opacity="0.45" stroke-linecap="round" stroke-linejoin="round"/>
<path opacity="0.81" d="M16.9877 80.2659C48.9482 79.1674 73.9344 53.2787 72.7959 22.4418C71.6574 -8.39512 44.8254 -32.5029 12.8649 -31.4045C-19.0957 -30.306 -44.082 -4.41728 -42.9435 26.4196C-41.805 57.2565 -14.9729 81.3643 16.9877 80.2659Z" stroke="#F3C1BF" stroke-opacity="0.45" stroke-linecap="round" stroke-linejoin="round"/>
<path opacity="0.81" d="M14.8808 71.1744C41.6827 71.1744 63.4099 50.211 63.4099 24.3514C63.4099 -1.50819 41.6827 -22.4716 14.8808 -22.4716C-11.9211 -22.4716 -33.6484 -1.50819 -33.6484 24.3514C-33.6484 50.211 -11.9211 71.1744 14.8808 71.1744Z" stroke="#F3C1BF" stroke-opacity="0.45" stroke-linecap="round" stroke-linejoin="round"/>
</g>
</svg>
