<svg width="83" height="164" viewBox="0 0 83 164" fill="none" xmlns="http://www.w3.org/2000/svg">
<g opacity="0.5">
<path opacity="0.5" d="M71.78 5.55199C73.2593 5.55199 74.4586 4.51485 74.4586 3.23547C74.4586 1.95609 73.2593 0.918945 71.78 0.918945C70.3007 0.918945 69.1016 1.95609 69.1016 3.23547C69.1016 4.51485 70.3007 5.55199 71.78 5.55199Z" fill="#E1D8EA"/>
<path opacity="0.5" d="M71.78 28.1154C73.2593 28.1154 74.4586 27.0783 74.4586 25.7989C74.4586 24.5195 73.2593 23.4824 71.78 23.4824C70.3007 23.4824 69.1016 24.5195 69.1016 25.7989C69.1016 27.0783 70.3007 28.1154 71.78 28.1154Z" fill="#E1D8EA"/>
<path opacity="0.5" d="M71.78 50.6788C73.2593 50.6788 74.4586 49.6417 74.4586 48.3623C74.4586 47.0829 73.2593 46.0458 71.78 46.0458C70.3007 46.0458 69.1016 47.0829 69.1016 48.3623C69.1016 49.6417 70.3007 50.6788 71.78 50.6788Z" fill="#E1D8EA"/>
<path opacity="0.5" d="M71.78 73.2423C73.2593 73.2423 74.4586 72.2052 74.4586 70.9258C74.4586 69.6464 73.2593 68.6093 71.78 68.6093C70.3007 68.6093 69.1016 69.6464 69.1016 70.9258C69.1016 72.2052 70.3007 73.2423 71.78 73.2423Z" fill="#E1D8EA"/>
<path opacity="0.5" d="M71.78 95.8057C73.2593 95.8057 74.4586 94.7685 74.4586 93.4892C74.4586 92.2098 73.2593 91.1726 71.78 91.1726C70.3007 91.1726 69.1016 92.2098 69.1016 93.4892C69.1016 94.7685 70.3007 95.8057 71.78 95.8057Z" fill="#E1D8EA"/>
<path opacity="0.5" d="M71.78 118.369C73.2593 118.369 74.4586 117.332 74.4586 116.053C74.4586 114.773 73.2593 113.736 71.78 113.736C70.3007 113.736 69.1016 114.773 69.1016 116.053C69.1016 117.332 70.3007 118.369 71.78 118.369Z" fill="#E1D8EA"/>
<path opacity="0.5" d="M71.78 140.933C73.2593 140.933 74.4586 139.895 74.4586 138.616C74.4586 137.337 73.2593 136.3 71.78 136.3C70.3007 136.3 69.1016 137.337 69.1016 138.616C69.1016 139.895 70.3007 140.933 71.78 140.933Z" fill="#E1D8EA"/>
<path opacity="0.5" d="M71.78 163.496C70.3053 163.496 69.1016 162.455 69.1016 161.18C69.1016 159.904 70.3053 158.863 71.78 158.863C73.2547 158.863 74.4586 159.904 74.4586 161.18C74.4586 162.468 73.2547 163.496 71.78 163.496Z" fill="#E1D8EA"/>
<path opacity="0.5" d="M48.74 5.55199C50.2193 5.55199 51.4185 4.51485 51.4185 3.23547C51.4185 1.95609 50.2193 0.918945 48.74 0.918945C47.2607 0.918945 46.0615 1.95609 46.0615 3.23547C46.0615 4.51485 47.2607 5.55199 48.74 5.55199Z" fill="#E1D8EA"/>
<path opacity="0.5" d="M48.74 28.1154C50.2193 28.1154 51.4185 27.0783 51.4185 25.7989C51.4185 24.5195 50.2193 23.4824 48.74 23.4824C47.2607 23.4824 46.0615 24.5195 46.0615 25.7989C46.0615 27.0783 47.2607 28.1154 48.74 28.1154Z" fill="#E1D8EA"/>
<path opacity="0.5" d="M48.74 50.6788C50.2193 50.6788 51.4185 49.6417 51.4185 48.3623C51.4185 47.0829 50.2193 46.0458 48.74 46.0458C47.2607 46.0458 46.0615 47.0829 46.0615 48.3623C46.0615 49.6417 47.2607 50.6788 48.74 50.6788Z" fill="#E1D8EA"/>
<path opacity="0.5" d="M48.74 73.2423C50.2193 73.2423 51.4185 72.2052 51.4185 70.9258C51.4185 69.6464 50.2193 68.6093 48.74 68.6093C47.2607 68.6093 46.0615 69.6464 46.0615 70.9258C46.0615 72.2052 47.2607 73.2423 48.74 73.2423Z" fill="#E1D8EA"/>
<path opacity="0.5" d="M48.74 95.8057C50.2193 95.8057 51.4185 94.7685 51.4185 93.4892C51.4185 92.2098 50.2193 91.1726 48.74 91.1726C47.2607 91.1726 46.0615 92.2098 46.0615 93.4892C46.0615 94.7685 47.2607 95.8057 48.74 95.8057Z" fill="#E1D8EA"/>
<path opacity="0.5" d="M48.74 118.369C50.2193 118.369 51.4185 117.332 51.4185 116.053C51.4185 114.773 50.2193 113.736 48.74 113.736C47.2607 113.736 46.0615 114.773 46.0615 116.053C46.0615 117.332 47.2607 118.369 48.74 118.369Z" fill="#E1D8EA"/>
<path opacity="0.5" d="M48.74 140.933C50.2193 140.933 51.4185 139.895 51.4185 138.616C51.4185 137.337 50.2193 136.3 48.74 136.3C47.2607 136.3 46.0615 137.337 46.0615 138.616C46.0615 139.895 47.2607 140.933 48.74 140.933Z" fill="#E1D8EA"/>
<path opacity="0.5" d="M48.74 163.496C47.2653 163.496 46.0615 162.455 46.0615 161.18C46.0615 159.904 47.2653 158.863 48.74 158.863C50.2147 158.863 51.4185 159.904 51.4185 161.18C51.4185 162.468 50.2297 163.496 48.74 163.496Z" fill="#E1D8EA"/>
<path opacity="0.5" d="M25.7186 5.55199C27.1979 5.55199 28.397 4.51485 28.397 3.23547C28.397 1.95609 27.1979 0.918945 25.7186 0.918945C24.2393 0.918945 23.04 1.95609 23.04 3.23547C23.04 4.51485 24.2393 5.55199 25.7186 5.55199Z" fill="#E1D8EA"/>
<path opacity="0.5" d="M25.7186 28.1154C27.1979 28.1154 28.397 27.0783 28.397 25.7989C28.397 24.5195 27.1979 23.4824 25.7186 23.4824C24.2393 23.4824 23.04 24.5195 23.04 25.7989C23.04 27.0783 24.2393 28.1154 25.7186 28.1154Z" fill="#E1D8EA"/>
<path opacity="0.5" d="M25.7186 50.6788C27.1979 50.6788 28.397 49.6417 28.397 48.3623C28.397 47.0829 27.1979 46.0458 25.7186 46.0458C24.2393 46.0458 23.04 47.0829 23.04 48.3623C23.04 49.6417 24.2393 50.6788 25.7186 50.6788Z" fill="#E1D8EA"/>
<path opacity="0.5" d="M25.7186 73.2423C27.1979 73.2423 28.397 72.2052 28.397 70.9258C28.397 69.6464 27.1979 68.6093 25.7186 68.6093C24.2393 68.6093 23.04 69.6464 23.04 70.9258C23.04 72.2052 24.2393 73.2423 25.7186 73.2423Z" fill="#E1D8EA"/>
<path opacity="0.5" d="M25.7186 95.8057C27.1979 95.8057 28.397 94.7685 28.397 93.4892C28.397 92.2098 27.1979 91.1726 25.7186 91.1726C24.2393 91.1726 23.04 92.2098 23.04 93.4892C23.04 94.7685 24.2393 95.8057 25.7186 95.8057Z" fill="#E1D8EA"/>
<path opacity="0.5" d="M25.7186 118.369C27.1979 118.369 28.397 117.332 28.397 116.053C28.397 114.773 27.1979 113.736 25.7186 113.736C24.2393 113.736 23.04 114.773 23.04 116.053C23.04 117.332 24.2393 118.369 25.7186 118.369Z" fill="#E1D8EA"/>
<path opacity="0.5" d="M25.7186 140.933C27.1979 140.933 28.397 139.895 28.397 138.616C28.397 137.337 27.1979 136.3 25.7186 136.3C24.2393 136.3 23.04 137.337 23.04 138.616C23.04 139.895 24.2393 140.933 25.7186 140.933Z" fill="#E1D8EA"/>
<path opacity="0.5" d="M25.7186 163.496C24.2439 163.496 23.04 162.455 23.04 161.18C23.04 159.904 24.2439 158.863 25.7186 158.863C27.1933 158.863 28.397 159.904 28.397 161.18C28.397 162.468 27.1933 163.496 25.7186 163.496Z" fill="#E1D8EA"/>
<path opacity="0.5" d="M2.67903 5.55199C4.15833 5.55199 5.35748 4.51485 5.35748 3.23547C5.35748 1.95609 4.15833 0.918945 2.67903 0.918945C1.19974 0.918945 0.000488281 1.95609 0.000488281 3.23547C0.000488281 4.51485 1.19974 5.55199 2.67903 5.55199Z" fill="#E1D8EA"/>
<path opacity="0.5" d="M2.67854 28.1154C4.15784 28.1154 5.35699 27.0783 5.35699 25.7989C5.35699 24.5195 4.15784 23.4824 2.67854 23.4824C1.19925 23.4824 0 24.5195 0 25.7989C0 27.0783 1.19925 28.1154 2.67854 28.1154Z" fill="#E1D8EA"/>
<path opacity="0.5" d="M2.67854 50.6788C4.15784 50.6788 5.35699 49.6417 5.35699 48.3623C5.35699 47.0829 4.15784 46.0458 2.67854 46.0458C1.19925 46.0458 0 47.0829 0 48.3623C0 49.6417 1.19925 50.6788 2.67854 50.6788Z" fill="#E1D8EA"/>
<path opacity="0.5" d="M2.67854 73.2423C4.15784 73.2423 5.35699 72.2052 5.35699 70.9258C5.35699 69.6464 4.15784 68.6093 2.67854 68.6093C1.19925 68.6093 0 69.6464 0 70.9258C0 72.2052 1.19925 73.2423 2.67854 73.2423Z" fill="#E1D8EA"/>
<path opacity="0.5" d="M2.67854 95.8057C4.15784 95.8057 5.35699 94.7685 5.35699 93.4892C5.35699 92.2098 4.15784 91.1726 2.67854 91.1726C1.19925 91.1726 0 92.2098 0 93.4892C0 94.7685 1.19925 95.8057 2.67854 95.8057Z" fill="#E1D8EA"/>
<path opacity="0.5" d="M2.67854 118.369C4.15784 118.369 5.35699 117.332 5.35699 116.053C5.35699 114.773 4.15784 113.736 2.67854 113.736C1.19925 113.736 0 114.773 0 116.053C0 117.332 1.19925 118.369 2.67854 118.369Z" fill="#E1D8EA"/>
<path opacity="0.5" d="M2.67854 140.933C4.15784 140.933 5.35699 139.895 5.35699 138.616C5.35699 137.337 4.15784 136.3 2.67854 136.3C1.19925 136.3 0 137.337 0 138.616C0 139.895 1.19925 140.933 2.67854 140.933Z" fill="#E1D8EA"/>
<path opacity="0.5" d="M2.67854 163.496C1.20386 163.496 0 162.455 0 161.18C0 159.904 1.20386 158.863 2.67854 158.863C4.15322 158.863 5.35699 159.904 5.35699 161.18C5.35699 162.468 4.15322 163.496 2.67854 163.496Z" fill="#E1D8EA"/>
</g>
</svg>
