<svg width="14" height="17" viewBox="0 0 14 17" fill="none" xmlns="http://www.w3.org/2000/svg">
<path d="M6.7943 8.32885e-09C5.00405 -8.76493e-05 3.28611 0.691747 2.01387 1.92514C0.741624 3.15853 0.0179025 4.83379 0 6.58681C0 11.1444 5.98748 16.2175 6.24227 16.4338C6.3961 16.5626 6.59187 16.6334 6.7943 16.6334C6.99673 16.6334 7.19251 16.5626 7.34634 16.4338C7.64359 16.2175 13.5886 11.1444 13.5886 6.58681C13.5707 4.83379 12.847 3.15853 11.5747 1.92514C10.3025 0.691747 8.58456 -8.76493e-05 6.7943 8.32885e-09ZM6.7943 14.6789C5.37599 13.3566 1.69858 9.68893 1.69858 6.58681C1.69858 5.26338 2.23545 3.99415 3.19108 3.05834C4.14671 2.12253 5.44283 1.5968 6.7943 1.5968C8.14577 1.5968 9.44189 2.12253 10.3975 3.05834C11.3532 3.99415 11.89 5.26338 11.89 6.58681C11.89 9.66398 8.21261 13.3566 6.7943 14.6789Z" fill="#A85766"/>
<path d="M6.79477 3.32666C6.20687 3.32666 5.63216 3.49738 5.14334 3.81723C4.65451 4.13707 4.27352 4.59169 4.04854 5.12357C3.82355 5.65546 3.76469 6.24074 3.87938 6.80539C3.99408 7.37004 4.27718 7.8887 4.69289 8.29579C5.10861 8.70288 5.63826 8.98011 6.21487 9.09242C6.79148 9.20474 7.38915 9.1471 7.9323 8.92678C8.47546 8.70647 8.9397 8.33337 9.26632 7.85469C9.59295 7.376 9.76728 6.81322 9.76728 6.23751C9.76728 5.4655 9.45411 4.72512 8.89665 4.17923C8.3392 3.63334 7.58313 3.32666 6.79477 3.32666ZM6.79477 7.48501C6.54281 7.48501 6.29651 7.41185 6.08702 7.27477C5.87752 7.13769 5.71424 6.94286 5.61781 6.71491C5.52139 6.48696 5.49617 6.23612 5.54532 5.99413C5.59448 5.75214 5.71581 5.52985 5.89397 5.35539C6.07213 5.18092 6.29912 5.06211 6.54624 5.01397C6.79336 4.96584 7.04951 4.99054 7.28229 5.08496C7.51507 5.17938 7.71403 5.33928 7.85401 5.54443C7.99399 5.74958 8.06871 5.99077 8.06871 6.23751C8.06871 6.56837 7.93449 6.88568 7.69558 7.11963C7.45667 7.35358 7.13264 7.48501 6.79477 7.48501Z" fill="#A85766"/>
</svg>
