<svg width="109" height="80" viewBox="0 0 109 80" fill="none" xmlns="http://www.w3.org/2000/svg">
<path d="M61.3102 20.7466C62.8385 17.1442 63.4828 13.229 63.1895 9.32746L82.361 4.82845C83.2729 6.45759 84.4999 7.88911 85.9708 9.03964C87.4262 10.186 89.0958 11.0308 90.882 11.5245C92.6681 12.0183 94.5349 12.151 96.3732 11.9151L96.8722 11.8341C100.395 11.2687 103.566 9.3722 105.729 6.53664C107.992 3.56885 108.999 -0.167938 108.532 -3.86946C108.066 -7.57097 106.164 -10.9412 103.236 -13.2549C101.777 -14.398 100.105 -15.2398 98.3173 -15.7316C96.5296 -16.2233 94.6619 -16.3552 92.8226 -16.1194C90.9834 -15.8837 89.2093 -15.2851 87.6034 -14.3583C85.9975 -13.4316 84.5917 -12.1952 83.4679 -10.7211C81.568 -8.24952 80.5415 -5.21836 80.5491 -2.10198L61.5918 2.27454C60.1753 -1.36013 57.9078 -4.60243 54.9792 -7.18071C52.0506 -9.75899 48.5462 -11.5982 44.7597 -12.5442L46.385 -30.9417C49.8583 -31.5131 52.9859 -33.3791 55.1374 -36.1637C57.4367 -39.1308 58.4708 -42.8851 58.0146 -46.6097C57.5584 -50.3344 55.649 -53.728 52.7016 -56.0523C51.2453 -57.1966 49.5762 -58.0406 47.7909 -58.5353C46.0057 -59.03 44.1398 -59.1655 42.3016 -58.934C40.4634 -58.7025 38.6894 -58.1086 37.0825 -57.1867C35.4756 -56.2648 34.0677 -55.0332 32.9406 -53.5635C30.6653 -50.592 29.652 -46.845 30.1199 -43.1331C30.5878 -39.4212 32.4993 -36.0429 35.4408 -33.7292C36.598 -32.8247 37.8895 -32.1066 39.2687 -31.6008L37.5698 -13.2059C33.6791 -12.9687 29.9031 -11.796 26.5627 -9.78768C23.2223 -7.77931 20.4165 -4.99462 18.3836 -1.67035L3.53791 -8.21226C3.6497 -8.78611 3.73065 -9.36959 3.78078 -9.96268C4.19752 -14.5964 2.76588 -19.2066 -0.202452 -22.7897C-3.17078 -26.3729 -7.43546 -28.6388 -12.0681 -29.0941C-14.3488 -29.3096 -16.6498 -29.0711 -18.838 -28.3924C-21.0261 -27.7137 -23.058 -26.6082 -24.8161 -25.1398C-27.785 -22.6738 -29.8617 -19.3019 -30.7273 -15.5422C-31.5928 -11.7825 -31.1993 -7.843 -29.6071 -4.32902C-28.0149 -0.815041 -25.3122 2.07904 -21.9142 3.90857C-18.5162 5.73809 -14.611 6.40184 -10.7984 5.79784C-7.73286 5.29705 -4.85815 3.98221 -2.47494 1.99088C-1.24641 0.960202 -0.16488 -0.233754 0.739487 -1.55771L15.5521 4.96034C14.5829 8.75342 14.5331 12.7226 15.4065 16.5385C16.28 20.3543 18.0516 23.9068 20.5743 26.9009L8.41367 40.7921C5.49387 39.2459 2.12027 38.7833 -1.10873 39.4864C-4.33773 40.1895 -7.21341 42.0129 -9.22568 44.6331C-11.515 47.6154 -12.5313 51.3815 -12.0527 55.1094C-11.5741 58.8373 -9.63955 62.2244 -6.67116 64.5316C-5.21573 65.678 -3.5461 66.5228 -1.75994 67.0165C0.0262084 67.5102 1.89302 67.643 3.73127 67.407L4.2303 67.3261C7.75302 66.7607 10.9239 64.8642 13.0875 62.0286C14.8584 59.7114 15.8747 56.9067 15.9989 53.9938C16.1231 51.081 15.3493 48.2004 13.7821 45.7417L25.9624 31.701C29.2358 33.8103 32.9731 35.0933 36.8528 35.4397C40.7325 35.786 44.6385 35.1854 48.2349 33.6894L57.4512 49.0999C54.1804 52.0584 52.1508 56.1441 51.7701 60.5362C51.3534 65.1699 52.785 69.7801 55.7533 73.3632C58.7217 76.9464 62.9863 79.2123 67.6189 79.6677C69.9138 79.8762 72.2274 79.6292 74.4265 78.9408C76.6257 78.2524 78.667 77.1362 80.433 75.6563C82.199 74.1765 83.6549 72.3624 84.7167 70.3182C85.7786 68.2741 86.4256 66.0403 86.6204 63.7455C87.0221 59.1125 85.5771 54.5087 82.5996 50.9357C79.6222 47.3626 75.3533 45.1094 70.7215 44.6661C68.3251 44.4423 65.9082 44.7198 63.6248 45.4808L54.3895 30.0441C57.4133 27.5484 59.7878 24.3584 61.3102 20.7466ZM89.1997 -6.32761C90.249 -7.70257 91.7867 -8.62213 93.495 -8.89622L93.7374 -8.93553C94.6292 -9.04815 95.5344 -8.98191 96.4002 -8.74066C97.266 -8.49942 98.0749 -8.08802 98.7797 -7.53054C100.223 -6.39271 101.161 -4.73319 101.391 -2.91008C101.621 -1.08696 101.125 0.753596 100.009 2.21444C99.4655 2.92939 98.785 3.52916 98.0073 3.97883C97.2296 4.4285 96.3702 4.71909 95.4791 4.83368C94.588 4.94828 93.683 4.88461 92.8169 4.64635C91.9507 4.40808 91.1406 4.00001 90.4338 3.44587C88.9813 2.30804 88.0369 0.643203 87.8058 -1.18685C87.5747 -3.01691 88.0756 -4.86432 89.1997 -6.32761ZM38.6012 -49.1585C39.6474 -50.5295 41.1794 -51.4479 42.8822 -51.7248L43.1531 -51.7687C44.0449 -51.8814 44.9502 -51.8151 45.8159 -51.5739C46.6817 -51.3326 47.4906 -50.9212 48.1954 -50.3637C49.6389 -49.2259 50.5769 -47.5664 50.807 -45.7433C51.037 -43.9202 50.5406 -42.0796 49.4248 -40.6188C48.8791 -39.9053 48.1967 -39.3074 47.4176 -38.86C46.6385 -38.4125 45.7781 -38.1244 44.8865 -38.0125C43.995 -37.9005 43.0901 -37.967 42.2245 -38.2079C41.359 -38.4488 40.5501 -38.8594 39.8449 -39.4158C38.3998 -40.5515 37.4595 -42.2096 37.2268 -44.0322C36.9941 -45.8549 37.4878 -47.6961 38.6012 -49.1585ZM-7.10233 -3.53229C-8.12882 -2.67135 -9.31627 -2.02286 -10.5957 -1.62454C-11.875 -1.22622 -13.2208 -1.086 -14.5548 -1.21203C-17.2884 -1.48646 -19.8026 -2.82937 -21.5497 -4.94825C-23.2967 -7.06712 -24.135 -9.79027 -23.882 -12.5245C-23.7629 -13.8821 -23.3756 -15.2027 -22.7426 -16.4099C-22.1095 -17.6171 -21.2432 -18.6869 -20.1938 -19.5573C-19.1673 -20.4183 -17.9798 -21.0668 -16.7004 -21.4651C-15.4211 -21.8634 -14.0753 -22.0036 -12.7413 -21.8776C-10.0108 -21.6025 -7.49945 -20.2614 -5.75331 -18.1457C-4.00716 -16.0301 -3.16734 -13.3109 -3.41641 -10.5794C-3.53256 -9.21927 -3.91825 -7.89576 -4.55105 -6.68591C-5.18385 -5.47607 -6.0511 -4.40406 -7.10233 -3.53229ZM67.4525 51.938C68.3046 51.8021 69.1704 51.7747 70.0294 51.8564C72.7599 52.1315 75.2712 53.4726 77.0173 55.5883C78.7635 57.7039 79.6033 60.4231 79.3542 63.1546C79.239 64.5095 78.8562 65.8283 78.228 67.0346C77.5999 68.2409 76.7388 69.311 75.6945 70.1829C74.668 71.0438 73.4806 71.6923 72.2012 72.0906C70.9218 72.4889 69.576 72.6292 68.2421 72.5031C65.5094 72.2315 62.9949 70.8922 61.2458 68.7767C59.4967 66.6611 58.6547 63.9406 58.9029 61.2072C59.0169 59.8448 59.4014 58.5187 60.0339 57.3063C60.6663 56.0939 61.5341 55.0195 62.5865 54.1459C63.9849 52.984 65.6708 52.2205 67.4668 51.9357L67.4525 51.938ZM7.34875 57.5924C6.80297 58.3059 6.12065 58.9038 5.34151 59.3512C4.56237 59.7986 3.70198 60.0867 2.81043 60.1987C1.91888 60.3106 1.01399 60.2442 0.148442 60.0033C-0.717105 59.7624 -1.52602 59.3517 -2.23119 58.7953C-3.67477 57.6575 -4.61277 55.998 -4.84278 54.1749C-5.0728 52.3518 -4.57639 50.5112 -3.46067 49.0504C-2.41138 47.6754 -0.873654 46.7559 0.834615 46.4818L1.077 46.4425C1.96746 46.3282 2.87174 46.3923 3.73707 46.6311C4.60239 46.8699 5.41142 47.2785 6.11695 47.8332C7.56053 48.971 8.49853 50.6305 8.72855 52.4537C8.95856 54.2768 8.46215 56.1173 7.34644 57.5782L7.34875 57.5924ZM37.5305 28.2306C33.9368 27.8683 30.5482 26.3866 27.8433 23.9948C25.1385 21.603 23.2542 18.4221 22.4567 14.9016C21.6592 11.381 21.9888 7.69882 23.399 4.37523C24.8092 1.05163 27.2286 -1.7453 30.3154 -3.62037C33.3988 -5.46696 36.9923 -6.27936 40.5704 -5.9388C44.1484 -5.59825 47.5234 -4.12259 50.2018 -1.7276C52.9263 0.67842 54.8245 3.87995 55.6278 7.42392C56.4311 10.9679 56.0989 14.6748 54.6781 18.0201C53.2762 21.3221 50.8581 24.0921 47.7748 25.9281C44.6914 27.7641 41.1031 28.5706 37.5305 28.2306Z" fill="#FFE1DF" fill-opacity="0.55"/>
</svg>
