<svg width="152" height="143" viewBox="0 0 152 143" fill="none" xmlns="http://www.w3.org/2000/svg">
<path d="M3.51491 27.1V30.9381H0.0514327V27.1H3.51491ZM192.376 87.3745V91.2125H188.912V87.3745H192.376ZM176.608 87.3745V91.2125H173.145V87.3745H176.608ZM169.67 80.1287V83.9667H166.207V80.1287H169.67ZM176.597 80.1287V83.9667H173.134V80.1287H176.597ZM184.332 72.825V76.663H180.869V72.825H184.332ZM198.186 72.825V76.663H194.723V72.825H198.186ZM191.259 72.825V76.663H187.796V72.825H191.259ZM207.056 91.0769V94.9149H203.593V91.0769H207.056ZM213.983 91.0769V94.9149H210.52V91.0769H213.983ZM217.183 134.328V130.49H220.646V134.328H217.183ZM217.234 127.109V123.271H220.697V127.109H217.234ZM210.307 127.109V123.271H213.77V127.109H210.307ZM227.254 118.891V115.053H230.718V118.891H227.254ZM192.619 118.891V115.053H196.083V118.891H192.619ZM199.546 118.891V115.053H203.01V118.891H199.546ZM206.473 118.891V115.053H209.937V118.891H206.473ZM213.4 118.891V115.053H216.864V118.891H213.4ZM220.327 118.891V115.053H223.791V118.891H220.327ZM220.267 111.797V107.959H223.73V111.797H220.267ZM194.842 111.797H196.022V107.959H194.842V111.797ZM199.486 111.797V107.959H202.949V111.797H199.486ZM206.413 111.797V107.959H209.876V111.797H206.413ZM213.34 111.797V107.959H216.803V111.797H213.34ZM217.452 104.388V100.55H220.915V104.388H217.452ZM189.744 104.388V100.55H193.207V104.388H189.744ZM196.671 104.388V100.55H200.134V104.388H196.671ZM203.598 104.388V100.55H207.061V104.388H203.598ZM210.525 104.388V100.55H213.988V104.388H210.525ZM139.722 115.764V119.602H136.258V115.764H139.722ZM129.326 108.656V112.494H125.863V108.656H129.326ZM136.253 108.656V112.494H132.79V108.656H136.253ZM129.164 101.485V105.323H125.701V101.485H129.164ZM148.535 101.485H146.482V105.323H148.535V101.485ZM143.018 101.485V105.323H139.555V101.485H143.018ZM136.091 101.485V105.323H132.628V101.485H136.091ZM129.164 95.0114V98.8494H125.701V95.0114H129.164ZM143.018 95.0114V98.8494H139.555V95.0114H143.018ZM136.091 95.0114V98.8494H132.628V95.0114H136.091ZM122.159 87.9029V91.7409H118.695V87.9029H122.159ZM149.867 87.9029V91.7409H146.403V87.9029H149.867ZM142.94 87.9029V91.7409H139.476V87.9029H142.94ZM136.013 87.9029V91.7409H132.549V87.9029H136.013ZM129.086 87.9029V91.7409H125.622V87.9029H129.086ZM115.289 80.4137V84.2517H111.826V80.4137H115.289ZM156.556 80.4137H153.387V84.2517H156.556V80.4137ZM149.924 80.4137V84.2517H146.461V80.4137H149.924ZM142.997 80.4137V84.2517H139.534V80.4137H142.997ZM136.07 80.4137V84.2517H132.607V80.4137H136.07ZM129.143 80.4137V84.2517H125.68V80.4137H129.143ZM122.216 80.4137V84.2517H118.753V80.4137H122.216ZM115.289 72.6072V76.4453H111.826V72.6072H115.289ZM156.556 72.6072H153.387V76.4453H156.556V72.6072ZM149.924 72.6072V76.4453H146.461V72.6072H149.924ZM142.997 72.6072V76.4453H139.534V72.6072H142.997ZM136.07 72.6072V76.4453H132.607V72.6072H136.07ZM129.143 72.6072V76.4453H125.68V72.6072H129.143ZM122.216 72.6072V76.4453H118.753V72.6072H122.216ZM114.972 65.1823L114.975 69.0203L111.512 69.0239L111.509 65.1859L114.972 65.1823ZM198.096 65.0971L198.099 68.9351L194.635 68.9387L194.632 65.1007L198.096 65.0971ZM191.169 65.1042L191.172 68.9422L187.708 68.9458L187.705 65.1078L191.169 65.1042ZM184.242 65.1113L184.245 68.9493L180.781 68.9529L180.778 65.1149L184.242 65.1113ZM177.315 65.1184L177.318 68.9564L173.854 68.96L173.851 65.122L177.315 65.1184ZM170.388 65.1255L170.391 68.9635L166.928 68.9671L166.924 65.1291L170.388 65.1255ZM163.461 65.1326L163.464 68.9706L160.001 68.9742L159.997 65.1362L163.461 65.1326ZM156.534 65.1397L156.537 68.9777L153.074 68.9813L153.07 65.1433L156.534 65.1397ZM149.607 65.1468L149.61 68.9848L146.147 68.9884L146.143 65.1504L149.607 65.1468ZM142.68 65.1539L142.683 68.9919L139.22 68.9955L139.217 65.1575L142.68 65.1539ZM135.753 65.161L135.756 68.999L132.293 69.0026L132.29 65.1646L135.753 65.161ZM128.826 65.1681L128.829 69.0061L125.366 69.0097L125.363 65.1717L128.826 65.1681ZM121.899 65.1752L121.902 69.0132L118.439 69.0168L118.436 65.1788L121.899 65.1752ZM217.931 54.01V57.848H214.467V54.01H217.931ZM156.219 56.7336V60.5716H152.756V56.7336H156.219ZM204.708 56.7336V60.5716H201.244V56.7336H204.708ZM197.781 56.7336V60.5716H194.317V56.7336H197.781ZM190.854 56.7336V60.5716H187.39V56.7336H190.854ZM183.927 56.7336V60.5716H180.463V56.7336H183.927ZM177 56.7336V60.5716H173.537V56.7336H177ZM170.073 56.7336V60.5716H166.61V56.7336H170.073ZM163.146 56.7336V60.5716H159.683V56.7336H163.146ZM107.95 56.5417V60.3797H104.486V56.5417H107.95ZM135.657 56.5417V60.3797H132.194V56.5417H135.657ZM128.73 56.5417V60.3797H125.267V56.5417H128.73ZM121.804 56.5417V60.3797H118.34V56.5417H121.804ZM114.877 56.5417V60.3797H111.413V56.5417H114.877ZM128.55 48.9347L128.553 52.7727L125.09 52.7763L125.087 48.9383L128.55 48.9347ZM211.674 48.8495L211.677 52.6875L208.213 52.6911L208.21 48.8531L211.674 48.8495ZM204.747 48.8566L204.75 52.6946L201.286 52.6982L201.283 48.8602L204.747 48.8566ZM197.82 48.8637L197.823 52.7017L194.359 52.7053L194.356 48.8673L197.82 48.8637ZM190.893 48.8708L190.896 52.7088L187.432 52.7124L187.429 48.8744L190.893 48.8708ZM183.966 48.8779L183.969 52.7159L180.505 52.7195L180.502 48.8815L183.966 48.8779ZM177.039 48.885L177.042 52.723L173.578 52.7266L173.575 48.8886L177.039 48.885ZM170.112 48.8921L170.115 52.7301L166.652 52.7337L166.648 48.8957L170.112 48.8921ZM163.185 48.8992L163.188 52.7372L159.725 52.7408L159.721 48.9028L163.185 48.8992ZM156.258 48.9063L156.261 52.7443L152.798 52.7479L152.794 48.9099L156.258 48.9063ZM149.331 48.9134L149.334 52.7514L145.871 52.755L145.867 48.917L149.331 48.9134ZM142.404 48.9205L142.407 52.7585L138.944 52.7621L138.941 48.9241L142.404 48.9205ZM135.477 48.9276L135.48 52.7656L132.017 52.7692L132.014 48.9312L135.477 48.9276ZM109.587 42.3777V46.2157H106.124V42.3777H109.587ZM116.514 42.3777V46.2157H113.051V42.3777H116.514ZM128.694 42.1422V45.9803H125.23V42.1422H128.694ZM204.721 42.1422H201.427V45.9803H204.721V42.1422ZM197.963 42.1422V45.9803H194.5V42.1422H197.963ZM191.036 42.1422V45.9803H187.573V42.1422H191.036ZM184.109 42.1422V45.9803H180.646V42.1422H184.109ZM177.183 42.1422V45.9803H173.719V42.1422H177.183ZM170.256 42.1422V45.9803H166.792V42.1422H170.256ZM163.329 42.1422V45.9803H159.865V42.1422H163.329ZM156.402 42.1422V45.9803H152.938V42.1422H156.402ZM149.475 42.1422V45.9803H146.011V42.1422H149.475ZM142.548 42.1422V45.9803H139.084V42.1422H142.548ZM135.621 42.1422V45.9803H132.157V42.1422H135.621ZM228.984 43.1576V46.9957H225.521V43.1576H228.984ZM163.969 14.2166V18.0546H160.506V14.2166H163.969ZM183.918 5.43963V9.27765H180.455V5.43963H183.918ZM190.845 5.43963V9.27765H187.382V5.43963H190.845ZM183.651 12.9288V16.7668H180.188V12.9288H183.651ZM197.505 12.9288V16.7668H194.042V12.9288H197.505ZM190.578 12.9288V16.7668H187.115V12.9288H190.578ZM169.887 20.0557V23.8937H166.423V20.0557H169.887ZM197.594 20.0557V23.8937H194.131V20.0557H197.594ZM190.667 20.0557V23.8937H187.204V20.0557H190.667ZM183.74 20.0557V23.8937H180.277V20.0557H183.74ZM176.814 20.0557V23.8937H173.35V20.0557H176.814ZM128.55 35.2336L128.553 39.0716L125.09 39.0752L125.087 35.2372L128.55 35.2336ZM246.308 35.1129L246.311 38.9509L242.848 38.9545L242.845 35.1165L246.308 35.1129ZM239.381 35.12L239.385 38.958L235.921 38.9616L235.918 35.1236L239.381 35.12ZM232.454 35.1271L232.458 38.9651L228.994 38.9687L228.991 35.1306L232.454 35.1271ZM225.527 35.1342L225.531 38.9722L222.067 38.9758L222.064 35.1378L225.527 35.1342ZM218.6 35.1413L218.604 38.9793L215.14 38.9829L215.137 35.1449L218.6 35.1413ZM211.674 35.1484L211.677 38.9864L208.213 38.99L208.21 35.152L211.674 35.1484ZM204.747 35.1555L204.75 38.9935L201.286 38.9971L201.283 35.1591L204.747 35.1555ZM197.82 35.1626L197.823 39.0006L194.359 39.0042L194.356 35.1662L197.82 35.1626ZM190.893 35.1697L190.896 39.0077L187.432 39.0113L187.429 35.1733L190.893 35.1697ZM183.966 35.1768L183.969 39.0148L180.505 39.0184L180.502 35.1804L183.966 35.1768ZM177.039 35.1839L177.042 39.0219L173.578 39.0255L173.575 35.1875L177.039 35.1839ZM170.112 35.191L170.115 39.029L166.651 39.0326L166.648 35.1946L170.112 35.191ZM163.185 35.1981L163.188 39.0361L159.725 39.0397L159.721 35.2017L163.185 35.1981ZM156.258 35.2052L156.261 39.0432L152.798 39.0468L152.794 35.2088L156.258 35.2052ZM149.331 35.2123L149.334 39.0503L145.871 39.0539L145.867 35.2159L149.331 35.2123ZM142.404 35.2194L142.407 39.0574L138.944 39.061L138.94 35.223L142.404 35.2194ZM135.477 35.2265L135.48 39.0645L132.017 39.0681L132.014 35.2301L135.477 35.2265ZM128.55 27.0823L128.553 30.9203L125.09 30.924L125.087 27.086L128.55 27.0823ZM239.381 26.9615L239.385 30.7995L235.921 30.8033L235.918 26.9653L239.381 26.9615ZM232.454 26.9691L232.458 30.8071L228.994 30.8109L228.991 26.9729L232.454 26.9691ZM225.527 26.9767L225.531 30.8147L222.067 30.8185L222.064 26.9805L225.527 26.9767ZM218.6 26.9843L218.604 30.8223L215.14 30.8261L215.137 26.988L218.6 26.9843ZM211.673 26.9918L211.677 30.8299L208.213 30.8336L208.21 26.9956L211.673 26.9918ZM204.746 26.9994L204.75 30.8374L201.286 30.8412L201.283 27.0032L204.746 26.9994ZM197.82 27.007L197.823 30.845L194.359 30.8488L194.356 27.0108L197.82 27.007ZM190.893 27.0146L190.896 30.8526L187.432 30.8564L187.429 27.0184L190.893 27.0146ZM183.966 27.0222L183.969 30.8602L180.506 30.864L180.502 27.0259L183.966 27.0222ZM177.039 27.0297L177.042 30.8678L173.579 30.8716L173.575 27.0335L177.039 27.0297ZM170.112 27.0373L170.115 30.8753L166.652 30.8791L166.648 27.0411L170.112 27.0373ZM163.185 27.0449L163.188 30.8829L159.725 30.8866L159.721 27.0486L163.185 27.0449ZM156.258 27.0523L156.261 30.8904L152.798 30.8941L152.794 27.0561L156.258 27.0523ZM149.331 27.0598L149.334 30.8978L145.871 30.9016L145.867 27.0636L149.331 27.0598ZM142.404 27.0673L142.407 30.9053L138.944 30.9091L138.94 27.071L142.404 27.0673ZM135.477 27.0748L135.48 30.9128L132.017 30.9166L132.013 27.0785L135.477 27.0748ZM126.779 9.26618V13.1042H123.316V9.26618H126.779ZM133.706 9.26618V13.1042H130.243V9.26618H133.706ZM68.777 138.917V142.755H65.3135V138.917H68.777ZM68.777 132.139V135.977H65.3135V132.139H68.777ZM68.7259 124.92V128.758H65.2624V124.92H68.7259ZM75.6528 124.92V128.758H72.1894V124.92H75.6528ZM68.6894 116.702V120.54H65.2259V116.702H68.6894ZM82.5433 116.702V120.54H79.0798V116.702H82.5433ZM75.6163 116.702V120.54H72.1529V116.702H75.6163ZM75.4517 109.608V113.446H71.9883V109.608H75.4517ZM89.3057 109.608V113.446H85.8422V109.608H89.3057ZM82.3787 109.608V113.446H78.9152V109.608H82.3787ZM68.5079 102.199V106.037H65.0444V102.199H68.5079ZM96.2157 102.199V106.037H92.7523V102.199H96.2157ZM89.2888 102.199V106.037H85.8253V102.199H89.2888ZM82.3618 102.199V106.037H78.8983V102.199H82.3618ZM75.4349 102.199V106.037H71.9714V102.199H75.4349ZM79.1595 72.1153V75.9533H75.696V72.1153H79.1595ZM68.7638 79.2239V83.062H65.3003V79.2239H68.7638ZM75.6907 79.2239V83.062H72.2272V79.2239H75.6907ZM68.4968 86.7131V90.5512H65.0333V86.7131H68.4968ZM82.3507 86.7131V90.5512H78.8873V86.7131H82.3507ZM75.4238 86.7131V90.5512H71.9603V86.7131H75.4238ZM61.5665 94.4532V98.2912H58.1031V94.4532H61.5665ZM89.2744 94.4532V98.2912H85.8109V94.4532H89.2744ZM82.3474 94.4532V98.2912H78.8839V94.4532H82.3474ZM75.4204 94.4532V98.2912H71.957V94.4532H75.4204ZM68.4935 94.4532V98.2912H65.03V94.4532H68.4935ZM97.4118 41.2536V45.0917H93.9484V41.2536H97.4118ZM87.0161 34.145V37.983H83.5526V34.145H87.0161ZM93.943 34.145V37.983H90.4796V34.145H93.943ZM79.8142 26.8591V30.6971H76.3507V26.8591H79.8142ZM93.6681 26.8591V30.6971H90.2046V26.8591H93.6681ZM86.7411 26.8591V30.6971H83.2776V26.8591H86.7411ZM86.7343 20.305V24.143H83.2709V20.305H86.7343ZM100.588 20.305V24.143H97.1248V20.305H100.588ZM93.6613 20.305V24.143H90.1978V20.305H93.6613ZM79.8083 13.4195V17.2576H76.3448V13.4195H79.8083ZM107.516 13.4195V17.2576H104.053V13.4195H107.516ZM100.589 13.4195V17.2576H97.1257V13.4195H100.589ZM93.6622 13.4195V17.2576H90.1987V13.4195H93.6622ZM86.7352 13.4195V17.2576H83.2718V13.4195H86.7352ZM79.8083 6.47364V10.3117H76.3448V6.47364H79.8083ZM107.516 6.47364V10.3117H104.053V6.47364H107.516ZM100.589 6.47364V10.3117H97.1257V6.47364H100.589ZM93.6622 6.47364V10.3117H90.1987V6.47364H93.6622ZM86.7352 6.47364V10.3117H83.2718V6.47364H86.7352ZM59.26 0V3.83802H55.7966V0H59.26ZM100.822 0V3.83802H97.3583V0H100.822ZM93.8948 0V3.83802H90.4313V0H93.8948ZM86.9678 0V3.83802H83.5044V0H86.9678ZM80.0409 0V3.83802H76.5774V0H80.0409ZM73.1139 0V3.83802H69.6505V0H73.1139ZM66.187 0V3.83802H62.7235V0H66.187ZM52.2577 6.47364V10.3117H48.7943V6.47364H52.2577ZM66.1117 6.47364V10.3117H62.6482V6.47364H66.1117ZM59.1847 6.47364V10.3117H55.7212V6.47364H59.1847ZM31.4537 13.3281V17.1661H27.9902V13.3281H31.4537ZM52.2346 13.3281V17.1661H48.7711V13.3281H52.2346ZM45.3076 13.3281V17.1661H41.8441V13.3281H45.3076ZM38.3807 13.3281V17.1661H34.9172V13.3281H38.3807ZM31.4537 20.0556V23.8936H27.9902V20.0556H31.4537ZM59.0893 20.0556H55.698V23.8936H59.0893V20.0556ZM52.2345 20.0556V23.8936H48.7711V20.0556H52.2345ZM45.3076 20.0556V23.8936H41.8441V20.0556H45.3076ZM38.3806 20.0556V23.8936H34.9171V20.0556H38.3806ZM53.6967 79.2071V83.0451H50.2332V79.2071H53.6967ZM43.3009 72.0984V75.9364H39.8375V72.0984H43.3009ZM50.2279 72.0984V75.9364H46.7644V72.0984H50.2279ZM43.034 64.6092V68.4472H39.5705V64.6092H43.034ZM56.8879 64.6092V68.4472H53.4244V64.6092H56.8879ZM49.9609 64.6092V68.4472H46.4975V64.6092H49.9609ZM36.1037 56.4854V60.3234H32.6402V56.4854H36.1037ZM63.8115 56.4854V60.3234H60.348V56.4854H63.8115ZM56.8846 56.4854V60.3234H53.4211V56.4854H56.8846ZM49.9576 56.4854V60.3234H46.4941V56.4854H49.9576ZM43.0306 56.4854V60.3234H39.5672V56.4854H43.0306ZM36.1037 49.1571V52.9952H32.6402V49.1571H36.1037ZM77.3709 49.1571H74.2019V52.9952H77.3709V49.1571ZM70.7384 49.1571V52.9952H67.2749V49.1571H70.7384ZM63.8115 49.1571V52.9952H60.348V49.1571H63.8115ZM56.8845 49.1571V52.9952H53.421V49.1571H56.8845ZM49.9576 49.1571V52.9952H46.4941V49.1571H49.9576ZM43.0306 49.1571V52.9952H39.5672V49.1571H43.0306ZM3.46621 42.2052V46.0433H0.00272751V42.2052H3.46621ZM77.3709 42.2052H74.2019V46.0433H77.3709V42.2052ZM70.7384 42.2052V46.0433H67.2749V42.2052H70.7384ZM63.8115 42.2052V46.0433H60.348V42.2052H63.8115ZM56.8845 42.2052V46.0433H53.421V42.2052H56.8845ZM49.9576 42.2052V46.0433H46.4941V42.2052H49.9576ZM43.0306 42.2052V46.0433H39.5672V42.2052H43.0306ZM36.1037 42.2052V46.0433H32.6402V42.2052H36.1037ZM10.3932 42.2052V46.0433H6.92968V42.2052H10.3932ZM3.46343 34.0754L3.46889 37.9134L0.00545502 37.9194L0 34.0814L3.46343 34.0754ZM72.7329 33.9546L72.7384 37.7927L69.2749 37.7987L69.2694 33.9607L72.7329 33.9546ZM65.806 33.9667L65.8114 37.8047L62.3479 37.8108L62.3425 33.9728L65.806 33.9667ZM58.879 33.9788L58.8845 37.8168L55.421 37.8229L55.4155 33.9849L58.879 33.9788ZM51.952 33.9909L51.9575 37.8289L48.494 37.835L48.4886 33.997L51.952 33.9909ZM45.0251 34.003L45.0305 37.841L41.5671 37.8471L41.5616 34.009L45.0251 34.003ZM38.0981 34.0151L38.1036 37.8531L34.6401 37.8591L34.6347 34.0211L38.0981 34.0151ZM31.1712 34.0272L31.1766 37.8652L27.7132 37.8712L27.7077 34.0332L31.1712 34.0272ZM24.2442 34.0393L24.2497 37.8773L20.7862 37.8833L20.7807 34.0453L24.2442 34.0393ZM17.3173 34.0514L17.3227 37.8894L13.8592 37.8954L13.8538 34.0574L17.3173 34.0514ZM10.3903 34.0634L10.3958 37.9014L6.93232 37.9074L6.92687 34.0694L10.3903 34.0634ZM65.8575 27.1V30.9381H62.394V27.1H65.8575ZM58.9306 27.1V30.9381H55.4671V27.1H58.9306ZM52.0036 27.1V30.9381H48.5401V27.1H52.0036ZM45.0767 27.1V30.9381H41.6132V27.1H45.0767ZM38.1497 27.1V30.9381H34.6862V27.1H38.1497ZM31.2227 27.1V30.9381H27.7593V27.1H31.2227ZM24.2958 27.1V30.9381H20.8323V27.1H24.2958ZM17.3688 27.1V30.9381H13.9053V27.1H17.3688ZM10.4419 27.1V30.9381H6.97839V27.1H10.4419Z" fill="#FFE1DF"/>
</svg>
