<svg width="16" height="10" viewBox="0 0 16 10" fill="none" xmlns="http://www.w3.org/2000/svg">
<path d="M3.31213 3.44059C4.00728 3.44059 4.5708 2.81446 4.5708 2.04207C4.5708 1.26969 4.00728 0.643555 3.31213 0.643555C2.61699 0.643555 2.05347 1.26969 2.05347 2.04207C2.05347 2.81446 2.61699 3.44059 3.31213 3.44059Z" fill="#444444"/>
<path d="M10.5185 0C8.39907 0 6.62202 1.63933 6.14902 3.83555H4.62057L4.62023 3.83944L1.85731 3.84055C0.642518 3.84055 3.09913e-06 4.75096 3.09913e-06 5.67991V9.36975C-0.00216587 10.2101 1.13487 10.2101 1.13487 9.36975V5.76908H1.68179L1.68295 9.90068H5.00531L5.00481 5.28245H6.0349C6.16938 7.90468 8.12595 9.99356 10.5188 9.99356C12.9986 9.99356 15.0159 7.75174 15.0159 4.99696C15.0158 2.24182 12.9983 0 10.5185 0ZM10.5185 0.693884C11.2381 0.693884 11.9098 0.917083 12.4877 1.29804L11.6265 2.2548C11.288 2.08517 10.9136 1.98859 10.5185 1.98859C10.1186 1.98859 9.73966 2.08795 9.39763 2.26203L8.53722 1.30657C9.11784 0.92042 9.79389 0.693884 10.5185 0.693884ZM8.05087 6.22753L7.18996 7.18465C6.84676 6.54231 6.64588 5.79577 6.64588 4.99678C6.64588 4.19167 6.8496 3.44031 7.19713 2.79537L8.05738 3.75064C7.90088 4.13105 7.81112 4.55205 7.81112 4.99678C7.81145 5.43558 7.89838 5.85139 8.05087 6.22753ZM10.5185 9.29967C9.78905 9.29967 9.10816 9.07017 8.52504 8.67883L9.38379 7.72411C9.72949 7.90227 10.1129 8.00497 10.5187 8.00497C10.9189 8.00497 11.298 7.90542 11.6398 7.73153L12.5001 8.68736C11.9193 9.07332 11.2428 9.29967 10.5185 9.29967ZM10.5185 7.3109C9.45503 7.3109 8.5766 6.41977 8.45213 5.27504C8.62214 5.27522 8.76613 5.27522 8.76696 5.27522C9.1502 5.27522 9.46087 4.94061 9.46087 4.52832C9.46087 4.11566 9.1502 3.78123 8.76696 3.78123C8.76496 3.78123 8.76346 3.78179 8.76163 3.78179L8.74945 3.78216C9.11684 3.12368 9.77153 2.68266 10.5187 2.68266C11.6672 2.68266 12.6014 3.72043 12.6014 4.99641C12.6014 6.27258 11.667 7.3109 10.5185 7.3109ZM12.9796 6.24254C13.1361 5.86233 13.2262 5.44132 13.2262 4.99678C13.2262 4.5463 13.1338 4.12011 12.9734 3.73618L13.8323 2.78165C14.1845 3.42956 14.3913 4.18536 14.3913 4.99641C14.3913 5.80134 14.1874 6.55287 13.8397 7.198L12.9796 6.24254Z" fill="#444444"/>
</svg>
