<svg width="11" height="10" viewBox="0 0 11 10" fill="none" xmlns="http://www.w3.org/2000/svg">
<path d="M10.5995 7.20023H10.0387V5.64759C10.0362 5.62444 10.0317 5.60157 10.0253 5.57925C10.0317 5.55693 10.0362 5.53406 10.0387 5.51091C10.0387 5.45688 10.0284 5.40337 10.0083 5.35344C9.98822 5.30351 9.95876 5.25814 9.92162 5.21991C9.88447 5.18168 9.84037 5.15135 9.79182 5.13064C9.74327 5.10993 9.69123 5.09926 9.63867 5.09923H5.90049V4.05328C6.38384 3.9513 6.81316 3.66853 7.10529 3.25975C7.39741 2.85097 7.53153 2.34528 7.48167 1.84065C7.43181 1.33602 7.20152 0.868381 6.83541 0.528323C6.4693 0.188266 5.99343 0 5.5 0C5.00658 0 4.53071 0.188266 4.1646 0.528323C3.79849 0.868381 3.5682 1.33602 3.51834 1.84065C3.46848 2.34528 3.6026 2.85097 3.89472 3.25975C4.18684 3.66853 4.61617 3.9513 5.09952 4.05328V5.09922H1.36181C1.30924 5.09919 1.25719 5.1098 1.20862 5.13045C1.16005 5.15109 1.11591 5.18137 1.07872 5.21956C1.04153 5.25774 1.01202 5.30308 0.991878 5.35298C0.971735 5.40289 0.961352 5.45639 0.961321 5.51042V5.5109C0.963763 5.5337 0.968172 5.55624 0.974497 5.57824C0.967928 5.60088 0.963371 5.62409 0.960881 5.64759V7.20023H0.400484C0.347922 7.2002 0.295869 7.21081 0.247297 7.23146C0.198724 7.25211 0.154584 7.28239 0.117395 7.32057C0.0802069 7.35875 0.050699 7.40409 0.0305563 7.454C0.0104136 7.50391 3.05576e-05 7.5574 6.29623e-08 7.61143V9.58832C-5.9435e-05 9.69744 0.0420514 9.80212 0.117069 9.87932C0.192087 9.95652 0.293867 9.99993 0.400019 10H2.32273C2.42888 10.0001 2.53071 9.95677 2.60581 9.87965C2.68092 9.80254 2.72315 9.69791 2.72321 9.58879V7.6119C2.72324 7.55787 2.71292 7.50436 2.69283 7.45443C2.67274 7.4045 2.64329 7.35913 2.60614 7.3209C2.569 7.28267 2.52489 7.25234 2.47634 7.23163C2.42779 7.21093 2.37575 7.20025 2.32319 7.20022H1.76189V5.92258H5.09952V7.20023H4.53907C4.48651 7.2002 4.43446 7.21081 4.38589 7.23146C4.33732 7.25211 4.29317 7.28239 4.25599 7.32057C4.2188 7.35875 4.18929 7.40409 4.16915 7.454C4.149 7.50391 4.13862 7.5574 4.13859 7.61143V9.58832C4.13853 9.69744 4.18064 9.80212 4.25566 9.87932C4.33068 9.95652 4.43246 9.99993 4.53861 10H6.46093C6.56709 10.0001 6.66892 9.95677 6.74402 9.87965C6.81913 9.80254 6.86135 9.69791 6.86142 9.58879V7.6119C6.86145 7.55787 6.85112 7.50436 6.83104 7.45443C6.81095 7.4045 6.78149 7.35913 6.74435 7.3209C6.7072 7.28267 6.6631 7.25234 6.61455 7.23163C6.566 7.21093 6.51396 7.20025 6.4614 7.20022H5.90049V5.92258H9.23772V7.20023H8.67727C8.62471 7.2002 8.57266 7.21081 8.52409 7.23146C8.47551 7.25211 8.43137 7.28239 8.39419 7.32057C8.357 7.35875 8.32749 7.40409 8.30735 7.454C8.2872 7.50391 8.27682 7.5574 8.27679 7.61143V9.58832C8.27673 9.69744 8.31884 9.80212 8.39386 9.87932C8.46888 9.95652 8.57066 9.99993 8.67681 10H10.5995C10.7057 10.0001 10.8075 9.95677 10.8826 9.87965C10.9577 9.80254 10.9999 9.69791 11 9.58879V7.6119C11 7.55787 10.9897 7.50436 10.9696 7.45443C10.9495 7.4045 10.9201 7.35913 10.8829 7.3209C10.8458 7.28267 10.8017 7.25234 10.7531 7.23163C10.7046 7.21093 10.6525 7.20025 10.6 7.20022L10.5995 7.20023ZM4.30911 2.04699C4.30919 1.80489 4.37909 1.56824 4.51 1.36698C4.6409 1.16571 4.82692 1.00887 5.04453 0.916273C5.26215 0.823678 5.50159 0.799491 5.73257 0.846771C5.96356 0.894051 6.17572 1.01068 6.34223 1.1819C6.50874 1.35312 6.62212 1.57125 6.66804 1.80871C6.71396 2.04617 6.69036 2.29229 6.60021 2.51596C6.51006 2.73962 6.35742 2.93079 6.16159 3.06529C5.96576 3.19979 5.73552 3.27158 5.5 3.27158C5.34358 3.27158 5.18869 3.2399 5.04418 3.17836C4.89967 3.11681 4.76837 3.0266 4.65778 2.91288C4.54719 2.79916 4.45947 2.66416 4.39965 2.51559C4.33982 2.36702 4.30906 2.20779 4.30911 2.04699ZM1.92223 9.17662H0.800968V8.02359H1.92224L1.92223 9.17662ZM6.06042 9.17662H4.93956V8.02359H6.06045L6.06042 9.17662ZM10.199 9.17662H9.07775V8.02359H10.199V9.17662Z" fill="#444444"/>
</svg>
