<svg width="21" height="21" viewBox="0 0 21 21" fill="none" xmlns="http://www.w3.org/2000/svg">
<path d="M18.9111 15.346L20.7632 13.4939C21.079 13.1781 21.079 12.6677 20.7632 12.3518C20.4474 12.036 19.9369 12.036 19.6211 12.3518L17.7691 14.2039L15.917 12.3518C15.6012 12.036 15.0908 12.036 14.7749 12.3518C14.4591 12.6677 14.4591 13.1781 14.7749 13.4939L16.627 15.346L14.7749 17.198C14.4591 17.5138 14.4591 18.0243 14.7749 18.3401C14.9324 18.4976 15.1392 18.5767 15.346 18.5767C15.5528 18.5767 15.7595 18.4976 15.917 18.3401L17.7691 16.488L19.6211 18.3401C19.7786 18.4976 19.9854 18.5767 20.1921 18.5767C20.3989 18.5767 20.6057 18.4976 20.7632 18.3401C21.079 18.0243 21.079 17.5138 20.7632 17.198L18.9111 15.346Z" fill="#A85766"/>
<path d="M12.9232 0C11.1414 0 9.69238 1.449 9.69238 3.23078C9.69238 3.67662 10.0542 4.03847 10.5001 4.03847C10.9459 4.03847 11.3078 3.67662 11.3078 3.23078C11.3078 2.33989 12.0323 1.61539 12.9232 1.61539C13.3698 1.61539 13.7309 1.25354 13.7309 0.807694C13.7309 0.361847 13.3698 0 12.9232 0Z" fill="#A85766"/>
<path d="M15.3463 1.61539C16.2372 1.61539 16.9617 2.33989 16.9617 3.23078C16.9617 3.67662 17.3227 4.03847 17.7694 4.03847C18.216 4.03847 18.577 3.67662 18.577 3.23078C18.577 1.449 17.128 0 15.3463 0C14.8996 0 14.5386 0.361847 14.5386 0.807694C14.5386 1.25354 14.8996 1.61539 15.3463 1.61539Z" fill="#A85766"/>
<path d="M10.4998 16.9614C10.054 16.9614 9.69213 17.3225 9.69213 17.7691C9.69213 18.66 8.96762 19.3845 8.07674 19.3845C7.63089 19.3845 7.26904 19.7455 7.26904 20.1922C7.26904 20.6389 7.63089 20.9999 8.07674 20.9999C9.85851 20.9999 11.3075 19.5509 11.3075 17.7691C11.3075 17.3225 10.9457 16.9614 10.4998 16.9614Z" fill="#A85766"/>
<path d="M5.65363 19.3845C4.76274 19.3845 4.03824 18.66 4.03824 17.7691C4.03824 17.3225 3.67639 16.9614 3.23055 16.9614C2.7847 16.9614 2.42285 17.3225 2.42285 17.7691C2.42285 19.5509 3.87185 20.9999 5.65363 20.9999C6.09948 20.9999 6.46132 20.6389 6.46132 20.1922C6.46132 19.7455 6.09948 19.3845 5.65363 19.3845Z" fill="#A85766"/>
<path d="M18.5768 5.65389C18.5768 5.20804 18.2158 4.84619 17.7691 4.84619C17.3225 4.84619 16.9614 5.20804 16.9614 5.65389V7.26927C16.9614 7.71512 17.3225 8.07697 17.7691 8.07697C18.2158 8.07697 18.5768 7.71512 18.5768 7.26927V5.65389Z" fill="#A85766"/>
<path d="M10.5001 4.84619C10.0542 4.84619 9.69238 5.20804 9.69238 5.65389V7.26927C9.69238 7.71512 10.0542 8.07697 10.5001 8.07697C10.9459 8.07697 11.3078 7.71512 11.3078 7.26927V5.65389C11.3078 5.20804 10.9459 4.84619 10.5001 4.84619Z" fill="#A85766"/>
<path d="M10.5001 12.9231C10.0542 12.9231 9.69238 13.2841 9.69238 13.7308V15.3462C9.69238 15.7928 10.0542 16.1539 10.5001 16.1539C10.9459 16.1539 11.3078 15.7928 11.3078 15.3462V13.7308C11.3078 13.2841 10.9459 12.9231 10.5001 12.9231Z" fill="#A85766"/>
<path d="M2.42285 15.3462C2.42285 15.7928 2.7847 16.1539 3.23055 16.1539C3.67639 16.1539 4.03824 15.7928 4.03824 15.3462V13.7308C4.03824 13.2841 3.67639 12.9231 3.23055 12.9231C2.7847 12.9231 2.42285 13.2841 2.42285 13.7308V15.3462Z" fill="#A85766"/>
<path d="M3.23055 12.1153C3.67639 12.1153 4.03824 11.7543 4.03824 11.3076V9.69222C4.03824 9.24637 3.67639 8.88452 3.23055 8.88452C2.7847 8.88452 2.42285 9.24637 2.42285 9.69222V11.3076C2.42285 11.7543 2.7847 12.1153 3.23055 12.1153Z" fill="#A85766"/>
<path d="M3.23078 1.61523C1.449 1.61523 0 3.06424 0 4.84601C0 6.62778 1.449 8.07679 3.23078 8.07679C5.01255 8.07679 6.46155 6.62778 6.46155 4.84601C6.46155 3.06424 5.01255 1.61523 3.23078 1.61523ZM3.23078 6.4614C2.33989 6.4614 1.61539 5.7369 1.61539 4.84601C1.61539 3.95512 2.33989 3.23062 3.23078 3.23062C4.12166 3.23062 4.84617 3.95512 4.84617 4.84601C4.84617 5.7369 4.12166 6.4614 3.23078 6.4614Z" fill="#A85766"/>
<path d="M10.5001 8.88452C10.0542 8.88452 9.69238 9.24637 9.69238 9.69222V11.3076C9.69238 11.7543 10.0542 12.1153 10.5001 12.1153C10.9459 12.1153 11.3078 11.7543 11.3078 11.3076V9.69222C11.3078 9.24637 10.9459 8.88452 10.5001 8.88452Z" fill="#A85766"/>
<path d="M17.7691 8.88452C17.3225 8.88452 16.9614 9.24637 16.9614 9.69222V11.3076C16.9614 11.7543 17.3225 12.1153 17.7691 12.1153C18.2158 12.1153 18.5768 11.7543 18.5768 11.3076V9.69222C18.5768 9.24637 18.2158 8.88452 17.7691 8.88452Z" fill="#A85766"/>
</svg>
