<svg width="20" height="18" viewBox="0 0 20 18" fill="none" xmlns="http://www.w3.org/2000/svg">
<path d="M19.2719 12.9604H18.2522V10.1657C18.2477 10.124 18.2395 10.0828 18.2278 10.0426C18.2395 10.0025 18.2477 9.9613 18.2522 9.91964C18.2522 9.82238 18.2334 9.72607 18.1969 9.63619C18.1604 9.54632 18.1068 9.46464 18.0393 9.39583C17.9718 9.32702 17.8916 9.27242 17.8033 9.23515C17.715 9.19788 17.6204 9.17867 17.5248 9.17861H10.7282V7.29591C11.607 7.11234 12.3876 6.60335 12.9187 5.86754C13.4498 5.13174 13.6937 4.2215 13.603 3.31317C13.5124 2.40484 13.0937 1.56309 12.428 0.950982C11.7624 0.338878 10.8971 0 10 0C9.10286 0 8.23765 0.338878 7.572 0.950982C6.90634 1.56309 6.48763 2.40484 6.39698 3.31317C6.30632 4.2215 6.55018 5.13174 7.08131 5.86754C7.61244 6.60335 8.39303 7.11234 9.27185 7.29591V9.1786H2.47601C2.38044 9.17854 2.2858 9.19764 2.19749 9.2348C2.10917 9.27197 2.02892 9.32647 1.9613 9.3952C1.89369 9.46393 1.84004 9.54554 1.80341 9.63537C1.76679 9.7252 1.74791 9.82149 1.74786 9.91875V9.91962C1.7523 9.96067 1.76031 10.0012 1.77181 10.0408C1.75987 10.0816 1.75158 10.1234 1.74706 10.1657V12.9604H0.728152C0.632586 12.9604 0.537944 12.9795 0.44963 13.0166C0.361317 13.0538 0.281061 13.1083 0.213446 13.177C0.145831 13.2458 0.0921799 13.3274 0.0555568 13.4172C0.0189338 13.507 5.55593e-05 13.6033 1.14477e-07 13.7006V17.259C-0.000108064 17.4554 0.0764571 17.6438 0.212853 17.7828C0.349249 17.9217 0.534303 17.9999 0.727308 18H4.22314C4.41615 18.0001 4.60129 17.9222 4.73784 17.7834C4.8744 17.6446 4.95118 17.4562 4.95129 17.2598V13.7014C4.95135 13.6042 4.93258 13.5079 4.89606 13.418C4.85954 13.3281 4.80598 13.2464 4.73844 13.1776C4.6709 13.1088 4.59071 13.0542 4.50244 13.0169C4.41417 12.9797 4.31955 12.9605 4.22398 12.9604H3.20343V10.6606H9.27185V12.9604H8.25286C8.1573 12.9604 8.06265 12.9795 7.97434 13.0166C7.88603 13.0538 7.80577 13.1083 7.73816 13.177C7.67054 13.2458 7.61689 13.3274 7.58027 13.4172C7.54364 13.507 7.52477 13.6033 7.52471 13.7006V17.259C7.5246 17.4554 7.60117 17.6438 7.73756 17.7828C7.87396 17.9217 8.05901 17.9999 8.25202 18H11.7471C11.9402 18.0001 12.1253 17.9222 12.2619 17.7834C12.3984 17.6446 12.4752 17.4562 12.4753 17.2598V13.7014C12.4754 13.6042 12.4566 13.5079 12.4201 13.418C12.3835 13.3281 12.33 13.2464 12.2625 13.1776C12.1949 13.1088 12.1147 13.0542 12.0265 13.0169C11.9382 12.9797 11.8436 12.9605 11.748 12.9604H10.7282V10.6606H16.7959V12.9604H15.7769C15.6813 12.9604 15.5867 12.9795 15.4983 13.0166C15.41 13.0538 15.3298 13.1083 15.2622 13.177C15.1945 13.2458 15.1409 13.3274 15.1043 13.4172C15.0676 13.507 15.0488 13.6033 15.0487 13.7006V17.259C15.0486 17.4554 15.1252 17.6438 15.2616 17.7828C15.398 17.9217 15.583 17.9999 15.776 18H19.2718C19.4649 18.0001 19.65 17.9222 19.7866 17.7834C19.9231 17.6446 19.9999 17.4562 20 17.2598V13.7014C20.0001 13.6042 19.9813 13.5079 19.9448 13.418C19.9082 13.3281 19.8547 13.2464 19.7871 13.1776C19.7196 13.1088 19.6394 13.0542 19.5511 13.0169C19.4629 12.9797 19.3683 12.9605 19.2727 12.9604L19.2719 12.9604ZM7.83474 3.68459C7.83488 3.2488 7.96199 2.82284 8.2 2.46056C8.438 2.09828 8.77622 1.81596 9.17188 1.64929C9.56754 1.48262 10.0029 1.43908 10.4229 1.52419C10.8428 1.60929 11.2286 1.81922 11.5313 2.12741C11.8341 2.43561 12.0402 2.82825 12.1237 3.25567C12.2072 3.6831 12.1643 4.12612 12.0004 4.52872C11.8365 4.93132 11.559 5.27543 11.2029 5.51752C10.8468 5.75962 10.4282 5.88884 10 5.88884C9.7156 5.88884 9.43398 5.83182 9.17123 5.72104C8.90848 5.61026 8.66976 5.44788 8.46868 5.24319C8.26761 5.0385 8.10813 4.7955 7.99936 4.52807C7.89059 4.26064 7.83465 3.97402 7.83474 3.68459ZM3.49496 16.5179H1.4563V14.4425H3.49499L3.49496 16.5179ZM11.019 16.5179H8.98102V14.4425H11.019L11.019 16.5179ZM18.5437 16.5179H16.505V14.4425H18.5437V16.5179Z" fill="#282C7B"/>
</svg>
