<svg width="21" height="12" viewBox="0 0 21 12" fill="none" xmlns="http://www.w3.org/2000/svg">
<path fill-rule="evenodd" clip-rule="evenodd" d="M0 1.87993C0 0.841678 0.841678 0 1.87993 0H18.1727C19.211 0 20.0526 0.841678 20.0526 1.87993V5.6398C20.0526 6.67809 19.211 7.51974 18.1727 7.51974H1.87993C0.841678 7.51974 0 6.67809 0 5.6398V1.87993ZM4.38651 5.01316C5.07869 5.01316 5.6398 4.45204 5.6398 3.75987C5.6398 3.0677 5.07869 2.50658 4.38651 2.50658C3.69434 2.50658 3.13322 3.0677 3.13322 3.75987C3.13322 4.45204 3.69434 5.01316 4.38651 5.01316ZM9.39967 3.75987C9.39967 4.45204 8.83857 5.01316 8.14638 5.01316C7.45419 5.01316 6.89309 4.45204 6.89309 3.75987C6.89309 3.0677 7.45419 2.50658 8.14638 2.50658C8.83857 2.50658 9.39967 3.0677 9.39967 3.75987ZM11.9062 5.01316C12.5984 5.01316 13.1595 4.45204 13.1595 3.75987C13.1595 3.0677 12.5984 2.50658 11.9062 2.50658C11.2141 2.50658 10.653 3.0677 10.653 3.75987C10.653 4.45204 11.2141 5.01316 11.9062 5.01316ZM16.9194 3.75987C16.9194 4.45204 16.3583 5.01316 15.6661 5.01316C14.9739 5.01316 14.4128 4.45204 14.4128 3.75987C14.4128 3.0677 14.9739 2.50658 15.6661 2.50658C16.3583 2.50658 16.9194 3.0677 16.9194 3.75987Z" fill="white"/>
<path fill-rule="evenodd" clip-rule="evenodd" d="M11.2796 8.14648C12.0981 8.14648 12.7945 8.66961 13.0526 9.39977H17.546C17.8921 9.39977 18.1727 9.68032 18.1727 10.0264V11.2797C18.1727 11.6258 17.8921 11.9064 17.546 11.9064C17.1999 11.9064 16.9194 11.6258 16.9194 11.2797V10.6531H15.6661V11.2797C15.6661 11.6258 15.3856 11.9064 15.0395 11.9064C14.6934 11.9064 14.4128 11.6258 14.4128 11.2797V10.6531H13.0526C12.7945 11.3832 12.0981 11.9064 11.2796 11.9064C10.2413 11.9064 9.39966 11.0647 9.39966 10.0264C9.39966 8.98813 10.2413 8.14648 11.2796 8.14648ZM11.2796 9.39977C10.9335 9.39977 10.6529 9.68032 10.6529 10.0264C10.6529 10.3725 10.9335 10.6531 11.2796 10.6531C11.6257 10.6531 11.9062 10.3725 11.9062 10.0264C11.9062 9.68032 11.6257 9.39977 11.2796 9.39977Z" fill="white"/>
</svg>
