<svg width="19" height="19" viewBox="0 0 19 19" fill="none" xmlns="http://www.w3.org/2000/svg">
<path d="M16.1056 8.32399H12.1859C12.0922 8.32399 12.0023 8.28675 11.936 8.22048C11.8698 8.1542 11.8325 8.06432 11.8325 7.97059C11.8325 7.87686 11.8698 7.78697 11.936 7.7207C12.0023 7.65442 12.0922 7.61719 12.1859 7.61719H16.1056C16.1993 7.61719 16.2892 7.65442 16.3555 7.7207C16.4218 7.78697 16.459 7.87686 16.459 7.97059C16.459 8.06432 16.4218 8.1542 16.3555 8.22048C16.2892 8.28675 16.1993 8.32399 16.1056 8.32399Z" fill="white"/>
<path d="M16.1061 9.78105H12.1864C12.138 9.78461 12.0893 9.77813 12.0434 9.76204C11.9976 9.74594 11.9556 9.72056 11.92 9.68748C11.8844 9.6544 11.856 9.61434 11.8366 9.5698C11.8171 9.52525 11.8071 9.47719 11.8071 9.4286C11.8071 9.38 11.8171 9.33194 11.8366 9.28739C11.856 9.24285 11.8844 9.20279 11.92 9.16971C11.9556 9.13663 11.9976 9.11125 12.0434 9.09516C12.0893 9.07906 12.138 9.07258 12.1864 9.07615H16.1061C16.1546 9.07258 16.2033 9.07906 16.2491 9.09516C16.295 9.11125 16.337 9.13663 16.3726 9.16971C16.4082 9.20279 16.4366 9.24285 16.456 9.28739C16.4754 9.33194 16.4854 9.38 16.4854 9.4286C16.4854 9.47719 16.4754 9.52525 16.456 9.5698C16.4366 9.61434 16.4082 9.6544 16.3726 9.68748C16.337 9.72056 16.295 9.74594 16.2491 9.76204C16.2033 9.77813 16.1546 9.78461 16.1061 9.78105Z" fill="white"/>
<path d="M14.6184 11.2386H12.1864C12.138 11.2421 12.0893 11.2357 12.0434 11.2196C11.9976 11.2035 11.9556 11.1781 11.92 11.145C11.8844 11.1119 11.856 11.0719 11.8366 11.0273C11.8171 10.9828 11.8071 10.9347 11.8071 10.8861C11.8071 10.8375 11.8171 10.7895 11.8366 10.7449C11.856 10.7004 11.8844 10.6603 11.92 10.6272C11.9556 10.5942 11.9976 10.5688 12.0434 10.5527C12.0893 10.5366 12.138 10.5301 12.1864 10.5337H14.6184C14.6669 10.5301 14.7156 10.5366 14.7614 10.5527C14.8073 10.5688 14.8493 10.5942 14.8849 10.6272C14.9205 10.6603 14.9489 10.7004 14.9683 10.7449C14.9877 10.7895 14.9977 10.8375 14.9977 10.8861C14.9977 10.9347 14.9877 10.9828 14.9683 11.0273C14.9489 11.0719 14.9205 11.1119 14.8849 11.145C14.8493 11.1781 14.8073 11.2035 14.7614 11.2196C14.7156 11.2357 14.6669 11.2421 14.6184 11.2386Z" fill="white"/>
<path d="M9.78869 5.21543C9.78869 7.00903 8.33519 9.17123 6.54349 9.17123C4.75179 9.17123 3.29639 7.00903 3.29639 5.21543C3.31689 4.3681 3.66789 3.56237 4.27443 2.97033C4.88097 2.37829 5.69495 2.04687 6.54254 2.04688C7.39012 2.04688 8.20411 2.37829 8.81065 2.97033C9.41718 3.56237 9.76819 4.3681 9.78869 5.21543Z" fill="white"/>
<path d="M12.7057 14.6111C12.7057 17.2578 11.0394 17.026 6.54397 17.026C1.83957 17.026 0.380371 17.2578 0.380371 14.6111C0.380371 11.9644 3.89727 9.81934 6.54397 9.81934C9.19067 9.81934 12.7057 11.9701 12.7057 14.6111Z" fill="white"/>
<path d="M17.0635 5.0484H7.59956C7.192 5.04484 6.7996 5.2027 6.50804 5.48749C6.21648 5.77228 6.04946 6.16087 6.04346 6.5684V7.3816H6.76356V6.576C6.76556 6.35612 6.85471 6.14601 7.01144 5.99178C7.16817 5.83755 7.37967 5.75178 7.59956 5.7533H17.0616C17.2814 5.75178 17.493 5.83755 17.6497 5.99178C17.8064 6.14601 17.8956 6.35612 17.8976 6.576V12.276C17.8983 12.3857 17.8773 12.4945 17.8356 12.5961C17.794 12.6976 17.7326 12.7899 17.6549 12.8675C17.5773 12.9451 17.4851 13.0065 17.3836 13.0482C17.282 13.0898 17.1732 13.1109 17.0635 13.1101H7.59956C7.49077 13.1111 7.38285 13.0907 7.28196 13.05C7.18107 13.0093 7.08918 12.9491 7.01155 12.8729C6.93392 12.7966 6.87207 12.7059 6.82951 12.6057C6.78696 12.5056 6.76455 12.3981 6.76356 12.2893V10.5185H6.04536V12.2817C6.05136 12.6892 6.21838 13.0778 6.50994 13.3626C6.8015 13.6474 7.1939 13.8053 7.60146 13.8017H17.0635C17.471 13.8053 17.8634 13.6474 18.155 13.3626C18.4465 13.0778 18.6136 12.6892 18.6196 12.2817V6.5817C18.6183 6.37877 18.5771 6.17808 18.4981 5.99113C18.4192 5.80417 18.3042 5.63463 18.1596 5.4922C18.0151 5.34977 17.8439 5.23725 17.6558 5.1611C17.4677 5.08494 17.2664 5.04665 17.0635 5.0484Z" fill="white"/>
</svg>
