<svg width="121" height="188" viewBox="0 0 121 188" fill="none" xmlns="http://www.w3.org/2000/svg">
<g opacity="0.5">
<path opacity="0.5" d="M117.838 5.35698C119.317 5.35698 120.516 4.15778 120.516 2.67849C120.516 1.1992 119.317 0 117.838 0C116.358 0 115.159 1.1992 115.159 2.67849C115.159 4.15778 116.358 5.35698 117.838 5.35698Z" fill="#E1D8EA"/>
<path opacity="0.5" d="M117.838 31.446C119.317 31.446 120.516 30.2468 120.516 28.7675C120.516 27.2882 119.317 26.089 117.838 26.089C116.358 26.089 115.159 27.2882 115.159 28.7675C115.159 30.2468 116.358 31.446 117.838 31.446Z" fill="#E1D8EA"/>
<path opacity="0.5" d="M117.838 57.5349C119.317 57.5349 120.516 56.3357 120.516 54.8565C120.516 53.3772 119.317 52.178 117.838 52.178C116.358 52.178 115.159 53.3772 115.159 54.8565C115.159 56.3357 116.358 57.5349 117.838 57.5349Z" fill="#E1D8EA"/>
<path opacity="0.5" d="M117.838 83.6238C119.317 83.6238 120.516 82.4246 120.516 80.9453C120.516 79.466 119.317 78.2668 117.838 78.2668C116.358 78.2668 115.159 79.466 115.159 80.9453C115.159 82.4246 116.358 83.6238 117.838 83.6238Z" fill="#E1D8EA"/>
<path opacity="0.5" d="M117.838 109.713C119.317 109.713 120.516 108.514 120.516 107.034C120.516 105.555 119.317 104.356 117.838 104.356C116.358 104.356 115.159 105.555 115.159 107.034C115.159 108.514 116.358 109.713 117.838 109.713Z" fill="#E1D8EA"/>
<path opacity="0.5" d="M117.838 135.802C119.317 135.802 120.516 134.603 120.516 133.123C120.516 131.644 119.317 130.445 117.838 130.445C116.358 130.445 115.159 131.644 115.159 133.123C115.159 134.603 116.358 135.802 117.838 135.802Z" fill="#E1D8EA"/>
<path opacity="0.5" d="M117.838 161.891C119.317 161.891 120.516 160.692 120.516 159.212C120.516 157.733 119.317 156.534 117.838 156.534C116.358 156.534 115.159 157.733 115.159 159.212C115.159 160.692 116.358 161.891 117.838 161.891Z" fill="#E1D8EA"/>
<path opacity="0.5" d="M117.838 187.98C116.363 187.98 115.159 186.776 115.159 185.301C115.159 183.827 116.363 182.623 117.838 182.623C119.312 182.623 120.516 183.827 120.516 185.301C120.516 186.791 119.312 187.98 117.838 187.98Z" fill="#E1D8EA"/>
<path opacity="0.5" d="M94.8158 5.35698C93.3412 5.35698 92.1374 4.15316 92.1374 2.67849C92.1374 1.20381 93.3412 0 94.8158 0C96.2905 0 97.4944 1.20381 97.4944 2.67849C97.4793 4.15316 96.2905 5.35698 94.8158 5.35698Z" fill="#E1D8EA"/>
<path opacity="0.5" d="M94.8159 31.446C93.3412 31.446 92.1375 30.2422 92.1375 28.7675C92.1375 27.2928 93.3412 26.089 94.8159 26.089C96.2906 26.089 97.4944 27.2928 97.4944 28.7675C97.4794 30.2572 96.2906 31.446 94.8159 31.446Z" fill="#E1D8EA"/>
<path opacity="0.5" d="M94.8159 57.5349C93.3412 57.5349 92.1375 56.3311 92.1375 54.8565C92.1375 53.3818 93.3412 52.178 94.8159 52.178C96.2906 52.178 97.4944 53.3818 97.4944 54.8565C97.4794 56.3311 96.2906 57.5349 94.8159 57.5349Z" fill="#E1D8EA"/>
<path opacity="0.5" d="M94.8159 83.6239C93.3412 83.6239 92.1375 82.42 92.1375 80.9453C92.1375 79.4707 93.3412 78.2668 94.8159 78.2668C96.2906 78.2668 97.4944 79.4707 97.4944 80.9453C97.4794 82.4351 96.2906 83.6239 94.8159 83.6239Z" fill="#E1D8EA"/>
<path opacity="0.5" d="M94.8159 109.713C93.3412 109.713 92.1375 108.509 92.1375 107.034C92.1375 105.56 93.3412 104.356 94.8159 104.356C96.2906 104.356 97.4944 105.56 97.4944 107.034C97.4794 108.509 96.2906 109.713 94.8159 109.713Z" fill="#E1D8EA"/>
<path opacity="0.5" d="M94.8159 135.802C93.3412 135.802 92.1375 134.598 92.1375 133.123C92.1375 131.649 93.3412 130.445 94.8159 130.445C96.2906 130.445 97.4944 131.649 97.4944 133.123C97.4944 134.598 96.2906 135.802 94.8159 135.802Z" fill="#E1D8EA"/>
<path opacity="0.5" d="M94.8159 161.891C93.3412 161.891 92.1375 160.687 92.1375 159.212C92.1375 157.738 93.3412 156.534 94.8159 156.534C96.2906 156.534 97.4944 157.738 97.4944 159.212C97.4944 160.687 96.2906 161.891 94.8159 161.891Z" fill="#E1D8EA"/>
<path opacity="0.5" d="M94.8159 187.98C93.3412 187.98 92.1375 186.776 92.1375 185.301C92.1375 183.827 93.3412 182.623 94.8159 182.623C96.2906 182.623 97.4944 183.827 97.4944 185.301C97.4794 186.791 96.2906 187.98 94.8159 187.98Z" fill="#E1D8EA"/>
<path opacity="0.5" d="M71.78 5.35698C73.2593 5.35698 74.4586 4.15778 74.4586 2.67849C74.4586 1.1992 73.2593 0 71.78 0C70.3007 0 69.1016 1.1992 69.1016 2.67849C69.1016 4.15778 70.3007 5.35698 71.78 5.35698Z" fill="#E1D8EA"/>
<path opacity="0.5" d="M71.78 31.446C73.2593 31.446 74.4586 30.2468 74.4586 28.7675C74.4586 27.2882 73.2593 26.089 71.78 26.089C70.3007 26.089 69.1016 27.2882 69.1016 28.7675C69.1016 30.2468 70.3007 31.446 71.78 31.446Z" fill="#E1D8EA"/>
<path opacity="0.5" d="M71.78 57.5349C73.2593 57.5349 74.4586 56.3357 74.4586 54.8565C74.4586 53.3772 73.2593 52.178 71.78 52.178C70.3007 52.178 69.1016 53.3772 69.1016 54.8565C69.1016 56.3357 70.3007 57.5349 71.78 57.5349Z" fill="#E1D8EA"/>
<path opacity="0.5" d="M71.78 83.6238C73.2593 83.6238 74.4586 82.4246 74.4586 80.9453C74.4586 79.466 73.2593 78.2668 71.78 78.2668C70.3007 78.2668 69.1016 79.466 69.1016 80.9453C69.1016 82.4246 70.3007 83.6238 71.78 83.6238Z" fill="#E1D8EA"/>
<path opacity="0.5" d="M71.78 109.713C73.2593 109.713 74.4586 108.514 74.4586 107.034C74.4586 105.555 73.2593 104.356 71.78 104.356C70.3007 104.356 69.1016 105.555 69.1016 107.034C69.1016 108.514 70.3007 109.713 71.78 109.713Z" fill="#E1D8EA"/>
<path opacity="0.5" d="M71.78 135.802C73.2593 135.802 74.4586 134.603 74.4586 133.123C74.4586 131.644 73.2593 130.445 71.78 130.445C70.3007 130.445 69.1016 131.644 69.1016 133.123C69.1016 134.603 70.3007 135.802 71.78 135.802Z" fill="#E1D8EA"/>
<path opacity="0.5" d="M71.78 161.891C73.2593 161.891 74.4586 160.692 74.4586 159.212C74.4586 157.733 73.2593 156.534 71.78 156.534C70.3007 156.534 69.1016 157.733 69.1016 159.212C69.1016 160.692 70.3007 161.891 71.78 161.891Z" fill="#E1D8EA"/>
<path opacity="0.5" d="M71.78 187.98C70.3053 187.98 69.1016 186.776 69.1016 185.301C69.1016 183.827 70.3053 182.623 71.78 182.623C73.2547 182.623 74.4586 183.827 74.4586 185.301C74.4586 186.791 73.2547 187.98 71.78 187.98Z" fill="#E1D8EA"/>
<path opacity="0.5" d="M48.7401 5.35698C50.2194 5.35698 51.4186 4.15778 51.4186 2.67849C51.4186 1.1992 50.2194 0 48.7401 0C47.2608 0 46.0616 1.1992 46.0616 2.67849C46.0616 4.15778 47.2608 5.35698 48.7401 5.35698Z" fill="#E1D8EA"/>
<path opacity="0.5" d="M48.7401 31.446C50.2194 31.446 51.4186 30.2468 51.4186 28.7675C51.4186 27.2882 50.2194 26.089 48.7401 26.089C47.2608 26.089 46.0616 27.2882 46.0616 28.7675C46.0616 30.2468 47.2608 31.446 48.7401 31.446Z" fill="#E1D8EA"/>
<path opacity="0.5" d="M48.7401 57.5349C50.2194 57.5349 51.4186 56.3357 51.4186 54.8565C51.4186 53.3772 50.2194 52.178 48.7401 52.178C47.2608 52.178 46.0616 53.3772 46.0616 54.8565C46.0616 56.3357 47.2608 57.5349 48.7401 57.5349Z" fill="#E1D8EA"/>
<path opacity="0.5" d="M48.7401 83.6238C50.2194 83.6238 51.4186 82.4246 51.4186 80.9453C51.4186 79.466 50.2194 78.2668 48.7401 78.2668C47.2608 78.2668 46.0616 79.466 46.0616 80.9453C46.0616 82.4246 47.2608 83.6238 48.7401 83.6238Z" fill="#E1D8EA"/>
<path opacity="0.5" d="M48.7401 109.713C50.2194 109.713 51.4186 108.514 51.4186 107.034C51.4186 105.555 50.2194 104.356 48.7401 104.356C47.2608 104.356 46.0616 105.555 46.0616 107.034C46.0616 108.514 47.2608 109.713 48.7401 109.713Z" fill="#E1D8EA"/>
<path opacity="0.5" d="M48.7401 135.802C50.2194 135.802 51.4186 134.603 51.4186 133.123C51.4186 131.644 50.2194 130.445 48.7401 130.445C47.2608 130.445 46.0616 131.644 46.0616 133.123C46.0616 134.603 47.2608 135.802 48.7401 135.802Z" fill="#E1D8EA"/>
<path opacity="0.5" d="M48.7401 161.891C50.2194 161.891 51.4186 160.692 51.4186 159.212C51.4186 157.733 50.2194 156.534 48.7401 156.534C47.2608 156.534 46.0616 157.733 46.0616 159.212C46.0616 160.692 47.2608 161.891 48.7401 161.891Z" fill="#E1D8EA"/>
<path opacity="0.5" d="M48.7401 187.98C47.2654 187.98 46.0616 186.776 46.0616 185.301C46.0616 183.827 47.2654 182.623 48.7401 182.623C50.2148 182.623 51.4186 183.827 51.4186 185.301C51.4186 186.791 50.2298 187.98 48.7401 187.98Z" fill="#E1D8EA"/>
<path opacity="0.5" d="M25.7185 5.35698C27.1978 5.35698 28.3969 4.15778 28.3969 2.67849C28.3969 1.1992 27.1978 0 25.7185 0C24.2392 0 23.0399 1.1992 23.0399 2.67849C23.0399 4.15778 24.2392 5.35698 25.7185 5.35698Z" fill="#E1D8EA"/>
<path opacity="0.5" d="M25.7185 31.446C27.1978 31.446 28.3969 30.2468 28.3969 28.7675C28.3969 27.2882 27.1978 26.089 25.7185 26.089C24.2392 26.089 23.0399 27.2882 23.0399 28.7675C23.0399 30.2468 24.2392 31.446 25.7185 31.446Z" fill="#E1D8EA"/>
<path opacity="0.5" d="M25.7185 57.5349C27.1978 57.5349 28.3969 56.3357 28.3969 54.8565C28.3969 53.3772 27.1978 52.178 25.7185 52.178C24.2392 52.178 23.0399 53.3772 23.0399 54.8565C23.0399 56.3357 24.2392 57.5349 25.7185 57.5349Z" fill="#E1D8EA"/>
<path opacity="0.5" d="M25.7185 83.6238C27.1978 83.6238 28.3969 82.4246 28.3969 80.9453C28.3969 79.466 27.1978 78.2668 25.7185 78.2668C24.2392 78.2668 23.0399 79.466 23.0399 80.9453C23.0399 82.4246 24.2392 83.6238 25.7185 83.6238Z" fill="#E1D8EA"/>
<path opacity="0.5" d="M25.7185 109.713C27.1978 109.713 28.3969 108.514 28.3969 107.034C28.3969 105.555 27.1978 104.356 25.7185 104.356C24.2392 104.356 23.0399 105.555 23.0399 107.034C23.0399 108.514 24.2392 109.713 25.7185 109.713Z" fill="#E1D8EA"/>
<path opacity="0.5" d="M25.7185 135.802C27.1978 135.802 28.3969 134.603 28.3969 133.123C28.3969 131.644 27.1978 130.445 25.7185 130.445C24.2392 130.445 23.0399 131.644 23.0399 133.123C23.0399 134.603 24.2392 135.802 25.7185 135.802Z" fill="#E1D8EA"/>
<path opacity="0.5" d="M25.7185 161.891C27.1978 161.891 28.3969 160.692 28.3969 159.212C28.3969 157.733 27.1978 156.534 25.7185 156.534C24.2392 156.534 23.0399 157.733 23.0399 159.212C23.0399 160.692 24.2392 161.891 25.7185 161.891Z" fill="#E1D8EA"/>
<path opacity="0.5" d="M25.7185 187.98C24.2438 187.98 23.0399 186.776 23.0399 185.301C23.0399 183.827 24.2438 182.623 25.7185 182.623C27.1931 182.623 28.3969 183.827 28.3969 185.301C28.3969 186.791 27.1931 187.98 25.7185 187.98Z" fill="#E1D8EA"/>
<path opacity="0.5" d="M2.67909 5.35698C4.15839 5.35698 5.35754 4.15778 5.35754 2.67849C5.35754 1.1992 4.15839 0 2.67909 0C1.1998 0 0.000549316 1.1992 0.000549316 2.67849C0.000549316 4.15778 1.1998 5.35698 2.67909 5.35698Z" fill="#E1D8EA"/>
<path opacity="0.5" d="M2.67854 31.446C4.15784 31.446 5.35699 30.2468 5.35699 28.7675C5.35699 27.2882 4.15784 26.089 2.67854 26.089C1.19925 26.089 0 27.2882 0 28.7675C0 30.2468 1.19925 31.446 2.67854 31.446Z" fill="#E1D8EA"/>
<path opacity="0.5" d="M2.67854 57.5349C4.15784 57.5349 5.35699 56.3357 5.35699 54.8565C5.35699 53.3772 4.15784 52.178 2.67854 52.178C1.19925 52.178 0 53.3772 0 54.8565C0 56.3357 1.19925 57.5349 2.67854 57.5349Z" fill="#E1D8EA"/>
<path opacity="0.5" d="M2.67854 83.6238C4.15784 83.6238 5.35699 82.4246 5.35699 80.9453C5.35699 79.466 4.15784 78.2668 2.67854 78.2668C1.19925 78.2668 0 79.466 0 80.9453C0 82.4246 1.19925 83.6238 2.67854 83.6238Z" fill="#E1D8EA"/>
<path opacity="0.5" d="M2.67854 109.713C4.15784 109.713 5.35699 108.514 5.35699 107.034C5.35699 105.555 4.15784 104.356 2.67854 104.356C1.19925 104.356 0 105.555 0 107.034C0 108.514 1.19925 109.713 2.67854 109.713Z" fill="#E1D8EA"/>
<path opacity="0.5" d="M2.67854 135.802C4.15784 135.802 5.35699 134.603 5.35699 133.123C5.35699 131.644 4.15784 130.445 2.67854 130.445C1.19925 130.445 0 131.644 0 133.123C0 134.603 1.19925 135.802 2.67854 135.802Z" fill="#E1D8EA"/>
<path opacity="0.5" d="M2.67854 161.891C4.15784 161.891 5.35699 160.692 5.35699 159.212C5.35699 157.733 4.15784 156.534 2.67854 156.534C1.19925 156.534 0 157.733 0 159.212C0 160.692 1.19925 161.891 2.67854 161.891Z" fill="#E1D8EA"/>
<path opacity="0.5" d="M2.67854 187.98C1.20386 187.98 0 186.776 0 185.301C0 183.827 1.20386 182.623 2.67854 182.623C4.15322 182.623 5.35699 183.827 5.35699 185.301C5.35699 186.791 4.15322 187.98 2.67854 187.98Z" fill="#E1D8EA"/>
</g>
</svg>
