<svg width="21" height="21" viewBox="0 0 21 21" fill="none" xmlns="http://www.w3.org/2000/svg">
<path d="M18.9111 15.346L20.7632 13.4939C21.079 13.1781 21.079 12.6677 20.7632 12.3518C20.4474 12.036 19.9369 12.036 19.6211 12.3518L17.7691 14.2039L15.917 12.3518C15.6012 12.036 15.0908 12.036 14.7749 12.3518C14.4591 12.6677 14.4591 13.1781 14.7749 13.4939L16.627 15.346L14.7749 17.198C14.4591 17.5138 14.4591 18.0243 14.7749 18.3401C14.9324 18.4976 15.1392 18.5767 15.346 18.5767C15.5528 18.5767 15.7595 18.4976 15.917 18.3401L17.7691 16.488L19.6211 18.3401C19.7786 18.4976 19.9854 18.5767 20.1921 18.5767C20.3989 18.5767 20.6057 18.4976 20.7632 18.3401C21.079 18.0243 21.079 17.5138 20.7632 17.198L18.9111 15.346Z" fill="#A85766"/>
<path d="M12.9232 -6.10352e-05C11.1414 -6.10352e-05 9.69238 1.44894 9.69238 3.23072C9.69238 3.67656 10.0542 4.03841 10.5001 4.03841C10.9459 4.03841 11.3078 3.67656 11.3078 3.23072C11.3078 2.33983 12.0323 1.61533 12.9232 1.61533C13.3698 1.61533 13.7309 1.25348 13.7309 0.807633C13.7309 0.361786 13.3698 -6.10352e-05 12.9232 -6.10352e-05Z" fill="#A85766"/>
<path d="M15.3463 1.61533C16.2372 1.61533 16.9617 2.33983 16.9617 3.23072C16.9617 3.67656 17.3227 4.03841 17.7694 4.03841C18.216 4.03841 18.577 3.67656 18.577 3.23072C18.577 1.44894 17.128 -6.10352e-05 15.3463 -6.10352e-05C14.8996 -6.10352e-05 14.5386 0.361786 14.5386 0.807633C14.5386 1.25348 14.8996 1.61533 15.3463 1.61533Z" fill="#A85766"/>
<path d="M10.4998 16.9615C10.054 16.9615 9.69213 17.3226 9.69213 17.7692C9.69213 18.6601 8.96762 19.3846 8.07674 19.3846C7.63089 19.3846 7.26904 19.7457 7.26904 20.1923C7.26904 20.639 7.63089 21 8.07674 21C9.85851 21 11.3075 19.551 11.3075 17.7692C11.3075 17.3226 10.9457 16.9615 10.4998 16.9615Z" fill="#A85766"/>
<path d="M5.65363 19.3846C4.76274 19.3846 4.03824 18.6601 4.03824 17.7692C4.03824 17.3226 3.67639 16.9615 3.23055 16.9615C2.7847 16.9615 2.42285 17.3226 2.42285 17.7692C2.42285 19.551 3.87185 21 5.65363 21C6.09948 21 6.46132 20.639 6.46132 20.1923C6.46132 19.7457 6.09948 19.3846 5.65363 19.3846Z" fill="#A85766"/>
<path d="M18.5768 5.65382C18.5768 5.20798 18.2158 4.84613 17.7691 4.84613C17.3225 4.84613 16.9614 5.20798 16.9614 5.65382V7.26921C16.9614 7.71506 17.3225 8.07691 17.7691 8.07691C18.2158 8.07691 18.5768 7.71506 18.5768 7.26921V5.65382Z" fill="#A85766"/>
<path d="M10.5001 4.84613C10.0542 4.84613 9.69238 5.20798 9.69238 5.65382V7.26921C9.69238 7.71506 10.0542 8.07691 10.5001 8.07691C10.9459 8.07691 11.3078 7.71506 11.3078 7.26921V5.65382C11.3078 5.20798 10.9459 4.84613 10.5001 4.84613Z" fill="#A85766"/>
<path d="M10.5001 12.923C10.0542 12.923 9.69238 13.2841 9.69238 13.7307V15.3461C9.69238 15.7928 10.0542 16.1538 10.5001 16.1538C10.9459 16.1538 11.3078 15.7928 11.3078 15.3461V13.7307C11.3078 13.2841 10.9459 12.923 10.5001 12.923Z" fill="#A85766"/>
<path d="M2.42285 15.3461C2.42285 15.7928 2.7847 16.1538 3.23055 16.1538C3.67639 16.1538 4.03824 15.7928 4.03824 15.3461V13.7307C4.03824 13.2841 3.67639 12.923 3.23055 12.923C2.7847 12.923 2.42285 13.2841 2.42285 13.7307V15.3461Z" fill="#A85766"/>
<path d="M3.23055 12.1154C3.67639 12.1154 4.03824 11.7543 4.03824 11.3077V9.69228C4.03824 9.24643 3.67639 8.88458 3.23055 8.88458C2.7847 8.88458 2.42285 9.24643 2.42285 9.69228V11.3077C2.42285 11.7543 2.7847 12.1154 3.23055 12.1154Z" fill="#A85766"/>
<path d="M3.23078 1.61536C1.449 1.61536 0 3.06436 0 4.84613C0 6.62791 1.449 8.07691 3.23078 8.07691C5.01255 8.07691 6.46155 6.62791 6.46155 4.84613C6.46155 3.06436 5.01255 1.61536 3.23078 1.61536ZM3.23078 6.46152C2.33989 6.46152 1.61539 5.73702 1.61539 4.84613C1.61539 3.95525 2.33989 3.23074 3.23078 3.23074C4.12166 3.23074 4.84617 3.95525 4.84617 4.84613C4.84617 5.73702 4.12166 6.46152 3.23078 6.46152Z" fill="#A85766"/>
<path d="M10.5001 8.88458C10.0542 8.88458 9.69238 9.24643 9.69238 9.69228V11.3077C9.69238 11.7543 10.0542 12.1154 10.5001 12.1154C10.9459 12.1154 11.3078 11.7543 11.3078 11.3077V9.69228C11.3078 9.24643 10.9459 8.88458 10.5001 8.88458Z" fill="#A85766"/>
<path d="M17.7691 8.88458C17.3225 8.88458 16.9614 9.24643 16.9614 9.69228V11.3077C16.9614 11.7543 17.3225 12.1154 17.7691 12.1154C18.2158 12.1154 18.5768 11.7543 18.5768 11.3077V9.69228C18.5768 9.24643 18.2158 8.88458 17.7691 8.88458Z" fill="#A85766"/>
</svg>
