<svg width="9" height="10" viewBox="0 0 9 10" fill="none" xmlns="http://www.w3.org/2000/svg">
<path d="M4.08472 5.0073e-09C3.00842 -5.26947e-05 1.9756 0.415878 1.21073 1.15739C0.445863 1.89891 0.0107629 2.90607 0 3.95999C0 6.69998 3.59966 9.74997 3.75284 9.87997C3.84532 9.95743 3.96302 10 4.08472 10C4.20642 10 4.32412 9.95743 4.4166 9.87997C4.59531 9.74997 8.16944 6.69998 8.16944 3.95999C8.15867 2.90607 7.72357 1.89891 6.9587 1.15739C6.19383 0.415878 5.16101 -5.26947e-05 4.08472 5.0073e-09ZM4.08472 8.82497C3.23203 8.02997 1.02118 5.82498 1.02118 3.95999C1.02118 3.16434 1.34394 2.40128 1.91847 1.83867C2.49299 1.27607 3.27222 0.959997 4.08472 0.959997C4.89722 0.959997 5.67644 1.27607 6.25097 1.83867C6.82549 2.40128 7.14826 3.16434 7.14826 3.95999C7.14826 5.80998 4.9374 8.02997 4.08472 8.82497Z" fill="#444444"/>
<path d="M4.08516 2C3.73171 2 3.3862 2.10264 3.09232 2.29493C2.79844 2.48722 2.56939 2.76053 2.43413 3.08031C2.29887 3.40008 2.26348 3.75194 2.33243 4.09141C2.40139 4.43088 2.57159 4.7427 2.82152 4.98744C3.07144 5.23218 3.38986 5.39886 3.73652 5.46638C4.08318 5.5339 4.4425 5.49925 4.76904 5.3668C5.09558 5.23434 5.37468 5.01004 5.57105 4.72225C5.76741 4.43447 5.87222 4.09612 5.87222 3.75C5.87222 3.28587 5.68394 2.84075 5.3488 2.51256C5.01367 2.18437 4.55912 2 4.08516 2ZM4.08516 4.5C3.93368 4.5 3.78561 4.45602 3.65966 4.37361C3.53371 4.2912 3.43554 4.17406 3.37758 4.03702C3.31961 3.89997 3.30444 3.74917 3.33399 3.60368C3.36354 3.4582 3.43649 3.32456 3.5436 3.21967C3.65071 3.11478 3.78718 3.04335 3.93574 3.01441C4.08431 2.98547 4.2383 3.00033 4.37825 3.05709C4.5182 3.11386 4.63781 3.20999 4.72197 3.33332C4.80613 3.45666 4.85104 3.60167 4.85104 3.75C4.85104 3.94892 4.77035 4.13968 4.62672 4.28033C4.48309 4.42099 4.28829 4.5 4.08516 4.5Z" fill="#444444"/>
</svg>
