<svg width="17" height="18" viewBox="0 0 17 18" fill="none" xmlns="http://www.w3.org/2000/svg">
<path d="M8.26977 6.04168C9.17151 6.04168 10.0363 6.39645 10.6739 7.02795C11.3116 7.65944 11.6698 8.51593 11.6698 9.40899C11.6698 10.3021 11.3116 11.1585 10.6739 11.79C10.0363 12.4215 9.17151 12.7763 8.26977 12.7763C7.36803 12.7763 6.50323 12.4215 5.86561 11.79C5.22798 11.1585 4.86977 10.3021 4.86977 9.40899C4.86977 8.51593 5.22798 7.65944 5.86561 7.02795C6.50323 6.39645 7.36803 6.04168 8.26977 6.04168ZM8.26977 7.72534C7.8189 7.72534 7.3865 7.90272 7.06769 8.21847C6.74888 8.53422 6.56977 8.96246 6.56977 9.40899C6.56977 9.85552 6.74888 10.2838 7.06769 10.5995C7.3865 10.9153 7.8189 11.0926 8.26977 11.0926C8.72064 11.0926 9.15304 10.9153 9.47185 10.5995C9.79066 10.2838 9.96977 9.85552 9.96977 9.40899C9.96977 8.96246 9.79066 8.53422 9.47185 8.21847C9.15304 7.90272 8.72064 7.72534 8.26977 7.72534ZM6.56977 17.8273C6.35727 17.8273 6.17877 17.6757 6.14477 17.4737L5.83027 15.2429C5.29477 15.0324 4.83577 14.7462 4.39377 14.4094L2.27727 15.2597C2.09027 15.327 1.86077 15.2597 1.75877 15.0745L0.0587695 12.1618C0.00674574 12.075 -0.0115945 11.9725 0.00717841 11.8733C0.0259514 11.7742 0.0805521 11.6852 0.16077 11.623L1.95427 10.2256L1.89477 9.40899L1.95427 8.56716L0.16077 7.19499C0.0805521 7.1328 0.0259514 7.04381 0.00717841 6.94465C-0.0115945 6.84549 0.00674574 6.74296 0.0587695 6.65622L1.75877 3.7435C1.86077 3.55829 2.09027 3.48253 2.27727 3.55829L4.39377 4.40012C4.83577 4.07181 5.29477 3.78559 5.83027 3.57513L6.14477 1.34429C6.17877 1.14225 6.35727 0.990723 6.56977 0.990723H9.96977C10.1823 0.990723 10.3608 1.14225 10.3948 1.34429L10.7093 3.57513C11.2448 3.78559 11.7038 4.07181 12.1458 4.40012L14.2623 3.55829C14.4493 3.48253 14.6788 3.55829 14.7808 3.7435L16.4808 6.65622C16.5913 6.84142 16.5403 7.06871 16.3788 7.19499L14.5853 8.56716L14.6448 9.40899L14.5853 10.2508L16.3788 11.623C16.5403 11.7493 16.5913 11.9766 16.4808 12.1618L14.7808 15.0745C14.6788 15.2597 14.4493 15.3355 14.2623 15.2597L12.1458 14.4179C11.7038 14.7462 11.2448 15.0324 10.7093 15.2429L10.3948 17.4737C10.3608 17.6757 10.1823 17.8273 9.96977 17.8273H6.56977ZM7.63227 2.67438L7.31777 4.87154C6.29777 5.082 5.39677 5.62077 4.74227 6.37L2.69377 5.4945L2.05627 6.58887L3.84977 7.8937C3.50977 8.87583 3.50977 9.94215 3.84977 10.9243L2.04777 12.2375L2.68527 13.3319L4.75077 12.4564C5.40527 13.1972 6.29777 13.736 7.30927 13.938L7.62377 16.1436H8.91577L9.23027 13.9464C10.2418 13.736 11.1343 13.1972 11.7888 12.4564L13.8543 13.3319L14.4918 12.2375L12.6898 10.9327C13.0298 9.94776 13.0298 8.87864 12.6898 7.8937L14.4833 6.58887L13.8458 5.4945L11.7973 6.37C11.1294 5.60421 10.2234 5.08004 9.22177 4.87996L8.90727 2.67438H7.63227Z" fill="#A85766"/>
</svg>
