<svg width="17" height="18" viewBox="0 0 17 18" fill="none" xmlns="http://www.w3.org/2000/svg">
<path d="M9.44602 0.307861H7.55745V9.65988H9.44602V0.307861ZM14.0069 2.33725L12.666 3.66524C13.4296 4.27391 14.0456 5.04437 14.4689 5.91995C14.8921 6.79552 15.1118 7.75394 15.1117 8.72468C15.1117 10.4609 14.4153 12.126 13.1757 13.3537C11.9361 14.5814 10.2548 15.2711 8.50173 15.2711C7.13746 15.2719 5.8064 14.8543 4.69142 14.0757C3.57645 13.2971 2.73226 12.1956 2.27485 10.9227C1.81743 9.64971 1.76923 8.26771 2.13687 6.96654C2.50451 5.66536 3.26994 4.50885 4.32801 3.65588L2.99657 2.33725C2.14572 3.05313 1.44561 3.92801 0.936225 4.91191C0.426846 5.89582 0.11818 6.96948 0.0278601 8.07156C-0.0624599 9.17363 0.0673355 10.2825 0.409832 11.3349C0.752329 12.3873 1.30082 13.3626 2.02396 14.205C5.06455 17.74 10.4281 18.1702 14.0069 15.1589C14.9479 14.3662 15.7032 13.3799 16.2201 12.2687C16.7371 11.1576 17.0033 9.94814 17.0003 8.72468C17.0003 6.2651 15.9049 3.92709 14.0069 2.33725Z" fill="#A85766"/>
</svg>
