<svg width="477" height="293" viewBox="0 0 477 293" fill="none" xmlns="http://www.w3.org/2000/svg">
<path d="M76.4878 151.903C75.0655 150.915 73.5739 149.883 72.195 148.929C71.3798 148.374 70.6339 147.871 70.0442 147.481C69.7754 147.229 69.3504 146.943 69.0469 146.709C69.2117 146.848 69.125 146.839 68.9949 146.743C68.0409 146.067 68.9081 146.735 67.9282 146.076C67.3818 145.729 66.1417 144.853 64.8928 143.96C63.1324 142.693 61.3459 141.41 60.496 140.803C60.4353 141.002 60.4093 141.124 60.3746 141.219C60.2531 141.844 60.0884 142.468 59.9323 143.084C59.8542 143.396 59.7675 143.699 59.6894 144.003C59.6634 144.124 59.6287 144.246 59.6027 144.359C59.5854 144.445 59.568 144.523 59.5507 144.601V144.532C59.4033 145.2 58.3366 148.912 58.1631 149.683L58.1978 149.579C58.0677 150.264 58.007 150.143 57.8422 150.663C57.9463 150.62 57.8509 151.201 57.7989 151.427L57.7815 151.409C57.7121 151.739 57.5907 152.511 57.4607 153.057L57.4173 153.022C57.3479 153.491 57.1051 154.34 57.0184 154.661C56.8016 155.398 56.4113 156.526 56.2118 157.541L55.8996 158.148L55.891 158.243L55.5788 160.489C55.518 161.001 57.6514 159.813 57.6775 159.873C57.5214 159.934 57.3653 160.003 57.3219 160.003C57.3739 160.012 57.6775 159.899 57.8336 159.813V159.735C58.1978 159.553 57.9376 159.735 58.2932 159.579C58.3366 159.622 58.007 159.778 57.7208 159.908C57.9897 159.804 58.2672 159.735 58.3452 159.631C58.6054 159.544 58.3452 159.709 58.6488 159.605C58.8569 159.5 59.1084 159.327 59.3686 159.258V159.266C59.9843 159.076 60.2445 158.798 60.8082 158.625L60.7561 158.668C60.9556 158.616 61.3198 158.416 61.6841 158.304C61.58 158.338 61.4759 158.33 61.6841 158.234C62.0917 158.104 62.3519 157.948 62.6641 157.87L62.9242 157.697C64.3118 157.124 69.7407 154.739 71.1283 154.141L71.0762 154.176C72.4291 153.638 74.3804 152.805 76.4878 151.903Z" fill="#FEE8E7"/>
<path d="M80.6422 169.283C79.2286 170.289 77.7543 171.338 76.384 172.309C75.5862 172.882 74.8577 173.419 74.294 173.844C73.9645 174.009 73.5569 174.313 73.236 174.521C73.4268 174.417 73.3834 174.495 73.2533 174.59C72.2907 175.258 73.21 174.668 72.256 175.362C71.7443 175.752 70.5042 176.628 69.238 177.495C67.4515 178.718 65.639 179.967 64.7804 180.557C64.9452 180.678 65.0493 180.747 65.136 180.808C65.6824 181.138 66.2114 181.493 66.7404 181.866C67.0006 182.048 67.2694 182.23 67.5209 182.404C67.625 182.473 67.729 182.543 67.8244 182.612C67.8938 182.655 67.9632 182.699 68.0326 182.742L67.9719 182.725C68.5529 183.089 71.6836 185.352 72.3514 185.786L72.2733 185.717C72.8717 186.072 72.7416 186.09 73.1753 186.419C73.1666 186.306 73.6869 186.601 73.8777 186.723L73.8604 186.731C74.1466 186.914 74.8317 187.286 75.3 187.599L75.2566 187.633C75.6729 187.859 76.384 188.379 76.6702 188.561C77.2946 189.021 78.2226 189.767 79.1072 190.304L79.5755 190.807L79.6622 190.851L81.6742 191.909C82.1338 192.143 81.7435 189.732 81.8043 189.723C81.8129 189.888 81.8216 190.053 81.8129 190.105C81.839 190.062 81.839 189.732 81.8129 189.559L81.7436 189.533C81.7002 189.134 81.7782 189.437 81.7522 189.047C81.8129 189.021 81.8389 189.385 81.865 189.697C81.8563 189.411 81.8823 189.125 81.8129 189.012C81.8216 188.743 81.8823 189.038 81.891 188.717C81.865 188.492 81.7869 188.188 81.8129 187.92L81.8216 187.928C81.8476 187.278 81.6828 186.948 81.7089 186.358L81.7349 186.419C81.7609 186.211 81.6915 185.803 81.7089 185.422C81.7002 185.526 81.6655 185.621 81.6482 185.405C81.6655 184.971 81.6135 184.676 81.6395 184.364L81.5701 184.069C81.5007 182.569 81.1105 176.645 81.0151 175.145L81.0237 175.206C80.8937 173.697 80.7722 171.572 80.6422 169.283Z" fill="#FEE8E7"/>
<path d="M105.013 210.294C104.466 209.6 103.894 208.863 103.365 208.187C103.053 207.797 102.767 207.432 102.532 207.155C102.437 206.99 102.272 206.791 102.159 206.626C102.22 206.721 102.177 206.704 102.125 206.635C101.761 206.158 102.081 206.617 101.709 206.149C101.5 205.897 101.023 205.282 100.546 204.657C99.8787 203.773 99.2022 202.879 98.8813 202.454C98.8206 202.541 98.7859 202.593 98.7599 202.637C98.6038 202.923 98.4304 203.2 98.2569 203.478C98.1702 203.617 98.0835 203.755 97.9968 203.894C97.9621 203.946 97.9274 203.998 97.9014 204.059C97.884 204.094 97.858 204.137 97.8407 204.172L97.8493 204.137C97.6759 204.44 96.5918 206.088 96.3924 206.444L96.4271 206.4C96.2623 206.713 96.2449 206.652 96.0888 206.877C96.1496 206.869 96.0108 207.146 95.9501 207.242L95.9414 207.233C95.8547 207.389 95.6812 207.745 95.5338 207.987L95.5165 207.961C95.4124 208.178 95.1609 208.551 95.0742 208.707C94.8574 209.037 94.4931 209.522 94.2416 209.991L93.9988 210.242L93.9815 210.286L93.4871 211.335C93.3744 211.578 94.5972 211.318 94.6059 211.352C94.5191 211.361 94.4324 211.37 94.4064 211.361C94.4324 211.378 94.5972 211.37 94.6839 211.344L94.6926 211.309C94.8921 211.274 94.7446 211.326 94.9441 211.3C94.9614 211.326 94.7706 211.352 94.6145 211.37C94.762 211.361 94.9094 211.37 94.9614 211.326C95.1002 211.326 94.9528 211.361 95.1175 211.361C95.2303 211.344 95.3864 211.3 95.5251 211.3V211.309C95.8547 211.309 96.0195 211.214 96.323 211.214L96.2883 211.231C96.3924 211.24 96.6005 211.196 96.7913 211.196C96.7393 211.196 96.6872 211.179 96.8 211.161C97.0255 211.161 97.1729 211.127 97.329 211.135L97.4764 211.092C98.2396 211.023 101.249 210.685 102.021 210.598L101.995 210.606C102.767 210.52 103.842 210.407 105.013 210.294Z" fill="#FEE8E7"/>
<path d="M7.98748 163.047C7.27635 163.576 6.53052 164.131 5.84541 164.643C5.44648 164.946 5.07357 165.224 4.79606 165.449C4.63128 165.536 4.42314 165.692 4.25836 165.805C4.35376 165.753 4.33642 165.788 4.26705 165.84C3.78139 166.187 4.2497 165.883 3.76405 166.247C3.50388 166.455 2.87947 166.915 2.24639 167.375C1.34446 168.025 0.433867 168.676 0.000249898 168.988C0.0869734 169.048 0.139 169.083 0.182362 169.118C0.468549 169.283 0.737398 169.456 1.01491 169.638C1.15367 169.725 1.29243 169.82 1.42251 169.907C1.47455 169.942 1.52658 169.976 1.57861 170.011C1.6133 170.028 1.64799 170.054 1.69136 170.072L1.65666 170.063C1.96019 170.245 3.58193 171.364 3.92882 171.572L3.88546 171.537C4.19766 171.711 4.12828 171.72 4.35376 171.884C4.34509 171.824 4.61393 171.971 4.718 172.032L4.70933 172.04C4.85676 172.127 5.21233 172.309 5.45515 172.465L5.42914 172.483C5.64595 172.595 6.01018 172.847 6.15761 172.942C6.47849 173.168 6.96415 173.541 7.42378 173.801L7.66661 174.052L7.70997 174.07L8.75065 174.59C8.99348 174.703 8.75932 173.48 8.79401 173.471C8.80269 173.558 8.80268 173.645 8.80268 173.671C8.82003 173.645 8.81136 173.48 8.79401 173.393L8.75932 173.385C8.7333 173.185 8.77666 173.333 8.75932 173.133C8.78533 173.124 8.81136 173.307 8.82003 173.463C8.81136 173.315 8.82002 173.168 8.78533 173.116C8.78533 172.977 8.82003 173.124 8.82003 172.96C8.80268 172.847 8.75933 172.691 8.768 172.552H8.77667C8.78534 172.223 8.68994 172.058 8.69862 171.754L8.70728 171.789C8.71596 171.685 8.68127 171.477 8.68127 171.286C8.68127 171.338 8.66392 171.39 8.64657 171.277C8.64657 171.052 8.62056 170.904 8.62924 170.748L8.58587 170.601C8.53384 169.838 8.26499 166.82 8.20429 166.048L8.21295 166.074C8.16092 165.293 8.0742 164.209 7.98748 163.047Z" fill="#FEE8E7"/>
<path d="M82.2026 109.418C80.5289 108.975 78.7771 108.516 77.1553 108.082C76.2014 107.839 75.3255 107.614 74.6403 107.458C74.3021 107.31 73.8078 107.189 73.4436 107.076C73.643 107.154 73.565 107.171 73.4002 107.128C72.2728 106.816 73.3135 107.145 72.1687 106.859C71.5356 106.712 70.0787 106.322 68.5957 105.905C66.5057 105.316 64.3896 104.726 63.3923 104.44C63.4096 104.648 63.4183 104.769 63.427 104.873C63.5224 105.506 63.5831 106.14 63.6438 106.781C63.6698 107.102 63.7045 107.423 63.7305 107.727C63.7392 107.848 63.7566 107.969 63.7652 108.091C63.7739 108.169 63.7912 108.256 63.7999 108.334L63.7739 108.273C63.8693 108.949 64.1295 112.809 64.2249 113.589V113.485C64.3376 114.17 64.2422 114.083 64.2595 114.63C64.3463 114.552 64.4503 115.133 64.4763 115.358L64.459 115.35C64.5024 115.688 64.6498 116.451 64.7192 117.006L64.6671 116.989C64.7625 117.448 64.8146 118.333 64.8579 118.671C64.9013 119.443 64.9186 120.631 65.0834 121.654L64.9967 122.331L65.0227 122.426L65.491 124.646C65.6038 125.149 67.2081 123.302 67.2515 123.345C67.1301 123.458 67.0087 123.571 66.9566 123.597C67.0087 123.588 67.2602 123.38 67.3729 123.25L67.3469 123.181C67.6244 122.886 67.4423 123.146 67.7285 122.877C67.7805 122.903 67.529 123.163 67.2949 123.38C67.5117 123.189 67.7458 123.025 67.7892 122.903C68.006 122.738 67.8152 122.973 68.0667 122.773C68.2228 122.6 68.4049 122.357 68.6217 122.201V122.209C69.1334 121.819 69.2808 121.472 69.7578 121.117L69.7231 121.177C69.8966 121.065 70.1654 120.752 70.4689 120.518C70.3822 120.579 70.2868 120.614 70.4429 120.458C70.7812 120.189 70.9719 119.963 71.2408 119.781L71.4229 119.53C72.533 118.515 76.8258 114.422 77.9272 113.39L77.8925 113.433C78.9765 112.436 80.5289 110.987 82.2026 109.418Z" fill="#FEE8E7"/>
<path d="M44.1924 147.845C43.0303 146.561 41.8162 145.208 40.6974 143.959C40.0297 143.231 39.4226 142.572 38.9369 142.06C38.7288 141.748 38.3906 141.375 38.1478 141.08C38.2692 141.254 38.1911 141.228 38.0871 141.097C37.3152 140.222 38.009 141.063 37.2025 140.195C36.7515 139.727 35.7455 138.6 34.7308 137.446C33.3086 135.807 31.8603 134.151 31.1752 133.37C31.0711 133.552 31.0191 133.657 30.967 133.752C30.7069 134.333 30.4033 134.897 30.0998 135.469C29.9524 135.755 29.7963 136.033 29.6575 136.31C29.5968 136.423 29.5448 136.527 29.4928 136.64C29.4581 136.718 29.4234 136.787 29.3887 136.865L29.3974 136.796C29.1025 137.412 27.2119 140.785 26.865 141.496L26.9257 141.41C26.6482 142.043 26.6135 141.921 26.3273 142.381C26.4401 142.364 26.2146 142.91 26.1105 143.109L26.0932 143.092C25.9458 143.396 25.6509 144.115 25.3994 144.618L25.3647 144.575C25.1913 145.017 24.7576 145.781 24.6015 146.084C24.22 146.752 23.5782 147.758 23.1533 148.703L22.711 149.223L22.6763 149.319L21.8524 151.435C21.6703 151.921 24.0292 151.253 24.0378 151.313C23.8731 151.339 23.7083 151.365 23.6563 151.365C23.6996 151.391 24.0292 151.348 24.1939 151.305L24.2113 151.227C24.6015 151.131 24.3067 151.253 24.6969 151.183C24.7316 151.235 24.3761 151.313 24.0639 151.365C24.3414 151.322 24.6362 151.322 24.7403 151.235C25.0091 151.218 24.723 151.313 25.0438 151.279C25.2693 151.227 25.5555 151.114 25.8244 151.105V151.114C26.4661 151.062 26.7783 150.862 27.368 150.819L27.3073 150.845C27.5155 150.845 27.9144 150.732 28.2873 150.706C28.1832 150.715 28.0792 150.689 28.3046 150.646C28.7383 150.611 29.0158 150.524 29.3366 150.516L29.6228 150.412C31.1058 150.169 36.9423 149.102 38.4253 148.842L38.3732 148.859C39.8389 148.599 41.9289 148.235 44.1924 147.845Z" fill="#FEE8E7"/>
<path d="M52.5449 170.688C50.8538 170.315 49.0846 169.925 47.4456 169.56C46.4829 169.352 45.5984 169.17 44.9046 169.04C44.5577 168.901 44.0634 168.806 43.6904 168.702C43.8899 168.771 43.8119 168.797 43.6471 168.754C42.511 168.494 43.5604 168.771 42.4069 168.537C41.7739 168.416 40.2909 168.086 38.7992 167.73C36.6919 167.227 34.5498 166.724 33.5351 166.482C33.5611 166.69 33.5698 166.811 33.5872 166.915C33.7086 167.54 33.7953 168.173 33.882 168.814C33.9254 169.135 33.9687 169.448 34.0034 169.76C34.0208 169.881 34.0381 170.003 34.0555 170.124C34.0728 170.211 34.0902 170.289 34.0988 170.367L34.0728 170.306C34.1942 170.983 34.6105 174.824 34.7406 175.605V175.501C34.8793 176.177 34.7753 176.099 34.8186 176.646C34.9054 176.559 35.0354 177.14 35.0701 177.365L35.0441 177.357C35.1048 177.695 35.2869 178.449 35.365 179.004L35.313 178.987C35.4257 179.447 35.5211 180.323 35.5645 180.661C35.6425 181.424 35.7119 182.621 35.9113 183.636L35.8506 184.312L35.8767 184.407L36.4404 186.61C36.5791 187.113 38.1055 185.197 38.1488 185.24C38.0274 185.361 37.906 185.474 37.8713 185.5C37.9233 185.491 38.1662 185.266 38.2789 185.136L38.2529 185.066C38.5217 184.763 38.3483 185.032 38.6171 184.746C38.6692 184.772 38.4263 185.04 38.2095 185.266C38.4177 185.066 38.6431 184.893 38.6865 184.772C38.8946 184.598 38.7125 184.841 38.964 184.633C39.1114 184.459 39.2849 184.199 39.5017 184.043V184.052C39.996 183.636 40.1348 183.289 40.5944 182.916L40.5597 182.976C40.7332 182.855 40.9847 182.534 41.2795 182.291C41.1928 182.361 41.0974 182.395 41.2535 182.231C41.5831 181.953 41.7652 181.719 42.0167 181.519L42.1901 181.268C43.2568 180.21 47.3849 175.943 48.4342 174.868L48.3995 174.92C49.4489 173.836 50.9405 172.327 52.5449 170.688Z" fill="#FEE8E7"/>
<path d="M101.143 130.057C99.4168 129.901 97.6129 129.728 95.9392 129.571C94.9592 129.485 94.0573 129.415 93.3548 129.372C92.9906 129.285 92.4876 129.242 92.106 129.19C92.3141 129.233 92.2361 129.268 92.0713 129.251C90.9092 129.129 91.9846 129.285 90.8138 129.19C90.172 129.155 88.6631 129.008 87.1367 128.843C84.9773 128.609 82.7919 128.375 81.7599 128.253C81.8119 128.453 81.8379 128.574 81.8639 128.678C82.0634 129.285 82.2282 129.901 82.393 130.525C82.4797 130.838 82.5577 131.141 82.6358 131.445C82.6705 131.566 82.7052 131.679 82.7398 131.8C82.7659 131.878 82.7919 131.956 82.8179 132.034L82.7832 131.974C82.9827 132.624 83.8846 136.388 84.1101 137.142L84.0927 137.038C84.3182 137.697 84.2055 137.628 84.3182 138.157C84.3876 138.062 84.5871 138.625 84.6564 138.842H84.6304C84.7345 139.172 85.0033 139.892 85.1594 140.438L85.1074 140.429C85.2809 140.872 85.4803 141.73 85.567 142.06C85.7405 142.814 85.9573 143.985 86.2782 144.965L86.3042 145.65L86.3389 145.745L87.1714 147.853C87.3709 148.33 88.6457 146.24 88.6891 146.283C88.585 146.413 88.4809 146.543 88.4463 146.578C88.4983 146.561 88.7064 146.309 88.8018 146.162L88.7671 146.092C88.9926 145.754 88.8539 146.04 89.0967 145.728C89.1574 145.745 88.9493 146.04 88.7585 146.292C88.9406 146.066 89.1487 145.867 89.1661 145.737C89.3482 145.537 89.2008 145.806 89.4176 145.563C89.5477 145.372 89.6864 145.095 89.8772 144.904L89.8859 144.913C90.3282 144.445 90.4149 144.08 90.8225 143.647L90.7965 143.707C90.9526 143.56 91.1607 143.213 91.4209 142.936C91.3428 143.014 91.2561 143.057 91.3862 142.875C91.681 142.554 91.8285 142.302 92.054 142.077L92.1927 141.799C93.1207 140.62 96.6763 135.868 97.5956 134.671L97.5696 134.723C98.4628 133.569 99.755 131.878 101.143 130.057Z" fill="#FEE8E7"/>
<path d="M101.292 151.028C102.219 152.485 103.199 154.02 104.101 155.433C104.639 156.257 105.133 157.02 105.524 157.601C105.671 157.939 105.949 158.364 106.148 158.694C106.053 158.503 106.131 158.538 106.217 158.685C106.833 159.674 106.295 158.729 106.946 159.717C107.31 160.255 108.117 161.53 108.932 162.839C110.068 164.687 111.221 166.56 111.768 167.444C111.898 167.28 111.976 167.184 112.037 167.106C112.392 166.577 112.782 166.065 113.173 165.554C113.363 165.302 113.563 165.042 113.754 164.799C113.832 164.695 113.901 164.6 113.97 164.504C114.023 164.435 114.066 164.366 114.109 164.296L114.083 164.357C114.473 163.793 116.893 160.784 117.353 160.142L117.275 160.22C117.656 159.639 117.674 159.769 118.029 159.353C117.916 159.353 118.229 158.85 118.367 158.668L118.376 158.685C118.576 158.408 118.983 157.749 119.313 157.289L119.339 157.341C119.582 156.933 120.137 156.248 120.336 155.979C120.822 155.381 121.62 154.497 122.201 153.638L122.721 153.196L122.764 153.109L123.926 151.158C124.187 150.707 121.75 150.976 121.75 150.915C121.914 150.915 122.079 150.915 122.131 150.932C122.088 150.906 121.758 150.889 121.585 150.906L121.559 150.976C121.16 151.002 121.463 150.932 121.073 150.941C121.056 150.88 121.411 150.871 121.732 150.863C121.446 150.854 121.16 150.811 121.047 150.88C120.778 150.854 121.082 150.811 120.752 150.785C120.527 150.802 120.223 150.863 119.954 150.828L119.963 150.819C119.321 150.759 118.974 150.915 118.393 150.854L118.454 150.837C118.246 150.802 117.838 150.854 117.465 150.811C117.57 150.819 117.665 150.863 117.439 150.871C117.006 150.837 116.711 150.871 116.399 150.828L116.095 150.889C114.595 150.88 108.663 150.976 107.154 150.993L107.215 150.984C105.714 150.993 103.581 151.01 101.292 151.028Z" fill="#FEE8E7"/>
<path d="M282.248 48.4052L282.84 49.6288C261.515 59.9923 244.579 76.6839 233.863 97.9098C217.262 130.792 218.532 169.396 237.262 201.177L236.089 201.865C217.116 169.691 215.837 130.599 232.649 97.2973C243.497 75.8106 260.655 58.904 282.248 48.4052Z" fill="#FFCDD2" fill-opacity="0.38"/>
<path d="M379.068 49.1217C432.722 76.21 454.337 141.903 427.249 195.558C400.16 249.212 334.467 270.827 280.813 243.738L281.425 242.525C334.411 269.276 399.274 247.925 426.018 194.951C452.769 141.965 431.418 77.1024 378.444 50.3576C362.434 42.2747 344.556 38.2857 326.751 38.8301L326.711 37.4723C344.76 36.8948 362.865 40.9414 379.068 49.1217Z" fill="#FFCDD2" fill-opacity="0.38"/>
<path d="M413.803 94.7738C431.866 124.155 433.374 160.061 417.849 190.812L415.411 189.581C430.507 159.681 429.035 124.775 411.474 96.2019L413.803 94.7738Z" fill="#FFCDD2" fill-opacity="0.38"/>
<path d="M374.327 58.5086C383.965 63.3744 392.649 69.7078 400.157 77.326L398.213 79.2328C390.914 71.8199 382.468 65.6636 373.091 60.9294C329.063 38.7012 275.843 53.2239 249.325 94.7301L247.024 93.2557C274.308 50.5992 329.041 35.645 374.327 58.5086Z" fill="#FFCDD2" fill-opacity="0.38"/>
<path d="M238.665 117.479C231.839 138.919 232.845 162.236 241.517 183.134C250.274 204.259 266.362 221.573 286.794 231.889C303.292 240.218 321.677 243.595 339.976 241.65C361.298 239.381 381.466 229.927 396.77 215.03L398.671 216.986C382.939 232.308 362.197 242.026 340.272 244.361C321.451 246.355 302.543 242.885 285.58 234.321C264.558 223.708 248.024 205.898 239.014 184.175C230.099 162.685 229.062 138.698 236.083 116.646L238.665 117.479Z" fill="#FFCDD2" fill-opacity="0.38"/>
<path d="M361.997 82.9328C397.011 100.61 411.114 143.473 393.436 178.486C386.281 192.66 374.945 203.755 360.672 210.579L359.494 208.12C373.227 201.55 384.118 190.885 390.999 177.256C407.995 143.591 394.431 102.367 360.766 85.3706C354.791 82.3538 348.448 80.2331 341.932 79.0774L342.408 76.3867C349.203 77.5833 355.795 79.8015 361.997 82.9328Z" fill="#FFCDD2" fill-opacity="0.38"/>
<path d="M310.7 77.9505L311.439 80.5721C293.015 85.7549 277.508 98.5154 268.887 115.591C262.819 127.61 260.438 141.007 261.994 154.328L259.289 154.641C257.662 140.786 260.141 126.856 266.455 114.349C275.425 96.6101 291.547 83.335 310.7 77.9505Z" fill="#FFCDD2" fill-opacity="0.38"/>
<path d="M267.821 175.057C274.338 189.232 285.167 200.448 299.113 207.489C311.348 213.666 324.972 216.019 338.521 214.294L338.862 216.999C324.779 218.796 310.61 216.338 297.888 209.915C283.375 202.588 272.116 190.928 265.345 176.183L267.821 175.057Z" fill="#FFCDD2" fill-opacity="0.38"/>
<path d="M356.489 93.8416C365.039 98.1579 372.472 104.543 377.975 112.301L376.864 113.092C371.486 105.511 364.233 99.2738 355.888 95.0606C332.837 83.4227 304.647 88.6415 287.327 107.757L286.325 106.839C304.033 87.2644 332.894 81.929 356.489 93.8416Z" fill="#FFCDD2" fill-opacity="0.38"/>
<path d="M385.901 127.999C390.819 142.947 389.627 158.921 382.534 172.97C367.897 201.963 332.399 213.651 303.395 199.008C274.402 184.371 262.719 148.862 277.357 119.869L278.57 120.482C264.27 148.806 275.678 183.478 304.002 197.778C332.326 212.078 366.998 200.67 381.298 172.346C388.225 158.626 389.399 143.026 384.582 128.414L385.901 127.999Z" fill="#FFCDD2" fill-opacity="0.38"/>
<path d="M346.454 113.717C364.494 122.825 371.759 144.905 362.651 162.944C353.544 180.984 331.464 188.249 313.424 179.141L314.655 176.704C331.345 185.13 351.787 178.404 360.214 161.714C368.64 145.023 361.914 124.582 345.224 116.155C328.533 107.729 308.092 114.454 299.665 131.145L297.227 129.914C306.346 111.88 328.426 104.615 346.454 113.717Z" fill="#FFCDD2" fill-opacity="0.38"/>
<path d="M338.148 130.17C347.117 134.698 350.727 145.67 346.199 154.639L344.985 154.026C349.17 145.738 345.83 135.585 337.541 131.401C329.252 127.216 319.1 130.556 314.915 138.845C310.731 147.134 314.071 157.286 322.36 161.471C326.963 163.795 332.291 163.895 336.991 161.743L337.56 162.984C332.484 165.316 326.719 165.208 321.741 162.695C312.773 158.167 309.163 147.196 313.691 138.227C318.219 129.258 329.19 125.648 338.148 130.17Z" fill="#FFCDD2" fill-opacity="0.38"/>
</svg>
