<svg width="22" height="18" viewBox="0 0 22 18" fill="none" xmlns="http://www.w3.org/2000/svg">
<path d="M7.73525 1.98554C6.70945 1.98554 5.72567 2.40363 5.00032 3.14783C4.27497 3.89202 3.86748 4.90137 3.86748 5.95383C3.86748 7.00628 4.27497 8.01563 5.00032 8.75983C5.72567 9.50402 6.70945 9.92211 7.73525 9.92211C8.76104 9.92211 9.74482 9.50402 10.4702 8.75983C11.1955 8.01563 11.603 7.00628 11.603 5.95383C11.603 4.90137 11.1955 3.89202 10.4702 3.14783C9.74482 2.40363 8.76104 1.98554 7.73525 1.98554ZM1.93359 5.95383C1.93359 4.37515 2.54484 2.86112 3.63286 1.74483C4.72088 0.628532 6.19655 0.00140381 7.73525 0.00140381C9.27394 0.00140381 10.7496 0.628532 11.8376 1.74483C12.9257 2.86112 13.5369 4.37515 13.5369 5.95383C13.5369 7.53251 12.9257 9.04653 11.8376 10.1628C10.7496 11.2791 9.27394 11.9062 7.73525 11.9062C6.19655 11.9062 4.72088 11.2791 3.63286 10.1628C2.54484 9.04653 1.93359 7.53251 1.93359 5.95383Z" fill="#B49700"/>
<path d="M2.05379 15.8734H13.4173C12.8884 13.6938 10.6518 11.9051 7.73554 11.9051C4.81924 11.9051 2.5827 13.6938 2.05379 15.8734ZM0 16.8654C0 12.8922 3.60863 9.921 7.73554 9.921C11.8624 9.921 15.4711 12.8922 15.4711 16.8654C15.4711 17.1286 15.3692 17.3809 15.1879 17.5669C15.0065 17.753 14.7606 17.8575 14.5041 17.8575H0.966942C0.710493 17.8575 0.464548 17.753 0.283211 17.5669C0.101874 17.3809 0 17.1286 0 16.8654ZM14.5051 9.796C14.3902 10.0089 14.2657 10.2161 14.1319 10.417C14.7343 10.9627 15.2699 11.5837 15.7244 12.2662C17.5336 12.8962 18.8322 14.2801 19.2189 15.8734H17.2116C17.3382 16.5143 17.405 17.1779 17.405 17.8575H20.3058C20.5622 17.8575 20.8082 17.753 20.9895 17.5669C21.1709 17.3809 21.2727 17.1286 21.2727 16.8654C21.2727 14.0956 19.5187 11.8129 17.0588 10.6839C18.0674 9.89403 18.7958 8.7867 19.1324 7.53154C19.469 6.27638 19.3953 4.94261 18.9225 3.73455C18.4498 2.52648 17.604 1.51074 16.5149 0.842915C15.4257 0.175095 14.1532 -0.107975 12.8922 0.0370687C13.5386 0.630995 14.0835 1.33183 14.5041 2.11048C15.3336 2.33149 16.0681 2.82873 16.5924 3.5242C17.1166 4.21967 17.4011 5.07402 17.4011 5.95324C17.4011 6.83246 17.1166 7.68682 16.5924 8.38229C16.0681 9.07775 15.3345 9.57499 14.5051 9.796Z" fill="#B49700"/>
</svg>
