<?xml version="1.0" standalone="no"?>
<!DOCTYPE svg PUBLIC "-//W3C//DTD SVG 1.1//EN" "http://www.w3.org/Graphics/SVG/1.1/DTD/svg11.dtd" >
<svg xmlns="http://www.w3.org/2000/svg">
<metadata>Generated by IcoMoon</metadata>
<defs>
<font id="unicefFonts" horiz-adv-x="1024">
<font-face units-per-em="1024" ascent="1024" descent="0" />
<missing-glyph horiz-adv-x="1024" />
<glyph unicode="&#x20;" d="" />
<glyph unicode="&#xe001;" glyph-name="Abduction-kidnapping" d="M960 1024c-35.259-0.216-63.784-28.741-64-63.979v-341.354l-102.528-103.339c-3.547-6.638-10.43-11.079-18.35-11.079-6.354 0-12.040 2.858-15.843 7.358l-0.025 0.031c-4.695 4.803-7.592 11.38-7.592 18.635s2.897 13.832 7.596 18.64l-0.005-0.005 86.528 88.021c8.055 8.25 13.024 19.545 13.024 32s-4.969 23.75-13.033 32.009l0.009-0.009c-7.988 8.176-19.125 13.246-31.445 13.246s-23.457-5.070-31.437-13.238l-0.008-0.008-167.851-170.773c-24.066-24.582-38.916-58.268-38.916-95.423 0-2.837 0.087-5.654 0.257-8.449l-0.019 0.384h-0.363v-149.333h-128v149.333h-0.363c0.152 2.411 0.239 5.228 0.239 8.065 0 37.155-14.85 70.841-38.939 95.447l0.023-0.024-167.851 170.773c-7.988 8.176-19.125 13.246-31.445 13.246s-23.457-5.070-31.437-13.238l-0.008-0.008c-8.055-8.25-13.024-19.545-13.024-32s4.969-23.75 13.033-32.009l-0.009 0.009 86.528-88.021c4.695-4.803 7.592-11.38 7.592-18.635s-2.897-13.832-7.596-18.64l0.005 0.005c-4.653-4.761-11.139-7.713-18.315-7.713s-13.662 2.952-18.31 7.708l-0.005 0.005-100.117 107.029v341.333c-0.216 35.259-28.741 63.784-63.979 64h-0.021c-35.259-0.216-63.784-28.741-64-63.979v-371.2c0-0.021 0-0.047 0-0.072 0-17.613 7.051-33.579 18.484-45.229l-0.010 0.010 237.525-241.28v-24.917c-23.564 0-42.667-19.103-42.667-42.667s19.103-42.667 42.667-42.667v0-64c-23.564 0-42.667-19.103-42.667-42.667s19.103-42.667 42.667-42.667v0-42.667h192v42.667h128v-42.667h192v42.667c23.564 0 42.667 19.103 42.667 42.667s-19.103 42.667-42.667 42.667v0 64c23.564 0 42.667 19.103 42.667 42.667s-19.103 42.667-42.667 42.667v0 24.896l44.971 45.76 192.555 195.541c11.424 11.64 18.475 27.606 18.475 45.219 0 0.018 0 0.036 0 0.053v-0.003 371.2c-0.216 35.259-28.741 63.784-63.979 64h-0.021zM576 128h-128v64h128z" />
<glyph unicode="&#xe002;" glyph-name="About" d="M926.476 1024h-828.952c-53.861 0-97.524-43.663-97.524-97.524v0-828.952c0-53.861 43.663-97.524 97.524-97.524v0h828.952c53.861 0 97.524 43.663 97.524 97.524v828.952c0 53.861-43.663 97.524-97.524 97.524v0zM585.143 170.667h-97.524c-26.93 0-48.762 21.831-48.762 48.762v0 365.714h97.524c26.93 0 48.762-21.831 48.762-48.762v0zM512 707.048c-40.396 0-73.143 32.747-73.143 73.143s32.747 73.143 73.143 73.143c40.396 0 73.143-32.747 73.143-73.143v0c0-40.396-32.747-73.143-73.143-73.143v0z" />
<glyph unicode="&#xe003;" glyph-name="Add-document" horiz-adv-x="1117" d="M1095.215 1024h-654.429c-12.173-0.408-21.886-10.374-21.886-22.609 0-0.233 0.004-0.466 0.011-0.698l-0.001 0.034v-581.818h139.636c64.266 0 116.364-52.098 116.364-116.364s-52.098-116.364-116.364-116.364v0h-139.636v-116.364c-0.006-0.198-0.010-0.43-0.010-0.664 0-12.235 9.713-22.201 21.849-22.608l0.037-0.001h466.851v144.756c0.092 35.695 29.004 64.606 64.689 64.698h144.765v744.727c0.006 0.198 0.010 0.43 0.010 0.664 0 12.235-9.713 22.201-21.849 22.608l-0.037 0.001zM977.455 488.727h-418.909c-12.853 0-23.273 10.42-23.273 23.273s10.42 23.273 23.273 23.273h418.909c12.853 0 23.273-10.42 23.273-23.273s-10.42-23.273-23.273-23.273v0zM977.455 628.364h-418.909c-12.853 0-23.273 10.42-23.273 23.273s10.42 23.273 23.273 23.273h418.909c12.853 0 23.273-10.42 23.273-23.273s-10.42-23.273-23.273-23.273v0zM977.455 768h-418.909c-12.853 0-23.273 10.42-23.273 23.273s10.42 23.273 23.273 23.273h418.909c12.853 0 23.273-10.42 23.273-23.273s-10.42-23.273-23.273-23.273v0zM972.335 209.455c-10.020-0.013-18.139-8.133-18.153-18.151v-144.757l162.909 162.909h-144.756zM558.545 349.091h-209.455v209.455c0 25.706-20.839 46.545-46.545 46.545s-46.545-20.839-46.545-46.545v0-209.455h-209.455c-25.706 0-46.545-20.839-46.545-46.545s20.839-46.545 46.545-46.545h209.455v-209.455c0-25.706 20.839-46.545 46.545-46.545s46.545 20.839 46.545 46.545v0 209.455h209.455c25.706 0 46.545 20.839 46.545 46.545s-20.839 46.545-46.545 46.545v0z" />
<glyph unicode="&#xe004;" glyph-name="Add" d="M938.667 597.419l-341.44-0.085-0.064 341.333c-0.012 47.119-38.213 85.312-85.333 85.312v0c-47.128 0-85.333-38.205-85.333-85.333 0-0.007 0-0.015 0-0.022v0.001l0.064-341.333-341.248-0.064c-47.124-0.006-85.323-38.209-85.323-85.333 0-47.128 38.205-85.333 85.333-85.333 0.004 0 0.008 0 0.011 0l341.269 0.107 0.064-341.333c0-47.128 38.205-85.333 85.333-85.333h0.021c47.119 0.012 85.312 38.213 85.312 85.333 0 0.007 0 0.015 0 0.022v-0.001l-0.064 341.333 341.397 0.064c47.124 0.006 85.323 38.209 85.323 85.333 0 47.128-38.205 85.333-85.333 85.333-0.004 0-0.008 0-0.011 0h0.001z" />
<glyph unicode="&#xe005;" glyph-name="Advocacy" horiz-adv-x="1487" d="M990.704 1016.584l-539.307-286.968c-10.815-6.088-18.001-17.493-18.001-30.577 0-0.159 0.001-0.318 0.003-0.477v0.024-373.201c-0.002-0.135-0.003-0.294-0.003-0.453 0-13.084 7.185-24.49 17.825-30.487l0.175-0.091 539.307-286.937c8.46-4.278 18.442-6.784 29.009-6.784 36.126 0 65.412 29.286 65.412 65.412 0 1.197-0.032 2.386-0.096 3.567l0.007-0.165v885.108c0.057 1.026 0.090 2.226 0.090 3.434 0 36.126-29.286 65.412-65.412 65.412-10.568 0-20.55-2.506-29.386-6.956l0.375 0.171zM340.278 713.697h-247.187c-51.413 0-93.091-41.678-93.091-93.091v0-217.212c0-51.413 41.678-93.091 93.091-93.091v0h29.975v-201.697c0-42.844 34.732-77.576 77.576-77.576s77.576 34.732 77.576 77.576v0 201.697h62.061c17.138 0 31.030 13.893 31.030 31.030v0 341.333c0 17.138-13.893 31.030-31.030 31.030v0zM1441.854 558.545h-217.212c-25.706 0-46.545-20.839-46.545-46.545s20.839-46.545 46.545-46.545h217.212c25.706 0 46.545 20.839 46.545 46.545s-20.839 46.545-46.545 46.545v0zM1245.991 688.904l188.106 108.606c14.161 8.162 23.54 23.217 23.54 40.463 0 25.706-20.839 46.545-46.545 46.545-8.678 0-16.8-2.375-23.754-6.509l0.214 0.118-188.106-108.606c-14.161-8.162-23.54-23.217-23.54-40.463 0-25.706 20.839-46.545 46.545-46.545 8.678 0 16.8 2.375 23.754 6.509l-0.214-0.118zM1434.096 226.49l-188.106 108.606c-6.74 4.017-14.863 6.391-23.54 6.391-25.706 0-46.545-20.839-46.545-46.545 0-17.246 9.379-32.301 23.315-40.343l0.225-0.12 188.106-108.606c6.74-4.017 14.863-6.391 23.54-6.391 25.706 0 46.545 20.839 46.545 46.545 0 17.246-9.379 32.301-23.315 40.343l-0.225 0.12z" />
<glyph unicode="&#xe006;" glyph-name="Affected-population" horiz-adv-x="1023" d="M164.029 226.065l-151.677-153.383c-7.924-7.753-12.838-18.556-12.838-30.507 0-23.564 19.102-42.666 42.666-42.666 12.11 0 23.041 5.045 30.807 13.148l0.014 0.015 151.677 153.383c7.924 7.753 12.838 18.556 12.838 30.507 0 23.564-19.102 42.666-42.666 42.666-12.11 0-23.041-5.045-30.807-13.148l-0.014-0.015zM827.929 786.992c0.017 0 0.037 0 0.057 0 11.675 0 22.251 4.701 29.94 12.313l153.38 151.673c7.827 7.738 12.674 18.476 12.674 30.346 0 23.565-19.103 42.668-42.668 42.668-11.695 0-22.291-4.705-29.998-12.326l0.004 0.004-153.383-151.677c-7.821-7.737-12.664-18.471-12.664-30.335 0-23.561 19.097-42.661 42.657-42.666v0zM859.715 225.894c-7.733 7.795-18.449 12.62-30.293 12.62-23.564 0-42.667-19.103-42.667-42.667 0-11.721 4.726-22.339 12.377-30.050l151.887-153.167c7.733-7.795 18.449-12.62 30.293-12.62 23.564 0 42.667 19.103 42.667 42.667 0 11.721-4.726 22.339-12.377 30.050l0.003-0.003zM165.799 799.151c7.652-7.344 18.061-11.867 29.526-11.867 23.564 0 42.666 19.102 42.666 42.666 0 11.593-4.623 22.105-12.127 29.795l0.008-0.009-153.17 151.89c-7.757 7.949-18.576 12.879-30.547 12.879-23.564 0-42.666-19.102-42.666-42.666 0-12.098 5.036-23.020 13.125-30.785l0.015-0.014zM511.989 810.671c-158.098 0-277.328-110.078-277.328-255.995 0-23.564 19.102-42.666 42.666-42.666s42.666 19.102 42.666 42.666v0c-0.018 0.894-0.028 1.949-0.028 3.005 0 60.878 34.233 113.76 84.499 140.447l0.861 0.417v-655.88c0-23.564 19.102-42.666 42.666-42.666s42.666 19.102 42.666 42.666v0 320.015h42.666v-319.993c0-23.564 19.102-42.666 42.666-42.666s42.666 19.102 42.666 42.666v0 655.858c51.127-27.103 85.36-79.986 85.36-140.864 0-1.057-0.010-2.111-0.031-3.163l0.002 0.158c0-23.564 19.102-42.666 42.666-42.666s42.666 19.102 42.666 42.666v0c0 145.96-119.23 255.995-277.328 255.995zM426.658 938.647c0-47.127 38.204-85.332 85.332-85.332s85.332 38.204 85.332 85.332c0 47.127-38.204 85.332-85.332 85.332s-85.332-38.204-85.332-85.332z" />
<glyph unicode="&#xe007;" glyph-name="Agile" horiz-adv-x="895" d="M842.667 106.667c-135.733 0.879-245.425 111.115-245.425 246.971 0 2.372 0.033 4.737 0.1 7.093l-0.008-0.346v481.621l58.475-58.475c9.712-10.045 23.309-16.282 38.362-16.282 29.455 0 53.333 23.878 53.333 53.333 0 15.053-6.237 28.65-16.267 38.348l-0.015 0.014-149.419 149.44c-9.651 9.648-22.982 15.615-37.707 15.615s-28.056-5.967-37.707-15.615l-149.44-149.44c-9.55-9.634-15.451-22.899-15.451-37.542 0-29.455 23.878-53.333 53.333-53.333 14.648 0 27.917 5.905 37.556 15.465l58.279 58.257v-369.92c-62.633 51.549-143.657 82.805-231.982 82.805-0.944 0-1.887-0.004-2.829-0.011l0.144 0.001h-73.813l58.283 58.283c9.556 9.635 15.462 22.904 15.462 37.552 0 29.455-23.878 53.333-53.333 53.333-14.643 0-27.907-5.901-37.545-15.455l-149.436-149.436c-9.648-9.651-15.615-22.982-15.615-37.707s5.967-28.056 15.615-37.707l149.44-149.419c9.581-9.263 22.65-14.971 37.051-14.971 29.455 0 53.333 23.878 53.333 53.333 0 14.402-5.708 27.47-14.986 37.066l0.014-0.015-58.453 58.475h73.984c1.715 0.042 3.735 0.066 5.76 0.066 112.714 0 208.020-74.533 239.321-177.003l0.466-1.773 0.427 0.107c37.31-155.564 175.208-269.399 339.693-269.399 0.352 0 0.703 0.001 1.055 0.002h-0.055c29.455 0 53.333 23.878 53.333 53.333s-23.878 53.333-53.333 53.333v0z" />
<glyph unicode="&#xe008;" glyph-name="Agriculture" horiz-adv-x="895" d="M106.667 576h21.333v64c0 58.91-47.756 106.667-106.667 106.667h-21.333v-64c0-58.91 47.756-106.667 106.667-106.667v0zM106.667 384h21.333v64c0 58.91-47.756 106.667-106.667 106.667h-21.333v-64c0-58.91 47.756-106.667 106.667-106.667v0zM128 256c0 58.91-47.756 106.667-106.667 106.667v0h-21.333v-64c0-58.91 47.756-106.667 106.667-106.667h21.333zM192 640v-64h21.333c58.91 0 106.667 47.756 106.667 106.667v0 64h-21.333c-58.91 0-106.667-47.756-106.667-106.667v0zM192 448v-64h21.333c58.91 0 106.667 47.756 106.667 106.667v0 64h-21.333c-58.91 0-106.667-47.756-106.667-106.667v0zM192 256v-64h21.333c58.91 0 106.667 47.756 106.667 106.667v0 64h-21.333c-58.91 0-106.667-47.756-106.667-106.667v0zM128 32c0-17.673 14.327-32 32-32s32 14.327 32 32v0 117.333h-64zM32 789.333c17.673 0 32 14.327 32 32v0 85.333c0 17.673-14.327 32-32 32s-32-14.327-32-32v0-85.333c0-17.673 14.327-32 32-32v0zM288 938.667c-17.673 0-32-14.327-32-32v0-85.333c0-17.673 14.327-32 32-32s32 14.327 32 32v0 85.333c0 17.673-14.327 32-32 32v0zM160 725.333c17.673 0 32 14.327 32 32v0 234.667c0 17.673-14.327 32-32 32s-32-14.327-32-32v0-234.667c0-17.673 14.327-32 32-32v0zM603.264 571.285l20.587-5.547 16.576 61.824c2.309 8.281 3.635 17.791 3.635 27.61 0 49.096-33.169 90.445-78.321 102.859l-0.749 0.176-20.608 5.525-16.555-61.824c-2.305-8.275-3.63-17.778-3.63-27.59 0-49.094 33.167-90.441 78.316-102.858l0.749-0.176zM553.557 385.813l20.608-5.525 16.576 61.824c2.309 8.281 3.635 17.791 3.635 27.61 0 49.096-33.169 90.445-78.321 102.859l-0.749 0.176-20.608 5.525-16.555-61.824c-2.309-8.283-3.637-17.794-3.637-27.616 0-49.089 33.16-90.432 78.301-102.854l0.749-0.176zM524.48 194.837l16.555 61.824c2.309 8.283 3.637 17.794 3.637 27.616 0 49.089-33.16 90.432-78.301 102.854l-0.749 0.176-20.608 5.504-16.576-61.803c-2.309-8.281-3.635-17.791-3.635-27.61 0-49.096 33.169-90.445 78.321-102.859l0.749-0.176zM702.251 611.008l-16.576-61.824 20.608-5.525c8.281-2.309 17.791-3.635 27.61-3.635 49.096 0 90.445 33.169 102.859 78.321l0.176 0.749 16.555 61.824-20.608 5.504c-8.277 2.306-17.782 3.631-27.596 3.631-49.087 0-90.429-33.157-102.852-78.296l-0.176-0.749zM652.544 425.557l-16.555-61.824 20.608-5.525c8.281-2.309 17.791-3.635 27.61-3.635 49.096 0 90.445 33.169 102.859 78.321l0.176 0.749 16.555 61.803-20.608 5.547c-8.281 2.309-17.791 3.635-27.61 3.635-49.096 0-90.445-33.169-102.859-78.321l-0.176-0.749zM602.859 240.085l-16.555-61.803 20.587-5.547c8.281-2.309 17.791-3.635 27.61-3.635 49.096 0 90.445 33.169 102.859 78.321l0.176 0.749 16.576 61.824-20.608 5.525c-8.281 2.309-17.791 3.635-27.61 3.635-49.096 0-90.445-33.169-102.859-78.321l-0.176-0.749zM483.072 40.299c-0.592-2.301-0.931-4.943-0.931-7.665 0-17.673 14.327-32 32-32 14.498 0 26.744 9.641 30.676 22.862l0.058 0.226 30.379 113.344-61.824 16.555zM586.347 796.672c2.484-0.693 5.337-1.091 8.283-1.091 14.723 0 27.123 9.942 30.853 23.479l0.053 0.225 22.080 82.432c0.824 2.701 1.298 5.806 1.298 9.021 0 17.673-14.327 32-32 32-14.999 0-27.588-10.32-31.054-24.247l-0.046-0.22-22.101-82.411c-0.692-2.483-1.089-5.334-1.089-8.278 0-14.73 9.952-27.135 23.499-30.859l0.225-0.053zM872.277 874.667c-2.483 0.692-5.334 1.089-8.278 1.089-14.73 0-27.135-9.952-30.859-23.499l-0.053-0.225-22.101-82.432c-0.693-2.486-1.092-5.34-1.092-8.288 0-17.675 14.329-32.004 32.004-32.004 14.728 0 27.132 9.948 30.859 23.491l0.053 0.225 22.080 82.432c0.696 2.49 1.096 5.35 1.096 8.303 0 14.725-9.945 27.126-23.485 30.855l-0.225 0.053zM693.419 701.717c2.484-0.693 5.337-1.091 8.283-1.091 14.723 0 27.123 9.942 30.853 23.479l0.053 0.225 60.736 226.709c0.692 2.483 1.089 5.334 1.089 8.277 0 17.674-14.327 32.001-32.001 32.001-14.73 0-27.135-9.952-30.859-23.499l-0.053-0.225-60.736-226.688c-0.692-2.483-1.089-5.334-1.089-8.278 0-14.73 9.952-27.135 23.499-30.859l0.225-0.053z" />
<glyph unicode="&#xe009;" glyph-name="Airport-affected" d="M426.667 810.667c0 117.821-95.513 213.333-213.333 213.333s-213.333-95.513-213.333-213.333c0-117.821 95.513-213.333 213.333-213.333v0c117.801 0.049 213.285 95.532 213.333 213.329v0.005zM213.333 661.333c-11.782 0-21.333 9.551-21.333 21.333s9.551 21.333 21.333 21.333c11.782 0 21.333-9.551 21.333-21.333v0c-0.036-11.767-9.566-21.297-21.33-21.333h-0.003zM234.667 768c0-11.782-9.551-21.333-21.333-21.333s-21.333 9.551-21.333 21.333v0 170.667c0 11.782 9.551 21.333 21.333 21.333s21.333-9.551 21.333-21.333v0zM1023.744 408.192c-0.085 1.301-0.064 2.624-0.277 3.925-0.361 1.82-0.767 3.345-1.255 4.833l0.082-0.289c-0.299 1.131-0.512 2.304-0.917 3.413-0.667 1.61-1.296 2.908-1.988 4.166l0.11-0.219c-0.555 1.152-1.024 2.347-1.707 3.456-0.725 1.195-1.621 2.24-2.453 3.349-0.811 1.067-1.536 2.219-2.475 3.243-1.134 1.172-2.324 2.267-3.574 3.291l-0.074 0.059c-0.853 0.725-1.557 1.515-2.453 2.176-1.876 1.389-4.001 2.688-6.239 3.794l-0.246 0.11c-0.277 0.128-0.491 0.32-0.747 0.427l-0.064 0.043-0.32 0.149-316.459 153.216v170.667c0 35.346-28.654 64-64 64s-64-28.654-64-64v0-170.667l-316.821-153.387c-0.448-0.213-0.811-0.533-1.259-0.768-2.297-1.135-4.254-2.32-6.099-3.649l0.126 0.086c-1.003-0.768-1.856-1.664-2.773-2.496-1.206-0.995-2.291-1.992-3.321-3.044l-0.007-0.007c-0.874-1.021-1.742-2.147-2.554-3.316l-0.092-0.14c-0.768-1.067-1.621-2.027-2.283-3.115-0.725-1.173-1.237-2.453-1.835-3.691s-1.28-2.432-1.749-3.733c-0.427-1.195-0.683-2.432-1.003-3.669-0.368-1.108-0.744-2.54-1.043-4.001l-0.045-0.266c-0.213-1.408-0.213-2.816-0.299-4.224-0.139-1.204-0.224-2.612-0.235-4.037v-0.016c0.133-2.127 0.399-4.094 0.794-6.013l-0.047 0.274c0.149-0.853 0.128-1.707 0.341-2.56l0.043-0.128c0.085-0.384 0.277-0.768 0.384-1.152 0.679-2.553 1.465-4.731 2.414-6.82l-0.11 0.27 0.213-0.576c0.128-0.277 0.384-0.491 0.533-0.789 1.71-3.457 3.708-6.436 6.039-9.118l-0.044 0.052 0.469-0.619c2.38-2.54 5.039-4.772 7.941-6.662l0.165-0.101c0.576-0.384 1.131-0.789 1.707-1.152 2.682-1.625 5.777-3.031 9.040-4.056l0.304-0.082 1.813-0.469c3.167-0.904 6.812-1.446 10.575-1.493h0.091c3.356 0.009 6.614 0.405 9.74 1.146l-0.289-0.058 0.299 0.043 288.875 62.869v-320s-78.464-69.931-81.28-72.747c-2.549-3.054-4.096-7.021-4.096-11.35 0-0.435 0.016-0.867 0.046-1.294l-0.003 0.057c-0.011-0.19-0.017-0.411-0.017-0.635 0-1.141 0.162-2.245 0.464-3.289l-0.021 0.083c0.213-1.067 0.427-1.92 0.64-2.773 0.921-2.897 2.383-5.392 4.281-7.483l-0.015 0.017c1.067-1.067 2.133-2.133 3.413-3.2 0.118 0 0.213-0.096 0.213-0.213v0c1.657-1.109 3.564-2.049 5.591-2.725l0.169-0.049c1.972-0.652 4.243-1.041 6.601-1.067h0.013c1.384 0.040 2.706 0.193 3.99 0.452l-0.15-0.025 2.773 0.64 1.28 0.427 120.107 41.173 121.387-41.6c1.974-0.677 4.248-1.068 6.613-1.068s4.64 0.391 6.761 1.111l-0.148-0.044c1.134 0.305 2.127 0.743 3.034 1.307l-0.047-0.027c5.036 2.561 8.846 6.926 10.623 12.224l0.044 0.15c0.213 0.853 0.427 1.707 0.64 2.773 0.282 0.961 0.444 2.064 0.444 3.205 0 0.223-0.006 0.445-0.018 0.665l0.001-0.031c0.043 0.453 0.068 0.98 0.068 1.513 0 4.244-1.56 8.123-4.139 11.095l0.018-0.021c-2.603 2.603-81.28 72.747-81.28 72.747v320l288.896-62.869c0.363-0.085 0.725-0.064 1.067-0.149 2.191-0.508 4.746-0.852 7.363-0.957l0.082-0.003 0.64 0.043c0.237-0.005 0.517-0.008 0.798-0.008 2.431 0 4.813 0.204 7.132 0.597l-0.25-0.035c0.299 0.043 0.555 0.149 0.832 0.213 2.73 0.495 5.123 1.16 7.422 2.017l-0.297-0.097c0.299 0.128 0.576 0.32 0.875 0.427 2.507 0.996 4.634 2.070 6.651 3.307l-0.187-0.107c0.405 0.235 0.747 0.576 1.152 0.853 2.006 1.29 3.747 2.617 5.375 4.069l-0.042-0.037c0.789 0.725 1.429 1.579 2.155 2.347 1.147 1.146 2.229 2.356 3.24 3.625l0.067 0.087c1.225 1.689 2.395 3.61 3.409 5.624l0.111 0.243c0.213 0.448 0.555 0.853 0.789 1.301v0.064c0.61 1.359 1.227 3.045 1.737 4.777l0.076 0.301c0.341 1.067 0.832 2.091 1.067 3.136l0.064 0.128c0.213 0.96 0.213 1.92 0.363 2.901 0.328 1.535 0.585 3.383 0.718 5.266l0.007 0.132c-0.010 1.538-0.103 3.042-0.274 4.522l0.018-0.191z" />
<glyph unicode="&#xe00a;" glyph-name="Airport-closed" horiz-adv-x="1023" d="M213.333 917.333c-35.332-0.036-63.964-28.668-64-63.997v-0.003h128c-0.036 35.332-28.668 63.964-63.997 64h-0.003zM426.667 810.667c0 117.821-95.513 213.333-213.333 213.333s-213.333-95.513-213.333-213.333c0-117.821 95.513-213.333 213.333-213.333v0c117.801 0.049 213.285 95.532 213.333 213.329v0.005zM320 725.333c0-23.564-19.103-42.667-42.667-42.667v0h-128c-23.564 0-42.667 19.103-42.667 42.667v0 128c0 58.91 47.756 106.667 106.667 106.667s106.667-47.756 106.667-106.667v0zM1023.723 408.192c-0.085 1.301-0.064 2.624-0.277 3.925-0.362 1.82-0.767 3.346-1.256 4.833l0.082-0.289c-0.299 1.131-0.512 2.304-0.917 3.413-0.667 1.61-1.296 2.908-1.988 4.166l0.11-0.219c-0.576 1.152-1.024 2.347-1.707 3.456-0.725 1.195-1.621 2.24-2.453 3.349-0.811 1.067-1.536 2.219-2.475 3.243-1.139 1.171-2.335 2.266-3.593 3.289l-0.076 0.060c-0.811 0.725-1.536 1.515-2.432 2.176-1.882 1.39-4.014 2.689-6.259 3.794l-0.247 0.11c-0.256 0.128-0.469 0.32-0.725 0.427l-0.384 0.192-316.459 153.216v168.747c0.011 0.442 0.017 0.963 0.017 1.486 0 28.129-17.902 52.077-42.935 61.071l-0.453 0.142c-6.091 2.112-13.111 3.332-20.416 3.332-35.428 0-64.155-28.691-64.213-64.105v-170.673l-316.843-153.387c-0.427-0.213-0.811-0.533-1.237-0.768-2.297-1.135-4.254-2.32-6.099-3.649l0.126 0.086c-1.024-0.768-1.856-1.664-2.795-2.496-1.206-0.995-2.291-1.992-3.321-3.044l-0.007-0.007c-0.865-1.018-1.727-2.145-2.531-3.314l-0.093-0.142c-0.768-1.067-1.621-2.027-2.304-3.115-0.704-1.173-1.216-2.453-1.813-3.691s-1.28-2.432-1.749-3.733c-0.448-1.195-0.683-2.432-1.003-3.669-0.373-1.107-0.756-2.538-1.062-3.998l-0.047-0.269c-0.213-1.408-0.213-2.816-0.299-4.224-0.133-1.212-0.21-2.622-0.213-4.049v-0.005c0.133-2.127 0.399-4.094 0.794-6.013l-0.047 0.274c0.149-0.853 0.128-1.707 0.341-2.56l0.043-0.128c0.085-0.384 0.277-0.768 0.384-1.152 0.679-2.553 1.465-4.731 2.414-6.82l-0.11 0.27c0.085-0.192 0.107-0.384 0.213-0.576 0.128-0.277 0.384-0.491 0.512-0.789 1.717-3.457 3.721-6.436 6.059-9.117l-0.043 0.050 0.469-0.619c2.375-2.54 5.026-4.771 7.921-6.662l0.164-0.101c0.576-0.384 1.131-0.789 1.749-1.152 2.67-1.622 5.75-3.027 8.998-4.056l0.304-0.083 1.835-0.469c3.16-0.902 6.797-1.444 10.553-1.493h0.092c3.356 0.009 6.614 0.405 9.74 1.146l-0.289-0.058 0.299 0.043 288.896 62.869v-320s-78.464-69.931-81.28-72.747c-2.549-3.051-4.097-7.016-4.097-11.343 0-0.438 0.016-0.872 0.047-1.302l-0.003 0.058c-0.011-0.19-0.017-0.411-0.017-0.635 0-1.141 0.162-2.245 0.464-3.289l-0.021 0.083c0.213-1.067 0.427-1.92 0.64-2.773 0.921-2.897 2.383-5.392 4.281-7.483l-0.015 0.017c1.067-1.067 2.133-2.133 3.413-3.2 0.118 0 0.213-0.096 0.213-0.213v0c1.657-1.109 3.564-2.049 5.591-2.725l0.169-0.049c1.972-0.652 4.243-1.041 6.601-1.067h0.013c1.384 0.040 2.706 0.193 3.99 0.452l-0.15-0.025 2.773 0.64 1.28 0.427 120.107 41.173 121.387-41.6c1.974-0.677 4.248-1.068 6.613-1.068s4.64 0.391 6.761 1.111l-0.148-0.044c1.134 0.305 2.127 0.743 3.034 1.307l-0.047-0.027c5.036 2.561 8.846 6.926 10.623 12.224l0.044 0.15c0.213 0.853 0.427 1.707 0.64 2.773 0.282 0.961 0.444 2.064 0.444 3.205 0 0.223-0.006 0.445-0.018 0.665l0.001-0.031c0.043 0.453 0.068 0.98 0.068 1.513 0 4.244-1.56 8.123-4.139 11.095l0.018-0.021c-2.603 2.603-81.28 72.747-81.28 72.747v320l288.896-62.869c0.363-0.085 0.725-0.064 1.067-0.149 2.191-0.508 4.746-0.852 7.363-0.957l0.082-0.003 0.64 0.043c0.237-0.005 0.517-0.008 0.798-0.008 2.431 0 4.813 0.204 7.132 0.597l-0.25-0.035c0.277 0.043 0.555 0.149 0.832 0.213 2.73 0.495 5.123 1.16 7.422 2.017l-0.297-0.097c0.299 0.128 0.576 0.32 0.875 0.427 2.499 0.997 4.619 2.071 6.629 3.306l-0.186-0.106c0.427 0.235 0.768 0.576 1.173 0.853 2.006 1.29 3.747 2.617 5.375 4.069l-0.042-0.037c0.768 0.725 1.408 1.579 2.133 2.347 1.147 1.146 2.229 2.356 3.24 3.625l0.067 0.087c1.233 1.691 2.41 3.612 3.43 5.625l0.111 0.241c0.213 0.448 0.555 0.853 0.789 1.301v0.064c0.61 1.359 1.227 3.045 1.737 4.777l0.076 0.301c0.341 1.067 0.811 2.091 1.067 3.136l0.043 0.128c0.235 0.96 0.213 1.92 0.384 2.901 0.322 1.539 0.572 3.388 0.697 5.272l0.007 0.125c-0.002 1.528-0.087 3.034-0.251 4.516l0.017-0.185zM234.667 810.667h-42.688c-11.782 0-21.333-9.551-21.333-21.333v0-42.667c0-11.782 9.551-21.333 21.333-21.333v0h42.688c11.773 0.012 21.312 9.559 21.312 21.333v0 42.667c0 11.775-9.539 21.321-21.311 21.333h-0.001z" />
<glyph unicode="&#xe00b;" glyph-name="Airport-destroyed" d="M426.667 810.667c0 117.821-95.513 213.333-213.333 213.333s-213.333-95.513-213.333-213.333c0-117.821 95.513-213.333 213.333-213.333v0c117.801 0.049 213.285 95.532 213.333 213.329v0.005zM313.813 740.48c3.856-3.885 6.24-9.238 6.24-15.147s-2.383-11.261-6.241-15.148l0.001 0.001c-3.899-3.826-9.247-6.188-15.147-6.188s-11.248 2.362-15.15 6.191l-70.184 70.184-70.187-70.187c-3.899-3.826-9.247-6.188-15.147-6.188s-11.248 2.362-15.15 6.191l0.003-0.003c-3.856 3.885-6.24 9.238-6.24 15.147s2.383 11.261 6.241 15.148l70.186 70.186-70.187 70.187c-3.876 3.876-6.274 9.232-6.274 15.147 0 11.83 9.59 21.421 21.421 21.421 5.915 0 11.27-2.398 15.147-6.274l70.187-70.187 70.187 70.187c3.876 3.876 9.232 6.274 15.147 6.274 11.83 0 21.421-9.59 21.421-21.421 0-5.915-2.398-11.27-6.274-15.147l-70.187-70.187zM1023.744 408.192c-0.085 1.301-0.064 2.624-0.277 3.925-0.361 1.82-0.767 3.345-1.255 4.833l0.082-0.289c-0.299 1.131-0.512 2.304-0.917 3.413-0.667 1.61-1.296 2.908-1.988 4.166l0.11-0.219c-0.555 1.152-1.024 2.347-1.707 3.456-0.725 1.195-1.621 2.24-2.453 3.349-0.811 1.067-1.536 2.219-2.475 3.243-1.134 1.172-2.324 2.267-3.574 3.291l-0.074 0.059c-0.853 0.725-1.557 1.515-2.453 2.176-1.876 1.389-4.001 2.688-6.239 3.794l-0.246 0.11c-0.277 0.128-0.491 0.32-0.747 0.427l-0.064 0.043-0.32 0.149-316.459 153.216v170.667c0 35.346-28.654 64-64 64s-64-28.654-64-64v0-170.667l-316.821-153.387c-0.448-0.213-0.811-0.533-1.259-0.768-2.297-1.135-4.254-2.32-6.099-3.649l0.126 0.086c-1.003-0.768-1.856-1.664-2.773-2.496-1.206-0.995-2.291-1.992-3.321-3.044l-0.007-0.007c-0.874-1.021-1.742-2.147-2.554-3.316l-0.092-0.14c-0.768-1.067-1.621-2.027-2.283-3.115-0.725-1.173-1.237-2.453-1.835-3.691s-1.28-2.432-1.749-3.733c-0.427-1.195-0.683-2.432-1.003-3.669-0.368-1.108-0.744-2.54-1.043-4.001l-0.045-0.266c-0.213-1.408-0.213-2.816-0.299-4.224-0.139-1.204-0.224-2.612-0.235-4.037v-0.016c0.133-2.127 0.399-4.094 0.794-6.013l-0.047 0.274c0.149-0.853 0.128-1.707 0.341-2.56l0.043-0.128c0.085-0.384 0.277-0.768 0.384-1.152 0.679-2.553 1.465-4.731 2.414-6.82l-0.11 0.27 0.213-0.576c0.128-0.277 0.384-0.491 0.533-0.789 1.71-3.457 3.708-6.436 6.039-9.118l-0.044 0.052 0.469-0.619c2.38-2.54 5.039-4.772 7.941-6.662l0.165-0.101c0.576-0.384 1.131-0.789 1.707-1.152 2.682-1.625 5.777-3.031 9.040-4.056l0.304-0.082 1.813-0.469c3.167-0.904 6.812-1.446 10.575-1.493h0.091c3.356 0.009 6.614 0.405 9.74 1.146l-0.289-0.058 0.299 0.043 288.875 62.869v-320s-78.464-69.931-81.28-72.747c-2.549-3.054-4.096-7.021-4.096-11.35 0-0.435 0.016-0.867 0.046-1.294l-0.003 0.057c-0.011-0.19-0.017-0.411-0.017-0.635 0-1.141 0.162-2.245 0.464-3.289l-0.021 0.083c0.213-1.067 0.427-1.92 0.64-2.773 0.921-2.897 2.383-5.392 4.281-7.483l-0.015 0.017c1.067-1.067 2.133-2.133 3.413-3.2 0.118 0 0.213-0.096 0.213-0.213v0c1.657-1.109 3.564-2.049 5.591-2.725l0.169-0.049c1.972-0.652 4.243-1.041 6.601-1.067h0.013c1.384 0.040 2.706 0.193 3.99 0.452l-0.15-0.025 2.773 0.64 1.28 0.427 120.107 41.173 121.387-41.6c1.974-0.677 4.248-1.068 6.613-1.068s4.64 0.391 6.761 1.111l-0.148-0.044c1.134 0.305 2.127 0.743 3.034 1.307l-0.047-0.027c5.036 2.561 8.846 6.926 10.623 12.224l0.044 0.15c0.213 0.853 0.427 1.707 0.64 2.773 0.282 0.961 0.444 2.064 0.444 3.205 0 0.223-0.006 0.445-0.018 0.665l0.001-0.031c0.043 0.453 0.068 0.98 0.068 1.513 0 4.244-1.56 8.123-4.139 11.095l0.018-0.021c-2.603 2.603-81.28 72.747-81.28 72.747v320l288.896-62.869c0.363-0.085 0.725-0.064 1.067-0.149 2.191-0.508 4.746-0.852 7.363-0.957l0.082-0.003 0.64 0.043c0.237-0.005 0.517-0.008 0.798-0.008 2.431 0 4.813 0.204 7.132 0.597l-0.25-0.035c0.299 0.043 0.555 0.149 0.832 0.213 2.73 0.495 5.123 1.16 7.422 2.017l-0.297-0.097c0.299 0.128 0.576 0.32 0.875 0.427 2.507 0.996 4.634 2.070 6.651 3.307l-0.187-0.107c0.405 0.235 0.747 0.576 1.152 0.853 2.006 1.29 3.747 2.617 5.375 4.069l-0.042-0.037c0.789 0.725 1.429 1.579 2.155 2.347 1.147 1.146 2.229 2.356 3.24 3.625l0.067 0.087c1.225 1.689 2.395 3.61 3.409 5.624l0.111 0.243c0.213 0.448 0.555 0.853 0.789 1.301v0.064c0.61 1.359 1.227 3.045 1.737 4.777l0.076 0.301c0.341 1.067 0.832 2.091 1.067 3.136l0.064 0.128c0.213 0.96 0.213 1.92 0.363 2.901 0.328 1.535 0.585 3.383 0.718 5.266l0.007 0.132c-0.010 1.538-0.103 3.042-0.274 4.522l0.018-0.191z" />
<glyph unicode="&#xe00c;" glyph-name="Airport-military" d="M981.333 469.333c-23.564 0-42.667-19.103-42.667-42.667v0-64l-256 192v96.427c-0.157 29.254-23.908 52.908-53.183 52.908-12.139 0-23.327-4.067-32.278-10.912l0.128 0.094v104.043c0 0.008 0 0.018 0 0.027 0 8.51-1.661 16.632-4.677 24.060l0.154-0.429-57.429 187.243c-3.809 9.364-12.838 15.845-23.381 15.845s-19.572-6.481-23.321-15.677l-0.061-0.168-57.429-187.221c-2.862-6.999-4.523-15.121-4.523-23.632 0-0.017 0-0.034 0-0.051v0.003-104.043c-8.823 6.751-20.012 10.818-32.15 10.818-29.276 0-53.027-23.654-53.183-52.893v-96.442l-256-192v64c0 23.564-19.103 42.667-42.667 42.667s-42.667-19.103-42.667-42.667v0-298.667c0-23.564 19.103-42.667 42.667-42.667s42.667 19.103 42.667 42.667v0 42.667l341.333 85.333v-106.667l-94.933-81.301c-7.226-7.214-11.696-17.186-11.696-28.203 0-22.009 17.842-39.851 39.851-39.851 0.017 0 0.034 0 0.051 0h-0.003l151.829 21.333 152.32-21.333c0.002 0 0.003 0 0.005 0 22.009 0 39.851 17.842 39.851 39.851 0 11.016-4.47 20.989-11.695 28.202l-0.001 0.001-94.912 81.28v106.667l341.333-85.333v-42.667c0-23.564 19.103-42.667 42.667-42.667s42.667 19.103 42.667 42.667v0 298.688c0 23.564-19.103 42.667-42.667 42.667v0z" />
<glyph unicode="&#xe00d;" glyph-name="Airport-not-affected" d="M1023.744 408.192c-0.085 1.301-0.064 2.624-0.277 3.925-0.361 1.82-0.767 3.345-1.255 4.833l0.082-0.289c-0.299 1.131-0.512 2.304-0.917 3.413-0.667 1.61-1.296 2.908-1.988 4.166l0.11-0.219c-0.555 1.152-1.024 2.347-1.707 3.456-0.725 1.195-1.621 2.24-2.453 3.349-0.811 1.067-1.536 2.219-2.475 3.243-1.134 1.172-2.324 2.267-3.574 3.291l-0.074 0.059c-0.853 0.725-1.557 1.515-2.453 2.176-1.876 1.389-4.001 2.688-6.239 3.794l-0.246 0.11c-0.277 0.128-0.491 0.32-0.747 0.427l-0.064 0.043-0.32 0.149-316.459 153.216v170.667c0 35.346-28.654 64-64 64s-64-28.654-64-64v0-170.667l-316.821-153.387c-0.448-0.213-0.811-0.533-1.259-0.768-2.297-1.135-4.254-2.32-6.099-3.649l0.126 0.086c-1.003-0.768-1.856-1.664-2.773-2.496-1.206-0.995-2.291-1.992-3.321-3.044l-0.007-0.007c-0.874-1.021-1.742-2.147-2.554-3.316l-0.092-0.14c-0.768-1.067-1.621-2.027-2.283-3.115-0.725-1.173-1.237-2.453-1.835-3.691s-1.28-2.432-1.749-3.733c-0.427-1.195-0.683-2.432-1.003-3.669-0.368-1.108-0.744-2.54-1.043-4.001l-0.045-0.266c-0.213-1.408-0.213-2.816-0.299-4.224-0.139-1.204-0.224-2.612-0.235-4.037v-0.016c0.133-2.127 0.399-4.094 0.794-6.013l-0.047 0.274c0.149-0.853 0.128-1.707 0.341-2.56l0.043-0.128c0.085-0.384 0.277-0.768 0.384-1.152 0.679-2.553 1.465-4.731 2.414-6.82l-0.11 0.27 0.213-0.576c0.128-0.277 0.384-0.491 0.533-0.789 1.71-3.457 3.708-6.436 6.039-9.118l-0.044 0.052 0.469-0.619c2.38-2.54 5.039-4.772 7.941-6.662l0.165-0.101c0.576-0.384 1.131-0.789 1.707-1.152 2.682-1.625 5.777-3.031 9.040-4.056l0.304-0.082 1.813-0.469c3.167-0.904 6.812-1.446 10.575-1.493h0.091c3.356 0.009 6.614 0.405 9.74 1.146l-0.289-0.058 0.299 0.043 288.875 62.869v-320s-78.464-69.931-81.28-72.747c-2.549-3.054-4.096-7.021-4.096-11.35 0-0.435 0.016-0.867 0.046-1.294l-0.003 0.057c-0.011-0.19-0.017-0.411-0.017-0.635 0-1.141 0.162-2.245 0.464-3.289l-0.021 0.083c0.213-1.067 0.427-1.92 0.64-2.773 0.921-2.897 2.383-5.392 4.281-7.483l-0.015 0.017c1.067-1.067 2.133-2.133 3.413-3.2 0.118 0 0.213-0.096 0.213-0.213v0c1.657-1.109 3.564-2.049 5.591-2.725l0.169-0.049c1.972-0.652 4.243-1.041 6.601-1.067h0.013c1.384 0.040 2.706 0.193 3.99 0.452l-0.15-0.025 2.773 0.64 1.28 0.427 120.107 41.173 121.387-41.6c1.974-0.677 4.248-1.068 6.613-1.068s4.64 0.391 6.761 1.111l-0.148-0.044c1.134 0.305 2.127 0.743 3.034 1.307l-0.047-0.027c5.036 2.561 8.846 6.926 10.623 12.224l0.044 0.15c0.213 0.853 0.427 1.707 0.64 2.773 0.282 0.961 0.444 2.064 0.444 3.205 0 0.223-0.006 0.445-0.018 0.665l0.001-0.031c0.043 0.453 0.068 0.98 0.068 1.513 0 4.244-1.56 8.123-4.139 11.095l0.018-0.021c-2.603 2.603-81.28 72.747-81.28 72.747v320l288.896-62.869c0.363-0.085 0.725-0.064 1.067-0.149 2.191-0.508 4.746-0.852 7.363-0.957l0.082-0.003 0.64 0.043c0.237-0.005 0.517-0.008 0.798-0.008 2.431 0 4.813 0.204 7.132 0.597l-0.25-0.035c0.299 0.043 0.555 0.149 0.832 0.213 2.73 0.495 5.123 1.16 7.422 2.017l-0.297-0.097c0.299 0.128 0.576 0.32 0.875 0.427 2.507 0.996 4.634 2.070 6.651 3.307l-0.187-0.107c0.405 0.235 0.747 0.576 1.152 0.853 2.006 1.29 3.747 2.617 5.375 4.069l-0.042-0.037c0.789 0.725 1.429 1.579 2.155 2.347 1.147 1.146 2.229 2.356 3.24 3.625l0.067 0.087c1.225 1.689 2.395 3.61 3.409 5.624l0.111 0.243c0.213 0.448 0.555 0.853 0.789 1.301v0.064c0.61 1.359 1.227 3.045 1.737 4.777l0.076 0.301c0.341 1.067 0.832 2.091 1.067 3.136l0.064 0.128c0.213 0.96 0.213 1.92 0.363 2.901 0.328 1.535 0.585 3.383 0.718 5.266l0.007 0.132c-0.010 1.538-0.103 3.042-0.274 4.522l0.018-0.191zM426.667 810.667c0 117.821-95.513 213.333-213.333 213.333s-213.333-95.513-213.333-213.333c0-117.821 95.513-213.333 213.333-213.333v0c117.801 0.049 213.285 95.532 213.333 213.329v0.005zM333.867 858.453l-149.333-128c-3.711-3.172-8.561-5.106-13.864-5.12h-0.003c-5.895 0.024-11.236 2.379-15.152 6.191l-63.995 63.995c-3.876 3.876-6.274 9.232-6.274 15.147 0 11.83 9.59 21.421 21.421 21.421 5.915 0 11.27-2.398 15.147-6.274v0l49.92-50.133 134.4 115.2c3.705 3.183 8.559 5.121 13.867 5.121 11.783 0 21.334-9.552 21.334-21.334 0-6.475-2.885-12.277-7.439-16.19l-0.028-0.024z" />
<glyph unicode="&#xe00e;" glyph-name="Airport" d="M989.867 504.533c-0.213 0.213-392.533 220.8-392.533 220.8v213.333c0 47.128-38.205 85.333-85.333 85.333s-85.333-38.205-85.333-85.333v0-213.333l-399.36-225.493c-16.579-11.487-27.301-30.411-27.307-51.839v-0.001c0-0.025 0-0.055 0-0.085 0-35.299 28.616-63.915 63.915-63.915 0.030 0 0.060 0 0.090 0h-0.005c0.086 0 0.188-0.001 0.29-0.001 6.922 0 13.571 1.172 19.758 3.328l-0.421-0.128 343.040 103.467v-320l-129.28-91.947c-3.709-2.312-6.876-5.072-9.55-8.259l-0.050-0.061c-6.489-7.269-10.454-16.911-10.454-27.48 0-0.089 0-0.178 0.001-0.267v0.014c0.073-23.535 19.132-42.594 42.66-42.667h0.007c0.016 0 0.035 0 0.053 0 2.247 0 4.439 0.233 6.554 0.676l-0.207-0.036 185.6 61.013 176.64-58.667c4.539-1.889 9.812-2.987 15.342-2.987 0.006 0 0.013 0 0.019 0h-0.001c23.535 0.073 42.594 19.132 42.667 42.66v0.007c0 0.009 0 0.019 0 0.030 0 9.676-3.292 18.583-8.816 25.663l0.070-0.093c-3.039 4.221-6.803 7.713-11.14 10.359l-0.167 0.095-129.28 91.947v320l340.693-102.613c6.522-2.541 14.070-4.026 21.962-4.053h0.011c0.012 0 0.025 0 0.039 0 35.323 0 63.957 28.635 63.957 63.957 0 24.412-13.677 45.63-33.787 56.408l-0.342 0.168z" />
<glyph unicode="&#xe00f;" glyph-name="Alert" horiz-adv-x="1198" d="M1190.247 89.89l-513.124 889.165c-15.856 27.060-44.792 44.945-77.905 44.945s-62.049-17.885-77.675-44.521l-0.23-0.424-513.124-889.165c-5.070-8.606-8.065-18.96-8.065-30.013 0-33.069 26.808-59.877 59.877-59.877 0.044 0 0.088 0 0.132 0h1078.177c0.037 0 0.081 0 0.125 0 33.069 0 59.877 26.808 59.877 59.877 0 11.053-2.995 21.407-8.218 30.295l0.153-0.281zM599.219 174.787c-27.581 0-49.939 22.358-49.939 49.939s22.358 49.939 49.939 49.939c27.581 0 49.939-22.358 49.939-49.939v0c-0.085-27.546-22.393-49.854-49.931-49.939h-0.008zM649.158 399.512c0-27.581-22.358-49.939-49.939-49.939s-49.939 22.358-49.939 49.939v0 274.665c0 27.581 22.358 49.939 49.939 49.939s49.939-22.358 49.939-49.939v0z" />
<glyph unicode="&#xe010;" glyph-name="Analysis" d="M178.773 302.933l-153.173-153.173c-15.888-15.888-25.714-37.836-25.714-62.080 0-48.487 39.307-87.794 87.794-87.794 24.244 0 46.192 9.827 62.080 25.714v0l153.173 153.173c-48.58 34.458-89.702 75.58-123.093 122.579l-1.067 1.581zM469.333 597.333h-85.333c-11.767-0.036-21.297-9.566-21.333-21.33v-105.39c28.768-52.332 72.914-93.176 126.3-117.080l1.7-0.68v223.147c-0.036 11.767-9.566 21.297-21.33 21.333h-0.003zM810.667 725.333h-85.333c-11.767-0.036-21.297-9.566-21.333-21.33v-351.15c55.086 24.584 99.232 65.428 127.3 116.374l0.7 1.386v233.387c-0.036 11.767-9.566 21.297-21.33 21.333h-0.003zM640 661.333h-85.333c-11.767-0.036-21.297-9.566-21.333-21.33v-301.656c19.219-4.88 41.283-7.68 64-7.68s44.781 2.8 65.864 8.075l-1.864-0.395v301.653c-0.036 11.767-9.566 21.297-21.33 21.333h-0.003zM597.333 1024c-235.641 0-426.667-191.025-426.667-426.667s191.025-426.667 426.667-426.667c235.641 0 426.667 191.025 426.667 426.667v0c0 0.038 0 0.083 0 0.128 0 235.571-190.968 426.539-426.539 426.539-0.045 0-0.090 0-0.135 0h0.007zM832 380.16c-58.617-63.093-142.047-102.442-234.667-102.442-176.596 0-319.781 143.050-320 319.595v0.021c0 0.114 0 0.249 0 0.385 0 176.731 143.269 320 320 320s320-143.269 320-320c0-84.111-32.451-160.642-85.516-217.757l0.183 0.199z" />
<glyph unicode="&#xe011;" glyph-name="Apps" d="M0 902.095c0-67.326 54.579-121.905 121.905-121.905s121.905 54.579 121.905 121.905c0 67.326-54.579 121.905-121.905 121.905s-121.905-54.579-121.905-121.905zM0 512c0-67.326 54.579-121.905 121.905-121.905s121.905 54.579 121.905 121.905c0 67.326-54.579 121.905-121.905 121.905s-121.905-54.579-121.905-121.905zM0 121.905c0-67.326 54.579-121.905 121.905-121.905s121.905 54.579 121.905 121.905c0 67.326-54.579 121.905-121.905 121.905s-121.905-54.579-121.905-121.905zM0 902.095c0-67.326 54.579-121.905 121.905-121.905s121.905 54.579 121.905 121.905c0 67.326-54.579 121.905-121.905 121.905s-121.905-54.579-121.905-121.905zM0 512c0-67.326 54.579-121.905 121.905-121.905s121.905 54.579 121.905 121.905c0 67.326-54.579 121.905-121.905 121.905s-121.905-54.579-121.905-121.905zM0 121.905c0-67.326 54.579-121.905 121.905-121.905s121.905 54.579 121.905 121.905c0 67.326-54.579 121.905-121.905 121.905s-121.905-54.579-121.905-121.905zM390.095 902.095c0-67.326 54.579-121.905 121.905-121.905s121.905 54.579 121.905 121.905c0 67.326-54.579 121.905-121.905 121.905s-121.905-54.579-121.905-121.905zM390.095 512c0-67.326 54.579-121.905 121.905-121.905s121.905 54.579 121.905 121.905c0 67.326-54.579 121.905-121.905 121.905s-121.905-54.579-121.905-121.905zM390.095 121.905c0-67.326 54.579-121.905 121.905-121.905s121.905 54.579 121.905 121.905c0 67.326-54.579 121.905-121.905 121.905s-121.905-54.579-121.905-121.905zM390.095 902.095c0-67.326 54.579-121.905 121.905-121.905s121.905 54.579 121.905 121.905c0 67.326-54.579 121.905-121.905 121.905s-121.905-54.579-121.905-121.905zM390.095 512c0-67.326 54.579-121.905 121.905-121.905s121.905 54.579 121.905 121.905c0 67.326-54.579 121.905-121.905 121.905s-121.905-54.579-121.905-121.905zM390.095 121.905c0-67.326 54.579-121.905 121.905-121.905s121.905 54.579 121.905 121.905c0 67.326-54.579 121.905-121.905 121.905s-121.905-54.579-121.905-121.905zM780.19 902.095c0-67.326 54.579-121.905 121.905-121.905s121.905 54.579 121.905 121.905c0 67.326-54.579 121.905-121.905 121.905s-121.905-54.579-121.905-121.905zM780.19 512c0-67.326 54.579-121.905 121.905-121.905s121.905 54.579 121.905 121.905c0 67.326-54.579 121.905-121.905 121.905s-121.905-54.579-121.905-121.905zM780.19 121.905c0-67.326 54.579-121.905 121.905-121.905s121.905 54.579 121.905 121.905c0 67.326-54.579 121.905-121.905 121.905s-121.905-54.579-121.905-121.905zM780.19 902.095c0-67.326 54.579-121.905 121.905-121.905s121.905 54.579 121.905 121.905c0 67.326-54.579 121.905-121.905 121.905s-121.905-54.579-121.905-121.905zM780.19 512c0-67.326 54.579-121.905 121.905-121.905s121.905 54.579 121.905 121.905c0 67.326-54.579 121.905-121.905 121.905s-121.905-54.579-121.905-121.905zM780.19 121.905c0-67.326 54.579-121.905 121.905-121.905s121.905 54.579 121.905 121.905c0 67.326-54.579 121.905-121.905 121.905s-121.905-54.579-121.905-121.905z" />
<glyph unicode="&#xe012;" glyph-name="Arrest-detention" d="M362.667 488.747v33.92c-0.085 29.421-23.912 53.249-53.325 53.333h-106.675c-29.421-0.085-53.249-23.912-53.333-53.325v-33.715c-88.882-41.476-149.372-130.090-149.372-232.833 0-141.467 114.682-256.149 256.149-256.149 93.073 0 174.551 49.639 219.406 123.888l0.643 1.148c-17.787 38.489-28.16 83.526-28.16 130.987s10.374 92.498 28.977 132.969l-0.817-1.983c-26.936 44.505-65.679 79.476-111.915 101.097l-1.579 0.663zM256 106.667c-82.475 0-149.333 66.859-149.333 149.333s66.859 149.333 149.333 149.333c82.475 0 149.333-66.859 149.333-149.333v0c-0.097-82.436-66.898-149.236-149.324-149.333h-0.009zM256 640c23.535 0.073 42.594 19.132 42.667 42.66v64.007c0 23.564-19.103 42.667-42.667 42.667s-42.667-19.103-42.667-42.667v0-64c0.073-23.535 19.132-42.594 42.66-42.667h0.007zM349.013 844.117l44.075 44.011c7.782 7.627 12.607 18.247 12.607 29.994 0 23.187-18.797 41.984-41.984 41.984-11.768 0-22.405-4.842-30.028-12.642l-0.008-0.008-44.096-43.989c-7.389-7.561-11.948-17.915-11.948-29.334 0-23.187 18.797-41.984 41.984-41.984 11.44 0 21.812 4.576 29.384 11.997l-0.007-0.007zM725.333 746.667v-64c0-23.564 19.103-42.667 42.667-42.667s42.667 19.103 42.667 42.667v0 64c0 23.564-19.103 42.667-42.667 42.667s-42.667-19.103-42.667-42.667v0zM675.413 844.245c7.633-8.017 18.386-13.003 30.304-13.003 23.093 0 41.813 18.72 41.813 41.813 0 11.907-4.977 22.652-12.964 30.267l-0.017 0.016-44.48 44.416c-7.599 7.567-18.080 12.246-29.654 12.246-11.531 0-21.978-4.644-29.571-12.164l0.003 0.003c-7.536-7.578-12.194-18.023-12.194-29.557 0-11.566 4.684-22.037 12.258-29.622v0zM576 981.333c0 23.564-19.103 42.667-42.667 42.667h-42.667c-23.564 0-42.667-19.103-42.667-42.667s19.103-42.667 42.667-42.667h42.667c23.564 0 42.667 19.103 42.667 42.667v0zM874.667 488.96v33.707c-0.085 29.421-23.912 53.249-53.325 53.333h-106.675c-29.421-0.085-53.249-23.912-53.333-53.325v-33.715c-88.856-41.441-149.333-130.018-149.333-232.719 0-141.385 114.615-256 256-256s256 114.615 256 256c0 102.702-60.477 191.278-147.761 232.059l-1.572 0.66zM768 106.667c-82.475 0-149.333 66.859-149.333 149.333s66.859 149.333 149.333 149.333c82.475 0 149.333-66.859 149.333-149.333v0c-0.097-82.436-66.898-149.236-149.324-149.333h-0.009z" />
<glyph unicode="&#xe013;" glyph-name="Assault" horiz-adv-x="1023" d="M266.581 149.333c-17.673 0-32-14.327-32-32v0-85.312c0-17.673 14.327-32 32-32s32 14.327 32 32v0 85.312c0 17.673-14.327 32-32 32v0zM501.291 298.603h-85.333c-17.673 0-32-14.327-32-32v0c0-17.673 14.327-32 32-32v0h85.333c17.673 0 32 14.327 32 32v0c0 17.673-14.327 32-32 32v0zM266.709 533.312c-17.673 0-32-14.327-32-32v0-85.312c0-17.673 14.327-32 32-32s32 14.327 32 32v0 85.312c0 17.673-14.327 32-32 32v0zM149.312 266.731c0 17.673-14.327 32-32 32v0h-85.312c-17.673 0-32-14.327-32-32s14.327-32 32-32v0h85.312c17.673 0 32 14.327 32 32v0zM395.947 182.699c-5.793 5.793-13.795 9.376-22.635 9.376-17.679 0-32.010-14.331-32.010-32.010 0-8.839 3.583-16.842 9.376-22.635l64.064-64.064c5.793-5.793 13.795-9.376 22.635-9.376 17.679 0 32.010 14.331 32.010 32.010 0 8.839-3.583 16.842-9.376 22.635v0zM395.861 350.635l64.085 64.064c5.793 5.793 9.376 13.795 9.376 22.635 0 17.679-14.331 32.010-32.010 32.010-8.839 0-16.842-3.583-22.635-9.376l-64.064-64.064c-5.795-5.792-9.379-13.795-9.379-22.635 0-17.675 14.328-32.003 32.003-32.003 8.835 0 16.833 3.58 22.624 9.368v0zM137.408 350.656c5.721-5.423 13.469-8.757 21.995-8.757 17.673 0 32 14.327 32 32 0 8.521-3.33 16.264-8.761 21.999l0.014-0.015-64.043 64.107c-5.793 5.793-13.795 9.376-22.635 9.376-17.679 0-32.010-14.331-32.010-32.010 0-8.839 3.583-16.842 9.376-22.635v0zM137.408 182.699l-64.064-64.085c-5.793-5.793-9.376-13.795-9.376-22.635 0-17.679 14.331-32.010 32.010-32.010 8.839 0 16.842 3.583 22.635 9.376v0l64.064 64.064c5.793 5.793 9.376 13.795 9.376 22.635 0 17.679-14.331 32.010-32.010 32.010-8.839 0-16.842-3.583-22.635-9.376v0zM746.645 810.667c-158.101 0-277.333-110.080-277.333-256 0-23.564 19.103-42.667 42.667-42.667s42.667 19.103 42.667 42.667v0c-0.018 0.901-0.029 1.962-0.029 3.027 0 60.879 34.234 113.763 84.502 140.45l0.86 0.417v-655.893c0-23.564 19.103-42.667 42.667-42.667s42.667 19.103 42.667 42.667v0 320h42.667v-320c0-23.564 19.103-42.667 42.667-42.667s42.667 19.103 42.667 42.667v0 655.893c51.128-27.104 85.362-79.987 85.362-140.867 0-1.064-0.010-2.126-0.031-3.185l0.002 0.159c0-23.564 19.103-42.667 42.667-42.667s42.667 19.103 42.667 42.667v0c0 145.92-119.232 256-277.333 256zM661.312 938.667c0-47.128 38.205-85.333 85.333-85.333s85.333 38.205 85.333 85.333c0 47.128-38.205 85.333-85.333 85.333s-85.333-38.205-85.333-85.333z" />
<glyph unicode="&#xe014;" glyph-name="Assembly-point" d="M405.333 512c0-58.91 47.756-106.667 106.667-106.667s106.667 47.756 106.667 106.667c0 58.91-47.756 106.667-106.667 106.667s-106.667-47.756-106.667-106.667zM981.333 554.667h-174.315l33.813 33.835c7.41 7.665 11.977 18.12 11.977 29.641 0 23.564-19.103 42.667-42.667 42.667-11.521 0-21.976-4.567-29.653-11.989l-106.655-106.655c-2.574-2.645-4.812-5.637-6.631-8.895l-0.11-0.214c-0.448-0.789-0.853-1.579-1.259-2.389-1.514-2.916-2.755-6.299-3.552-9.85l-0.053-0.283-0.085-0.256c-0.437-2.294-0.687-4.934-0.687-7.631 0-1.181 0.048-2.351 0.142-3.508l-0.010 0.152c0.064-0.896 0.149-1.749 0.256-2.624 0.457-4.046 1.411-7.74 2.811-11.207l-0.102 0.285 0.021-0.085 0.192-0.299c1.567-3.517 3.423-6.549 5.613-9.303l-0.067 0.087c0.597-0.789 1.216-1.557 1.877-2.304 0.576-0.64 1.024-1.387 1.643-2.005l106.667-106.667c7.665-7.41 18.12-11.977 29.641-11.977 23.564 0 42.667 19.103 42.667 42.667 0 11.521-4.567 21.976-11.989 29.653l-33.823 33.823h174.336c23.564 0 42.667 19.103 42.667 42.667s-19.103 42.667-42.667 42.667v0zM362.411 509.291c0.084 1.005 0.132 2.175 0.132 3.356 0 2.697-0.25 5.337-0.728 7.896l0.041-0.264-0.085 0.256c-0.857 3.835-2.106 7.218-3.738 10.37l0.111-0.237c-0.501 1.053-0.914 1.836-1.349 2.604l0.112-0.215c-1.929 3.472-4.167 6.465-6.751 9.119l-106.658 106.658c-7.665 7.41-18.12 11.977-29.641 11.977-23.564 0-42.667-19.103-42.667-42.667 0-11.521 4.567-21.976 11.989-29.653l-0.012 0.012 33.792-33.835h-174.293c-23.564 0-42.667-19.103-42.667-42.667s19.103-42.667 42.667-42.667v0h174.336l-33.835-33.835c-8.036-7.769-13.026-18.647-13.026-30.69 0-23.564 19.103-42.667 42.667-42.667 12.043 0 22.92 4.989 30.678 13.014l106.679 106.679c0.64 0.64 1.067 1.365 1.643 2.005 0.661 0.747 1.28 1.515 1.877 2.304 2.124 2.667 3.98 5.699 5.439 8.947l0.108 0.269 0.192 0.299v0.085c1.305 3.181 2.266 6.875 2.712 10.726l0.019 0.197c0.107 0.875 0.213 1.728 0.256 2.624zM481.835 673.835c1.971-1.977 4.134-3.761 6.46-5.322l0.153-0.097c1.696-1.102 3.658-2.158 5.706-3.053l0.267-0.104c0.491-0.213 0.939-0.555 1.408-0.747 1.882-0.772 4.137-1.47 6.463-1.976l0.278-0.051c0.427-0.085 0.789-0.256 1.216-0.341 2.467-0.51 5.304-0.805 8.209-0.811h0.004l0.555 0.043c2.733 0.027 5.384 0.305 7.953 0.813l-0.273-0.045c0.32 0.064 0.64 0.213 0.981 0.299 2.713 0.578 5.067 1.313 7.324 2.236l-0.284-0.103h0.064l0.213 0.128c3.566 1.583 6.641 3.468 9.428 5.697l-0.084-0.065c0.849 0.651 1.579 1.251 2.287 1.875l-0.047-0.041c0.683 0.576 1.408 1.024 2.048 1.664l106.667 106.667c7.41 7.665 11.977 18.12 11.977 29.641 0 23.564-19.103 42.667-42.667 42.667-11.521 0-21.976-4.567-29.653-11.989l-33.823-33.823v174.336c0 23.564-19.103 42.667-42.667 42.667s-42.667-19.103-42.667-42.667v0-174.336l-33.835 33.835c-7.665 7.41-18.12 11.977-29.641 11.977-23.564 0-42.667-19.103-42.667-42.667 0-11.521 4.567-21.976 11.989-29.653l-0.012 0.012zM542.165 350.165c-0.64 0.64-1.365 1.067-2.048 1.664-0.664 0.587-1.393 1.188-2.143 1.764l-0.097 0.071c-2.708 2.166-5.79 4.051-9.096 5.525l-0.269 0.107-0.192 0.128h-0.043c-3.168 1.302-6.847 2.263-10.682 2.712l-0.198 0.019c-0.724 0.098-1.68 0.189-2.644 0.249l-0.129 0.007c-0.97 0.078-2.1 0.122-3.24 0.122-2.685 0-5.313-0.246-7.862-0.718l0.265 0.041c-0.213-0.021-0.384-0.107-0.576-0.149-3.719-0.843-6.994-2.047-10.054-3.61l0.24 0.112c-0.853-0.427-1.685-0.853-2.496-1.323-3.456-1.925-6.434-4.155-9.076-6.729l-106.658-106.658c-7.41-7.665-11.977-18.12-11.977-29.641 0-23.564 19.103-42.667 42.667-42.667 11.521 0 21.976 4.567 29.653 11.989l33.823 33.823v-174.336c0-23.564 19.103-42.667 42.667-42.667s42.667 19.103 42.667 42.667v0 174.336l33.835-33.835c7.665-7.41 18.12-11.977 29.641-11.977 23.564 0 42.667 19.103 42.667 42.667 0 11.521-4.567 21.976-11.989 29.653l0.012-0.012z" />
<glyph unicode="&#xe015;" glyph-name="Assessment" d="M42.667 789.333h47.573c20.053-86.169 96.19-149.392 187.093-149.392s167.040 63.222 186.838 148.095l0.255 1.297h95.147c20.053-86.169 96.19-149.392 187.093-149.392s167.040 63.222 186.838 148.095l0.255 1.297h47.573c23.564 0 42.667 19.103 42.667 42.667s-19.103 42.667-42.667 42.667h-47.573c-20.053 86.169-96.19 149.392-187.093 149.392s-167.040-63.222-186.838-148.095l-0.255-1.297h-95.147c-20.053 86.169-96.19 149.392-187.093 149.392s-167.040-63.222-186.838-148.095l-0.255-1.297h-47.573c-23.564 0-42.667-19.103-42.667-42.667s19.103-42.667 42.667-42.667v0zM649.045 874.667c16.782 37.14 53.502 62.519 96.149 62.519 58.097 0 105.195-47.097 105.195-105.195s-47.097-105.195-105.195-105.195c-58.097 0-105.195 47.097-105.195 105.195 0 0.003 0 0.006 0 0.010v-0.001c0.050 15.45 3.375 30.111 9.316 43.342l-0.271-0.675zM179.712 874.667c16.782 37.14 53.502 62.519 96.149 62.519 58.097 0 105.195-47.097 105.195-105.195s-47.097-105.195-105.195-105.195c-58.097 0-105.195 47.097-105.195 105.195 0 0.003 0 0.006 0 0.010v-0.001c0.050 15.45 3.375 30.111 9.316 43.342l-0.271-0.675zM1002.667 533.333h-640c-11.767-0.036-21.297-9.566-21.333-21.33v-85.123h320c35.449-0.036 64.177-28.764 64.213-64.21v-362.67h298.453v512c-0.036 11.767-9.566 21.297-21.33 21.333h-0.003zM640 384h-597.333c-23.535-0.073-42.594-19.132-42.667-42.66v-339.847l1.493-1.493 681.173 0.213v341.12c-0.073 23.535-19.132 42.594-42.66 42.667h-0.007zM544 64h-405.333c-17.673 0-32 14.327-32 32s14.327 32 32 32v0h405.333c17.673 0 32-14.327 32-32s-14.327-32-32-32v0zM544 192h-405.333c-17.673 0-32 14.327-32 32s14.327 32 32 32v0h405.333c17.673 0 32-14.327 32-32s-14.327-32-32-32v0z" />
<glyph unicode="&#xe016;" glyph-name="Attack" d="M512 832c35.346 0 64 28.654 64 64v0 64c0 35.346-28.654 64-64 64s-64-28.654-64-64v0-64c0-35.346 28.654-64 64-64v0zM970.667 106.667h-223.147l201.6 115.2c18.893 11.34 31.341 31.718 31.341 55.003 0 35.311-28.625 63.936-63.936 63.936-11.37 0-22.048-2.968-31.299-8.172l0.321 0.166-196.053-112 326.187 579.84c5.173 9.023 8.224 19.835 8.224 31.36 0 35.293-28.611 63.904-63.904 63.904-23.768 0-44.506-12.976-55.515-32.231l-0.165-0.313-328.32-583.68v317.653c0 35.346-28.654 64-64 64s-64-28.654-64-64v0-332.587l-202.667 304c-11.665 17.142-31.083 28.252-53.097 28.252-35.358 0-64.021-28.663-64.021-64.021 0-13.044 3.901-25.177 10.6-35.295l-0.148 0.238 174.080-261.12-87.893 52.693c-9.379 5.71-20.721 9.090-32.853 9.090-35.3 0-63.916-28.616-63.916-63.916 0-23.168 12.327-43.457 30.78-54.667l0.284-0.16 122.027-73.173h-227.84c-29.455 0-53.333-23.878-53.333-53.333s23.878-53.333 53.333-53.333h917.333c29.455 0 53.333 23.878 53.333 53.333s-23.878 53.333-53.333 53.333v0zM495.787 106.667h-133.12c-0.001 0.16-0.001 0.349-0.001 0.539 0 15.882 2.497 31.18 7.12 45.524l-0.292-1.049c13.070 39.919 41.25 71.782 77.612 89.422l0.894 0.391c3.473 1.969 7.502 3.709 11.725 5.005l0.435 0.115c15.146 5.944 32.685 9.389 51.028 9.389 0.286 0 0.571-0.001 0.856-0.003h-0.044c0.146 0.001 0.318 0.001 0.49 0.001 16.462 0 32.285-2.733 47.040-7.771l-1.024 0.304c6.87-2.193 12.659-4.578 18.211-7.367l-0.718 0.327c36.11-17.205 63.623-47.563 76.696-84.725l0.317-1.035c5.269-14.618 8.317-31.486 8.32-49.065v-0.001h-165.547z" />
<glyph unicode="&#xe017;" glyph-name="Bacteria" d="M197.632 384.192c0.011-106.030 85.968-191.98 192-191.98 53.009 0 101.001 21.482 135.745 56.216l241.365 241.343c34.75 34.747 56.243 82.752 56.243 135.776 0 106.043-85.965 192.009-192.009 192.009-53.019 0-101.019-21.489-135.766-56.233l-241.365-241.365c-34.725-34.555-56.214-82.383-56.214-135.23 0-0.188 0-0.376 0.001-0.565v0.029zM480 618.667c29.455 0 53.333-23.878 53.333-53.333s-23.878-53.333-53.333-53.333c-29.455 0-53.333 23.878-53.333 53.333v0c0 29.455 23.878 53.333 53.333 53.333v0zM405.333 448c47.128 0 85.333-38.205 85.333-85.333s-38.205-85.333-85.333-85.333c-47.128 0-85.333 38.205-85.333 85.333v0c0 47.128 38.205 85.333 85.333 85.333v0zM981.397 682.667l-57.387 0.064c-2.495 12.589-5.231 23.047-8.5 33.266l0.586-2.119c-0.704 2.283-1.6 4.48-2.347 6.741-2.773 8.32-5.909 16.533-9.429 24.619-0.832 1.877-1.728 3.733-2.603 5.611q-6.037 13.077-13.397 25.643l-1.835 3.093c-6.45 10.691-12.672 19.734-19.365 28.394l0.507-0.682 37.205 37.205c7.41 7.665 11.977 18.12 11.977 29.641 0 23.564-19.103 42.667-42.667 42.667-11.521 0-21.976-4.567-29.653-11.989l-38.025-38.025c-34.846 25.678-76.598 44.145-121.928 52.317l-1.805 0.27h-0.064v61.952c0 23.564-19.103 42.667-42.667 42.667s-42.667-19.103-42.667-42.667v0-59.349h-0.085c-20.067-2.265-38.232-6.12-55.712-11.531l2.123 0.566c-0.32-0.107-0.64-0.256-0.939-0.341-8.448-2.603-16.811-5.483-25.045-8.853q-12.907-5.227-25.387-11.733l-57.408 57.408c-7.665 7.41-18.12 11.977-29.641 11.977-23.564 0-42.667-19.103-42.667-42.667 0-11.521 4.567-21.976 11.989-29.653l47.945-47.967c-0.875-0.853-1.856-1.579-2.731-2.453l-75.413-75.413-79.531 79.509c-7.665 7.41-18.12 11.977-29.641 11.977-23.564 0-42.667-19.103-42.667-42.667 0-11.521 4.567-21.976 11.989-29.653l79.519-79.519-89.003-88.981-58.197 58.176c-7.665 7.41-18.12 11.977-29.641 11.977-23.564 0-42.667-19.103-42.667-42.667 0-11.521 4.567-21.976 11.989-29.653l62.793-62.793-0.32-0.555c-18.481-28.218-32.6-61.177-40.423-96.504l-0.366-1.971h-55.531c-23.564 0-42.667-19.103-42.667-42.667s19.103-42.667 42.667-42.667v0h49.451c0.685-9.007 1.616-16.894 2.846-24.681l-0.222 1.705c3.21-21.17 8.096-40.052 14.677-58.119l-0.661 2.076 0.597-1.664c10.305-27.976 23.475-52.188 39.593-74.099l-0.575 0.819-29.227-29.205c-7.716-7.722-12.489-18.386-12.489-30.165 0-23.569 19.106-42.675 42.675-42.675 11.79 0 22.463 4.781 30.186 12.51l28.374 28.374c9.902-7.692 21.052-15.189 32.703-21.915l1.431-0.762c0.64-0.363 1.301-0.789 1.963-1.152 5.759-3.31 13.208-7.102 20.828-10.584l1.87-0.766c4.864-2.197 9.728-4.416 14.699-6.336q9.963-3.904 20.139-7.040c3.627-1.109 7.253-2.005 10.923-2.987 6.113-1.783 14.424-3.708 22.862-5.27l1.799-0.277q9.408-1.685 18.88-2.731c2.027-0.213 4.011-0.576 6.037-0.768v-44.288c0-23.564 19.103-42.667 42.667-42.667s42.667 19.103 42.667 42.667v0 48.597l0.811 0.213c39.476 7.975 74.465 22.713 105.419 43.081l-1.12-0.692 57.365-57.387c7.722-7.716 18.386-12.489 30.165-12.489 23.569 0 42.675 19.106 42.675 42.675 0 11.79-4.781 22.463-12.51 30.186l-52.758 52.736 89.003 89.003 74.091-74.091c7.665-7.41 18.12-11.977 29.641-11.977 23.564 0 42.667 19.103 42.667 42.667 0 11.521-4.567 21.976-11.989 29.653l-74.079 74.079 75.435 75.435c0.853 0.853 1.6 1.835 2.453 2.709l42.795-42.795c7.665-7.41 18.12-11.977 29.641-11.977 23.564 0 42.667 19.103 42.667 42.667 0 11.521-4.567 21.976-11.989 29.653l-52.233 52.255c12.676 23.69 22.59 51.16 28.298 80.139l0.31 1.887 0.021 0.149q2.688 14.080 4.032 28.331l53.163-0.043c0.009 0 0.021 0 0.032 0 23.564 0 42.667 19.103 42.667 42.667 0 23.553-19.084 42.648-42.633 42.667h-0.002zM465.045 791.467c0.853 0.896 1.835 1.621 2.731 2.475 20.272 19.72 44.192 35.817 70.632 47.165l1.518 0.579 0.555 0.256c16.467 7.027 35.621 12.443 55.592 15.338l1.261 0.15q10.603 1.536 21.312 2.091h0.128q10.581 0.555 21.205 0.149h0.384q10.517-0.427 21.013-1.771l0.341-0.064q10.539-1.365 20.949-3.691c15.398-3.487 28.732-7.857 41.494-13.306l-1.558 0.592c0.853-0.363 1.707-0.811 2.56-1.195 5.632-2.432 11.2-5.013 16.64-7.915 2.176-1.173 4.267-2.539 6.4-3.776 4.203-2.411 8.448-4.779 12.523-7.467q9.6-6.379 18.645-13.76c6.374-5.217 12.089-10.392 17.539-15.833l-0.003 0.003c4.821-4.821 9.237-9.877 13.547-14.997q6.037-7.296 11.435-14.933 6.421-9.003 11.883-18.432l0.171-0.277q5.397-9.323 9.856-19.029l0.213-0.512q4.437-9.685 7.957-19.648l0.128-0.427q3.541-10.069 6.123-20.416c3.233-12.316 5.585-26.775 6.575-41.607l0.038-0.719v-0.427c0.448-6.976 0.597-13.973 0.405-20.971l-0.043-0.683c-0.213-6.976-0.683-13.952-1.515-20.907v-0.043c-1.447-11.6-3.436-21.803-6.048-31.753l0.373 1.673-0.64-2.56c-3.1-11.813-6.519-21.739-10.571-31.333l0.566 1.509c-11.932-28.138-28.092-52.211-47.967-72.652l0.053 0.054c-0.875-0.917-1.621-1.92-2.539-2.795l-241.365-241.365c-6.921-6.867-14.304-13.296-22.088-19.227l-0.547-0.399c-1.109-0.853-2.24-1.643-3.349-2.475-6.786-5.098-14.538-10.244-22.581-14.945l-1.163-0.628-0.064-0.021c-16.797-9.756-36.224-17.796-56.749-23.111l-1.619-0.356c-7.154-1.902-16.24-3.707-25.487-5.009l-1.329-0.153c-1.024-0.128-2.027-0.32-3.051-0.427-8.341-1.144-18.014-1.817-27.837-1.856h-0.046c-9.793 0.066-19.363 0.715-28.761 1.915l1.177-0.123h-0.043c-10.579 1.285-19.85 3.022-28.91 5.289l1.604-0.34c-1.884 0.405-2.637 0.589-3.388 0.778l1.148-0.245c-30.049 7.651-56.385 20.178-79.54 36.847l0.692-0.474q-7.616 5.419-14.912 11.392c-5.12 4.331-10.176 8.747-15.019 13.568-10.784 10.794-20.524 22.635-29.055 35.356l-0.535 0.847c-4.456 6.641-9.022 14.44-13.13 22.511l-0.609 1.319c-0.96 1.92-1.792 3.904-2.709 5.845-2.336 4.72-5.019 10.984-7.427 17.382l-0.53 1.605q-1.323 3.584-2.517 7.232-3.264 9.877-5.611 19.947c-0.448 1.92-1.003 3.819-1.408 5.739-3.226 14.509-5.075 31.174-5.075 48.27 0 22.691 3.256 44.622 9.327 65.35l-0.412-1.641c5.721 19.949 13.216 37.322 22.593 53.467l-0.598-1.115c5.341 9.226 10.494 16.992 16.057 24.434l-0.463-0.647c0.853 1.109 1.6 2.219 2.453 3.328 6.338 8.338 12.775 15.728 19.662 22.67l165.917 165.917z" />
<glyph unicode="&#xe018;" glyph-name="Blanket" horiz-adv-x="511" d="M21.333 853.333h469.333clNaNNaNclNaNNaNclNaNNaNclNaNNaNclNaNNaNclNaNNaNclNaNNaNclNaNNaNclNaNNaNclNaNNaNclNaNNaNclNaNNaNclNaNNaNclNaNNaNclNaNNaNclNaNNaNclNaNNaNclNaNNaNclNaNNaNclNaNNaNclNaNNaNclNaNNaNclNaNNaNclNaNNaNclNaNNaNclNaNNaNclNaNNaNclNaNNaNclNaNNaNclNaNNaNclNaNNaNclNaNNaNclNaNNaNclNaNNaNclNaNNaNclNaNNaNclNaNNaNclNaNNaNclNaNNaNclNaNNaNclNaNNaNclNaNNaNclNaNNaNclNaNNaNclNaNNaNclNaNNaNclNaNNaNclNaNNaNclNaNNaNclNaNNaNclNaNNaNclNaNNaNclNaNNaNclNaNNaNzM512 960v32c0 17.673-14.327 32-32 32s-32-14.327-32-32v0-32h-85.333v32c0 17.673-14.327 32-32 32s-32-14.327-32-32v0-32h-85.333v32c0 17.673-14.327 32-32 32s-32-14.327-32-32v0-32h-85.333v32c0 17.673-14.327 32-32 32s-32-14.327-32-32v0-42.667l0.021-0.299v-31.701c0-11.782 9.551-21.333 21.333-21.333h469.333c11.782 0 21.333 9.551 21.333 21.333v0 42.667zM512 106.667c0 11.782-9.551 21.333-21.333 21.333v0h-469.333c-11.782 0-21.333-9.551-21.333-21.333v0-42.667h0.021v-32c0-17.673 14.327-32 32-32s32 14.327 32 32v0 32h85.333v-32c0-17.673 14.327-32 32-32s32 14.327 32 32v0 32h85.333v-32c0-17.673 14.327-32 32-32s32 14.327 32 32v0 32h85.333v-32c0-17.673 14.327-32 32-32s32 14.327 32 32v0 42.667l-0.021 0.299z" />
<glyph unicode="&#xe019;" glyph-name="Blog" horiz-adv-x="977" d="M791.075 1024h-604.94c-102.8 0-186.135-83.336-186.135-186.135v0-442.071c0-102.8 83.336-186.135 186.135-186.135v0h325.737l204.865-204.865c2.947-2.948 7.019-4.771 11.517-4.771 8.995 0 16.287 7.292 16.287 16.287 0 0 0 0.001 0 0.001v0 193.348h46.534c102.8 0 186.135 83.336 186.135 186.135v442.071c0 102.8-83.336 186.135-186.135 186.135v0zM756.175 395.793h-535.139c-19.275 0-34.9 15.625-34.9 34.9s15.625 34.9 34.9 34.9h535.139c19.275 0 34.9-15.625 34.9-34.9s-15.625-34.9-34.9-34.9v0zM756.175 581.929h-535.139c-19.275 0-34.9 15.625-34.9 34.9s15.625 34.9 34.9 34.9v0h535.139c19.275 0 34.9-15.625 34.9-34.9s-15.625-34.9-34.9-34.9v0zM756.175 768.064h-535.139c-19.275 0-34.9 15.625-34.9 34.9s15.625 34.9 34.9 34.9v0h535.139c19.275 0 34.9-15.625 34.9-34.9s-15.625-34.9-34.9-34.9v0z" />
<glyph unicode="&#xe01a;" glyph-name="Boat" d="M84.928 256h256.853c11.537 0.012 20.885 9.368 20.885 20.907 0 0 0 0 0 0v0 384.427c-0.015 11.535-9.369 20.881-20.907 20.881-7.219 0-13.583-3.659-17.34-9.223l-0.047-0.074-256.853-384.427c-2.194-3.256-3.503-7.267-3.503-11.584 0-11.546 9.36-20.907 20.907-20.907 0.009 0 0.018 0 0.027 0h-0.001zM426.667 256h511.851c0.020 0 0.043 0 0.067 0 11.829 0 21.419 9.589 21.419 21.419 0 0.12-0.001 0.24-0.003 0.359v-0.018c-8.96 392.107-259.349 729.941-532.629 746.219-0.261 0.012-0.568 0.018-0.876 0.018-11.688 0-21.163-9.475-21.163-21.163 0-0.066 0-0.133 0.001-0.199v0.010-725.333c0.012-11.773 9.559-21.312 21.333-21.312v0zM981.333 192h-938.667c-23.564 0-42.667-19.103-42.667-42.667v0c0-82.475 66.859-149.333 149.333-149.333h725.333c82.475 0 149.333 66.859 149.333 149.333v0c0 23.564-19.103 42.667-42.667 42.667v0z" />
<glyph unicode="&#xe01b;" glyph-name="Bookmark" horiz-adv-x="780" d="M739.133 6.632l-332.361 311.589c-4.349 4.086-10.22 6.595-16.677 6.595s-12.328-2.51-16.689-6.607l0.013 0.012-332.361-311.564c-4.349-4.086-10.22-6.595-16.677-6.595-13.461 0-24.374 10.909-24.381 24.369v999.571h780.19v-999.57c0-0.004 0-0.008 0-0.013 0-13.465-10.916-24.381-24.381-24.381-6.457 0-12.328 2.51-16.689 6.607l0.013-0.012z" />
<glyph unicode="&#xe01c;" glyph-name="Border-closed" d="M853.333 618.667h170.667v-192h-170.667v192zM213.333 917.333c-36.267 0-64-27.733-64-64h128c0 36.267-27.733 64-64 64zM213.333 597.333c117.333 0 213.333 96 213.333 213.333s-96 213.333-213.333 213.333-213.333-96-213.333-213.333 96-213.333 213.333-213.333zM106.667 853.333c0 59.733 46.933 106.667 106.667 106.667s106.667-46.933 106.667-106.667v-128c0-23.467-19.2-42.667-42.667-42.667h-128c-23.467 0-42.667 19.2-42.667 42.667v128zM170.667 537.6c-59.733 8.533-115.2 38.4-157.867 81.067h-12.8v-192h170.667v110.933zM426.667 618.667h170.667v-192h-170.667v192zM917.333 704c36.267 0 64 27.733 64 64 0 17.067-6.4 34.133-19.2 44.8l-192 192c-2.133 2.133-6.4 6.4-10.667 8.533-2.133 0-2.133 2.133-4.267 2.133-2.133 2.133-4.267 2.133-6.4 4.267-2.133 0-4.267 2.133-6.4 2.133s-4.267 2.133-6.4 2.133c-8.533 2.133-17.067 2.133-25.6 0-2.133 0-4.267-2.133-6.4-2.133s-4.267-2.133-6.4-2.133c-2.133 0-4.267-2.133-6.4-4.267-2.133 0-2.133-2.133-4.267-2.133-4.267-2.133-6.4-4.267-10.667-8.533l-192-192c-25.6-25.6-25.6-66.133 0-89.6s66.133-25.6 89.6 0l83.2 83.2v-742.4c0-36.267 27.733-64 64-64s64 27.733 64 64v742.4l83.2-83.2c14.933-12.8 32-19.2 49.067-19.2zM445.867 300.8l-83.2-83.2v360.533c-38.4-25.6-83.2-40.533-128-42.667v-315.733l-83.2 83.2c-25.6 25.6-66.133 25.6-89.6 0s-25.6-66.133 0-89.6l192-192c2.133-2.133 6.4-6.4 10.667-8.533 2.133 0 2.133-2.133 4.267-2.133 2.133-2.133 4.267-2.133 6.4-4.267 2.133 0 4.267-2.133 6.4-2.133s4.267-2.133 6.4-2.133c8.533-2.133 17.067-2.133 25.6 0 2.133 0 4.267 0 6.4 2.133 2.133 0 4.267 2.133 6.4 2.133s4.267 2.133 6.4 4.267c2.133 0 2.133 2.133 4.267 2.133 4.267 2.133 6.4 4.267 10.667 8.533l192 192c25.6 25.6 25.6 66.133 0 89.6s-68.267 23.467-93.867-2.133zM192 810.667h42.667c12.8 0 21.333-8.533 21.333-21.333v-42.667c0-12.8-8.533-21.333-21.333-21.333h-42.667c-12.8 0-21.333 8.533-21.333 21.333v42.667c0 12.8 8.533 21.333 21.333 21.333z" />
<glyph unicode="&#xe01d;" glyph-name="Border-crossing" d="M853.333 618.667h170.667v-192h-170.667zM426.667 618.667h170.667v-192h-170.667zM0 618.667h170.667v-192h-170.667zM872.085 722.752c11.692-12.341 28.197-20.021 46.496-20.021 35.346 0 64 28.654 64 64 0 18.299-7.68 34.804-19.992 46.468l-0.029 0.027-191.893 191.936c-2.947 2.954-6.177 5.622-9.648 7.961l-0.229 0.146c-1.408 0.939-2.965 1.579-4.437 2.389-1.802 1.115-3.957 2.269-6.182 3.295l-0.388 0.161c-1.596 0.618-3.673 1.275-5.795 1.824l-0.435 0.096c-1.899 0.576-3.733 1.323-5.696 1.707-3.765 0.784-8.091 1.232-12.523 1.232s-8.758-0.449-12.936-1.303l0.414 0.071c-1.984-0.405-3.797-1.131-5.717-1.707-2.548-0.645-4.618-1.303-6.639-2.062l0.431 0.142c-2.631-1.195-4.8-2.355-6.889-3.634l0.275 0.157c-1.451-0.811-2.987-1.451-4.395-2.389-3.701-2.477-6.932-5.139-9.877-8.085l-191.893-191.915c-12.054-11.654-19.538-27.97-19.538-46.034 0-35.346 28.654-64 64-64 18.064 0 34.38 7.484 46.017 19.52l0.017 0.018 82.731 82.752v-741.504c0-35.346 28.654-64 64-64s64 28.654 64 64v0 741.504zM445.419 301.248l-82.752-82.752v741.504c0 35.346-28.654 64-64 64s-64-28.654-64-64v0-741.504l-82.752 82.773c-11.543 11.359-27.392 18.373-44.879 18.373-35.346 0-64-28.654-64-64 0-17.493 7.018-33.346 18.392-44.898l191.907-191.907c2.946-2.955 6.177-5.623 9.648-7.961l0.229-0.145c1.408-0.917 2.944-1.557 4.416-2.368 1.808-1.122 3.97-2.282 6.202-3.315l0.39-0.162c1.591-0.618 3.661-1.275 5.775-1.824l0.433-0.096c1.92-0.576 3.733-1.301 5.717-1.707 3.765-0.801 8.090-1.26 12.523-1.26s8.758 0.459 12.931 1.332l-0.409-0.071c1.984 0.384 3.797 1.131 5.696 1.707 2.556 0.645 4.634 1.302 6.661 2.062l-0.432-0.142c2.614 1.187 4.769 2.341 6.844 3.612l-0.273-0.156c1.493 0.811 3.029 1.451 4.437 2.411 3.701 2.479 6.931 5.14 9.878 8.086l191.914 191.914c11.116 11.497 17.966 27.179 17.966 44.462 0 35.346-28.654 64-64 64-17.282 0-32.964-6.85-44.48-17.983l0.018 0.017z" />
<glyph unicode="&#xe01e;" glyph-name="Borehole" d="M1002.667 768h-320v-448c0-94.257-76.41-170.667-170.667-170.667s-170.667 76.41-170.667 170.667v0 448h-320c-11.767-0.036-21.297-9.566-21.333-21.33v-725.336c0.036-11.767 9.566-21.297 21.33-21.333h981.336c11.767 0.036 21.297 9.566 21.333 21.33v725.336c-0.036 11.767-9.566 21.297-21.33 21.333h-0.003zM512 234.667c0.097 0 0.212-0.001 0.327-0.001 58.745 0 106.368 47.623 106.368 106.368 0 34.997-16.901 66.046-42.986 85.43l-0.285 0.202h0.576v533.333c0 35.346-28.654 64-64 64s-64-28.654-64-64v0-533.333h0.576c-26.37-19.587-43.271-50.636-43.271-85.633 0-58.745 47.623-106.368 106.368-106.368 0.115 0 0.23 0 0.345 0.001h-0.018z" />
<glyph unicode="&#xe01f;" glyph-name="Bottled-water" horiz-adv-x="427" d="M21.333 704h384c11.782 0 21.333 9.551 21.333 21.333v0c0 70.692-57.308 128-128 128v0 85.333c23.564 0 42.667 19.103 42.667 42.667s-19.103 42.667-42.667 42.667h-170.667c-23.564 0-42.667-19.103-42.667-42.667s19.103-42.667 42.667-42.667v0-85.333c-70.692 0-128-57.308-128-128v0c0-11.782 9.551-21.333 21.333-21.333v0zM21.333 640h384clNaNNaNclNaNNaNclNaNNaNclNaNNaNclNaNNaNclNaNNaNclNaNNaNclNaNNaNclNaNNaNclNaNNaNclNaNNaNclNaNNaNclNaNNaNclNaNNaNclNaNNaNclNaNNaNclNaNNaNclNaNNaNclNaNNaNclNaNNaNclNaNNaNclNaNNaNclNaNNaNclNaNNaNclNaNNaNclNaNNaNclNaNNaNclNaNNaNclNaNNaNclNaNNaNclNaNNaNclNaNNaNclNaNNaNclNaNNaNclNaNNaNclNaNNaNclNaNNaNclNaNNaNclNaNNaNclNaNNaNclNaNNaNclNaNNaNclNaNNaNclNaNNaNclNaNNaNclNaNNaNclNaNNaNclNaNNaNclNaNNaNclNaNNaNclNaNNaNclNaNNaNclNaNNaNclNaNNaNzM21.333 490.667h384clNaNNaNclNaNNaNclNaNNaNclNaNNaNclNaNNaNclNaNNaNclNaNNaNclNaNNaNclNaNNaNclNaNNaNclNaNNaNclNaNNaNclNaNNaNclNaNNaNclNaNNaNclNaNNaNclNaNNaNclNaNNaNclNaNNaNclNaNNaNclNaNNaNclNaNNaNclNaNNaNclNaNNaNclNaNNaNclNaNNaNclNaNNaNclNaNNaNclNaNNaNclNaNNaNclNaNNaNclNaNNaNclNaNNaNclNaNNaNclNaNNaNclNaNNaNclNaNNaNclNaNNaNclNaNNaNclNaNNaNclNaNNaNclNaNNaNclNaNNaNclNaNNaNclNaNNaNclNaNNaNclNaNNaNclNaNNaNclNaNNaNclNaNNaNclNaNNaNclNaNNaNclNaNNaNclNaNNaNzM405.333 341.333h-384c-11.782 0-21.333-9.551-21.333-21.333v-277.333c0-23.564 19.103-42.667 42.667-42.667h341.333c23.564 0 42.667 19.103 42.667 42.667v0 277.333c0 11.782-9.551 21.333-21.333 21.333v0z" />
<glyph unicode="&#xe020;" glyph-name="Bridge-affected" d="M213.333 597.333c117.821 0 213.333 95.513 213.333 213.333s-95.513 213.333-213.333 213.333c-117.821 0-213.333-95.513-213.333-213.333v0c0.049-117.801 95.532-213.285 213.329-213.333h0.005zM192 938.667c0 11.782 9.551 21.333 21.333 21.333s21.333-9.551 21.333-21.333v0-170.667c0-11.782-9.551-21.333-21.333-21.333s-21.333 9.551-21.333 21.333v0zM213.333 704c11.782 0 21.333-9.551 21.333-21.333s-9.551-21.333-21.333-21.333c-11.782 0-21.333 9.551-21.333 21.333v0c0.036 11.767 9.566 21.297 21.33 21.333h0.003zM0 512v-149.333c0.013 0 0.028 0 0.043 0 94.233 0 170.624-76.391 170.624-170.624 0-0.015 0-0.030 0-0.045v0.003-192h170.667v192c0 94.257 76.41 170.667 170.667 170.667s170.667-76.41 170.667-170.667v0-192h170.667v192c0 0.013 0 0.028 0 0.043 0 94.233 76.391 170.624 170.624 170.624 0.015 0 0.030 0 0.045 0h-0.003v149.333z" />
<glyph unicode="&#xe021;" glyph-name="Bridge-closed" d="M213.333 917.333c-35.332-0.036-63.964-28.668-64-63.997v-0.003h128c-0.036 35.332-28.668 63.964-63.997 64h-0.003zM213.333 597.333c117.821 0 213.333 95.513 213.333 213.333s-95.513 213.333-213.333 213.333c-117.821 0-213.333-95.513-213.333-213.333v0c0.049-117.801 95.532-213.285 213.329-213.333h0.005zM106.667 853.333c0 58.91 47.756 106.667 106.667 106.667s106.667-47.756 106.667-106.667v0-128c0-23.564-19.103-42.667-42.667-42.667v0h-128c-23.564 0-42.667 19.103-42.667 42.667v0zM0 512v-149.333c0.013 0 0.028 0 0.043 0 94.233 0 170.624-76.391 170.624-170.624 0-0.015 0-0.030 0-0.045v0.003-192h170.667v192c0 94.257 76.41 170.667 170.667 170.667s170.667-76.41 170.667-170.667v0-192h170.667v192c0 0.013 0 0.028 0 0.043 0 94.233 76.391 170.624 170.624 170.624 0.015 0 0.030 0 0.045 0h-0.003v149.333zM192 810.667h42.667clNaNNaNclNaNNaNclNaNNaNclNaNNaNclNaNNaNclNaNNaNclNaNNaNclNaNNaNclNaNNaNclNaNNaNclNaNNaNclNaNNaNclNaNNaNclNaNNaNclNaNNaNclNaNNaNclNaNNaNclNaNNaNclNaNNaNclNaNNaNclNaNNaNclNaNNaNclNaNNaNclNaNNaNclNaNNaNclNaNNaNclNaNNaNclNaNNaNclNaNNaNclNaNNaNclNaNNaNclNaNNaNclNaNNaNclNaNNaNclNaNNaNclNaNNaNclNaNNaNclNaNNaNclNaNNaNclNaNNaNclNaNNaNclNaNNaNclNaNNaNclNaNNaNclNaNNaNclNaNNaNclNaNNaNclNaNNaNclNaNNaNclNaNNaNclNaNNaNclNaNNaNclNaNNaNclNaNNaNz" />
<glyph unicode="&#xe022;" glyph-name="Bridge-destroyed" d="M213.333 597.333c117.821 0 213.333 95.513 213.333 213.333s-95.513 213.333-213.333 213.333c-117.821 0-213.333-95.513-213.333-213.333v0c0.049-117.801 95.532-213.285 213.329-213.333h0.005zM112.853 880.853c-3.876 3.876-6.274 9.232-6.274 15.147 0 11.83 9.59 21.421 21.421 21.421 5.915 0 11.27-2.398 15.147-6.274l70.187-70.187 70.187 70.187c3.876 3.876 9.232 6.274 15.147 6.274 11.83 0 21.421-9.59 21.421-21.421 0-5.915-2.398-11.27-6.274-15.147l-70.187-70.187 70.187-70.187c3.856-3.885 6.24-9.238 6.24-15.147s-2.383-11.261-6.241-15.148l0.001 0.001c-3.899-3.826-9.247-6.188-15.147-6.188s-11.248 2.362-15.15 6.191l-70.184 70.184-70.187-70.187c-3.899-3.826-9.247-6.188-15.147-6.188s-11.248 2.362-15.15 6.191l0.003-0.003c-3.856 3.885-6.24 9.238-6.24 15.147s2.383 11.261 6.241 15.148l70.186 70.186zM0 512v-149.333c0.013 0 0.028 0 0.043 0 94.233 0 170.624-76.391 170.624-170.624 0-0.015 0-0.030 0-0.045v0.003-192h170.667v192c0 94.257 76.41 170.667 170.667 170.667s170.667-76.41 170.667-170.667v0-192h170.667v192c0 0.013 0 0.028 0 0.043 0 94.233 76.391 170.624 170.624 170.624 0.015 0 0.030 0 0.045 0h-0.003v149.333z" />
<glyph unicode="&#xe023;" glyph-name="Bridge-not-affected" d="M213.333 597.333c117.821 0 213.333 95.513 213.333 213.333s-95.513 213.333-213.333 213.333c-117.821 0-213.333-95.513-213.333-213.333v0c0.049-117.801 95.532-213.285 213.329-213.333h0.005zM91.52 825.813c3.885 3.856 9.238 6.24 15.147 6.24s11.261-2.383 15.148-6.241l-0.001 0.001 49.92-50.133 134.4 115.2c3.705 3.183 8.559 5.121 13.867 5.121 11.783 0 21.334-9.552 21.334-21.334 0-6.475-2.885-12.277-7.439-16.19l-149.361-128.024c-3.711-3.172-8.561-5.106-13.864-5.12h-0.003c-5.895 0.024-11.236 2.379-15.152 6.191l-63.995 63.995c-3.856 3.885-6.24 9.238-6.24 15.147s2.383 11.261 6.241 15.148l-0.001-0.001zM0 512v-149.333c0.013 0 0.028 0 0.043 0 94.233 0 170.624-76.391 170.624-170.624 0-0.015 0-0.030 0-0.045v0.003-192h170.667v192c0 94.257 76.41 170.667 170.667 170.667s170.667-76.41 170.667-170.667v0-192h170.667v192c0 0.013 0 0.028 0 0.043 0 94.233 76.391 170.624 170.624 170.624 0.015 0 0.030 0 0.045 0h-0.003v149.333z" />
<glyph unicode="&#xe024;" glyph-name="Bridge" horiz-adv-x="1143" d="M1095.442 142.884c-1.213 0.026-2.642 0.041-4.075 0.041-39.207 0-75.836-11.037-106.951-30.172l0.887 0.507c-18.412-11.305-40.71-18.002-64.572-18.002s-46.159 6.696-65.117 18.312l0.545-0.311c-30.23 18.629-66.862 29.666-106.072 29.666-1.439 0-2.874-0.015-4.306-0.044l0.214 0.003c-1.214 0.026-2.646 0.041-4.081 0.041-39.189 0-75.801-11.037-106.896-30.172l0.885 0.506c-17.184-11.322-38.259-18.061-60.908-18.061-1.259 0-2.513 0.021-3.762 0.062l0.182-0.005c-1.066-0.036-2.318-0.057-3.576-0.057-22.658 0-43.743 6.739-61.359 18.321l0.422-0.261c-30.228 18.629-66.857 29.665-106.064 29.665-1.433 0-2.862-0.015-4.288-0.044l0.213 0.003c-1.208 0.026-2.632 0.040-4.059 0.040-39.205 0-75.832-11.036-106.943-30.172l0.886 0.507c-17.184-11.321-38.259-18.060-60.907-18.060-1.251 0-2.497 0.021-3.738 0.061l0.181-0.005c-1.057-0.036-2.3-0.056-3.548-0.056-22.644 0-43.714 6.739-61.314 18.32l0.421-0.26c-30.23 18.628-66.861 29.665-106.070 29.665-1.423 0-2.842-0.015-4.257-0.043l0.212 0.003c-26.304 0-47.628-21.324-47.628-47.628s21.324-47.628 47.628-47.628v0c1.062 0.036 2.311 0.057 3.564 0.057 22.646 0 43.719-6.739 61.322-18.32l-0.421 0.26c30.227-18.628 66.856-29.664 106.062-29.664 1.408 0 2.814 0.014 4.215 0.043l-0.209-0.003c1.208-0.026 2.632-0.040 4.059-0.040 39.205 0 75.832 11.036 106.943 30.172l-0.886-0.507c17.184 11.322 38.259 18.061 60.908 18.061 1.259 0 2.513-0.021 3.762-0.062l-0.182 0.005c1.072 0.037 2.333 0.058 3.598 0.058 22.659 0 43.744-6.739 61.36-18.322l-0.422 0.261c30.228-18.628 66.856-29.664 106.063-29.664 1.417 0 2.83 0.014 4.24 0.043l-0.211-0.003c1.191-0.025 2.594-0.039 4.001-0.039 39.224 0 75.87 11.036 107.004 30.172l-0.888-0.508c18.399 11.309 40.685 18.008 64.536 18.008s46.137-6.699 65.079-18.318l-0.543 0.31c31.577-18.622 69.574-29.623 110.14-29.623s78.562 11.001 111.169 30.183l-1.029-0.56c17.208 11.323 38.307 18.061 60.98 18.061 1.267 0 2.529-0.021 3.786-0.063l-0.183 0.005c26.304 0 47.628 21.324 47.628 47.628s-21.324 47.628-47.628 47.628v0zM1095.442 333.395c-1.213 0.026-2.642 0.041-4.075 0.041-39.207 0-75.836-11.037-106.951-30.172l0.887 0.507c-18.412-11.305-40.71-18.002-64.572-18.002s-46.159 6.696-65.117 18.312l0.545-0.311c-30.23 18.629-66.862 29.666-106.072 29.666-1.439 0-2.874-0.015-4.306-0.044l0.214 0.003c-1.214 0.026-2.646 0.041-4.081 0.041-39.189 0-75.801-11.037-106.896-30.172l0.885 0.506c-17.184-11.322-38.259-18.061-60.908-18.061-1.259 0-2.513 0.021-3.762 0.062l0.182-0.005c-1.066-0.036-2.318-0.057-3.576-0.057-22.658 0-43.743 6.739-61.359 18.321l0.422-0.261c-30.228 18.629-66.857 29.665-106.064 29.665-1.433 0-2.862-0.015-4.288-0.044l0.213 0.003c-1.208 0.026-2.632 0.040-4.059 0.040-39.205 0-75.832-11.036-106.943-30.172l0.886 0.507c-17.184-11.321-38.259-18.060-60.907-18.060-1.251 0-2.497 0.021-3.738 0.061l0.181-0.005c-1.057-0.036-2.3-0.056-3.548-0.056-22.644 0-43.714 6.739-61.314 18.32l0.421-0.26c-30.23 18.628-66.861 29.665-106.070 29.665-1.423 0-2.842-0.015-4.257-0.043l0.212 0.003c-26.304 0-47.628-21.324-47.628-47.628s21.324-47.628 47.628-47.628v0c1.062 0.036 2.311 0.057 3.564 0.057 22.646 0 43.719-6.739 61.322-18.32l-0.421 0.26c30.227-18.628 66.856-29.664 106.062-29.664 1.408 0 2.814 0.014 4.215 0.043l-0.209-0.003c1.208-0.026 2.632-0.040 4.059-0.040 39.205 0 75.832 11.036 106.943 30.172l-0.886-0.507c17.184 11.322 38.259 18.061 60.908 18.061 1.259 0 2.513-0.021 3.762-0.062l-0.182 0.005c1.072 0.037 2.333 0.058 3.598 0.058 22.659 0 43.744-6.739 61.36-18.322l-0.422 0.261c30.228-18.628 66.856-29.664 106.063-29.664 1.417 0 2.83 0.014 4.24 0.043l-0.211-0.003c1.191-0.025 2.594-0.039 4.001-0.039 39.224 0 75.87 11.036 107.004 30.172l-0.888-0.508c18.399 11.309 40.685 18.008 64.536 18.008s46.137-6.699 65.079-18.318l-0.543 0.31c31.577-18.622 69.574-29.623 110.14-29.623s78.562 11.001 111.169 30.183l-1.029-0.56c17.208 11.323 38.307 18.061 60.98 18.061 1.267 0 2.529-0.021 3.786-0.063l-0.183 0.005c26.304 0 47.628 21.324 47.628 47.628s-21.324 47.628-47.628 47.628v0zM0 1024v-166.698c0.014 0 0.031 0 0.048 0 105.19 0 190.464-85.274 190.464-190.464 0-0.017 0-0.034 0-0.050v0.003-214.326h190.512v214.326c0 105.217 85.295 190.512 190.512 190.512s190.512-85.295 190.512-190.512v0-214.326h190.512v214.326c0 0.014 0 0.031 0 0.048 0 105.19 85.274 190.464 190.464 190.464 0.017 0 0.034 0 0.050 0h-0.003v166.698z" />
<glyph unicode="&#xe025;" glyph-name="Bucket" horiz-adv-x="810" d="M44.8 438.656l102.315-409.301c5.608-17.195 21.5-29.402 40.242-29.402 0.703 0 1.402 0.017 2.096 0.051l-0.098-0.004h423.296c0.579-0.028 1.256-0.044 1.938-0.044 18.548 0 34.313 11.913 40.063 28.504l0.090 0.298 113.259 419.243h-725.333zM768 576h-725.333c-23.564 0-42.667-19.103-42.667-42.667s19.103-42.667 42.667-42.667v0h725.333c23.564 0 42.667 19.103 42.667 42.667s-19.103 42.667-42.667 42.667v0zM85.333 618.667c23.564 0 42.667 19.103 42.667 42.667v0c0 153.167 124.166 277.333 277.333 277.333s277.333-124.166 277.333-277.333v0c0-23.564 19.103-42.667 42.667-42.667s42.667 19.103 42.667 42.667v0c0 200.295-162.371 362.667-362.667 362.667s-362.667-162.371-362.667-362.667v0c0-23.564 19.103-42.667 42.667-42.667v0z" />
<glyph unicode="&#xe026;" glyph-name="Buddhist-temple" d="M992 64h-960c-17.673 0-32-14.327-32-32s14.327-32 32-32v0h960c17.673 0 32 14.327 32 32s-14.327 32-32 32v0zM117.333 106.667h789.333c17.673 0 32 14.327 32 32s-14.327 32-32 32h-789.333c-17.673 0-32-14.327-32-32s14.327-32 32-32v0zM106.667 341.333h810.667c11.782 0 21.333 9.551 21.333 21.333 0 4.827-1.603 9.279-4.306 12.854l0.039-0.054-96 128c-3.933 5.205-10.111 8.533-17.067 8.533h-618.667c-6.955 0-13.133-3.329-17.028-8.48l-0.039-0.054-96-128c-2.664-3.521-4.267-7.973-4.267-12.8 0-11.782 9.551-21.333 21.333-21.333v0zM192 554.667h640c11.782 0 21.333 9.551 21.333 21.333 0 4.827-1.603 9.279-4.306 12.854l0.039-0.054-96 128c-3.933 5.205-10.111 8.533-17.067 8.533v0h-448c-6.955 0-13.133-3.329-17.028-8.48l-0.039-0.054-96-128c-2.664-3.521-4.267-7.973-4.267-12.8 0-11.782 9.551-21.333 21.333-21.333v0zM256.043 768h511.957c0.002 0 0.004 0 0.006 0 11.782 0 21.333 9.551 21.333 21.333 0 3.962-1.080 7.672-2.962 10.851l0.054-0.099-118.933 213.333c-3.766 6.37-10.596 10.576-18.41 10.581h-274.177c-7.814-0.006-14.645-4.212-18.356-10.482l-0.054-0.099-118.891-213.333c-1.828-3.080-2.908-6.79-2.908-10.752 0-11.782 9.551-21.333 21.333-21.333 0.002 0 0.004 0 0.007 0v0zM746.667 298.667h85.333clNaNNaNclNaNNaNclNaNNaNclNaNNaNclNaNNaNclNaNNaNclNaNNaNclNaNNaNclNaNNaNclNaNNaNclNaNNaNclNaNNaNclNaNNaNclNaNNaNclNaNNaNclNaNNaNclNaNNaNclNaNNaNclNaNNaNclNaNNaNclNaNNaNclNaNNaNclNaNNaNclNaNNaNclNaNNaNclNaNNaNclNaNNaNclNaNNaNclNaNNaNclNaNNaNclNaNNaNclNaNNaNclNaNNaNclNaNNaNclNaNNaNclNaNNaNclNaNNaNclNaNNaNclNaNNaNclNaNNaNclNaNNaNclNaNNaNclNaNNaNclNaNNaNclNaNNaNclNaNNaNclNaNNaNclNaNNaNclNaNNaNclNaNNaNclNaNNaNclNaNNaNclNaNNaNclNaNNaNzM192 298.667h85.333clNaNNaNclNaNNaNclNaNNaNclNaNNaNclNaNNaNclNaNNaNclNaNNaNclNaNNaNclNaNNaNclNaNNaNclNaNNaNclNaNNaNclNaNNaNclNaNNaNclNaNNaNclNaNNaNclNaNNaNclNaNNaNclNaNNaNclNaNNaNclNaNNaNclNaNNaNclNaNNaNclNaNNaNclNaNNaNclNaNNaNclNaNNaNclNaNNaNclNaNNaNclNaNNaNclNaNNaNclNaNNaNclNaNNaNclNaNNaNclNaNNaNclNaNNaNclNaNNaNclNaNNaNclNaNNaNclNaNNaNclNaNNaNclNaNNaNclNaNNaNclNaNNaNclNaNNaNclNaNNaNclNaNNaNclNaNNaNclNaNNaNclNaNNaNclNaNNaNclNaNNaNclNaNNaNclNaNNaNzM469.333 298.667h85.333clNaNNaNclNaNNaNclNaNNaNclNaNNaNclNaNNaNclNaNNaNclNaNNaNclNaNNaNclNaNNaNclNaNNaNclNaNNaNclNaNNaNclNaNNaNclNaNNaNclNaNNaNclNaNNaNclNaNNaNclNaNNaNclNaNNaNclNaNNaNclNaNNaNclNaNNaNclNaNNaNclNaNNaNclNaNNaNclNaNNaNclNaNNaNclNaNNaNclNaNNaNclNaNNaNclNaNNaNclNaNNaNclNaNNaNclNaNNaNclNaNNaNclNaNNaNclNaNNaNclNaNNaNclNaNNaNclNaNNaNclNaNNaNclNaNNaNclNaNNaNclNaNNaNclNaNNaNclNaNNaNclNaNNaNclNaNNaNclNaNNaNclNaNNaNclNaNNaNclNaNNaNclNaNNaNclNaNNaNz" />
<glyph unicode="&#xe027;" glyph-name="Building-closed" d="M469.333 938.667h426.667c0.069 0 0.15-0.001 0.231-0.001 11.698 0 22.27 4.818 29.841 12.579l0.008 0.009c7.769 7.579 12.587 18.151 12.587 29.849 0 0.081 0 0.162-0.001 0.243v-0.012c-0.073 23.535-19.132 42.594-42.66 42.667h-426.674c-0.066 0-0.144 0.001-0.222 0.001-11.701 0-22.276-4.818-29.85-12.579l-0.008-0.008c-6.459-6.241-10.867-14.569-12.136-23.895l-0.024-0.212c11.461-13.794 21.931-29.233 30.83-45.648l0.743-1.499c3.064-0.949 6.587-1.496 10.237-1.496 0.151 0 0.302 0.001 0.452 0.003h-0.023zM213.333 917.333c-35.332-0.036-63.964-28.668-64-63.997v-0.003h128c-0.036 35.332-28.668 63.964-63.997 64h-0.003zM981.333 896h-504.107c8.523-25.406 13.44-54.66 13.44-85.063 0-0.095 0-0.19 0-0.285v0.015c0-0.105 0-0.23 0-0.354 0-14.934-1.164-29.596-3.405-43.9l0.205 1.587h45.867c11.767-0.036 21.297-9.566 21.333-21.33v-170.67c-0.036-11.767-9.566-21.297-21.33-21.333h-85.336c-11.767 0.036-21.297 9.566-21.333 21.33v57.603c-23.391-28.129-51.736-51.23-83.831-68.183l-1.502-0.723v-180.693h682.667v469.333c-0.073 23.535-19.132 42.594-42.66 42.667h-0.007zM746.667 576c-0.036-11.767-9.566-21.297-21.33-21.333h-85.336c-11.767 0.036-21.297 9.566-21.333 21.33v170.67c0.036 11.767 9.566 21.297 21.33 21.333h85.336c11.767-0.036 21.297-9.566 21.333-21.33v-0.003zM938.667 576c-0.036-11.767-9.566-21.297-21.33-21.333h-85.336c-11.767 0.036-21.297 9.566-21.333 21.33v170.67c0.036 11.767 9.566 21.297 21.33 21.333h85.336c11.767-0.036 21.297-9.566 21.333-21.33v-0.003zM341.333 0h256v213.333c0.073 23.535 19.132 42.594 42.66 42.667h85.34c23.535-0.073 42.594-19.132 42.667-42.66v-213.34h256v341.333h-682.667zM426.667 810.667c0 117.821-95.513 213.333-213.333 213.333s-213.333-95.513-213.333-213.333c0-117.821 95.513-213.333 213.333-213.333v0c117.801 0.049 213.285 95.532 213.333 213.329v0.005zM320 725.333c0-23.564-19.103-42.667-42.667-42.667v0h-128c-23.564 0-42.667 19.103-42.667 42.667v0 128c0 58.91 47.756 106.667 106.667 106.667s106.667-47.756 106.667-106.667v0zM192 810.667h42.667clNaNNaNclNaNNaNclNaNNaNclNaNNaNclNaNNaNclNaNNaNclNaNNaNclNaNNaNclNaNNaNclNaNNaNclNaNNaNclNaNNaNclNaNNaNclNaNNaNclNaNNaNclNaNNaNclNaNNaNclNaNNaNclNaNNaNclNaNNaNclNaNNaNclNaNNaNclNaNNaNclNaNNaNclNaNNaNclNaNNaNclNaNNaNclNaNNaNclNaNNaNclNaNNaNclNaNNaNclNaNNaNclNaNNaNclNaNNaNclNaNNaNclNaNNaNclNaNNaNclNaNNaNclNaNNaNclNaNNaNclNaNNaNclNaNNaNclNaNNaNclNaNNaNclNaNNaNclNaNNaNclNaNNaNclNaNNaNclNaNNaNclNaNNaNclNaNNaNclNaNNaNclNaNNaNclNaNNaNz" />
<glyph unicode="&#xe028;" glyph-name="Building-facility-affected" d="M426.667 810.667c0 117.821-95.513 213.333-213.333 213.333s-213.333-95.513-213.333-213.333c0-117.821 95.513-213.333 213.333-213.333v0c117.801 0.049 213.285 95.532 213.333 213.329v0.005zM213.333 661.333c-11.782 0-21.333 9.551-21.333 21.333s9.551 21.333 21.333 21.333c11.782 0 21.333-9.551 21.333-21.333v0c-0.036-11.767-9.566-21.297-21.33-21.333h-0.003zM234.667 768c0-11.782-9.551-21.333-21.333-21.333s-21.333 9.551-21.333 21.333v0 170.667c0 11.782 9.551 21.333 21.333 21.333s21.333-9.551 21.333-21.333v0zM981.333 896h-504.107c8.523-25.406 13.44-54.66 13.44-85.063 0-0.095 0-0.19 0-0.285v0.015c0-0.105 0-0.23 0-0.354 0-14.934-1.164-29.596-3.405-43.9l0.205 1.587h45.867c11.767-0.036 21.297-9.566 21.333-21.33v-170.67c-0.036-11.767-9.566-21.297-21.33-21.333h-85.336c-11.767 0.036-21.297 9.566-21.333 21.33v57.603c-23.391-28.129-51.736-51.23-83.831-68.183l-1.502-0.723v-180.693h682.667v469.333c-0.073 23.535-19.132 42.594-42.66 42.667h-0.007zM746.667 576c-0.036-11.767-9.566-21.297-21.33-21.333h-85.336c-11.767 0.036-21.297 9.566-21.333 21.33v170.67c0.036 11.767 9.566 21.297 21.33 21.333h85.336c11.767-0.036 21.297-9.566 21.333-21.33v-0.003zM938.667 576c-0.036-11.767-9.566-21.297-21.33-21.333h-85.336c-11.767 0.036-21.297 9.566-21.333 21.33v170.67c0.036 11.767 9.566 21.297 21.33 21.333h85.336c11.767-0.036 21.297-9.566 21.333-21.33v-0.003zM469.333 938.667h426.667c0.069 0 0.15-0.001 0.231-0.001 11.698 0 22.27 4.818 29.841 12.579l0.008 0.009c7.769 7.579 12.587 18.151 12.587 29.849 0 0.081 0 0.162-0.001 0.243v-0.012c-0.073 23.535-19.132 42.594-42.66 42.667h-426.674c-0.066 0-0.144 0.001-0.222 0.001-11.701 0-22.276-4.818-29.85-12.579l-0.008-0.008c-6.459-6.241-10.867-14.569-12.136-23.895l-0.024-0.212c11.461-13.794 21.931-29.233 30.83-45.648l0.743-1.499c3.064-0.949 6.587-1.496 10.237-1.496 0.151 0 0.302 0.001 0.452 0.003h-0.023zM341.333 0h256v213.333c0.073 23.535 19.132 42.594 42.66 42.667h85.34c23.535-0.073 42.594-19.132 42.667-42.66v-213.34h256v341.333h-682.667z" />
<glyph unicode="&#xe029;" glyph-name="Building-facility-destroyed" d="M426.667 810.667c0 117.821-95.513 213.333-213.333 213.333s-213.333-95.513-213.333-213.333c0-117.821 95.513-213.333 213.333-213.333v0c117.801 0.049 213.285 95.532 213.333 213.329v0.005zM313.813 740.48c3.856-3.885 6.24-9.238 6.24-15.147s-2.383-11.261-6.241-15.148l0.001 0.001c-3.899-3.826-9.247-6.188-15.147-6.188s-11.248 2.362-15.15 6.191l-70.184 70.184-70.187-70.187c-3.899-3.826-9.247-6.188-15.147-6.188s-11.248 2.362-15.15 6.191l0.003-0.003c-3.856 3.885-6.24 9.238-6.24 15.147s2.383 11.261 6.241 15.148l70.186 70.186-70.187 70.187c-3.876 3.876-6.274 9.232-6.274 15.147 0 11.83 9.59 21.421 21.421 21.421 5.915 0 11.27-2.398 15.147-6.274l70.187-70.187 70.187 70.187c3.876 3.876 9.232 6.274 15.147 6.274 11.83 0 21.421-9.59 21.421-21.421 0-5.915-2.398-11.27-6.274-15.147l-70.187-70.187zM981.333 896h-504.107c8.523-25.406 13.44-54.66 13.44-85.063 0-0.095 0-0.19 0-0.285v0.015c0-0.105 0-0.23 0-0.354 0-14.934-1.164-29.596-3.405-43.9l0.205 1.587h45.867c11.767-0.036 21.297-9.566 21.333-21.33v-170.67c-0.036-11.767-9.566-21.297-21.33-21.333h-85.336c-11.767 0.036-21.297 9.566-21.333 21.33v57.603c-23.391-28.129-51.736-51.23-83.831-68.183l-1.502-0.723v-180.693h682.667v469.333c-0.073 23.535-19.132 42.594-42.66 42.667h-0.007zM746.667 576c-0.036-11.767-9.566-21.297-21.33-21.333h-85.336c-11.767 0.036-21.297 9.566-21.333 21.33v170.67c0.036 11.767 9.566 21.297 21.33 21.333h85.336c11.767-0.036 21.297-9.566 21.333-21.33v-0.003zM938.667 576c-0.036-11.767-9.566-21.297-21.33-21.333h-85.336c-11.767 0.036-21.297 9.566-21.333 21.33v170.67c0.036 11.767 9.566 21.297 21.33 21.333h85.336c11.767-0.036 21.297-9.566 21.333-21.33v-0.003zM469.333 938.667h426.667c0.069 0 0.15-0.001 0.231-0.001 11.698 0 22.27 4.818 29.841 12.579l0.008 0.009c7.769 7.579 12.587 18.151 12.587 29.849 0 0.081 0 0.162-0.001 0.243v-0.012c-0.073 23.535-19.132 42.594-42.66 42.667h-426.674c-0.066 0-0.144 0.001-0.222 0.001-11.701 0-22.276-4.818-29.85-12.579l-0.008-0.008c-6.459-6.241-10.867-14.569-12.136-23.895l-0.024-0.212c11.461-13.794 21.931-29.233 30.83-45.648l0.743-1.499c3.064-0.949 6.587-1.496 10.237-1.496 0.151 0 0.302 0.001 0.452 0.003h-0.023zM341.333 0h256v213.333c0.073 23.535 19.132 42.594 42.66 42.667h85.34c23.535-0.073 42.594-19.132 42.667-42.66v-213.34h256v341.333h-682.667z" />
<glyph unicode="&#xe02a;" glyph-name="Building-facility-not-affected" d="M426.667 810.667c0 117.821-95.513 213.333-213.333 213.333s-213.333-95.513-213.333-213.333c0-117.821 95.513-213.333 213.333-213.333v0c117.801 0.049 213.285 95.532 213.333 213.329v0.005zM333.867 858.453l-149.333-128c-3.711-3.172-8.561-5.106-13.864-5.12h-0.003c-5.895 0.024-11.236 2.379-15.152 6.191l-63.995 63.995c-3.876 3.876-6.274 9.232-6.274 15.147 0 11.83 9.59 21.421 21.421 21.421 5.915 0 11.27-2.398 15.147-6.274v0l49.92-50.133 134.4 115.2c3.705 3.183 8.559 5.121 13.867 5.121 11.783 0 21.334-9.552 21.334-21.334 0-6.475-2.885-12.277-7.439-16.19l-0.028-0.024zM981.333 896h-504.107c8.523-25.406 13.44-54.66 13.44-85.063 0-0.095 0-0.19 0-0.285v0.015c0-0.105 0-0.23 0-0.354 0-14.934-1.164-29.596-3.405-43.9l0.205 1.587h45.867c11.767-0.036 21.297-9.566 21.333-21.33v-170.67c-0.036-11.767-9.566-21.297-21.33-21.333h-85.336c-11.767 0.036-21.297 9.566-21.333 21.33v57.603c-23.391-28.129-51.736-51.23-83.831-68.183l-1.502-0.723v-180.693h682.667v469.333c-0.073 23.535-19.132 42.594-42.66 42.667h-0.007zM746.667 576c-0.036-11.767-9.566-21.297-21.33-21.333h-85.336c-11.767 0.036-21.297 9.566-21.333 21.33v170.67c0.036 11.767 9.566 21.297 21.33 21.333h85.336c11.767-0.036 21.297-9.566 21.333-21.33v-0.003zM938.667 576c-0.036-11.767-9.566-21.297-21.33-21.333h-85.336c-11.767 0.036-21.297 9.566-21.333 21.33v170.67c0.036 11.767 9.566 21.297 21.33 21.333h85.336c11.767-0.036 21.297-9.566 21.333-21.33v-0.003zM469.333 938.667h426.667c0.069 0 0.15-0.001 0.231-0.001 11.698 0 22.27 4.818 29.841 12.579l0.008 0.009c7.769 7.579 12.587 18.151 12.587 29.849 0 0.081 0 0.162-0.001 0.243v-0.012c-0.073 23.535-19.132 42.594-42.66 42.667h-426.674c-0.066 0-0.144 0.001-0.222 0.001-11.701 0-22.276-4.818-29.85-12.579l-0.008-0.008c-6.459-6.241-10.867-14.569-12.136-23.895l-0.024-0.212c11.461-13.794 21.931-29.233 30.83-45.648l0.743-1.499c3.064-0.949 6.587-1.496 10.237-1.496 0.151 0 0.302 0.001 0.452 0.003h-0.023zM341.333 0h256v213.333c0.073 23.535 19.132 42.594 42.66 42.667h85.34c23.535-0.073 42.594-19.132 42.667-42.66v-213.34h256v341.333h-682.667z" />
<glyph unicode="&#xe02b;" glyph-name="Building" horiz-adv-x="682" d="M640 896h-597.333c-23.536-0.071-42.596-19.131-42.667-42.66v-469.34h682.667v469.333c-0.071 23.536-19.131 42.596-42.66 42.667h-0.007zM213.333 576c-0.035-11.768-9.565-21.298-21.33-21.333h-85.336c-11.768 0.035-21.298 9.565-21.333 21.33v170.67c0.035 11.768 9.565 21.298 21.33 21.333h85.336c11.768-0.035 21.298-9.565 21.333-21.33v-0.003zM405.333 576c-0.035-11.768-9.565-21.298-21.33-21.333h-85.336c-11.768 0.035-21.298 9.565-21.333 21.33v170.67c0.035 11.768 9.565 21.298 21.33 21.333h85.336c11.768-0.035 21.298-9.565 21.333-21.33v-0.003zM597.333 576c-0.035-11.768-9.565-21.298-21.33-21.333h-85.336c-11.768 0.035-21.298 9.565-21.333 21.33v170.67c0.035 11.768 9.565 21.298 21.33 21.333h85.336c11.768-0.035 21.298-9.565 21.333-21.33v-0.003zM128 938.667h426.667c23.564 0 42.667 19.103 42.667 42.667s-19.103 42.667-42.667 42.667h-426.667c-23.564 0-42.667-19.103-42.667-42.667s19.103-42.667 42.667-42.667v0zM0 0h256v213.333c0.071 23.535 19.131 42.596 42.66 42.667h85.34c23.535-0.071 42.596-19.131 42.667-42.66v-213.34h256v341.333h-682.667z" />
<glyph unicode="&#xe02c;" glyph-name="Bus" d="M1000.727 861.091h-23.273v90.764c-0.21 39.76-32.385 71.935-72.125 72.145h-786.638c-39.76-0.21-71.935-32.385-72.145-72.125v-90.784h-23.273c-12.837-0.040-23.233-10.436-23.273-23.269v-279.277c0.040-12.837 10.436-23.233 23.269-23.273h23.277v-370.036c0.121-38.938 31.061-70.61 69.699-71.91l0.119-0.003v-35.142c0-32.133 26.049-58.182 58.182-58.182s58.182 26.049 58.182 58.182v0 34.909h581.818v-34.909c0-32.133 26.049-58.182 58.182-58.182s58.182 26.049 58.182 58.182v0 39.564c27.308 10.824 46.314 36.909 46.545 67.462v370.065h23.273c12.837 0.040 23.233 10.436 23.273 23.269v279.277c-0.040 12.837-10.436 23.233-23.269 23.273h-0.004zM116.364 930.909c0.040 12.837 10.436 23.233 23.269 23.273h744.731c12.837-0.040 23.233-10.436 23.273-23.269v-23.277c-0.040-12.837-10.436-23.233-23.269-23.273h-744.731c-12.837 0.040-23.233 10.436-23.273 23.269v0.004zM209.455 197.818c-9.605-7.26-21.746-11.631-34.908-11.636h-0.001c-0.137-0.001-0.3-0.002-0.462-0.002-12.937 0-24.851 4.378-34.342 11.734l0.128-0.096c-14.193 10.704-23.273 27.536-23.273 46.487 0 32.069 25.997 58.065 58.065 58.065s58.065-25.997 58.065-58.065c0-18.952-9.079-35.783-23.126-46.381l-0.147-0.106zM465.455 488.727c-0.040-12.837-10.436-23.233-23.269-23.273h-302.549c-12.837 0.040-23.233 10.436-23.273 23.269v279.277c0.040 12.837 10.436 23.233 23.269 23.273h302.549c12.837-0.040 23.233-10.436 23.273-23.269v-0.004zM558.545 488.727v279.273c0.040 12.837 10.436 23.233 23.269 23.273h302.549c12.837-0.040 23.233-10.436 23.273-23.269v-279.277c-0.040-12.837-10.436-23.233-23.269-23.273h-302.549c-12.837 0.040-23.233 10.436-23.273 23.269v0.004zM907.636 197.818c-9.605-7.26-21.746-11.631-34.908-11.636h-0.001c-0.137-0.001-0.3-0.002-0.462-0.002-12.937 0-24.851 4.378-34.342 11.734l0.128-0.096c-14.193 10.704-23.273 27.536-23.273 46.487 0 32.069 25.997 58.065 58.065 58.065s58.065-25.997 58.065-58.065c0-18.952-9.079-35.783-23.126-46.381l-0.147-0.106z" />
<glyph unicode="&#xe02d;" glyph-name="COVID-19" d="M992 618.667c-17.673 0-32-14.327-32-32v0-32h-88.064c-8.375 69.533-35.401 131.539-75.87 182.365l0.564-0.733 62.315 62.315 25.088-21.248c5.793-5.793 13.795-9.376 22.635-9.376 17.679 0 32.010 14.331 32.010 32.010 0 8.839-3.583 16.842-9.376 22.635l-106.667 106.667c-5.793 5.793-13.795 9.376-22.635 9.376-17.679 0-32.010-14.331-32.010-32.010 0-8.839 3.583-16.842 9.376-22.635v0l21.248-25.067-62.315-62.336c-50.094 39.903-112.099 66.93-179.904 75.136l-1.728 0.17v88.064h32c17.673 0 32 14.327 32 32s-14.327 32-32 32v0h-149.333c-17.673 0-32-14.327-32-32s14.327-32 32-32v0h32v-88.064c-69.533-8.377-131.538-35.403-182.365-75.871l0.733 0.564-62.315 62.336 21.248 25.067c5.793 5.793 9.376 13.795 9.376 22.635 0 17.679-14.331 32.010-32.010 32.010-8.839 0-16.842-3.583-22.635-9.376v0l-104.192-106.667c-5.564-5.75-8.993-13.595-8.993-22.242 0-17.673 14.327-32 32-32 8.636 0 16.473 3.421 22.229 8.981l-0.009-0.009 22.656 21.248 62.293-62.315c-39.898-50.095-66.917-112.101-75.115-179.906l-0.17-1.726h-88.064v32c0 17.673-14.327 32-32 32s-32-14.327-32-32v0-149.333c0-17.673 14.327-32 32-32s32 14.327 32 32v0 32h88.064c8.375-69.533 35.401-131.539 75.87-182.365l-0.564 0.733-62.315-62.315-25.088 21.248c-5.793 5.793-13.795 9.376-22.635 9.376-17.679 0-32.010-14.331-32.010-32.010 0-8.839 3.583-16.842 9.376-22.635l106.667-106.667c5.793-5.793 13.795-9.376 22.635-9.376 17.679 0 32.010 14.331 32.010 32.010 0 8.839-3.583 16.842-9.376 22.635v0l-21.248 25.067 62.315 62.336c50.094-39.903 112.099-66.93 179.904-75.136l1.728-0.17v-88.064h-32c-17.673 0-32-14.327-32-32s14.327-32 32-32v0h149.333c17.673 0 32 14.327 32 32s-14.327 32-32 32v0h-32v88.064c69.533 8.377 131.538 35.403 182.365 75.871l-0.733-0.564 62.315-62.336-21.248-25.067c-5.793-5.793-9.376-13.795-9.376-22.635 0-17.679 14.331-32.010 32.010-32.010 8.839 0 16.842 3.583 22.635 9.376l106.667 106.667c5.793 5.793 9.376 13.795 9.376 22.635 0 17.679-14.331 32.010-32.010 32.010-8.839 0-16.842-3.583-22.635-9.376v0l-25.088-21.248-62.293 62.315c39.898 50.095 66.917 112.101 75.115 179.906l0.17 1.726h88.064v-32c0-17.673 14.327-32 32-32s32 14.327 32 32v0 149.333c0 17.673-14.327 32-32 32v0zM394.667 597.333c-41.237 0-74.667 33.429-74.667 74.667s33.429 74.667 74.667 74.667c41.237 0 74.667-33.429 74.667-74.667v0c0-41.237-33.429-74.667-74.667-74.667v0zM640 320c-23.564 0-42.667 19.103-42.667 42.667s19.103 42.667 42.667 42.667c23.564 0 42.667-19.103 42.667-42.667v0c0-23.564-19.103-42.667-42.667-42.667v0z" />
<glyph unicode="&#xe02e;" glyph-name="CSV-file" horiz-adv-x="1408" d="M1184 993.92v30.080l224-224h-199.040c-13.778 0.018-24.942 11.182-24.96 24.958v0.002zM1408 736v-672c0-35.346-28.654-64-64-64v0h-1280c-35.346 0-64 28.654-64 64v0 896c0 35.346 28.654 64 64 64v0h1056v-199.040c0.055-49.109 39.851-88.905 88.955-88.96h0.005zM352 352v192c0.018 17.666 14.334 31.982 31.998 32h96.002c17.673 0 32 14.327 32 32s-14.327 32-32 32v0h-96c-52.997-0.055-95.945-43.003-96-95.995v-192.005c0.055-52.997 43.003-95.945 95.995-96h96.005c17.673 0 32 14.327 32 32s-14.327 32-32 32v0h-96c-17.666 0.018-31.982 14.334-32 31.998v0.002zM800 384c-0.055 52.997-43.003 95.945-95.995 96h-32.005c-17.666 0.018-31.982 14.334-32 31.998v32.002c0.018 17.666 14.334 31.982 31.998 32h64.002c17.673 0 32 14.327 32 32s-14.327 32-32 32v0h-64c-52.997-0.055-95.945-43.003-96-95.995v-32.005c0.055-52.997 43.003-95.945 95.995-96h32.005c17.666-0.018 31.982-14.334 32-31.998v-32.002c-0.018-17.666-14.334-31.982-31.998-32h-96.002c-17.673 0-32-14.327-32-32s14.327-32 32-32v0h96c52.997 0.055 95.945 43.003 96 95.995v0.005zM1065.184 638.656c-2.721 0.832-5.848 1.311-9.087 1.311-14.404 0-26.596-9.47-30.691-22.523l-0.062-0.228-65.344-217.856-65.344 217.824c-4.079 13.308-16.257 22.818-30.656 22.818-17.674 0-32.002-14.328-32.002-32.002 0-3.275 0.492-6.435 1.406-9.411l-0.060 0.227 96-320c4.076-13.311 16.255-22.823 30.656-22.823s26.58 9.513 30.596 22.597l0.060 0.227 96 320c0.856 2.752 1.349 5.915 1.349 9.194 0 14.388-9.496 26.558-22.563 30.586l-0.227 0.060z" />
<glyph unicode="&#xe02f;" glyph-name="Calendar" horiz-adv-x="895" d="M853.333 896h-106.667v-53.333c0-41.237-33.429-74.667-74.667-74.667s-74.667 33.429-74.667 74.667v0 53.333h-277.333v-53.333c0-41.237-33.429-74.667-74.667-74.667s-74.667 33.429-74.667 74.667v0 53.333h-128c-0.044 0-0.097 0-0.15 0-23.482 0-42.517-19.036-42.517-42.517 0-0.053 0-0.105 0-0.158v0.008-810.667c0-0.044 0-0.097 0-0.15 0-23.482 19.036-42.517 42.517-42.517 0.053 0 0.105 0 0.158 0h810.659c0.044 0 0.097 0 0.15 0 23.482 0 42.517 19.036 42.517 42.517 0 0.053 0 0.105 0 0.158v-0.008 810.667c0 0.044 0 0.097 0 0.15 0 23.482-19.036 42.517-42.517 42.517-0.053 0-0.105 0-0.158 0h0.008zM810.667 85.333h-725.333v554.667h725.333zM245.333 810.667c0.013 0 0.028 0 0.043 0 17.65 0 31.957 14.308 31.957 31.957 0 0.015 0 0.030 0 0.045v-0.002 149.333c0 17.673-14.327 32-32 32s-32-14.327-32-32v0-149.333c0-0.013 0-0.028 0-0.043 0-17.65 14.308-31.957 31.957-31.957 0.015 0 0.030 0 0.045 0h-0.002zM672 810.667c0.013 0 0.028 0 0.043 0 17.65 0 31.957 14.308 31.957 31.957 0 0.015 0 0.030 0 0.045v-0.002 149.333c0 17.673-14.327 32-32 32s-32-14.327-32-32v0-149.333c0-0.013 0-0.028 0-0.043 0-17.65 14.308-31.957 31.957-31.957 0.015 0 0.030 0 0.045 0h-0.002zM399.787 372.907l-112.427-105.6c-6.14-5.624-9.988-13.666-10.027-22.606v-0.007c0.083-8.939 3.919-16.966 10.006-22.594l0.021-0.019c6.35-5.757 14.817-9.281 24.107-9.281s17.757 3.524 24.137 9.308l-0.030-0.027 112.427 105.6 112.427-105.6c6.403-5.816 14.945-9.38 24.319-9.387h0.001c0.034 0 0.073 0 0.113 0 9.204 0 17.574 3.572 23.8 9.405l-0.019-0.018c6.201 5.588 10.083 13.648 10.083 22.613s-3.881 17.025-10.055 22.589l-0.027 0.024-112.427 105.6 112.427 105.6c6.108 5.647 9.944 13.674 10.027 22.598v0.015c-0.039 8.948-3.886 16.989-10.004 22.592l-0.023 0.021c-6.31 5.851-14.789 9.441-24.107 9.441s-17.796-3.59-24.129-9.461l0.023 0.021-112.427-105.6-112.427 105.813c-6.194 5.816-14.554 9.389-23.749 9.389-0.126 0-0.252-0.001-0.377-0.002h0.019c-0.149 0.002-0.324 0.004-0.5 0.004-9.15 0-17.464-3.575-23.623-9.405l0.016 0.015c-6.201-5.588-10.083-13.648-10.083-22.613s3.881-17.025 10.055-22.589l0.027-0.024z" />
<glyph unicode="&#xe030;" glyph-name="Camp-Coordination-and-Camp-Management" horiz-adv-x="1117" d="M104.471 614.284l454.121 259.491 454.051-259.491c9.95-5.785 21.897-9.199 34.641-9.199 38.563 0 69.825 31.262 69.825 69.825 0 25.819-14.013 48.364-34.848 60.446l-0.335 0.179-488.704 279.273c-9.947 5.781-21.89 9.193-34.63 9.193s-24.683-3.412-34.965-9.373l0.335 0.179-488.774-279.273c-21.17-12.261-35.183-34.807-35.183-60.625 0-38.563 31.262-69.825 69.825-69.825 12.745 0 24.692 3.414 34.976 9.378l-0.335-0.179zM884.41 395.031c-1.96 0.060-4.265 0.094-6.578 0.094-81.524 0-153.174-42.273-194.227-106.094l-0.551-0.915c-28.78 37.795-73.803 61.942-124.465 61.942-50.673 0-95.703-24.157-124.204-61.583l-0.279-0.382c-41.602 64.749-113.259 107.032-194.793 107.032-2.316 0-4.624-0.034-6.923-0.102l0.337 0.008c-132.655 0-232.681-94.58-232.681-219.997 0-19.28 15.629-34.909 34.909-34.909s34.909 15.629 34.909 34.909v0c-0.002 0.272-0.003 0.595-0.003 0.917 0 52.246 27.687 98.025 69.19 123.465l0.631 0.36v-206.662c0-51.413 41.678-93.091 93.091-93.091s93.091 41.678 93.091 93.091v0 206.615c42.094-25.808 69.751-71.566 69.751-123.783 0-0.321-0.001-0.642-0.003-0.962v0.049c0-19.28 15.629-34.909 34.909-34.909s34.909 15.629 34.909 34.909v0l-0.047 0.605 0.047 0.303c0 0.103-0.001 0.226-0.001 0.349 0 25.749 8.796 49.444 23.548 68.243l-0.181-0.24v-81.385c0-38.547 31.248-69.795 69.795-69.795s69.795 31.248 69.795 69.795v0 81.455c14.584-18.567 23.39-42.276 23.39-68.041 0-0.126 0-0.251-0.001-0.377v0.019l-0.047-0.908c0-19.28 15.629-34.909 34.909-34.909s34.909 15.629 34.909 34.909v0c-0.001 0.194-0.001 0.425-0.001 0.655 0 57.969 33.873 108.026 82.905 131.459l0.878 0.378-37.329-167.913c-1.221-6.387-1.92-13.732-1.92-21.241 0-65.423 53.036-118.458 118.458-118.458s118.458 53.036 118.458 118.458c0 7.509-0.699 14.855-2.035 21.976l0.115-0.734-37.585 167.889c49.911-23.817 83.783-73.879 83.783-131.852 0-0.225-0.001-0.45-0.002-0.675v0.035c0-19.28 15.629-34.909 34.909-34.909s34.909 15.629 34.909 34.909v0c0 125.417-100.026 219.997-232.681 219.997zM814.592 512c0-38.56 31.259-69.818 69.818-69.818s69.818 31.259 69.818 69.818c0 38.56-31.259 69.818-69.818 69.818s-69.818-31.259-69.818-69.818zM162.932 512c0-38.56 31.259-69.818 69.818-69.818s69.818 31.259 69.818 69.818c0 38.56-31.259 69.818-69.818 69.818s-69.818-31.259-69.818-69.818zM500.271 453.935c0.013-32.187 26.109-58.275 58.298-58.275 32.197 0 58.298 26.101 58.298 58.298s-26.101 58.298-58.298 58.298v0c-32.197 0-58.298-26.101-58.298-58.298 0-0.008 0-0.016 0-0.025v0.001z" />
<glyph unicode="&#xe031;" glyph-name="Car" horiz-adv-x="1198" d="M1098.927 624.39v124.878c-0.17 151.662-123.070 274.561-274.715 274.732h-423.852c-0.015 0-0.033 0-0.051 0-151.87 0-275.032-122.916-275.43-274.693v-124.916h-24.976c-0.007 0-0.016 0-0.025 0-55.161 0-99.877-44.717-99.877-99.877 0-0.009 0-0.018 0-0.026v0.001-249.756c0-0.007 0-0.016 0-0.025 0-55.161 44.717-99.877 99.877-99.877 0.009 0 0.018 0 0.026 0h-0.001v-74.927c0-55.175 44.728-99.902 99.902-99.902s99.902 44.728 99.902 99.902v0 74.927h599.415v-74.927c0-55.175 44.728-99.902 99.902-99.902s99.902 44.728 99.902 99.902v0 74.927c0.007 0 0.016 0 0.025 0 55.161 0 99.877 44.717 99.877 99.877 0 0.009 0 0.018 0 0.026v-0.001 249.756c0 0.007 0 0.016 0 0.025 0 55.161-44.717 99.877-99.877 99.877-0.009 0-0.018 0-0.026 0h0.001zM274.732 749.268c0.298 69.032 56.328 124.878 125.401 124.878 0.079 0 0.159 0 0.238 0h423.824c68.934-0.085 124.793-55.944 124.878-124.87v-124.886h-674.341zM224.78 324.683c-41.381 0-74.927 33.546-74.927 74.927s33.546 74.927 74.927 74.927c41.381 0 74.927-33.546 74.927-74.927v0c0-0.030 0-0.065 0-0.1 0-41.326-33.501-74.827-74.827-74.827-0.035 0-0.070 0-0.106 0h0.006zM974.049 474.537c41.381 0 74.927-33.546 74.927-74.927s-33.546-74.927-74.927-74.927c-41.381 0-74.927 33.546-74.927 74.927v0c0 0.030 0 0.065 0 0.1 0 41.326 33.501 74.827 74.827 74.827 0.035 0 0.070 0 0.106 0h-0.006z" />
<glyph unicode="&#xe032;" glyph-name="Carjacking" d="M512 725.333c23.564 0 42.667 19.103 42.667 42.667v0 213.333c0 23.564-19.103 42.667-42.667 42.667s-42.667-19.103-42.667-42.667v0-213.333c0-23.564 19.103-42.667 42.667-42.667v0zM1013.44 902.763c-7.861 8.949-19.328 14.567-32.107 14.567-10.783 0-20.632-4-28.144-10.598l0.048 0.041-170.667-149.333c-8.742-7.846-14.217-19.182-14.217-31.797 0-23.564 19.103-42.667 42.667-42.667 10.619 0 20.332 3.879 27.799 10.298l-0.056-0.047 170.667 149.333c8.949 7.861 14.567 19.328 14.567 32.107 0 10.783-4 20.632-10.598 28.144l0.041-0.048zM213.333 682.667c23.562 0.002 42.663 19.104 42.663 42.667 0 12.779-5.618 24.246-14.519 32.065l-0.048 0.041-170.667 149.333c-7.514 6.745-17.5 10.87-28.45 10.87-23.564 0-42.667-19.103-42.667-42.667 0-12.945 5.765-24.544 14.868-32.369l0.056-0.047 170.667-149.333c7.45-6.558 17.288-10.56 28.060-10.56 0.005 0 0.010 0 0.016 0h-0.001zM853.333 384h-42.667v96c0 100.148-81.186 181.333-181.333 181.333h-234.667c-100.148 0-181.333-81.186-181.333-181.333v0-96h-42.667c-23.535-0.073-42.594-19.132-42.667-42.66v-192.007c0.073-23.535 19.132-42.594 42.66-42.667h42.674v-39.872c-0.007-0.37-0.012-0.805-0.012-1.242 0-31.169 21.618-57.288 50.678-64.183l0.448-0.090c3.823-0.809 8.215-1.272 12.715-1.272 35.378 0 64.069 28.629 64.17 63.983v42.677h341.333v-39.872c-0.007-0.37-0.012-0.805-0.012-1.242 0-31.169 21.618-57.288 50.678-64.183l0.448-0.090c3.823-0.809 8.215-1.272 12.715-1.272 35.378 0 64.069 28.629 64.17 63.983v42.677h42.667c23.535 0.073 42.594 19.132 42.667 42.66v192.007c-0.073 23.535-19.132 42.594-42.66 42.667h-0.007zM320 480c0.049 41.218 33.449 74.618 74.662 74.667h234.671c41.218-0.049 74.618-33.449 74.667-74.662v-96.005h-384zM288 192c-29.455 0-53.333 23.878-53.333 53.333s23.878 53.333 53.333 53.333c29.455 0 53.333-23.878 53.333-53.333v0c-0.012-29.45-23.883-53.321-53.332-53.333h-0.001zM736 298.667c29.455 0 53.333-23.878 53.333-53.333s-23.878-53.333-53.333-53.333c-29.455 0-53.333 23.878-53.333 53.333v0c0.012 29.45 23.883 53.321 53.332 53.333h0.001z" />
</font>
</defs>
</svg>
