<svg width="14" height="15" viewBox="0 0 14 15" fill="none" xmlns="http://www.w3.org/2000/svg">
<path d="M11.3333 12.75H2.125L0 15V2.25C0 1.0125 0.95625 0 2.125 0H11.3333C12.5021 0 13.4583 1.0125 13.4583 2.25V10.5C13.4583 11.7375 12.5021 12.75 11.3333 12.75Z" fill="#A85766"/>
<path d="M6 5.25H7.41667V9.375H6V5.25Z" fill="white"/>
<path d="M6.70833 4.125C7.09953 4.125 7.41667 3.78921 7.41667 3.375C7.41667 2.96079 7.09953 2.625 6.70833 2.625C6.31713 2.625 6 2.96079 6 3.375C6 3.78921 6.31713 4.125 6.70833 4.125Z" fill="white"/>
</svg>
