<svg width="4" height="7" viewBox="0 0 4 7" fill="none" xmlns="http://www.w3.org/2000/svg">
<path d="M0.177398 5.92728L2.53444 3.49674L0.177398 1.06619C0.121156 1.0082 0.0765428 0.939347 0.0461047 0.863571C0.0156667 0.787796 5.92608e-10 0.706581 0 0.624562C-5.92607e-10 0.542543 0.0156667 0.461328 0.0461047 0.385553C0.0765428 0.309777 0.121156 0.240926 0.177398 0.18293C0.233641 0.124934 0.30041 0.0789292 0.373894 0.0475421C0.447378 0.0161549 0.526137 -6.11086e-10 0.605675 0C0.685214 6.11087e-10 0.763973 0.0161549 0.837457 0.0475421C0.910941 0.0789292 0.97771 0.124934 1.03395 0.18293L3.82231 3.05824C4.05923 3.30254 4.05923 3.69719 3.82231 3.9415L1.03395 6.8168C0.977752 6.87488 0.910996 6.92095 0.837507 6.95238C0.764017 6.98382 0.685237 7 0.605675 7C0.526114 7 0.447334 6.98382 0.373844 6.95238C0.300355 6.92095 0.233599 6.87488 0.177398 6.8168C-0.0534461 6.5725 -0.0595209 6.17158 0.177398 5.92728Z" fill="#A85766"/>
</svg>
