<svg width="19" height="19" viewBox="0 0 19 19" fill="none" xmlns="http://www.w3.org/2000/svg">
<path d="M1.35711 1.35711H12.214V4.07134H13.5711V1.35711C13.5711 0.997184 13.4281 0.651997 13.1736 0.397489C12.9191 0.142981 12.5739 0 12.214 0H1.35711C0.997184 0 0.651997 0.142981 0.397489 0.397489C0.142981 0.651997 0 0.997184 0 1.35711V12.214C0 12.5739 0.142981 12.9191 0.397489 13.1736C0.651997 13.4281 0.997184 13.5711 1.35711 13.5711H4.07134V12.214H1.35711V1.35711Z" fill="#A85766"/>
<path d="M17.6427 5.42908H6.78582C6.42589 5.42908 6.08071 5.57206 5.8262 5.82657C5.57169 6.08107 5.42871 6.42626 5.42871 6.78619V17.6431C5.42871 18.003 5.57169 18.3482 5.8262 18.6027C6.08071 18.8572 6.42589 19.0002 6.78582 19.0002H17.6427C18.0026 19.0002 18.3478 18.8572 18.6023 18.6027C18.8568 18.3482 18.9998 18.003 18.9998 17.6431V6.78619C18.9998 6.42626 18.8568 6.08107 18.6023 5.82657C18.3478 5.57206 18.0026 5.42908 17.6427 5.42908ZM17.6427 17.6431H6.78582V6.78619H17.6427V17.6431Z" fill="#A85766"/>
<path d="M11.5344 16.2845H12.8915V12.8917H16.2843V11.5346H12.8915V8.14185H11.5344V11.5346H8.1416V12.8917H11.5344V16.2845Z" fill="#A85766"/>
</svg>
