<svg width="13" height="14" viewBox="0 0 13 14" fill="none" xmlns="http://www.w3.org/2000/svg">
<g id="Group 1000002747">
<path id="Vector" d="M10.7146 11.9H2.00898L0 14V2.1C0 0.945 0.90404 0 2.00898 0H10.7146C11.8195 0 12.7235 0.945 12.7235 2.1V9.8C12.7235 10.955 11.8195 11.9 10.7146 11.9Z" fill="#577CA8"/>
<g id="Group">
<path id="Vector_2" d="M5.69189 4.90004H7.03121V8.75004H5.69189V4.90004Z" fill="white"/>
<path id="Vector_3" d="M6.36155 3.85C6.7314 3.85 7.03121 3.5366 7.03121 3.15C7.03121 2.7634 6.7314 2.45 6.36155 2.45C5.99171 2.45 5.69189 2.7634 5.69189 3.15C5.69189 3.5366 5.99171 3.85 6.36155 3.85Z" fill="white"/>
</g>
</g>
</svg>
