<svg width="25" height="24" viewBox="0 0 25 24" fill="none" xmlns="http://www.w3.org/2000/svg">
<g id="keyboard-arrow-right">
<path id="Vector" d="M9.79007 15.88L13.6701 12L9.79007 8.11999C9.69749 8.02741 9.62405 7.9175 9.57394 7.79653C9.52384 7.67557 9.49805 7.54592 9.49805 7.41499C9.49805 7.28406 9.52384 7.15441 9.57394 7.03345C9.62405 6.91248 9.69749 6.80257 9.79007 6.70999C9.88265 6.61741 9.99256 6.54397 10.1135 6.49386C10.2345 6.44376 10.3641 6.41797 10.4951 6.41797C10.626 6.41797 10.7556 6.44376 10.8766 6.49386C10.9976 6.54397 11.1075 6.61741 11.2001 6.70999L15.7901 11.3C16.1801 11.69 16.1801 12.32 15.7901 12.71L11.2001 17.3C11.1076 17.3927 10.9977 17.4662 10.8767 17.5164C10.7557 17.5666 10.626 17.5924 10.4951 17.5924C10.3641 17.5924 10.2344 17.5666 10.1134 17.5164C9.99247 17.4662 9.88258 17.3927 9.79007 17.3C9.41007 16.91 9.40007 16.27 9.79007 15.88Z" fill="#A85766"/>
</g>
</svg>
