<svg width="20" height="18" viewBox="0 0 20 18" fill="none" xmlns="http://www.w3.org/2000/svg">
<g id="Group">
<path id="Vector" fill-rule="evenodd" clip-rule="evenodd" d="M11.3876 4.67986C11.0812 4.8735 10.7355 5.00957 10.3708 5.08014C10.0061 5.15071 9.62957 5.15436 9.26328 5.09088C8.89699 5.0274 8.54823 4.89806 8.23737 4.7104C7.92651 4.52274 7.65977 4.28054 7.45271 3.99791C7.24565 3.71528 7.10242 3.39789 7.03139 3.06426C6.96035 2.73064 6.96292 2.38746 7.03896 2.05475C7.11499 1.72204 7.26297 1.40647 7.47424 1.12644C7.68552 0.84642 7.95587 0.607556 8.26952 0.423792C8.88875 0.0509812 9.64474 -0.0832135 10.3722 0.0505416C11.0997 0.184297 11.7395 0.575122 12.1517 1.13759C12.564 1.70005 12.7152 2.3884 12.5722 3.05218C12.4293 3.71595 12.0039 4.30115 11.389 4.67986H11.3876ZM10.6084 1.48845C10.4555 1.3882 10.2821 1.31701 10.0984 1.27913C9.91467 1.24124 9.72449 1.23744 9.53914 1.26794C9.3538 1.29844 9.17708 1.36262 9.01951 1.45666C8.86194 1.5507 8.72674 1.67268 8.62196 1.81533C8.51719 1.95799 8.44497 2.1184 8.40962 2.28702C8.37427 2.45564 8.3765 2.62902 8.41618 2.79684C8.45586 2.96465 8.53219 3.12348 8.64061 3.26385C8.74903 3.40422 8.88733 3.52328 9.04728 3.61392C9.3563 3.78502 9.72583 3.84086 10.0789 3.76979C10.4319 3.69873 10.7413 3.50625 10.9425 3.23244C11.1438 2.95863 11.2213 2.62462 11.1591 2.29998C11.0969 1.97534 10.8996 1.6851 10.6084 1.48973V1.48845ZM14.2726 1.52684C14.6775 1.27859 15.1647 1.1668 15.6503 1.21071C16.1359 1.25462 16.5895 1.45149 16.933 1.76741C17.1778 1.9923 17.3583 2.26851 17.4586 2.57179C17.559 2.87507 17.5762 3.19617 17.5087 3.50693C17.4412 3.81768 17.2911 4.10859 17.0715 4.35414C16.8519 4.59969 16.5696 4.79238 16.2493 4.91531C15.8646 5.06192 15.4406 5.10054 15.0317 5.02622C14.6228 4.9519 14.2475 4.76803 13.9539 4.49815C13.7333 4.29599 13.5644 4.05187 13.4593 3.78326C13.3542 3.51465 13.3156 3.22819 13.3462 2.94439C13.3768 2.66059 13.4758 2.38646 13.6362 2.14161C13.7966 1.89677 14.0144 1.68728 14.274 1.52812L14.2726 1.52684ZM14.9465 3.58705C15.0783 3.70668 15.2568 3.77369 15.4428 3.77333C15.5349 3.77315 15.6261 3.75644 15.7111 3.72415C15.7961 3.69186 15.8733 3.64462 15.9383 3.58513C16.0033 3.52564 16.0548 3.45507 16.0899 3.37744C16.125 3.29982 16.1429 3.21665 16.1427 3.1327C16.1425 3.04875 16.1242 2.96566 16.0887 2.88817C16.0533 2.81068 16.0015 2.7403 15.9362 2.68107C15.8055 2.56125 15.6288 2.49242 15.4435 2.48912C15.3509 2.48895 15.2592 2.50551 15.1736 2.53784C15.0881 2.57018 15.0105 2.61764 14.9452 2.6775C14.8799 2.73735 14.8283 2.80841 14.7933 2.88655C14.7584 2.9647 14.7408 3.04839 14.7415 3.13278C14.742 3.3032 14.8155 3.4667 14.9465 3.58833V3.58705ZM3.07508 14.6917H5.61614V15.9778H3.07508C2.63024 15.9741 2.20515 15.8098 1.89299 15.5209C1.57963 15.231 1.40412 14.8402 1.40443 14.4332V12.1171C1.21542 12.1113 1.02964 12.0707 0.858323 11.9977C0.687006 11.9247 0.533699 11.8208 0.407661 11.6923C0.273734 11.5686 0.168627 11.4215 0.0986613 11.2599C0.0286953 11.0983 -0.00468463 10.9254 0.00052882 10.7517V7.95956C0.00474053 7.35558 0.26727 6.77846 0.730558 6.34978C1.19244 5.92622 1.81718 5.68437 2.4714 5.68053H5.05458C4.70615 6.05876 4.44368 6.49634 4.28243 6.96785H2.4714C2.18646 6.97529 1.91535 7.08146 1.71329 7.26472C1.51481 7.45073 1.40397 7.70009 1.40443 7.95956V10.8157H2.80833V14.432C2.80508 14.4668 2.80962 14.5019 2.82169 14.5351C2.83375 14.5683 2.85309 14.599 2.87853 14.6252C2.93496 14.6649 3.00378 14.6873 3.07508 14.6892V14.6917ZM13.3236 6.35106C13.0938 6.13964 12.8206 5.97168 12.5194 5.85683C12.2182 5.74198 11.8951 5.6825 11.5687 5.68181H8.08701C7.43253 5.68658 6.80671 5.92718 6.34617 6.35106C5.88288 6.77974 5.62035 7.35686 5.61614 7.96084V12.0275C5.61415 12.3767 5.75998 12.7131 6.02327 12.9668C6.14947 13.0951 6.30281 13.1989 6.47409 13.2719C6.64537 13.3449 6.83107 13.3856 7.02004 13.3916V16.3642C7.01873 16.5671 7.06147 16.7682 7.1458 16.956C7.23013 17.1438 7.35438 17.3145 7.51141 17.4583C7.76411 17.6733 8.0828 17.8128 8.42395 17.8575H11.2318C11.6266 17.8103 11.9884 17.6317 12.2476 17.356C12.5067 17.0804 12.6449 16.7271 12.6357 16.3642V13.3903C12.8247 13.3846 13.0104 13.344 13.1818 13.2709C13.3531 13.1979 13.5064 13.094 13.6324 12.9655C13.7662 12.842 13.8713 12.6952 13.9413 12.5338C14.0112 12.3724 14.0447 12.1997 14.0396 12.0262V7.95956C14.0405 7.35836 13.7836 6.78064 13.3236 6.34978V6.35106ZM12.6357 12.0902H11.2318V16.3642C11.2304 16.4317 11.2002 16.4959 11.1475 16.5434C11.1236 16.5692 11.0933 16.5896 11.0592 16.6029C11.0251 16.6163 10.988 16.6222 10.951 16.6201H8.69069C8.61732 16.617 8.54787 16.5891 8.49594 16.5417C8.444 16.4944 8.41332 16.4311 8.40991 16.3642V12.0902H7.02004V7.95956C7.02004 7.6998 7.13095 7.45027 7.3289 7.26472C7.53096 7.08146 7.80207 6.97529 8.08701 6.96785H11.5687C11.7814 6.97127 11.9883 7.03121 12.1641 7.14032C12.34 7.24943 12.477 7.40297 12.5584 7.58207C12.6119 7.70186 12.6382 7.83027 12.6357 7.95956V12.0902ZM16.5806 15.9765H14.0396V14.6904H16.5666C16.6379 14.6886 16.7067 14.6662 16.7631 14.6265C16.7914 14.6013 16.8135 14.5709 16.828 14.5374C16.8426 14.5039 16.8491 14.468 16.8474 14.432V10.8157H18.2513V7.95956C18.2517 7.70009 18.1409 7.45073 17.9424 7.26472C17.7403 7.08146 17.4692 6.97529 17.1843 6.96785H15.3733C15.2121 6.49632 14.9496 6.05872 14.6011 5.68053H17.1843C17.8386 5.686 18.4642 5.92648 18.9251 6.34978C19.3884 6.77846 19.651 7.35558 19.6552 7.95956V10.7517C19.6552 11.1011 19.5106 11.4363 19.2494 11.6897C18.9883 11.9443 18.6317 12.0966 18.2513 12.1158V14.432C18.2513 14.8402 18.0758 15.2305 17.7627 15.5196C17.4505 15.8085 17.0255 15.9728 16.5806 15.9765ZM4.21224 1.20181C3.79448 1.20137 3.38609 1.31465 3.03941 1.52713C2.69274 1.73961 2.42358 2.04161 2.26643 2.39443C2.10783 2.74712 2.06666 3.13457 2.14805 3.50845C2.22943 3.88233 2.42978 4.22609 2.7241 4.49687C3.01831 4.76734 3.3943 4.95173 3.80403 5.02648C4.21377 5.10123 4.63865 5.06296 5.02441 4.91654C5.41017 4.77013 5.73928 4.52223 5.96971 4.2045C6.20015 3.88677 6.32144 3.51364 6.31809 3.13278C6.31809 2.62093 6.09627 2.12955 5.70037 1.76741C5.50543 1.58843 5.27361 1.44633 5.01822 1.34926C4.76284 1.2522 4.48893 1.20209 4.21224 1.20181ZM4.21224 3.77644C4.11965 3.77661 4.02794 3.76005 3.94241 3.72772C3.85689 3.69538 3.77924 3.64792 3.71397 3.58806C3.64869 3.52821 3.59708 3.45715 3.56212 3.37901C3.52716 3.30086 3.50954 3.21717 3.51029 3.13278C3.51065 2.96284 3.58459 2.79989 3.71603 2.67937C3.84747 2.55884 4.0258 2.49047 4.21224 2.48912C4.39811 2.49211 4.57539 2.561 4.70645 2.68117C4.83751 2.80135 4.91203 2.96334 4.91419 3.13278C4.91382 3.30272 4.83988 3.46567 4.70844 3.58619C4.577 3.70672 4.39868 3.77509 4.21224 3.77644Z" fill="#62489B"/>
</g>
</svg>
