<svg width="19" height="18" viewBox="0 0 19 18" fill="none" xmlns="http://www.w3.org/2000/svg">
<path d="M18.606 8.85575L10.5081 0.737112L9.96529 0.192647C9.84162 0.0694097 9.67437 0.000244141 9.50004 0.000244141C9.32571 0.000244141 9.15846 0.0694097 9.03479 0.192647L0.394084 8.85575C0.267358 8.98237 0.167204 9.13317 0.0995338 9.29926C0.0318639 9.46534 -0.00195035 9.64334 8.68674e-05 9.82275C0.00846979 10.5627 0.622519 11.1534 1.36022 11.1534H2.2509V18.0002H16.7492V11.1534H17.6587C18.0171 11.1534 18.3545 11.0126 18.6081 10.7582C18.733 10.6334 18.8319 10.4849 18.8992 10.3215C18.9664 10.158 19.0007 9.98277 19 9.80593C19 9.44856 18.8596 9.11011 18.606 8.85575ZM10.6736 16.4867H8.32643V12.1982H10.6736V16.4867ZM15.2402 9.63986V16.4867H12.0149V11.6937C12.0149 11.2291 11.6398 10.8528 11.1766 10.8528H7.82345C7.3603 10.8528 6.98516 11.2291 6.98516 11.6937V16.4867H3.75983V9.63986H1.74793L9.50213 1.86809L9.98625 2.35369L17.2542 9.63986H15.2402Z" fill="#A85766"/>
</svg>
