<svg width="16" height="21" viewBox="0 0 16 21" fill="none" xmlns="http://www.w3.org/2000/svg">
<path d="M6.08746 1.93468C6.21474 1.57095 6.43306 1.25946 6.71444 1.04012C6.99582 0.820789 7.32744 0.703613 7.66679 0.703613C8.00614 0.703613 8.33776 0.820789 8.61915 1.04012C8.90053 1.25946 9.11885 1.57095 9.24613 1.93468C10.5058 2.33524 11.6169 3.20286 12.4089 4.40429C13.2008 5.60571 13.6297 7.0745 13.6298 8.58507V13.2114L15.1903 15.918C15.2759 16.0664 15.3251 16.2388 15.3326 16.4169C15.3401 16.595 15.3056 16.7721 15.2328 16.9294C15.1601 17.0866 15.0518 17.218 14.9195 17.3097C14.7872 17.4013 14.6358 17.4497 14.4816 17.4496H10.6185C10.5159 18.2702 10.1611 19.0206 9.61898 19.5633C9.0769 20.106 8.38385 20.4047 7.66679 20.4047C6.94974 20.4047 6.25669 20.106 5.7146 19.5633C5.17252 19.0206 4.81769 18.2702 4.71513 17.4496H0.851979C0.697758 17.4497 0.546423 17.4013 0.41412 17.3097C0.281817 17.218 0.17351 17.0866 0.100753 16.9294C0.027997 16.7721 -0.00647897 16.595 0.00100335 16.4169C0.00848568 16.2388 0.0576456 16.0664 0.143239 15.918L1.70383 13.2114V8.58507C1.70383 5.40959 3.56087 2.73446 6.08746 1.93468ZM6.46228 17.4496C6.55025 17.7379 6.71339 17.9875 6.9292 18.164C7.145 18.3406 7.40286 18.4354 7.66722 18.4354C7.93158 18.4354 8.18944 18.3406 8.40524 18.164C8.62105 17.9875 8.78419 17.7379 8.87216 17.4496H6.46142H6.46228ZM7.66679 3.66032C6.53717 3.66032 5.45381 4.17917 4.65504 5.10275C3.85628 6.02632 3.40753 7.27895 3.40753 8.58507V13.5098C3.40757 13.7044 3.35777 13.8946 3.26442 14.0565L2.44409 15.4797H12.8886L12.0683 14.0565C11.9753 13.8945 11.9258 13.7043 11.9261 13.5098V8.58507C11.9261 7.27895 11.4773 6.02632 10.6785 5.10275C9.87978 4.17917 8.79642 3.66032 7.66679 3.66032Z" fill="#A85766"/>
</svg>
