<svg width="14" height="19" viewBox="0 0 14 19" fill="none" xmlns="http://www.w3.org/2000/svg">
<path d="M0 2.56432C0 1.95143 0.245833 1.36364 0.683417 0.930264C1.121 0.496887 1.71449 0.253418 2.33333 0.253418L11.6667 0.253418C12.2855 0.253418 12.879 0.496887 13.3166 0.930264C13.7542 1.36364 14 1.95143 14 2.56432V18.1629C13.9999 18.2674 13.9713 18.3699 13.917 18.4595C13.8628 18.5492 13.785 18.6226 13.692 18.6719C13.599 18.7212 13.4942 18.7446 13.3888 18.7396C13.2834 18.7346 13.1813 18.7014 13.0935 18.6435L7 15.391L0.9065 18.6435C0.818656 18.7014 0.716602 18.7346 0.611207 18.7396C0.505811 18.7446 0.401022 18.7212 0.307999 18.6719C0.214977 18.6226 0.137205 18.5492 0.0829664 18.4595C0.028728 18.3699 5.45071e-05 18.2674 0 18.1629V2.56432ZM2.33333 1.40887C2.02391 1.40887 1.72717 1.5306 1.50838 1.74729C1.28958 1.96398 1.16667 2.25787 1.16667 2.56432V17.0837L6.67683 14.2159C6.77257 14.1528 6.885 14.1191 7 14.1191C7.115 14.1191 7.22743 14.1528 7.32317 14.2159L12.8333 17.0837V2.56432C12.8333 2.25787 12.7104 1.96398 12.4916 1.74729C12.2728 1.5306 11.9761 1.40887 11.6667 1.40887H2.33333Z" fill="#A85766"/>
</svg>
