<svg width="22" height="21" viewBox="0 0 22 21" fill="none" xmlns="http://www.w3.org/2000/svg">
<path fill-rule="evenodd" clip-rule="evenodd" d="M14.4246 12.8868H15.3501L21.1961 18.7444L19.4505 20.49L13.5928 14.6441V13.7186L13.2765 13.3905C11.941 14.5386 10.2071 15.2298 8.32098 15.2298C4.1152 15.2298 0.706055 11.8207 0.706055 7.61492C0.706055 3.40914 4.1152 0 8.32098 0C12.5268 0 15.9359 3.40914 15.9359 7.61492C15.9359 9.50108 15.2447 11.2349 14.0966 12.5705L14.4246 12.8868ZM3.04911 7.61492C3.04911 10.532 5.40388 12.8868 8.32098 12.8868C11.2381 12.8868 13.5928 10.532 13.5928 7.61492C13.5928 4.69782 11.2381 2.34305 8.32098 2.34305C5.40388 2.34305 3.04911 4.69782 3.04911 7.61492Z" fill="white"/>
</svg>
