<svg width="26" height="26" viewBox="0 0 26 26" fill="none" xmlns="http://www.w3.org/2000/svg">
<rect width="26" height="26" rx="13" fill="#DFF2F9"/>
<g clip-path="url(#clip0_1679_12932)">
<path d="M13.4871 15.1143L17.3213 11.3511L13.6039 7.70252L9.76973 11.4657L13.4871 15.1143Z" fill="#6BC0E0"/>
<path d="M9.18846 10.9969L13.1256 7.13264C13.3895 6.87358 13.3895 6.45357 13.1256 6.19451C12.8617 5.93545 12.4337 5.93544 12.1698 6.1945L8.23262 10.0587C7.96868 10.3178 7.96868 10.7378 8.23263 10.9969C8.49657 11.2559 8.92451 11.2559 9.18846 10.9969Z" fill="#6BC0E0"/>
<path d="M18.858 12.7586L14.9209 16.6229C14.7941 16.7473 14.6222 16.8172 14.443 16.8172C14.2637 16.8172 14.0918 16.7473 13.965 16.6229C13.9023 16.5613 13.8525 16.4881 13.8185 16.4077C13.7846 16.3272 13.7671 16.2409 13.7671 16.1538C13.7671 16.0667 13.7846 15.9804 13.8185 15.8999C13.8525 15.8195 13.9023 15.7463 13.965 15.6847L17.9022 11.8205C18.0289 11.6961 18.2009 11.6262 18.3801 11.6262C18.5594 11.6262 18.7313 11.6961 18.858 11.8205C18.9848 11.9449 19.056 12.1136 19.056 12.2896C19.056 12.4655 18.9848 12.6342 18.858 12.7586Z" fill="#6BC0E0"/>
<path d="M6.19813 17.6818L11.148 12.8236L12.1038 13.7617L7.15397 18.6199C7.02722 18.7444 6.8553 18.8142 6.67605 18.8142C6.49679 18.8142 6.32488 18.7443 6.19813 18.6199C6.07138 18.4955 6.00017 18.3268 6.00017 18.1509C6.00017 17.9749 6.07138 17.8062 6.19813 17.6818Z" fill="#6BC0E0"/>
<path d="M11.0244 17.4229H17.8031C17.9522 17.4229 18.0953 17.481 18.2008 17.5846C18.3063 17.6881 18.3656 17.8285 18.3656 17.9749V18.4641H10.4619V17.9749C10.4619 17.9024 10.4765 17.8306 10.5047 17.7637C10.533 17.6967 10.5744 17.6358 10.6267 17.5845C10.6789 17.5333 10.7409 17.4926 10.8092 17.4649C10.8774 17.4371 10.9505 17.4229 11.0244 17.4229Z" fill="#6BC0E0"/>
<path d="M19.3468 18.9121H9.48047V19.9534H19.3468V18.9121Z" fill="#6BC0E0"/>
</g>
<defs>
<clipPath id="clip0_1679_12932">
<rect width="13.3467" height="13.9533" fill="white" transform="translate(6 6)"/>
</clipPath>
</defs>
</svg>
