<svg width="10" height="13" viewBox="0 0 10 13" fill="none" xmlns="http://www.w3.org/2000/svg">
<g id="Group 1000002766">
<path id="Vector" d="M5 6.25C5.34375 6.25 5.63812 6.1275 5.88313 5.8825C6.12813 5.6375 6.25042 5.34333 6.25 5C6.25 4.65625 6.1275 4.36188 5.8825 4.11687C5.6375 3.87188 5.34333 3.74958 5 3.75C4.65625 3.75 4.36188 3.8725 4.11687 4.1175C3.87188 4.3625 3.74958 4.65667 3.75 5C3.75 5.34375 3.8725 5.63812 4.1175 5.88313C4.3625 6.12813 4.65667 6.25042 5 6.25ZM5 12.2656C4.91667 12.2656 4.83333 12.25 4.75 12.2188C4.66667 12.1875 4.59375 12.1458 4.53125 12.0938C3.01042 10.75 1.875 9.5025 1.125 8.35125C0.375 7.2 0 6.12458 0 5.125C0 3.5625 0.502708 2.31771 1.50813 1.39062C2.51354 0.463542 3.6775 0 5 0C6.32292 0 7.48708 0.463542 8.4925 1.39062C9.49792 2.31771 10.0004 3.5625 10 5.125C10 6.125 9.625 7.20062 8.875 8.35188C8.125 9.50313 6.98958 10.7504 5.46875 12.0938C5.40625 12.1458 5.33333 12.1875 5.25 12.2188C5.16667 12.25 5.08333 12.2656 5 12.2656Z" fill="#A85766"/>
</g>
</svg>
