<svg width="14" height="14" viewBox="0 0 14 14" fill="none" xmlns="http://www.w3.org/2000/svg">
<g id="Group 1000002770">
<path id="Vector" d="M7 9.8C7.19833 9.8 7.3647 9.7328 7.4991 9.5984C7.6335 9.464 7.70047 9.29787 7.7 9.1V6.86L8.33 7.49C8.45833 7.61833 8.62167 7.6825 8.82 7.6825C9.01833 7.6825 9.18167 7.61833 9.31 7.49C9.43833 7.36167 9.5025 7.19833 9.5025 7C9.5025 6.80167 9.43833 6.63833 9.31 6.51L7.49 4.69C7.42 4.62 7.34417 4.57053 7.2625 4.5416C7.18083 4.51267 7.09333 4.49797 7 4.4975C6.90667 4.4975 6.81917 4.5122 6.7375 4.5416C6.65583 4.571 6.58 4.62047 6.51 4.69L4.69 6.51C4.56167 6.63833 4.4975 6.80167 4.4975 7C4.4975 7.19833 4.56167 7.36167 4.69 7.49C4.81833 7.61833 4.98167 7.6825 5.18 7.6825C5.37833 7.6825 5.54167 7.61833 5.67 7.49L6.3 6.86V9.1C6.3 9.29833 6.3672 9.4647 6.5016 9.5991C6.636 9.7335 6.80213 9.80047 7 9.8ZM7 14C6.03167 14 5.12167 13.8161 4.27 13.4484C3.41833 13.0807 2.6775 12.582 2.0475 11.9525C1.4175 11.3225 0.918867 10.5817 0.5516 9.73C0.184333 8.87833 0.000466667 7.96833 0 7C0 6.03167 0.183867 5.12167 0.5516 4.27C0.919333 3.41833 1.41797 2.6775 2.0475 2.0475C2.6775 1.4175 3.41833 0.918867 4.27 0.5516C5.12167 0.184333 6.03167 0.000466667 7 0C7.96833 0 8.87833 0.183867 9.73 0.5516C10.5817 0.919333 11.3225 1.41797 11.9525 2.0475C12.5825 2.6775 13.0814 3.41833 13.4491 4.27C13.8168 5.12167 14.0005 6.03167 14 7C14 7.96833 13.8161 8.87833 13.4484 9.73C13.0807 10.5817 12.582 11.3225 11.9525 11.9525C11.3225 12.5825 10.5817 13.0814 9.73 13.4491C8.87833 13.8168 7.96833 14.0005 7 14ZM7 12.6C8.55167 12.6 9.87303 12.0547 10.9641 10.9641C12.0552 9.8735 12.6005 8.55213 12.6 7C12.6 5.44833 12.0547 4.12697 10.9641 3.0359C9.8735 1.94483 8.55213 1.39953 7 1.4C5.44833 1.4 4.12697 1.9453 3.0359 3.0359C1.94483 4.1265 1.39953 5.44787 1.4 7C1.4 8.55167 1.9453 9.87303 3.0359 10.9641C4.1265 12.0552 5.44787 12.6005 7 12.6Z" fill="#00833D"/>
</g>
</svg>
