<svg width="19" height="18" viewBox="0 0 19 18" fill="none" xmlns="http://www.w3.org/2000/svg">
<path d="M11.6717 9.99096C8.9172 9.99096 6.67627 7.75003 6.67627 4.99548C6.67627 2.24093 8.9172 0 11.6717 0C14.4263 0 16.6672 2.24093 16.6672 4.99548C16.6672 7.75003 14.4263 9.99096 11.6717 9.99096ZM11.6717 1.0652C9.50451 1.0652 7.74147 2.82824 7.74147 4.99548C7.74147 7.16272 9.50451 8.92576 11.6717 8.92576C13.839 8.92576 15.602 7.16272 15.602 4.99548C15.602 2.82824 13.839 1.0652 11.6717 1.0652Z" fill="#165A07"/>
<path d="M18.133 11.9181C17.807 11.18 16.9338 10.8417 16.0104 11.0952L15.9959 11.0985C15.9691 11.1041 15.9278 11.1142 15.8809 11.1298C15.336 11.3174 14.5466 11.6055 13.7851 11.8835C13.3787 12.032 12.9633 12.1838 12.5859 12.3201C12.481 11.764 12.0857 11.314 11.5174 11.1655C10.6431 10.9355 9.82804 10.5793 8.96494 10.2008C8.50939 10.001 8.0382 9.79551 7.56143 9.61128C6.39239 9.16019 5.26132 9.20039 4.20059 9.73075C3.71489 9.97305 3.23142 10.2176 2.74683 10.461C2.03335 10.8205 1.29531 11.1923 0.567309 11.5519C0.46347 11.6032 0.145251 11.7595 0.0358279 12.1113C-0.0735948 12.463 0.0972385 12.7711 0.154183 12.8727L0.300452 13.1363C0.692364 13.8397 1.09656 14.5677 1.45274 15.2957C1.57444 15.5447 1.78212 15.8897 2.16957 15.998C2.59275 16.1163 2.96456 15.8774 3.08626 15.7992C3.61998 15.4565 4.11908 15.471 4.7544 15.8461C5.78498 16.4547 6.60565 16.879 7.41628 17.2206C7.93547 17.4395 8.44462 17.55 8.95154 17.55C9.39035 17.55 9.82692 17.4674 10.2668 17.3044C11.2684 16.9314 12.2242 16.4904 13.3519 15.9422L13.6366 15.8037C14.8034 15.2365 16.0093 14.6514 17.1873 14.0529C18.1252 13.5773 18.4959 12.7388 18.133 11.9181ZM16.7049 13.1039C15.5359 13.6979 14.3334 14.2818 13.171 14.8468L12.8863 14.9853C11.7865 15.5201 10.8564 15.9489 9.89503 16.3073C9.20277 16.5652 8.54735 16.544 7.83052 16.2414C7.06568 15.9187 6.28409 15.5145 5.29593 14.9306C4.80018 14.638 4.31448 14.4906 3.84217 14.4906C3.38439 14.4906 2.93999 14.628 2.51124 14.9026C2.49337 14.9138 2.47886 14.9227 2.46434 14.9306C2.44871 14.9049 2.43084 14.8714 2.40851 14.8267C2.04005 14.073 1.62804 13.3328 1.22943 12.6171L1.13899 12.4552C1.83684 12.1101 2.54138 11.7551 3.2236 11.4112C3.70707 11.1678 4.19054 10.9244 4.67401 10.6821C5.46677 10.2857 6.2852 10.26 7.17622 10.6039C7.63177 10.7792 8.09179 10.9802 8.53618 11.1756C9.39816 11.553 10.2903 11.9438 11.245 12.1939C11.5129 12.2642 11.5699 12.521 11.5375 12.7198C11.4973 12.9632 11.2349 13.0268 11.0205 13.0358C10.968 13.038 10.91 13.0369 10.8475 13.0369C10.8207 13.0369 10.795 13.0369 10.7682 13.0358C10.6063 13.0168 8.23471 12.7443 7.00985 12.5925C6.97524 12.5836 6.93169 12.5757 6.87921 12.5735C6.87363 12.5735 6.86805 12.5735 6.86246 12.5735C6.57551 12.5735 6.3388 12.8013 6.33098 13.0905C6.32317 13.3562 6.51075 13.5818 6.76309 13.6298C6.7843 13.6354 6.81222 13.6421 6.84571 13.6454C7.54915 13.7325 8.54511 13.8509 9.24185 13.9335C9.64157 13.9804 10.0022 14.0228 10.2624 14.0518C10.3941 14.0663 10.5002 14.0786 10.5739 14.0864C10.6308 14.0931 10.6878 14.0987 10.7436 14.0987C10.7447 14.0987 10.7447 14.0987 10.7459 14.0987V14.101C10.7749 14.101 10.8039 14.101 10.8329 14.1021C10.8664 14.1021 10.8999 14.1032 10.9334 14.1032C10.9759 14.1032 11.0205 14.1021 11.0663 14.101C11.5911 14.0775 12.0176 13.8788 12.2878 13.555C12.8026 13.3752 13.4837 13.1262 14.1458 12.8839C14.8994 12.6081 15.6777 12.3245 16.2125 12.1403L16.2237 12.1381C16.2449 12.1336 16.2661 12.128 16.2873 12.1224C16.6915 12.0119 17.0488 12.1046 17.156 12.348C17.3157 12.703 16.9986 12.9554 16.7049 13.1039Z" fill="#165A07"/>
<path d="M11.6761 7.21971C11.2239 7.21971 10.7717 7.22194 10.3195 7.21859C9.93766 7.21524 9.82712 7.07679 9.91533 6.71391C9.98456 6.43365 10.0549 6.15339 10.1342 5.87537C10.2737 5.3785 10.6534 5.0815 11.1636 5.07033C11.4975 5.06363 11.8325 5.06363 12.1674 5.07033C12.6699 5.07926 13.0506 5.35952 13.198 5.84076C13.2851 6.12548 13.3521 6.4169 13.4236 6.70609C13.5151 7.07679 13.409 7.21636 13.0316 7.21971C12.5806 7.22306 12.1283 7.21971 11.6761 7.21971Z" fill="#165A07"/>
<path d="M12.826 3.63216C12.8294 4.23957 12.299 4.77663 11.6871 4.78668C11.0708 4.79673 10.5203 4.24515 10.5259 3.6277C10.5326 3.01694 11.0686 2.48546 11.6782 2.48657C12.2878 2.48769 12.8216 3.02029 12.826 3.63216Z" fill="#165A07"/>
</svg>
