<?xml version="1.0" encoding="UTF-8"?>
<svg xmlns="http://www.w3.org/2000/svg" width="48" height="40" viewBox="0 0 48 40"><g id="Layer_2" data-name="Layer 2"><g id="Icons"><path d="M46.5,37H1.5a1.5,1.5,0,0,0,0,3h45a1.5,1.5,0,0,0,0-3Z" fill="#5091cd" style="fill: #e56a54;"/><path d="M1.5,3h45a1.5,1.5,0,0,0,0-3H1.5a1.5,1.5,0,0,0,0,3Z" fill="#5091cd" style="fill: #e56a54;"/><path d="M5,26.58V30h8V28.97a10.938,10.938,0,0,1,4.13-8.46A7.56514,7.56514,0,0,0,12.63,19,7.68974,7.68974,0,0,0,5,26.58Z" fill="#5091cd" style="fill: #e56a54;"/><path d="M43,30V26.58A7.68974,7.68974,0,0,0,35.37,19a7.56514,7.56514,0,0,0-4.5,1.51A10.938,10.938,0,0,1,35,28.97V30Z" fill="#5091cd" style="fill: #e56a54;"/><path d="M33,30V28.97a9.00051,9.00051,0,0,0-18,0V33H33Z" fill="#5091cd" style="fill: #e56a54;"/><circle cx="24" cy="13" r="5" fill="#5091cd" style="fill: #e56a54;"/><circle cx="13" cy="13" r="4" fill="#5091cd" style="fill: #e56a54;"/><circle cx="35" cy="13" r="4" fill="#5091cd" style="fill: #e56a54;"/></g></g></svg>
