<?xml version="1.0" encoding="UTF-8"?>
<svg xmlns="http://www.w3.org/2000/svg" viewBox="0 0 48 48"><g fill="#418fde" data-name="Layer 2"><path d="M44.586 27.586L40 32.172V15a2 2 0 0 0-4 0v17.172l-4.586-4.586a2 2 0 0 0-2.828 2.828l8 8a2 2 0 0 0 2.828 0l8-8a2 2 0 0 0-2.828-2.828zM10 13a2 2 0 0 0-2 2v17.172l-4.586-4.586a2 2 0 0 0-2.828 2.828l8 8a2 2 0 0 0 2.828 0l8-8a2 2 0 0 0-2.828-2.828L12 32.172V15a2 2 0 0 0-2-2z" style="fill: #e56a54;"/><rect width="48" height="4" y="44" rx="1" style="fill: #e56a54;"/><rect width="48" height="10" rx="1" style="fill: #e56a54;"/></g></svg>
