<?xml version="1.0" encoding="UTF-8"?>
<svg xmlns="http://www.w3.org/2000/svg" viewBox="0 0 48 48"><path fill="#418fde" d="M10 5a3.003 3.003 0 0 0-3 3h6a3.003 3.003 0 0 0-3-3z" style="fill: #e56a54;"/><path fill="#418fde" d="M10 20A10 10 0 1 0 0 10a10.004 10.004 0 0 0 10 10zM5 8a5 5 0 0 1 10 0v6a2 2 0 0 1-2 2H7a2 2 0 0 1-2-2zM0 24v7a7.998 7.998 0 0 1 8 8v9h8v-9a8 8 0 0 1 16 0v9h8v-9a7.998 7.998 0 0 1 8-8v-7z" style="fill: #e56a54;"/><rect width="4" height="4" x="8" y="10" fill="#418fde" rx="1" style="fill: #e56a54;"/></svg>
