<?xml version="1.0" encoding="UTF-8"?>
<svg xmlns="http://www.w3.org/2000/svg" viewBox="0 0 32 48"><g fill="#418fde"><path d="m30 6h-28a2.00583 2.00583 0 0 0 -2 2v22h32v-22a2.00583 2.00583 0 0 0 -2-2zm-20 15a1.00291 1.00291 0 0 1 -1 1h-4a1.00291 1.00291 0 0 1 -1-1v-8a1.00291 1.00291 0 0 1 1-1h4a1.00291 1.00291 0 0 1 1 1zm9 0a1.00291 1.00291 0 0 1 -1 1h-4a1.00291 1.00291 0 0 1 -1-1v-8a1.00291 1.00291 0 0 1 1-1h4a1.00291 1.00291 0 0 1 1 1zm9 0a1.00291 1.00291 0 0 1 -1 1h-4a1.00291 1.00291 0 0 1 -1-1v-8a1.00291 1.00291 0 0 1 1-1h4a1.00291 1.00291 0 0 1 1 1z" style="fill: #e56a54;"/><path d="m6 4h20a2 2 0 0 0 0-4h-20a2 2 0 0 0 0 4z" style="fill: #e56a54;"/><path d="m0 48h12v-10a2.00588 2.00588 0 0 1 2-2h4a2.00588 2.00588 0 0 1 2 2v10h12v-16h-32z" style="fill: #e56a54;"/></g></svg>
