<?xml version="1.0" encoding="UTF-8"?>
<svg xmlns="http://www.w3.org/2000/svg" viewBox="0 0 48 48"><g fill="#418fde" data-name="Layer 2"><path d="M20 10a10 10 0 1 0-10 10 10.004 10.004 0 0 0 10-10zm-10 7a1 1 0 1 1 1-1 1.003 1.003 0 0 1-1 1zm1-5a1 1 0 0 1-2 0V4a1 1 0 0 1 2 0z" style="fill: #e56a54;"/><path d="M18.3 0A12.993 12.993 0 0 1 16 21.53V48h32V0zM34 42a2 2 0 0 1-4 0v-6a2.006 2.006 0 0 1 2-2 2.015 2.015 0 0 1 2 2zm0-15a2 2 0 0 1-4 0v-6a2.006 2.006 0 0 1 2-2 2.015 2.015 0 0 1 2 2zm0-15a2 2 0 0 1-4 0V6a2.006 2.006 0 0 1 2-2 2.015 2.015 0 0 1 2 2z" style="fill: #e56a54;"/></g></svg>
