<?xml version="1.0" encoding="UTF-8"?>
<svg xmlns="http://www.w3.org/2000/svg" viewBox="0 0 48 48"><path fill="#418fde" d="M10 5a3.003 3.003 0 0 0-3 3h6a3.003 3.003 0 0 0-3-3zM18.3 0A12.993 12.993 0 0 1 16 21.53V48h32V0zM34 42a2 2 0 0 1-4 0v-6a2.006 2.006 0 0 1 2-2 2.015 2.015 0 0 1 2 2zm0-15a2 2 0 0 1-4 0v-6a2.006 2.006 0 0 1 2-2 2.015 2.015 0 0 1 2 2zm0-15a2 2 0 0 1-4 0V6a2.006 2.006 0 0 1 2-2 2.015 2.015 0 0 1 2 2z" style="fill: #e56a54;"/><path fill="#418fde" d="M20 10a10 10 0 1 0-10 10 10.003 10.003 0 0 0 10-10zm-5 4a2 2 0 0 1-2 2H7a2 2 0 0 1-2-2V8a5 5 0 0 1 10 0z" style="fill: #e56a54;"/><rect width="4" height="4" x="8" y="10" fill="#418fde" rx="1" style="fill: #e56a54;"/></svg>
