<svg version="1.2" baseProfile="tiny-ps" xmlns="http://www.w3.org/2000/svg" viewBox="0 0 1440 500" width="1440" height="500">
	<title>Group 1000001890-svg</title>
	<defs>
		<clipPath clipPathUnits="userSpaceOnUse" id="cp1">
			<path d="m0 0h1440v436h-1440v-436z" />
		</clipPath>
	</defs>
	<style>
		tspan { white-space:pre }
		.s0 { fill: #f0f0f0 } 
		.s1 { fill: none;stroke: #000000;stroke-width: 4;stroke-dasharray: 8 } 
		.s2 { fill: #ffffff } 
		.s3 { opacity: .2;fill: #ffcdd2 } 
		.s4 { fill: #000000 } 
		.s5 { fill: #ca7358 } 
		.s6 { fill: #ffbe21 } 
		.s7 { fill: none;stroke: #ca7358;stroke-width: 4 } 
		.s8 { fill: #30242a } 
		.s9 { fill: #ffb7d5 } 
		.s10 { fill: #eaa58b } 
		.s11 { fill: none;stroke: #f5ebdd;stroke-linecap:round;stroke-linejoin:round;stroke-width: 4 } 
		.s12 { fill: none;stroke: #a15842;stroke-linecap:round;stroke-linejoin:round;stroke-width: 2 } 
		.s13 { fill: none;stroke: #a15842;stroke-linecap:round;stroke-linejoin:round;stroke-width: 4 } 
		.s14 { fill: none;stroke: #f5ebdd;stroke-linecap:round;stroke-width: 4 } 
		.s15 { fill: #4756df } 
		.s16 { fill: none;stroke: #3ec1f3;stroke-linecap:round;stroke-width: 4 } 
		.s17 { fill: none;stroke: #30242a;stroke-linecap:round;stroke-width: 4 } 
		.s18 { fill: #ff7235 } 
		.s19 { fill: none;stroke: #ff7235;stroke-width: 2 } 
		.s20 { fill: none;stroke: #a15842;stroke-linecap:round;stroke-linejoin:round;stroke-width: 1.5 } 
		.s21 { fill: #fd8369 } 
		.s22 { fill: #dfdfdf } 
		.s23 { fill: #56cad8 } 
		.s24 { fill: #a15842 } 
		.s25 { fill: none;stroke: #ffb7d5;stroke-linecap:round;stroke-linejoin:round;stroke-width: 4 } 
		.s26 { fill: #f5ebdd } 
		.s27 { fill: #ffcdd2 } 
		.s28 { fill: none;stroke: #a15842;stroke-linecap:round;stroke-linejoin:round } 
		.s29 { fill: none;stroke: #cb9ca1;stroke-opacity:.4;stroke-width: 2 } 
		.s30 { opacity: .6;fill: #ffcdd2 } 
	</style>
	<path id="Layer" class="s0" d="m0 0h1440v500h-1440v-500z" />
	<path id="Layer" class="s1" d="m-10633-486h30061v6843h-30061v-6843z" />
	<path id="Layer" class="s2" d="m0-105h1440v2865h-1440v-2865z" />
	<g id="Clip-Path" clip-path="url(#cp1)">
		<g id="Layer">
			<path id="Layer" class="s2" d="m218.11 595.84c-201.51 0-364.39-162.88-364.39-364.39c0-201.51 162.88-364.39 364.39-364.39c201.51 0 364.39 162.88 364.39 364.39c0 201.51-162.88 364.39-364.39 364.39z" />
		</g>
	</g>
	<path id="Layer" class="s3" d="m0 0h1440v498h-1440v-498z" />
	<path id="Layer" class="s4" d="m1170.69 497.77c-0.53 0-1.05-0.13-1.51-0.37c-0.47-0.24-0.87-0.6-1.17-1.03c-0.3-0.43-0.49-0.93-0.56-1.45c-0.07-0.52-0.01-1.05 0.17-1.55l8.02-21.72h12.75l-14.9 24.57c-0.3 0.48-0.71 0.87-1.2 1.14c-0.49 0.27-1.04 0.41-1.6 0.41z" />
	<path id="Layer" class="s4" d="m1282.57 497.36c-0.48-0.27-0.9-0.67-1.19-1.14l-14.9-24.57h12.75l8.01 21.72c0.18 0.49 0.24 1.02 0.18 1.55c-0.07 0.52-0.26 1.02-0.56 1.45c-0.3 0.43-0.71 0.78-1.17 1.03c-0.47 0.24-0.99 0.37-1.51 0.37c-0.56 0-1.12-0.14-1.61-0.41z" />
	<path id="Layer" class="s5" d="m1297.04 479.56h-138.68v-72.45h138.68v72.45z" />
	<path id="Layer" class="s6" d="m1287.45 470.23h-120.03v-53.79h120.03v53.79z" />
	<path id="Layer" class="s7" d="m1287.6 443.42h-120.18" />
	<path id="Layer" class="s8" d="m1224.01 430.51c0-1.89 1.53-3.42 3.42-3.42c1.89 0 3.42 1.53 3.42 3.42c0 1.89-1.53 3.42-3.42 3.42c-1.89 0-3.42-1.53-3.42-3.42z" />
	<path id="Layer" class="s8" d="m1224.01 456.63c0-1.89 1.53-3.42 3.42-3.42c1.89 0 3.42 1.53 3.42 3.42c0 1.89-1.53 3.42-3.42 3.42c-1.89 0-3.42-1.53-3.42-3.42z" />
	<path id="Layer" class="s9" d="m1268.13 383.05h58.19v114.72h-83.34v-89.57c0-6.67 2.65-13.07 7.37-17.78c4.72-4.72 11.11-7.37 17.78-7.37z" />
	<path id="Layer" class="s9" d="m1332.5 320.84h82.16c6.67 0 13.07 2.65 17.79 7.37c4.71 4.72 7.36 11.11 7.36 17.78v151.78h-132.46v-151.78c0-6.67 2.65-13.07 7.36-17.79c4.72-4.72 11.12-7.37 17.79-7.37z" />
	<path id="Layer" class="s9" d="m1302.96 413.68h111.7c6.67 0 13.07 2.65 17.79 7.37c4.71 4.72 7.36 11.11 7.36 17.78v58.94h-162v-58.94c0-6.67 2.65-13.07 7.37-17.78c4.71-4.72 11.11-7.37 17.78-7.37z" />
	<path id="Layer" class="s7" d="m1356.01 441.6h-67.83" />
	<path id="Layer" class="s7" d="m1277.81 438.83v58.94" />
	<path id="Layer" class="s7" d="m1439.81 382.67h-52.59" />
	<path id="Layer" class="s8" d="m1378.84 367.88l-71.3 52.44c-4.18 8.93-4.59 17.78-5.44 29.74c-1.14 16-13.1 16.54-13.1 16.54c-0.91 2.11-2.02 4.38-3.26 6.69l-26.09-12.32c2.26-6.27 4.37-15.42 8.58-28.17c9.58-29.1 11.02-41.21 26.37-49.84c14.92-8.39 44.15-14.93 44.15-14.93l40.09-0.14z" />
	<path id="Layer" class="s8" d="m1249.2 482.44l25.4 11.53c0.22 0.16 0.41 0.36 0.56 0.6c0.15 0.24 0.25 0.5 0.29 0.77c0.05 0.27 0.04 0.55-0.03 0.82c-0.06 0.27-0.18 0.52-0.34 0.75c-0.29 0.39-0.7 0.67-1.17 0.8c-0.47 0.12-0.97 0.07-1.41-0.13l-38.56-17.97c1.52-4.19 5.38-5.99 14.62-7.39c0.13-0.02 0.26-0.04 0.39-0.06c0.76 3.38 0.85 6.88 0.25 10.3z" />
	<path id="Layer" class="s10" d="m1279.79 483.51c-2.54 4.1-4.91 7.66-6.42 9.83l0.93 0.44c0.11 0.05 0.21 0.11 0.31 0.18l-25.41-11.53c0.6-3.42 0.51-6.92-0.25-10.3c2.56-0.45 4.5-1.39 6.08-2.94c1.9-1.85 3.29-4.55 4.62-8.25l26.09 12.32c-1.85 3.47-3.94 7.02-5.95 10.24z" />
	<path id="Layer" class="s11" d="m1288.79 467.03l-27.15-12.72" />
	<path id="Layer" class="s8" d="m1392.2 392.79c-1.32 3.93-3.45 7.53-6.24 10.59c-2.8 3.06-6.2 5.5-9.99 7.17c-3.79 1.67-7.89 2.53-12.03 2.53h-24.89c0 9.86 3.33 17.37 7.18 28.72c5.75 16.95-5.28 22.17-5.28 22.17c-0.06 2.66-0.16 5.18-0.32 7.57h-28.29c0.09-7.37-1.74-17.78-3.21-32.94c-2.87-29.74-4.7-46.72 10.56-54.04c15.33-7.35 51.4-15.99 51.4-15.99h21.46l1.09 11.98c0.37 4.13-0.12 8.28-1.44 12.21z" />
	<path id="Layer" class="s8" d="m1310.46 494.17h28.4c0.46 0.02 0.89 0.21 1.2 0.54c0.32 0.33 0.5 0.77 0.5 1.23c0 0.46-0.18 0.89-0.5 1.22c-0.31 0.33-0.74 0.52-1.2 0.54l-42.57 0.06c-0.4-4.28 2.14-7.47 9.33-12.36c3.28 3.52 4.84 8.77 4.84 8.77z" />
	<path id="Layer" class="s10" d="m1340.64 471.56c-0.23 3.65-0.57 6.98-0.95 9.95c-0.54 4.26-1.32 8.49-2.34 12.66h-26.89c0 0-1.56-5.26-4.84-8.77l0.76-0.51c1.38-0.89 2.57-2.03 3.5-3.38c1.73-2.54 2.4-5.75 2.46-9.95h28.3z" />
	<path id="Layer" class="s12" d="m1306.99 420.97c-1.29-19.11 0.23-30.59 12.17-36.48c5.23-2.58 13.34-5.27 20.22-7.46" />
	<path id="Layer" class="s13" d="m1338.75 413.83h-7.71" />
	<path id="Layer" class="s14" d="m1340.93 464.51h-28.92" />
	<path id="Layer" class="s9" d="m1381.63 383.05h58.18v114.72h-83.33v-89.57c0-6.67 2.65-13.07 7.37-17.78c4.71-4.72 11.11-7.37 17.78-7.37z" />
	<path id="Layer" class="s7" d="m1355.86 413.1v84.29" />
	<path id="Layer" class="s15" d="m1150.33 442.95v54.73h-26.43v-54.73c0.22 5.35 6.05 9.64 13.2 9.64c7.16 0 12.99-4.29 13.23-9.64z" />
	<path id="Layer" class="s16" d="m1124.39 485.3c8.67-0.93 19-7 17.06-21.35c-1.55-11.5-12.9-8.24-6.37 2.64c3.84 6.4 10.15 10.75 14.7 13.26" />
	<path id="Layer" class="s16" d="m1124.31 472.36c5.17 3.54 14.33 11.67 17.82 24.77" />
	<path id="Layer" class="s16" d="m1124.28 489.87c3.39 1 7.74 3.17 11.01 7.3" />
	<path id="Layer" class="s16" d="m1133.75 445.8c-2.2 3.83-5.48 6.94-9.44 8.92" />
	<path id="Layer" class="s8" d="m1123.89 442.95h26.42c-0.22 5.35-6.06 9.64-13.21 9.64c-7.16 0-12.98-4.29-13.21-9.64z" />
	<path id="Layer" class="s17" d="m1129.64 394.91l7.15 53.79" />
	<path id="Layer" class="s17" d="m1127.35 416.59l8.36 31.66" />
	<path id="Layer" class="s8" d="m1141.24 430.86c-0.7-1.65 3.55-5.04 9.51-7.59c5.96-2.55 11.35-3.28 12.06-1.63c0.7 1.65-3.56 5.04-9.51 7.59c-5.96 2.55-11.36 3.28-12.06 1.63z" />
	<path id="Layer" class="s8" d="m1118.12 433.97c-7.25-2.73-12.63-6.25-12.02-7.86c0.6-1.61 6.97-0.7 14.22 2.03c7.24 2.73 12.62 6.25 12.02 7.86c-0.61 1.61-6.98 0.7-14.22-2.04z" />
	<path id="Layer" class="s8" d="m1133.19 422.66c-0.81-1.06 1.94-4.49 6.14-7.64c4.19-3.16 8.24-4.86 9.04-3.79c0.8 1.06-1.95 4.49-6.14 7.64c-4.2 3.16-8.24 4.86-9.04 3.79z" />
	<path id="Layer" class="s17" d="m1146.12 401.44l-8.09 49.75" />
	<path id="Layer" class="s9" d="m1125.65 411.72c-1.88 2.31-3.12 5.09-3.57 8.03c-1.37-0.48-2.6-1.28-3.59-2.34c-0.98-1.06-1.71-2.33-2.1-3.72c-0.39-1.39-0.44-2.86-0.15-4.28c0.3-1.42 0.93-2.74 1.84-3.86c0.91-1.12 2.08-2.01 3.41-2.58c1.33-0.57 2.77-0.82 4.22-0.72c1.44 0.1 2.84 0.55 4.07 1.3c1.23 0.75 2.27 1.8 3.01 3.03c-2.79 1.04-5.26 2.81-7.14 5.13z" />
	<path id="Layer" class="s14" d="m1128.67 412.19c-1.64-3.75-4.59-6.77-8.29-8.5" />
	<path id="Layer" class="s14" d="m1127.31 413.55c-2.85-2.96-6.69-4.77-10.79-5.08" />
	<path id="Layer" class="s18" d="m1125.65 411.72c1.88-2.31 4.35-4.08 7.14-5.13c0.96 1.59 1.41 3.44 1.28 5.29c-0.13 1.85-0.83 3.62-2 5.06c-1.18 1.44-2.77 2.48-4.55 2.99c-1.79 0.5-3.69 0.44-5.44-0.18c0.45-2.95 1.69-5.72 3.57-8.04z" />
	<path id="Layer" class="s9" d="m1119.48 389.06c-0.03-1.44 0.28-2.88 0.92-4.18c0.64-1.3 1.58-2.42 2.74-3.28c1.17-0.86 2.52-1.42 3.95-1.65c1.43-0.23 2.89-0.1 4.26 0.36c1.37 0.46 2.61 1.24 3.62 2.28c1.01 1.04 1.75 2.3 2.16 3.69c0.42 1.38 0.49 2.85 0.22 4.27c-0.27 1.42-0.88 2.75-1.77 3.89c-1.97-2.25-4.49-3.93-7.32-4.88c-2.83-0.95-5.86-1.12-8.78-0.51z" />
	<path id="Layer" class="s14" d="m1125.95 391.58c-0.61-4.04 0.26-8.17 2.46-11.62" />
	<path id="Layer" class="s14" d="m1127.83 392c0.82-4.03 3.1-7.61 6.39-10.06" />
	<path id="Layer" class="s18" d="m1135.58 394.44c-1.15 1.46-2.72 2.53-4.5 3.06c-1.78 0.53-3.68 0.5-5.45-0.09c-1.76-0.59-3.3-1.71-4.4-3.2c-1.1-1.5-1.71-3.3-1.75-5.15c2.92-0.61 5.95-0.44 8.78 0.51c2.83 0.95 5.35 2.63 7.32 4.88z" />
	<path id="Layer" class="s9" d="m1141.12 389.7c0.89-1.14 2.04-2.05 3.36-2.65c1.31-0.6 2.75-0.88 4.2-0.81c1.44 0.07 2.85 0.49 4.1 1.22c1.25 0.73 2.31 1.75 3.08 2.97c0.77 1.22 1.24 2.61 1.36 4.05c0.13 1.44-0.1 2.89-0.65 4.23c-0.56 1.33-1.43 2.52-2.54 3.45c-1.1 0.93-2.42 1.58-3.83 1.89c-0.1-2.98-1-5.88-2.59-8.4c-1.6-2.52-3.83-4.57-6.49-5.94z" />
	<path id="Layer" class="s14" d="m1144.56 395.74c2.07-3.53 5.35-6.18 9.24-7.46" />
	<path id="Layer" class="s14" d="m1145.74 397.25c3.18-2.6 7.21-3.94 11.32-3.76" />
	<path id="Layer" class="s18" d="m1150.2 404.04c-1.81 0.4-3.71 0.24-5.42-0.47c-1.72-0.71-3.17-1.94-4.16-3.51c-1-1.57-1.48-3.41-1.39-5.26c0.09-1.85 0.75-3.64 1.9-5.1c2.65 1.37 4.88 3.42 6.48 5.94c1.59 2.52 2.49 5.42 2.59 8.4z" />
	<path id="Layer" class="s10" d="m1389.3 303c-0.15 1.68-0.3 3.23-0.42 4.53h-22.26l0.43-3.26c-7.46 0.93-9.79-2.24-10.88-4.98c-1.24-3.11-0.44-5.78 0.52-9.25c0 0 0.28-0.72 0.66-2.25c0.31-1.24 0.39-2.01 0.39-2.01c0.11-0.55 0.21-1.13 0.29-1.73c0.62-4.35 1.56-6.84 1.56-6.84c2.17 0.62 4.97 0.31 5.91 0c1.25 3.49 3.53 6.52 6.53 8.71c0 0 7.07-7.64 11.19-1.87c3.11 4.35-1.24 9.64-4.98 10.88c2.22 4.68 8.54 7.21 11.06 8.06z" />
	<path id="Layer" class="s19" d="m1352.81 287.23c0-2.24 1.81-4.05 4.04-4.05c2.24 0 4.05 1.81 4.05 4.05c0 2.23-1.81 4.05-4.05 4.05c-2.23 0-4.04-1.81-4.04-4.05z" />
	<path id="Layer" class="s19" d="m1362.9 287.23c0-2.24 1.81-4.05 4.05-4.05c2.23 0 4.04 1.81 4.04 4.05c0 2.23-1.81 4.05-4.04 4.05c-2.24 0-4.05-1.81-4.05-4.05z" />
	<path id="Layer" class="s19" d="m1360.9 287.23h2" />
	<path id="Layer" class="s19" d="m1370.99 287.23h8.47" />
	<path id="Layer" class="s10" d="m1331.6 330.82l5.91 19.86c-3.52 4.23-8.44 8.82-12.49 7.67c-4.39-1.23-8.65-3.99-12.59-8.14l2.56-7.56c0.18-0.54 0.25-1.2 0.2-1.85c-0.06-0.64-0.24-1.22-0.51-1.6l-5.14-7.23c-1.31-1.25-4.85-0.89-4.67-3.79c0.03-0.63 0.39-1.1 0.96-1.42c1.69-0.96 5.23-0.65 7.74 0.48c4.12 1.87 14.81 8.09 14.81 8.09c0 0 1.33-1.87 3.22-4.51z" />
	<path id="Layer" class="s18" d="m1388.51 311.42l4.04 56.59h-53.8l8.09-23.63c-3 2.3-6.14 4.41-9.4 6.32l-12.02-19.86c6.47-4.44 16.2-11.06 22.04-14.75c7.73-4.89 18.66-4.66 18.66-4.66l0.5-3.89h22.26c-0.22 2.35-0.37 3.89-0.37 3.89z" />
	<path id="Layer" class="s20" d="m1365.5 312.2l-0.47 3.73" />
	<path id="Layer" class="s13" d="m1350.72 331.48l-4.19 12.44" />
	<path id="Layer" class="s12" d="m1359.23 298.57c0.51 0.31 2.44 0.57 3.22-0.91" />
	<path id="Layer" class="s4" d="m1365.84 287.82c0-0.52 0.42-0.93 0.93-0.93c0.52 0 0.94 0.42 0.94 0.93c0 0.51-0.42 0.93-0.94 0.93c-0.51 0-0.93-0.42-0.93-0.93z" />
	<path id="Layer" class="s4" d="m1357.68 287.19c0-0.52 0.42-0.93 0.93-0.93c0.52 0 0.94 0.42 0.94 0.93c0 0.51-0.42 0.93-0.94 0.93c-0.51 0-0.93-0.42-0.93-0.93z" />
	<path id="Layer" class="s12" d="m1379.18 287.79l-3.42 2.18" />
	<path id="Layer" class="s20" d="m1370.74 308.15l-0.5 4.03" />
	<path id="Layer" class="s20" d="m1375.4 308.15l-0.5 4.03" />
	<path id="Layer" class="s20" d="m1380.06 308.15l-0.5 4.03" />
	<path id="Layer" class="s12" d="m1367.28 304.82c1.48-0.26 3.54-0.81 5.21-1.95" />
	<path id="Layer" class="s13" d="m1391.13 351.25l-0.91-19.15" />
	<path id="Layer" fill-rule="evenodd" class="s21" d="m1209.18 398.9l-0.16 10.96l-39.5-0.6c-3.63-0.04-6.52-2.55-6.48-5.58c0.05-3.03 3.02-5.44 6.65-5.38l39.49 0.6z" />
	<path id="Layer" fill-rule="evenodd" class="s22" d="m1168.52 390.41l55.93 0.79l-0.11 7.63l-55.93-0.8l0.11-7.62z" />
	<path id="Layer" fill-rule="evenodd" class="s23" d="m1168.04 379.67l40.48 0.58l-0.18 12.76l-40.49-0.58l0.19-12.76z" />
	<path id="Layer" class="s9" d="m1354.92 354.33l5.37 3.36l-6.27 1.34l-0.41 7.35l-3.62-6.68l-6.49 2.69l4.92-6.72l-3.79-6.21l6.4 2.2l4.11-5.18l-0.22 7.84z" />
	<path id="Layer" class="s9" d="m1366.96 330.01l7.01 2.86l-7.21 2.04l-2.27 7.55l-2.27-7.55l-6.59 0.81l5.15-4.28l-3.3-5.5l5.57 2.65l3.91-5.1v6.53z" />
	<path id="Layer" class="s9" d="m1379.09 345.86l7.01 2.86l-7.21 2.04l-2.27 7.55l-2.27-7.55l-6.6 0.81l5.16-4.28l-3.3-5.51l5.57 2.65l3.91-5.1v6.53z" />
	<path id="Layer" class="s9" d="m1338.31 346.56l-6.41 0.33l5.18-4.19l-0.54-5.45l4.3 3.08l6.04-2.49l-3.12 4.98l2.35 2.39l-6.68 4.68l-1.12-3.33z" />
	<path id="Layer" class="s9" d="m1353.84 315.87l5.32 0.66l-4.87 2.69l-0.34 4.56l-3.1-3.16l-5.32 1.17l3.29-3.65l-1.9-1.83l3.42-1.87l2.95-1.09l0.55 2.5z" />
	<path id="Layer" fill-rule="evenodd" class="s21" d="m1153.88 373.27l55.94 0.8l-0.12 7.63l-55.93-0.8l0.11-7.63z" />
	<path id="Layer" class="s18" d="m1411.01 365.37l-24.99-5.91l2.49-47.89h7.81c4.69 0 12.38 4.29 14.69 12.78c2.88 10.53 7.04 29.5 0 41.01z" />
	<path id="Layer" class="s24" d="m1374.91 260.2c0-7.47 6.05-13.53 13.52-13.53c7.47 0 13.53 6.06 13.53 13.53c0 7.47-6.06 13.53-13.53 13.53c-7.47 0-13.52-6.06-13.52-13.53z" />
	<path id="Layer" class="s8" d="m1379.81 269.06c0.84 0.38-6.18-15.95-9.76-13.4c-3.36 2.4 5.53 11.49 9.76 13.4z" />
	<path id="Layer" class="s8" d="m1379.91 270.22c0.77 0.91 18.7-5.31 16.22-8.9c-2.38-3.45-16.99 7.99-16.22 8.9z" />
	<path id="Layer" class="s24" d="m1404.02 313.93c-0.81 1.09-1.72 2.1-2.72 3.01c-2.52-1.6-5.28-2.75-8.16-3.39c-3.28-0.76-6.87-0.3-10.12-0.98c-1.68-0.3-3.26-1.04-4.59-2.14c-4.34-3.69-3.53-13.9-3.53-13.9c0 0 8.71-2.55 7.69-8.24c-0.99-5.47-7.07-5.59-10.54-1.98c0 0-4.44-0.92-9.39-6.73c0 0-3.63 0.89-6.1 0.45c0.43-2.91 1.17-5.57 2.69-7.55c3.72-4.84 13.94-8.06 21.99-1.93c8.05 6.13 7.04 17.28 6.73 21.16c0 0 12.75-2.81 17.43 4.24c4.89 7.35 1.47 14.2-1.38 17.98z" />
	<path id="Layer" class="s9" d="m1382.2 321.3l7.01 2.86l-7.21 2.04l-2.27 7.55l-2.27-7.55l-6.6 0.81l5.16-4.28l-3.3-5.5l5.57 2.65l3.91-5.1v6.53z" />
	<path id="Layer" class="s9" d="m1408.79 321.33l0.66-0.9c0.63 1.25 2.2 2.82 3.96 15.35l-5.17-5.05l-7.31 3.63l5.17-8.19l-4.91-6.89l7.6 2.04z" />
	<path id="Layer" class="s9" d="m1385.99 348.7l-1.76-0.06c0.86-4.79 2.46-8.51 5.1-11.5l1.65 2.82l10.29-3.73l-5.6 6.55l7.8 6.86l-9.98-1.56l-3.42 10.91l-4.08-10.3z" />
	<path id="Layer" class="s9" d="m1206.85 230.86h4.45c10.12 0 19.82 4.02 26.97 11.17c7.15 7.15 11.17 16.85 11.17 26.97v75.25h-80.73v-75.25c0-10.12 4.02-19.82 11.17-26.97c7.15-7.15 16.85-11.17 26.97-11.17z" />
	<path id="Layer" fill-rule="evenodd" class="s5" d="m1224.68 346.37h-37.72v-47.84h37.72v47.84zm-36.79-46.91v45.99h35.86v-45.99h-35.86z" />
	<path id="Layer" class="s5" d="m1224.68 308.42h-37.72v-9.89h37.72v9.89z" />
	<path id="Layer" fill-rule="evenodd" class="s5" d="m1187.71 346.6h-23.46v-72.91h23.46v72.91zm-22.53-71.98v71.06h21.6v-71.06h-21.6z" />
	<path id="Layer" fill-rule="evenodd" class="s5" d="m1254.3 346.36h-30.36v-87.05h30.36v87.05zm-29.44-86.12v85.19h28.51v-85.19h-28.51z" />
	<path id="Layer" class="s5" d="m1236.19 270.92h0.44c1.01 0 1.98 0.4 2.69 1.11c0.72 0.71 1.12 1.68 1.12 2.69v8.85h-8.05v-8.85c0-1.01 0.4-1.98 1.11-2.69c0.71-0.71 1.68-1.11 2.69-1.11z" />
	<path id="Layer" class="s25" d="m1231.47 277.82h9.89" />
	<path id="Layer" class="s26" d="m1236.19 293.62h0.44c1.01 0 1.98 0.4 2.69 1.11c0.72 0.71 1.12 1.68 1.12 2.69v8.85h-8.05v-8.85c0-1.01 0.4-1.98 1.11-2.69c0.71-0.71 1.68-1.11 2.69-1.11v0z" />
	<path id="Layer" class="s25" d="m1231.47 300.52h9.89" />
	<path id="Layer" class="s26" d="m1236.19 316.31h0.44c1.01 0 1.98 0.4 2.69 1.11c0.72 0.71 1.12 1.68 1.12 2.69v8.85h-8.05v-8.85c0-1.01 0.4-1.98 1.11-2.69c0.71-0.71 1.68-1.11 2.69-1.11z" />
	<path id="Layer" class="s25" d="m1231.47 323.21h9.89" />
	<path id="Layer" class="s8" d="m1236.19 339h0.44c1.01 0 1.98 0.4 2.69 1.11c0.72 0.71 1.12 1.68 1.12 2.69v8.13h-8.05v-8.13c0-1.01 0.4-1.98 1.11-2.69c0.71-0.71 1.68-1.11 2.69-1.11z" />
	<path id="Layer" class="s26" d="m1171.19 289.73h0.45c1 0 1.97 0.4 2.68 1.11c0.72 0.71 1.12 1.68 1.12 2.69v8.85h-8.05v-8.85c0-1.01 0.4-1.98 1.11-2.69c0.72-0.71 1.68-1.11 2.69-1.11z" />
	<path id="Layer" class="s25" d="m1166.47 296.63h9.89" />
	<path id="Layer" class="s26" d="m1171.19 312.42h0.45c1 0 1.97 0.4 2.68 1.11c0.72 0.71 1.12 1.68 1.12 2.69v8.85h-8.05v-8.85c0-0.5 0.1-1 0.29-1.46c0.19-0.46 0.47-0.88 0.82-1.24c0.36-0.35 0.78-0.63 1.24-0.82c0.46-0.19 0.95-0.29 1.45-0.29z" />
	<path id="Layer" class="s25" d="m1166.47 319.32h9.89" />
	<path id="Layer" class="s5" d="m1171.19 335.12h0.45c1 0 1.97 0.4 2.68 1.11c0.72 0.71 1.12 1.68 1.12 2.69v8.85h-8.05v-8.85c0-1.01 0.4-1.98 1.11-2.69c0.72-0.71 1.68-1.11 2.69-1.11z" />
	<path id="Layer" class="s25" d="m1166.47 342.01h9.89" />
	<path id="Layer" class="s5" d="m1254.3 263.1h-30.36v-3.8h30.36v3.8z" />
	<path id="Layer" class="s5" d="m1187.71 275.64h-23.46v-3.79h23.46v3.79z" />
	<path id="Layer" class="s26" d="m1201.8 327.74h-8.05v-10.35h8.05v10.35z" />
	<path id="Layer" class="s25" d="m1192.83 321.99h9.89" />
	<path id="Layer" class="s25" d="m1197.77 328.2v-6.21" />
	<path id="Layer" class="s5" d="m1201.8 346.43h-8.05v-10.35h8.05v10.35z" />
	<path id="Layer" class="s25" d="m1192.83 340.68h9.89" />
	<path id="Layer" class="s25" d="m1197.77 346.89v-6.21" />
	<path id="Layer" class="s8" d="m1216.98 327.74h-8.05v-10.35h8.05v10.35z" />
	<path id="Layer" class="s25" d="m1208.01 321.99h9.89" />
	<path id="Layer" class="s25" d="m1212.95 328.2v-6.21" />
	<path id="Layer" class="s26" d="m1216.98 346.43h-8.05v-10.35h8.05v10.35z" />
	<path id="Layer" class="s25" d="m1208.01 340.68h9.89" />
	<path id="Layer" class="s25" d="m1212.95 346.89v-6.21" />
	<path id="Layer" class="s26" d="m1186.33 252.98c0-3.3 2.67-5.98 5.98-5.98c3.3 0 5.98 2.68 5.98 5.98c0 3.3-2.68 5.98-5.98 5.98c-3.31 0-5.98-2.68-5.98-5.98z" />
	<path id="Layer" class="s26" d="m1259.79 351.2h-101.43v-6.9h101.43v6.9z" />
	<path id="Layer" fill-rule="evenodd" class="s27" d="m1256.34 269.67v81.53h-94.53v-81.53c0-25.22 20.45-45.67 45.66-45.67h3.21c25.22 0 45.66 20.45 45.66 45.67zm-50.71 17.13h-36.91v57.5h36.91v-57.5zm0-55.84c-9.97 0.53-19.35 4.87-26.22 12.12c-6.87 7.25-10.69 16.85-10.69 26.83v9.99h36.91v-48.94zm43.81 55.84h-36.91v57.5h36.91v-57.5zm0-16.9c0-9.98-3.82-19.58-10.69-26.83c-6.87-7.24-16.25-11.58-26.22-12.12v48.94h36.91v-9.99z" />
	<path id="Layer" class="s8" d="m1302.77 349.44c-0.72-0.52-1.25-1.26-1.52-2.11l-8.95-28.28c-0.24-0.75-0.29-1.54-0.17-2.31c0.13-0.77 0.44-1.5 0.9-2.13c0.46-0.63 1.06-1.14 1.76-1.5c0.7-0.35 1.47-0.54 2.25-0.54h40.24c1.06 0 2.09 0.33 2.94 0.96c0.85 0.62 1.49 1.5 1.81 2.51l9.17 28.99c0.82 2.58-1.11 5.21-3.81 5.21h-42.16c-0.89 0-1.75-0.28-2.46-0.81z" />
	<path id="Layer" class="s6" d="m1314.41 328.47c1.11-1.51 6.14 2.49 6.5 2.82c0.2-0.33 2.81-4.33 4.73-2.82c1.67 1.31-1.98 7.18-2.97 8.67c-0.04 0.04-0.09 0.08-0.14 0.11c-0.06 0.02-0.12 0.04-0.18 0.04c-0.06 0-0.12-0.01-0.18-0.04c-0.05-0.03-0.1-0.06-0.14-0.11c-1.79-1.51-8.58-7.37-7.62-8.67z" />
	<path id="Layer" class="s6" d="m1319.01 327.4c-0.4-1.28-0.39-2.43 0.03-2.56c0.42-0.13 1.09 0.8 1.49 2.09c0.4 1.28 0.38 2.43-0.04 2.56c-0.42 0.13-1.09-0.8-1.48-2.09z" />
	<path id="Layer" class="s10" d="m1300.11 344.13c0 0-4.09-0.87-3.07-4.69c0 0-2.51-2.5-0.71-4.97c0 0-2.48-1.8-0.68-4.28c0.12-0.16-1.39-1.06-0.48-3.31c1.34-3.28 7.45-8.25 8.65-6.79c2.07 2.51-2.46 6.69-2.27 6.64c2.4-0.58 4.73-0.52 5.35 0.56c1.09 1.88-0.64 3.24-0.64 3.24c0 0 2.18 0.26 2.63 2.07c0.55 2.2-2.18 3.06-2.18 3.06c0 0 2.14 1.07 1.01 3c-1.26 2.17-4.93 1.41-7.46 3.24l-0.15 2.24z" />
	<path id="Layer" class="s28" d="m1307.04 335.26c-2.68 0.01-7.62 0.45-9.97 3.33" />
	<path id="Layer" class="s28" d="m1306.54 330.07c-2.15 0.27-7.21 1.15-10.2 3.75" />
	<path id="Layer" class="s28" d="m1302.05 326.04c-1.93 0.64-4.37 1.71-6.21 3.37" />
	<path id="Layer" class="s10" d="m1415.09 351.53l-2.95 9.17c-5.75 14.15-21.15 29.09-27.05 25.65c-16.17-13.22-21.31-20.83-21.31-20.83c-13.99-26.12-10.64-21.14-12.74-23.17c0 0-25.71-1.08-24.04-6.74c0 0-4.11-1.06-2.05-4.69c0 0-2.81-2.06-0.5-3.89c2.31-1.83 11.33-1.76 11.33-1.76c0 0-8.16-2.27-8.96-5.38c-0.81-3.11 12.1 0.25 14.98 1.16c2.88 0.91 9.94 3.64 14.17 6.4c9.37 6.12 25.24 28.23 25.24 28.23l3.88 5.02l6.74-9.47l23.26 0.3z" />
	<path id="Layer" class="s12" d="m1382.12 355.88l2.74 3.94" />
	<path id="Layer" class="s20" d="m1335.02 324.77c2.79 0.02 6.94 0.1 9.74 0.33" />
	<path id="Layer" class="s20" d="m1344.21 329.94c-7.89-0.68-16.13 0.24-19.08 0.65" />
	<path id="Layer" class="s20" d="m1343.46 335.18c-5.34-0.33-12.16 0.06-16.11 0.36" />
	<g id="Layer">
		<path id="Layer" class="s2" d="m-0.29-56.1h1440v56h-1440v-56z" />
	</g>
	<g id="Layer" style="opacity: .8">
		<path id="Layer" class="s29" d="m632.45 54.92l-23.42 24.45l-23.42-24.45l-23.4 24.45l-23.4-24.45l-23.4 24.45l-23.4-24.45" />
		<path id="Layer" class="s29" d="m632.45 88.2l-23.42 24.45l-23.42-24.45l-23.4 24.45l-23.4-24.45l-23.4 24.45l-23.4-24.45" />
		<path id="Layer" class="s29" d="m632.45 22l-23.42 24.45l-23.42-24.45l-23.4 24.45l-23.4-24.45l-23.4 24.45l-23.4-24.45" />
	</g>
	<path id="Layer" class="s30" d="m322.62 300.56l-1.67-1.28c22.21-29.16 33.95-63.99 33.95-100.75c0-56.94-28.65-109.33-76.64-140.14l1.14-1.77c48.6 31.18 77.6 84.23 77.6 141.9c0 37.21-11.9 72.49-34.38 102.03z" />
	<path id="Layer" class="s30" d="m188.51 367.02c-92.91 0-168.51-75.6-168.51-168.51c0-92.91 75.6-168.51 168.51-168.51v2.1c-91.76 0-166.39 74.65-166.39 166.39c0 91.76 74.65 166.39 166.39 166.39c27.73 0 55.18-6.95 79.37-20.11l1 1.85c-24.5 13.37-52.31 20.4-80.37 20.4z" />
	<path id="Layer" class="s30" d="m108.77 328.22c-45.4-27.96-72.49-76.46-72.49-129.71h4.22c0 51.78 26.35 98.92 70.49 126.12l-2.22 3.59z" />
	<path id="Layer" class="s30" d="m188.51 350.76c-16.69 0-33.09-2.69-48.75-7.97l1.35-3.99c15.24 5.14 31.18 7.76 47.42 7.76c76.24 0 139.57-57.12 147.24-132.87l4.2 0.43c-7.93 77.87-73.04 136.64-151.47 136.64z" />
	<path id="Layer" class="s30" d="m334.64 174.87c-5.52-34.34-23.15-65.82-49.68-88.61c-26.8-23.05-61.07-35.74-96.45-35.74c-28.57 0-56.29 8.15-80.19 23.58c-27.84 17.99-49.09 45.08-59.83 76.3l-3.99-1.37c11.03-32.1 32.89-59.97 61.52-78.46c24.58-15.87 53.09-24.25 82.47-24.25c36.4 0 71.63 13.06 99.2 36.76c27.27 23.44 45.42 55.82 51.09 91.15l-4.14 0.65z" />
	<path id="Layer" class="s30" d="m188.51 308.47c-60.63 0-109.96-49.32-109.96-109.96c0-24.54 7.91-47.75 22.86-67.11l3.34 2.57c-14.37 18.63-21.97 40.94-21.97 64.54c0 58.3 47.44 105.74 105.74 105.74c10.35 0 20.58-1.49 30.38-4.44l1.22 4.05c-10.21 3.08-20.85 4.62-31.59 4.62z" />
	<path id="Layer" class="s30" d="m262.77 279.6l-2.85-3.1c21.81-19.99 34.32-48.4 34.32-77.97c0-20.81-6.05-40.96-17.48-58.26l3.51-2.32c11.9 17.99 18.18 38.94 18.18 60.59c-0.02 30.73-13.02 60.28-35.7 81.05z" />
	<path id="Layer" class="s30" d="m254.29 115.73c-18.87-15.02-41.63-22.95-65.78-22.95c-21.19 0-41.63 6.24-59.12 18.06l-2.36-3.5c18.18-12.29 39.45-18.77 61.48-18.77c25.13 0 48.79 8.25 68.41 23.88l-2.63 3.28z" />
	<path id="Layer" class="s30" d="m188.51 289.58c-14.81 0-29.51-3.63-42.51-10.5l0.98-1.87c12.7 6.71 27.06 10.27 41.51 10.27c39.92 0 75.18-26.84 85.77-65.29l2.02 0.57c-10.8 39.35-46.91 66.82-87.77 66.82z" />
	<path id="Layer" class="s30" d="m124.13 262.93c-17.2-17.2-26.68-40.07-26.68-64.4c0-50.21 40.84-91.07 91.07-91.07c50.21 0 91.07 40.86 91.07 91.07h-2.1c0-49.05-39.9-88.95-88.95-88.95c-49.05 0-88.95 39.9-88.95 88.95c0 23.76 9.25 46.1 26.08 62.91l-1.53 1.49z" />
	<path id="Layer" class="s30" d="m188.51 255.16c-31.24 0-56.65-25.41-56.65-56.65c0-31.24 25.41-56.65 56.65-56.65v4.22c-28.9 0-52.43 23.52-52.43 52.43c0 28.9 23.52 52.43 52.43 52.43c28.9 0 52.43-23.52 52.43-52.43h4.22c-0.02 31.24-25.43 56.65-56.65 56.65z" />
	<path id="Layer" class="s30" d="m188.51 226.67c-15.53 0-28.16-12.63-28.16-28.16h2.1c0 14.35 11.68 26.04 26.04 26.04c14.35 0 26.04-11.68 26.04-26.04c0-14.35-11.68-26.04-26.04-26.04c-7.97 0-15.39 3.57-20.38 9.82l-1.65-1.32c5.38-6.75 13.41-10.62 22.03-10.62c15.53 0 28.16 12.63 28.16 28.16c0 15.53-12.63 28.16-28.14 28.16z" />
	<path id="Layer" class="s30" d="m604.19 414.44l-0.77-0.59c10.21-13.41 15.62-29.43 15.62-46.34c0-26.19-13.18-50.29-35.25-64.45l0.52-0.81c22.35 14.34 35.69 38.74 35.69 65.27c0 17.11-5.47 33.34-15.81 46.93z" />
	<path id="Layer" class="s30" d="m542.5 445.01c-42.74 0-77.5-34.77-77.5-77.5c0-42.74 34.77-77.5 77.5-77.5v0.97c-42.2 0-76.53 34.34-76.53 76.53c0 42.2 34.34 76.53 76.53 76.53c12.75 0 25.38-3.2 36.5-9.25l0.46 0.85c-11.27 6.15-24.06 9.38-36.96 9.38z" />
	<path id="Layer" class="s30" d="m505.83 427.16c-20.88-12.86-33.34-35.17-33.34-59.66h1.94c0 23.81 12.12 45.5 32.42 58.01l-1.02 1.65z" />
	<path id="Layer" class="s30" d="m542.51 437.53c-7.68 0-15.22-1.24-22.42-3.67l0.62-1.83c7.01 2.37 14.34 3.57 21.81 3.57c35.07 0 64.19-26.27 67.72-61.11l1.93 0.2c-3.65 35.82-33.6 62.85-69.67 62.85z" />
	<path id="Layer" class="s30" d="m609.72 356.63c-2.54-15.79-10.65-30.27-22.85-40.76c-12.33-10.6-28.09-16.44-44.36-16.44c-13.14 0-25.89 3.75-36.88 10.85c-12.81 8.27-22.58 20.74-27.52 35.1l-1.83-0.63c5.07-14.76 15.13-27.58 28.29-36.09c11.31-7.3 24.42-11.15 37.93-11.15c16.74 0 32.95 6.01 45.63 16.91c12.54 10.78 20.89 25.68 23.5 41.92l-1.9 0.3z" />
	<path id="Layer" class="s30" d="m542.5 418.08c-27.89 0-50.57-22.69-50.57-50.57c0-11.29 3.64-21.96 10.51-30.87l1.54 1.18c-6.61 8.57-10.11 18.83-10.11 29.69c0 26.81 21.82 48.63 48.63 48.63c4.76 0 9.47-0.69 13.97-2.04l0.56 1.86c-4.7 1.42-9.59 2.12-14.53 2.12z" />
	<path id="Layer" class="s30" d="m576.66 404.8l-1.31-1.43c10.03-9.19 15.79-22.26 15.79-35.86c0-9.57-2.78-18.84-8.04-26.8l1.62-1.07c5.47 8.27 8.36 17.91 8.36 27.87c-0.01 14.13-5.99 27.73-16.42 37.28z" />
	<path id="Layer" class="s30" d="m572.76 329.43c-8.68-6.91-19.15-10.56-30.25-10.56c-9.75 0-19.15 2.87-27.19 8.31l-1.08-1.61c8.36-5.65 18.14-8.63 28.28-8.63c11.56 0 22.44 3.79 31.46 10.98l-1.21 1.51z" />
	<path id="Layer" class="s30" d="m542.5 409.39c-6.81 0-13.57-1.67-19.55-4.83l0.45-0.86c5.84 3.09 12.44 4.72 19.09 4.72c18.36 0 34.58-12.35 39.45-30.03l0.93 0.26c-4.97 18.1-21.58 30.73-40.37 30.73z" />
	<path id="Layer" class="s30" d="m512.89 397.13c-7.91-7.91-12.27-18.43-12.27-29.62c0-23.09 18.78-41.89 41.89-41.89c23.09 0 41.89 18.79 41.89 41.89h-0.97c0-22.56-18.35-40.91-40.91-40.91c-22.56 0-40.91 18.35-40.91 40.91c0 10.93 4.25 21.21 11.99 28.94l-0.7 0.69z" />
	<path id="Layer" class="s30" d="m542.5 393.56c-14.37 0-26.05-11.69-26.05-26.06c0-14.37 11.69-26.06 26.05-26.06v1.94c-13.29 0-24.11 10.82-24.11 24.11c0 13.29 10.82 24.11 24.11 24.11c13.29 0 24.11-10.82 24.11-24.11h1.94c-0.01 14.37-11.69 26.06-26.05 26.06z" />
	<path id="Layer" class="s30" d="m542.5 380.45c-7.14 0-12.95-5.81-12.95-12.95h0.97c0 6.6 5.37 11.97 11.98 11.97c6.6 0 11.98-5.37 11.98-11.97c0-6.6-5.37-11.98-11.98-11.98c-3.67 0-7.08 1.64-9.37 4.52l-0.76-0.61c2.47-3.11 6.17-4.89 10.13-4.89c7.14 0 12.95 5.81 12.95 12.95c0 7.14-5.81 12.95-12.94 12.95z" />
	<path id="Layer" class="s30" d="m1404.48 167.37l-1.02-0.78c13.57-17.82 20.75-39.11 20.75-61.58c0-34.81-17.51-66.83-46.84-85.66l0.69-1.08c29.71 19.06 47.43 51.49 47.43 86.74c0 22.74-7.27 44.31-21.01 62.36z" />
	<path id="Layer" class="s30" d="m1322.51 208c-56.8 0-103-46.21-103-103c0-56.79 46.2-103 103-103v1.28c-56.09 0-101.71 45.63-101.71 101.7c0 56.09 45.63 101.7 101.71 101.7c16.94 0 33.72-4.25 48.51-12.29l0.61 1.13c-14.98 8.17-31.97 12.47-49.12 12.47z" />
	<path id="Layer" class="s30" d="m1273.77 184.28c-27.75-17.09-44.31-46.73-44.31-79.28h2.58c0 31.65 16.1 60.47 43.08 77.09l-1.35 2.2z" />
	<path id="Layer" class="s30" d="m1322.51 198.06c-10.2 0-20.23-1.64-29.8-4.87l0.82-2.44c9.32 3.15 19.06 4.74 28.99 4.74c46.6 0 85.31-34.91 90-81.22l2.57 0.26c-4.85 47.6-44.65 83.52-92.58 83.52z" />
	<path id="Layer" class="s30" d="m1411.83 90.55c-3.38-20.99-14.15-40.23-30.37-54.16c-16.38-14.09-37.33-21.84-58.95-21.84c-17.47 0-34.41 4.98-49.02 14.41c-17.02 10.99-30 27.56-36.57 46.64l-2.43-0.84c6.74-19.62 20.1-36.65 37.6-47.96c15.02-9.7 32.45-14.82 50.41-14.82c22.25 0 43.78 7.98 60.63 22.47c16.67 14.33 27.76 34.12 31.23 55.71l-2.53 0.4z" />
	<path id="Layer" class="s30" d="m1322.51 172.21c-37.06 0-67.21-30.15-67.21-67.21c0-15 4.83-29.19 13.97-41.02l2.04 1.57c-8.79 11.39-13.43 25.02-13.43 39.45c0 35.63 28.99 64.63 64.63 64.63c6.32 0 12.57-0.91 18.56-2.71l0.75 2.47c-6.24 1.88-12.75 2.82-19.31 2.82z" />
	<path id="Layer" class="s30" d="m1367.9 154.57l-1.74-1.9c13.33-12.22 20.98-29.58 20.98-47.66c0-12.72-3.7-25.04-10.69-35.61l2.15-1.42c7.28 10.99 11.12 23.8 11.12 37.04c-0.01 18.78-7.96 36.85-21.82 49.54z" />
	<path id="Layer" class="s30" d="m1362.71 54.4c-11.53-9.18-25.44-14.03-40.2-14.03c-12.95 0-25.45 3.82-36.14 11.04l-1.44-2.14c11.11-7.51 24.11-11.47 37.58-11.47c15.36 0 29.82 5.04 41.81 14.59l-1.61 2z" />
	<path id="Layer" class="s30" d="m1322.51 160.66c-9.05 0-18.04-2.22-25.99-6.42l0.6-1.14c7.77 4.1 16.54 6.28 25.38 6.28c24.4 0 45.95-16.41 52.42-39.91l1.24 0.35c-6.61 24.05-28.68 40.84-53.65 40.84z" />
	<path id="Layer" class="s30" d="m1283.15 144.38c-10.51-10.51-16.31-24.5-16.31-39.37c0-30.69 24.97-55.66 55.67-55.66c30.69 0 55.66 24.98 55.66 55.66h-1.28c0-29.98-24.39-54.37-54.37-54.37c-29.98 0-54.37 24.39-54.37 54.37c0 14.52 5.65 28.18 15.94 38.45l-0.94 0.91z" />
	<path id="Layer" class="s30" d="m1322.51 139.63c-19.1 0-34.63-15.53-34.63-34.63c0-19.09 15.53-34.63 34.63-34.63v2.58c-17.67 0-32.05 14.38-32.05 32.04c0 17.67 14.38 32.04 32.05 32.04c17.66 0 32.04-14.38 32.04-32.04h2.58c-0.01 19.09-15.54 34.63-34.62 34.63z" />
	<path id="Layer" class="s30" d="m1322.51 122.21c-9.5 0-17.21-7.72-17.21-17.21h1.28c0 8.77 7.14 15.91 15.92 15.91c8.77 0 15.91-7.14 15.91-15.91c0-8.77-7.14-15.91-15.91-15.91c-4.88 0-9.41 2.18-12.46 6l-1.01-0.8c3.29-4.13 8.2-6.49 13.47-6.49c9.49 0 17.21 7.72 17.21 17.21c0 9.49-7.72 17.21-17.2 17.21z" />
	<path id="Layer" fill-rule="evenodd" class="s2" d="m96.5 98.17v13.33h13.33v1.67h-13.33c-0.44 0-0.87-0.17-1.18-0.49c-0.31-0.31-0.49-0.74-0.49-1.18v-13.33h1.67zm15-3.33c0.44 0 0.87 0.18 1.18 0.49c0.31 0.31 0.49 0.74 0.49 1.18v11.67c0 0.92-0.74 1.67-1.67 1.67h-11.67c-0.44 0-0.87-0.18-1.18-0.49c-0.31-0.31-0.49-0.74-0.49-1.18v-11.67c0-0.92 0.74-1.67 1.67-1.67h11.67zm-11.67 1.67v11.67h11.67v-11.67h-11.67zm7.5 10h-5.83v-1.67h5.83v1.67zm2.5-3.33h-8.33v-1.67h8.33v1.67zm0-3.33h-8.33v-1.67h8.33v1.67z" />
	<g id="Layer" style="opacity: .6">
		<path id="Layer" class="s29" d="m1087.45 272.92l-23.42 24.45l-23.42-24.45l-23.4 24.45l-23.4-24.45l-23.4 24.45l-23.4-24.45" />
		<path id="Layer" class="s29" d="m1087.45 306.2l-23.42 24.45l-23.42-24.45l-23.4 24.45l-23.4-24.45l-23.4 24.45l-23.4-24.45" />
		<path id="Layer" class="s29" d="m1087.45 240l-23.42 24.45l-23.42-24.45l-23.4 24.45l-23.4-24.45l-23.4 24.45l-23.4-24.45" />
	</g>
</svg>