<svg version="1.2" baseProfile="tiny-ps" xmlns="http://www.w3.org/2000/svg" viewBox="0 0 1440 500" width="1440" height="500">
	<title>Group 1000001890-svg-svg</title>
	<defs>
		<clipPath clipPathUnits="userSpaceOnUse" id="cp1">
			<path d="m1440 436h-1440v-436h1440v436z" />
		</clipPath>
	</defs>
	<style>
		tspan { white-space:pre }
		.s0 { fill: #f0f0f0 } 
		.s1 { fill: none;stroke: #000000;stroke-width: 4;stroke-dasharray: 8 } 
		.s2 { fill: #ffffff } 
		.s3 { opacity: .2;fill: #ffcdd2 } 
		.s4 { fill: #000000 } 
		.s5 { fill: #ca7358 } 
		.s6 { fill: #ffbe21 } 
		.s7 { fill: none;stroke: #ca7358;stroke-width: 4 } 
		.s8 { fill: #30242a } 
		.s9 { fill: #ffb7d5 } 
		.s10 { fill: #eaa58b } 
		.s11 { fill: none;stroke: #f5ebdd;stroke-linecap:round;stroke-linejoin:round;stroke-width: 4 } 
		.s12 { fill: none;stroke: #a15842;stroke-linecap:round;stroke-linejoin:round;stroke-width: 2 } 
		.s13 { fill: none;stroke: #a15842;stroke-linecap:round;stroke-linejoin:round;stroke-width: 4 } 
		.s14 { fill: none;stroke: #f5ebdd;stroke-linecap:round;stroke-width: 4 } 
		.s15 { fill: #4756df } 
		.s16 { fill: none;stroke: #3ec1f3;stroke-linecap:round;stroke-width: 4 } 
		.s17 { fill: none;stroke: #30242a;stroke-linecap:round;stroke-width: 4 } 
		.s18 { fill: #ff7235 } 
		.s19 { fill: none;stroke: #ff7235;stroke-width: 2 } 
		.s20 { fill: none;stroke: #a15842;stroke-linecap:round;stroke-linejoin:round;stroke-width: 1.5 } 
		.s21 { fill: #fd8369 } 
		.s22 { fill: #dfdfdf } 
		.s23 { fill: #56cad8 } 
		.s24 { fill: #a15842 } 
		.s25 { fill: none;stroke: #ffb7d5;stroke-linecap:round;stroke-linejoin:round;stroke-width: 4 } 
		.s26 { fill: #f5ebdd } 
		.s27 { fill: #ffcdd2 } 
		.s28 { fill: none;stroke: #a15842;stroke-linecap:round;stroke-linejoin:round } 
		.s29 { fill: none;stroke: #cb9ca1;stroke-opacity:.4;stroke-width: 2 } 
		.s30 { opacity: .6;fill: #ffcdd2 } 
	</style>
	<path id="Layer" class="s0" d="m1440 500h-1440v-500h1440v500z" />
	<path id="Layer" class="s1" d="m12073 6357h-30061v-6843h30061v6843z" />
	<path id="Layer" class="s2" d="m1440 2760h-1440v-2865h1440v2865z" />
	<g id="Clip-Path: Clip-Path" clip-path="url(#cp1)">
		<g id="Clip-Path">
			<g id="Layer">
				<path id="Layer" class="s2" d="m857.5 231.45c0-201.51 162.88-364.39 364.39-364.39c201.51 0 364.39 162.88 364.39 364.39c0 201.51-162.88 364.39-364.39 364.39c-201.51 0-364.39-162.88-364.39-364.39z" />
			</g>
		</g>
	</g>
	<path id="Layer" class="s3" d="m1440 498h-1440v-498h1440v498z" />
	<path id="Layer" class="s4" d="m267.71 497.36c-0.49-0.27-0.9-0.66-1.2-1.14l-14.9-24.57h12.75l8.02 21.72c0.18 0.5 0.24 1.03 0.17 1.55c-0.07 0.52-0.26 1.02-0.56 1.45c-0.3 0.43-0.7 0.79-1.17 1.03c-0.46 0.24-0.98 0.37-1.51 0.37c-0.56 0-1.11-0.14-1.6-0.41z" />
	<path id="Layer" class="s4" d="m157.43 497.36c-0.49 0.27-1.05 0.41-1.61 0.41c-0.52 0-1.04-0.13-1.51-0.37c-0.46-0.25-0.87-0.6-1.17-1.03c-0.3-0.43-0.49-0.93-0.56-1.45c-0.06-0.53 0-1.06 0.18-1.55l8.01-21.72h12.75l-14.9 24.57c-0.29 0.47-0.71 0.87-1.19 1.14v0z" />
	<path id="Layer" class="s5" d="m142.96 407.11h138.68v72.45h-138.68v-72.45z" />
	<path id="Layer" class="s6" d="m152.55 416.44h120.03v53.79h-120.03v-53.79z" />
	<path id="Layer" class="s7" d="m152.4 443.42h120.18" />
	<path id="Layer" class="s8" d="m212.57 433.93c-1.89 0-3.42-1.53-3.42-3.42c0-1.89 1.53-3.42 3.42-3.42c1.89 0 3.42 1.53 3.42 3.42c0 1.89-1.53 3.42-3.42 3.42z" />
	<path id="Layer" class="s8" d="m212.57 460.05c-1.89 0-3.42-1.53-3.42-3.42c0-1.89 1.53-3.42 3.42-3.42c1.89 0 3.42 1.53 3.42 3.42c0 1.89-1.53 3.42-3.42 3.42z" />
	<path id="Layer" class="s9" d="m171.87 383.05c6.67 0 13.06 2.65 17.78 7.37c4.72 4.71 7.37 11.11 7.37 17.78v89.57h-83.34v-114.72h58.19v0z" />
	<path id="Layer" class="s9" d="m107.5 320.83c6.67 0 13.07 2.65 17.79 7.37c4.71 4.72 7.36 11.12 7.36 17.79v151.78h-132.46v-151.78c0-6.67 2.65-13.06 7.36-17.78c4.72-4.72 11.12-7.37 17.79-7.37h82.16l0-0.01z" />
	<path id="Layer" class="s9" d="m137.04 413.68c6.67 0 13.07 2.65 17.78 7.37c4.72 4.71 7.37 11.11 7.37 17.78v58.94h-162v-58.94c0-6.67 2.65-13.06 7.36-17.78c4.72-4.72 11.12-7.37 17.79-7.37h111.7l0 0z" />
	<path id="Layer" class="s7" d="m83.99 441.6h67.83" />
	<path id="Layer" class="s7" d="m162.19 438.83v58.94" />
	<path id="Layer" class="s7" d="m0.19 382.67h52.59" />
	<path id="Layer" class="s8" d="m61.16 367.89l40.09 0.14c0 0 29.23 6.54 44.15 14.93c15.35 8.63 16.79 20.74 26.37 49.84c4.21 12.75 6.32 21.9 8.58 28.17l-26.09 12.32c-1.24-2.31-2.35-4.58-3.26-6.69c0 0-11.96-0.54-13.1-16.54c-0.85-11.96-1.26-20.81-5.44-29.74l-71.3-52.44v0.01z" />
	<path id="Layer" class="s8" d="m190.8 482.46c-0.6-3.42-0.51-6.92 0.25-10.3c0.13 0.02 0.26 0.04 0.39 0.06c9.24 1.4 13.1 3.2 14.62 7.39l-38.56 17.97c-0.44 0.2-0.94 0.25-1.41 0.13c-0.47-0.13-0.88-0.41-1.17-0.8c-0.16-0.23-0.28-0.48-0.34-0.75c-0.07-0.27-0.08-0.55-0.03-0.82c0.04-0.27 0.14-0.53 0.29-0.77c0.15-0.24 0.34-0.44 0.56-0.6l25.4-11.53v0.02z" />
	<path id="Layer" class="s10" d="m160.21 483.5c-2.01-3.22-4.1-6.77-5.95-10.24l26.09-12.32c1.33 3.7 2.72 6.4 4.62 8.25c1.58 1.55 3.52 2.49 6.08 2.94c-0.76 3.38-0.85 6.88-0.25 10.3l-25.41 11.53c0.1-0.07 0.2-0.13 0.31-0.18l0.93-0.44c-1.51-2.17-3.88-5.73-6.42-9.83l0-0.01z" />
	<path id="Layer" class="s11" d="m151.21 467.03l27.15-12.72" />
	<path id="Layer" class="s8" d="m47.8 392.76c-1.32-3.93-1.81-8.08-1.44-12.21l1.09-11.98h21.46c0 0 36.07 8.64 51.4 15.99c15.26 7.32 13.43 24.3 10.56 54.04c-1.47 15.16-3.3 25.57-3.21 32.94h-28.29c-0.16-2.39-0.26-4.91-0.32-7.57c0 0-11.03-5.22-5.28-22.17c3.85-11.35 7.18-18.86 7.18-28.72h-24.89c-4.14 0-8.24-0.86-12.03-2.53c-3.79-1.67-7.19-4.11-9.99-7.17c-2.79-3.06-4.92-6.66-6.24-10.59v-0.03z" />
	<path id="Layer" class="s8" d="m129.54 494.17c0 0 1.56-5.25 4.84-8.77c7.19 4.89 9.73 8.08 9.33 12.36l-42.57-0.06c-0.46-0.02-0.89-0.21-1.2-0.54c-0.32-0.33-0.5-0.76-0.5-1.22c0-0.46 0.18-0.9 0.5-1.23c0.31-0.33 0.74-0.52 1.2-0.54h28.4v0z" />
	<path id="Layer" class="s10" d="m99.36 471.56h28.3c0.06 4.2 0.73 7.41 2.46 9.95c0.93 1.35 2.12 2.49 3.5 3.38l0.76 0.51c-3.28 3.51-4.84 8.77-4.84 8.77h-26.89c-1.02-4.17-1.8-8.4-2.34-12.66c-0.38-2.97-0.72-6.3-0.95-9.95v0z" />
	<path id="Layer" class="s12" d="m100.62 377.03c6.88 2.19 14.99 4.88 20.22 7.46c11.94 5.89 13.46 17.37 12.17 36.48" />
	<path id="Layer" class="s13" d="m101.25 413.83h7.71" />
	<path id="Layer" class="s14" d="m99.07 464.51h28.92" />
	<path id="Layer" class="s9" d="m58.37 383.05c6.67 0 13.07 2.65 17.78 7.37c4.72 4.71 7.37 11.11 7.37 17.78v89.57h-83.33v-114.72h58.18v0z" />
	<path id="Layer" class="s7" d="m84.14 413.1v84.29" />
	<path id="Layer" class="s15" d="m302.9 452.59c7.15 0 12.98-4.29 13.2-9.64v54.73h-26.43v-54.73c0.24 5.35 6.07 9.64 13.23 9.64z" />
	<path id="Layer" class="s16" d="m290.22 479.85c4.55-2.51 10.86-6.86 14.7-13.26c6.53-10.88-4.82-14.14-6.37-2.64c-1.94 14.35 8.39 20.42 17.06 21.35" />
	<path id="Layer" class="s16" d="m315.69 472.36c-5.17 3.54-14.33 11.67-17.82 24.77" />
	<path id="Layer" class="s16" d="m315.72 489.87c-3.39 1-7.74 3.17-11.01 7.3" />
	<path id="Layer" class="s16" d="m306.25 445.8c2.2 3.83 5.48 6.94 9.44 8.92" />
	<path id="Layer" class="s8" d="m302.9 452.59c-7.15 0-12.99-4.29-13.21-9.64h26.42c-0.23 5.35-6.05 9.64-13.21 9.64z" />
	<path id="Layer" class="s17" d="m310.36 394.91l-7.15 53.79" />
	<path id="Layer" class="s17" d="m312.65 416.59l-8.36 31.66" />
	<path id="Layer" class="s8" d="m286.7 429.23c-5.95-2.55-10.21-5.94-9.51-7.59c0.71-1.65 6.1-0.92 12.06 1.63c5.96 2.55 10.21 5.94 9.51 7.59c-0.7 1.65-6.1 0.92-12.06-1.63z" />
	<path id="Layer" class="s8" d="m321.88 433.96c-7.24 2.74-13.61 3.65-14.22 2.04c-0.6-1.61 4.78-5.13 12.02-7.86c7.25-2.73 13.62-3.64 14.22-2.03c0.61 1.61-4.77 5.13-12.02 7.86v-0.01z" />
	<path id="Layer" class="s8" d="m297.77 418.87c-4.19-3.15-6.94-6.58-6.14-7.64c0.8-1.07 4.85 0.63 9.04 3.79c4.2 3.15 6.95 6.58 6.14 7.64c-0.8 1.07-4.84-0.63-9.04-3.79z" />
	<path id="Layer" class="s17" d="m293.88 401.44l8.09 49.75" />
	<path id="Layer" class="s9" d="m314.35 411.71c-1.88-2.32-4.35-4.09-7.14-5.13c0.74-1.23 1.78-2.28 3.01-3.03c1.23-0.75 2.63-1.2 4.07-1.3c1.45-0.1 2.89 0.15 4.22 0.72c1.33 0.57 2.5 1.46 3.41 2.58c0.91 1.12 1.54 2.44 1.84 3.86c0.29 1.42 0.24 2.89-0.15 4.28c-0.39 1.39-1.12 2.66-2.1 3.72c-0.99 1.06-2.22 1.86-3.59 2.34c-0.45-2.94-1.69-5.72-3.57-8.03v-0.01z" />
	<path id="Layer" class="s14" d="m311.33 412.19c1.64-3.75 4.59-6.77 8.29-8.5" />
	<path id="Layer" class="s14" d="m312.69 413.55c2.85-2.96 6.69-4.77 10.79-5.08" />
	<path id="Layer" class="s18" d="m314.35 411.71c1.88 2.32 3.12 5.09 3.57 8.04c-1.75 0.62-3.65 0.68-5.44 0.18c-1.78-0.51-3.37-1.55-4.55-2.99c-1.17-1.44-1.87-3.21-2-5.06c-0.13-1.85 0.32-3.7 1.28-5.29c2.79 1.05 5.26 2.82 7.14 5.13v-0.01z" />
	<path id="Layer" class="s9" d="m320.52 389.05c-2.92-0.61-5.95-0.44-8.78 0.51c-2.83 0.95-5.35 2.63-7.32 4.88c-0.89-1.14-1.5-2.47-1.77-3.89c-0.27-1.42-0.2-2.89 0.22-4.27c0.41-1.39 1.15-2.65 2.16-3.69c1.01-1.04 2.25-1.82 3.62-2.28c1.37-0.46 2.83-0.59 4.26-0.36c1.43 0.23 2.78 0.79 3.95 1.65c1.16 0.86 2.1 1.98 2.74 3.28c0.64 1.3 0.95 2.74 0.92 4.18l0-0.01z" />
	<path id="Layer" class="s14" d="m314.05 391.58c0.61-4.04-0.26-8.17-2.46-11.62" />
	<path id="Layer" class="s14" d="m312.17 392c-0.82-4.03-3.1-7.61-6.39-10.06" />
	<path id="Layer" class="s18" d="m304.42 394.45c1.97-2.25 4.49-3.93 7.32-4.88c2.83-0.95 5.86-1.12 8.78-0.51c-0.04 1.85-0.65 3.65-1.75 5.15c-1.1 1.49-2.64 2.61-4.4 3.2c-1.77 0.59-3.67 0.62-5.45 0.09c-1.78-0.53-3.35-1.6-4.5-3.06l0 0.01z" />
	<path id="Layer" class="s9" d="m298.88 389.71c-2.66 1.37-4.89 3.42-6.49 5.94c-1.59 2.52-2.49 5.42-2.59 8.4c-1.41-0.31-2.73-0.96-3.83-1.89c-1.11-0.93-1.98-2.12-2.54-3.45c-0.55-1.34-0.78-2.79-0.65-4.23c0.12-1.44 0.59-2.83 1.36-4.05c0.77-1.22 1.83-2.24 3.08-2.97c1.25-0.73 2.66-1.15 4.1-1.22c1.45-0.07 2.89 0.21 4.2 0.81c1.32 0.6 2.47 1.51 3.36 2.65l0 0.01z" />
	<path id="Layer" class="s14" d="m295.44 395.74c-2.07-3.53-5.35-6.18-9.24-7.46" />
	<path id="Layer" class="s14" d="m294.26 397.25c-3.18-2.6-7.21-3.94-11.32-3.76" />
	<path id="Layer" class="s18" d="m289.8 404.04c0.1-2.98 1-5.88 2.59-8.4c1.6-2.52 3.83-4.57 6.48-5.94c1.15 1.46 1.81 3.25 1.9 5.1c0.09 1.85-0.39 3.69-1.39 5.26c-0.99 1.57-2.44 2.8-4.16 3.51c-1.71 0.71-3.61 0.87-5.42 0.47l0 0z" />
	<path id="Layer" class="s10" d="m50.7 302.99c2.52-0.85 8.84-3.38 11.06-8.06c-3.74-1.24-8.09-6.53-4.98-10.88c4.12-5.77 11.19 1.87 11.19 1.87c3-2.19 5.28-5.22 6.53-8.71c0.94 0.31 3.74 0.62 5.91 0c0 0 0.94 2.49 1.56 6.84c0.08 0.6 0.18 1.18 0.29 1.73c0 0 0.08 0.77 0.39 2.01c0.38 1.53 0.66 2.25 0.66 2.25c0.96 3.47 1.76 6.14 0.52 9.25c-1.09 2.74-3.42 5.91-10.88 4.98l0.43 3.26h-22.26c-0.12-1.3-0.27-2.85-0.42-4.53v-0.01z" />
	<path id="Layer" class="s19" d="m83.15 291.28c-2.24 0-4.05-1.82-4.05-4.05c0-2.24 1.81-4.05 4.05-4.05c2.23 0 4.04 1.81 4.04 4.05c0 2.24-1.81 4.05-4.04 4.05z" />
	<path id="Layer" class="s19" d="m73.05 291.28c-2.23 0-4.04-1.82-4.04-4.05c0-2.24 1.81-4.05 4.04-4.05c2.24 0 4.05 1.81 4.05 4.05c0 2.24-1.81 4.05-4.05 4.05z" />
	<path id="Layer" class="s19" d="m79.1 287.23h-2" />
	<path id="Layer" class="s19" d="m69.01 287.23h-8.47" />
	<path id="Layer" class="s10" d="m108.4 330.82c1.89 2.64 3.22 4.51 3.22 4.51c0 0 10.69-6.22 14.81-8.09c2.51-1.13 6.05-1.44 7.74-0.48c0.57 0.32 0.93 0.79 0.96 1.42c0.18 2.9-3.36 2.54-4.67 3.79l-5.14 7.23c-0.27 0.38-0.45 0.96-0.51 1.6c-0.05 0.65 0.02 1.31 0.2 1.85l2.56 7.56c-3.94 4.15-8.2 6.91-12.59 8.14c-4.05 1.15-8.97-3.44-12.49-7.67l5.91-19.86v0z" />
	<path id="Layer" class="s18" d="m51.49 311.43c0 0-0.15-1.54-0.37-3.89h22.26l0.5 3.89c0 0 10.93-0.23 18.66 4.66c5.84 3.69 15.57 10.31 22.04 14.75l-12.02 19.86c-3.26-1.91-6.4-4.02-9.4-6.32l8.09 23.63h-53.8l4.04-56.59v0.01z" />
	<path id="Layer" class="s20" d="m74.5 312.2l0.47 3.73" />
	<path id="Layer" class="s13" d="m89.28 331.48l4.19 12.44" />
	<path id="Layer" class="s12" d="m80.77 298.57c-0.51 0.31-2.44 0.57-3.22-0.91" />
	<path id="Layer" class="s4" d="m73.23 288.75c-0.52 0-0.94-0.42-0.94-0.93c0-0.51 0.42-0.93 0.94-0.93c0.51 0 0.93 0.41 0.93 0.93c0 0.51-0.42 0.93-0.93 0.93z" />
	<path id="Layer" class="s4" d="m81.39 288.12c-0.52 0-0.94-0.42-0.94-0.93c0-0.51 0.42-0.93 0.94-0.93c0.51 0 0.93 0.41 0.93 0.93c0 0.51-0.42 0.93-0.93 0.93z" />
	<path id="Layer" class="s12" d="m60.82 287.79l3.42 2.18" />
	<path id="Layer" class="s20" d="m69.26 308.15l0.5 4.03" />
	<path id="Layer" class="s20" d="m64.6 308.15l0.5 4.03" />
	<path id="Layer" class="s20" d="m59.94 308.15l0.5 4.03" />
	<path id="Layer" class="s12" d="m72.72 304.82c-1.48-0.26-3.54-0.81-5.21-1.95" />
	<path id="Layer" class="s13" d="m48.87 351.25l0.91-19.15" />
	<path id="Layer" fill-rule="evenodd" class="s21" d="m270.31 398.3c3.63-0.06 6.6 2.35 6.65 5.38c0.04 3.03-2.85 5.54-6.48 5.58l-39.5 0.6l-0.16-10.96l39.49-0.6z" />
	<path id="Layer" fill-rule="evenodd" class="s22" d="m271.59 398.03l-55.93 0.8l-0.11-7.63l55.93-0.79l0.11 7.62z" />
	<path id="Layer" fill-rule="evenodd" class="s23" d="m272.15 392.43l-40.49 0.58l-0.18-12.76l40.48-0.58l0.19 12.76z" />
	<path id="Layer" class="s9" d="m85.08 354.32l-0.22-7.84l4.11 5.18l6.4-2.2l-3.79 6.21l4.92 6.72l-6.49-2.69l-3.62 6.68l-0.41-7.35l-6.27-1.34l5.37-3.36v-0.01z" />
	<path id="Layer" class="s9" d="m73.04 330.02v-6.53l3.91 5.1l5.57-2.65l-3.3 5.5l5.15 4.28l-6.59-0.81l-2.27 7.55l-2.27-7.55l-7.21-2.04l7.01-2.86l0 0.01z" />
	<path id="Layer" class="s9" d="m60.91 345.86v-6.53l3.91 5.1l5.57-2.65l-3.3 5.51l5.16 4.28l-6.6-0.81l-2.27 7.55l-2.27-7.55l-7.21-2.04l7.01-2.86h0z" />
	<path id="Layer" class="s9" d="m100.57 349.89l-6.68-4.68l2.35-2.39l-3.12-4.98l6.04 2.49l4.3-3.08l-0.54 5.45l5.18 4.19l-6.41-0.33l-1.12 3.33z" />
	<path id="Layer" class="s9" d="m86.16 315.85l0.55-2.5l2.95 1.09l3.42 1.87l-1.9 1.83l3.29 3.65l-5.32-1.17l-3.1 3.16l-0.34-4.56l-4.87-2.69l5.32-0.66l0-0.02z" />
	<path id="Layer" fill-rule="evenodd" class="s21" d="m286.23 380.9l-55.93 0.8l-0.12-7.63l55.94-0.8l0.11 7.63z" />
	<path id="Layer" class="s18" d="m28.99 365.36c-7.04-11.51-2.88-30.48 0-41.01c2.31-8.49 10-12.78 14.69-12.78h7.81l2.49 47.89l-24.99 5.91v-0.01z" />
	<path id="Layer" class="s24" d="m51.57 273.73c-7.47 0-13.53-6.06-13.53-13.53c0-7.47 6.06-13.53 13.53-13.53c7.47 0 13.52 6.06 13.52 13.53c0 7.47-6.05 13.53-13.52 13.53z" />
	<path id="Layer" class="s8" d="m60.19 269.06c-0.84 0.38 6.18-15.95 9.76-13.4c3.36 2.4-5.53 11.49-9.76 13.4z" />
	<path id="Layer" class="s8" d="m60.09 270.22c-0.77 0.91-18.7-5.31-16.22-8.9c2.38-3.45 16.99 7.99 16.22 8.9z" />
	<path id="Layer" class="s24" d="m35.98 313.93c-2.85-3.78-6.27-10.63-1.38-17.98c4.68-7.05 17.43-4.24 17.43-4.24c-0.31-3.88-1.32-15.03 6.73-21.16c8.05-6.13 18.27-2.91 21.99 1.93c1.52 1.98 2.26 4.64 2.69 7.55c-2.47 0.44-6.1-0.45-6.1-0.45c-4.95 5.81-9.39 6.73-9.39 6.73c-3.47-3.61-9.55-3.49-10.54 1.98c-1.02 5.69 7.69 8.24 7.69 8.24c0 0 0.81 10.21-3.53 13.9c-1.33 1.1-2.91 1.84-4.59 2.14c-3.25 0.68-6.84 0.22-10.12 0.98c-2.88 0.64-5.64 1.79-8.16 3.39c-1-0.91-1.91-1.92-2.72-3.01h0z" />
	<path id="Layer" class="s9" d="m57.8 321.31v-6.53l3.91 5.1l5.57-2.65l-3.3 5.5l5.16 4.28l-6.6-0.81l-2.27 7.55l-2.27-7.55l-7.21-2.04l7.01-2.86l0 0.01z" />
	<path id="Layer" class="s9" d="m31.21 321.32l7.6-2.04l-4.91 6.89l5.17 8.19l-7.31-3.63l-5.17 5.05c1.76-12.53 3.33-14.1 3.96-15.35l0.66 0.9v-0.01z" />
	<path id="Layer" class="s9" d="m54.01 348.69l-4.08 10.3l-3.42-10.91l-9.98 1.56l7.8-6.86l-5.6-6.55l10.29 3.73l1.65-2.82c2.64 2.99 4.24 6.71 5.1 11.5l-1.76 0.06v-0.01z" />
	<path id="Layer" class="s9" d="m233.15 230.86c10.12 0 19.82 4.02 26.97 11.17c7.15 7.15 11.17 16.85 11.17 26.97v75.25h-80.73v-75.25c0-10.12 4.02-19.82 11.17-26.97c7.15-7.15 16.85-11.17 26.97-11.17h4.45h0z" />
	<path id="Layer" fill-rule="evenodd" class="s5" d="m215.32 298.53h37.72v47.84h-37.72v-47.84zm0.93 0.93v45.99h35.86v-45.99h-35.86z" />
	<path id="Layer" class="s5" d="m215.32 298.53h37.72v9.89h-37.72v-9.89z" />
	<path id="Layer" fill-rule="evenodd" class="s5" d="m252.29 273.69h23.46v72.91h-23.46v-72.91zm0.93 0.93v71.06h21.6v-71.06h-21.6z" />
	<path id="Layer" fill-rule="evenodd" class="s5" d="m185.7 259.31h30.36v87.05h-30.36v-87.05zm0.93 0.93v85.19h28.51v-85.19h-28.51z" />
	<path id="Layer" class="s5" d="m206.5 272.03c0.71 0.71 1.11 1.68 1.11 2.69v8.85h-8.05v-8.85c0-1.01 0.4-1.98 1.12-2.69c0.71-0.71 1.68-1.11 2.69-1.11h0.44c1.01 0 1.98 0.4 2.69 1.11z" />
	<path id="Layer" class="s25" d="m208.53 277.82h-9.89" />
	<path id="Layer" class="s26" d="m203.81 293.62c1.01 0 1.98 0.4 2.69 1.11c0.71 0.71 1.11 1.68 1.11 2.69v8.85h-8.05v-8.85c0-1.01 0.4-1.98 1.12-2.69c0.71-0.71 1.68-1.11 2.69-1.11h0.44v0z" />
	<path id="Layer" class="s25" d="m208.53 300.52h-9.89" />
	<path id="Layer" class="s26" d="m206.5 317.42c0.71 0.71 1.11 1.68 1.11 2.69v8.85h-8.05v-8.85c0-1.01 0.4-1.98 1.12-2.69c0.71-0.71 1.68-1.11 2.69-1.11h0.44c1.01 0 1.98 0.4 2.69 1.11z" />
	<path id="Layer" class="s25" d="m208.53 323.21h-9.89" />
	<path id="Layer" class="s8" d="m206.5 340.11c0.71 0.71 1.11 1.68 1.11 2.69v8.13h-8.05v-8.13c0-1.01 0.4-1.98 1.12-2.69c0.71-0.71 1.68-1.11 2.69-1.11h0.44c1.01 0 1.98 0.4 2.69 1.11z" />
	<path id="Layer" class="s26" d="m271.5 290.84c0.71 0.71 1.11 1.68 1.11 2.69v8.85h-8.05v-8.85c0-1.01 0.4-1.98 1.12-2.69c0.71-0.71 1.68-1.11 2.68-1.11h0.45c1.01 0 1.97 0.4 2.69 1.11z" />
	<path id="Layer" class="s25" d="m273.53 296.63h-9.89" />
	<path id="Layer" class="s26" d="m268.81 312.41c0.5 0 0.99 0.1 1.45 0.29c0.46 0.19 0.88 0.47 1.24 0.82c0.35 0.36 0.63 0.78 0.82 1.24c0.19 0.46 0.29 0.96 0.29 1.46v8.85h-8.05v-8.85c0-1.01 0.4-1.98 1.12-2.69c0.71-0.71 1.68-1.11 2.68-1.11h0.45v-0.01z" />
	<path id="Layer" class="s25" d="m273.53 319.32h-9.89" />
	<path id="Layer" class="s5" d="m271.5 336.23c0.71 0.71 1.11 1.68 1.11 2.69v8.85h-8.05v-8.85c0-1.01 0.4-1.98 1.12-2.69c0.71-0.71 1.68-1.11 2.68-1.11h0.45c1.01 0 1.97 0.4 2.69 1.11z" />
	<path id="Layer" class="s25" d="m273.53 342.01h-9.89" />
	<path id="Layer" class="s5" d="m185.7 259.3h30.36v3.8h-30.36v-3.8z" />
	<path id="Layer" class="s5" d="m252.29 271.85h23.46v3.79h-23.46v-3.79z" />
	<path id="Layer" class="s26" d="m238.2 317.39h8.05v10.35h-8.05v-10.35z" />
	<path id="Layer" class="s25" d="m247.17 321.99h-9.89" />
	<path id="Layer" class="s25" d="m242.23 328.2v-6.21" />
	<path id="Layer" class="s5" d="m238.2 336.08h8.05v10.35h-8.05v-10.35z" />
	<path id="Layer" class="s25" d="m247.17 340.68h-9.89" />
	<path id="Layer" class="s25" d="m242.23 346.89v-6.21" />
	<path id="Layer" class="s8" d="m223.02 317.39h8.05v10.35h-8.05v-10.35z" />
	<path id="Layer" class="s25" d="m231.99 321.99h-9.89" />
	<path id="Layer" class="s25" d="m227.05 328.2v-6.21" />
	<path id="Layer" class="s26" d="m223.02 336.08h8.05v10.35h-8.05v-10.35z" />
	<path id="Layer" class="s25" d="m231.99 340.68h-9.89" />
	<path id="Layer" class="s25" d="m227.05 346.89v-6.21" />
	<path id="Layer" class="s26" d="m247.69 258.96c-3.3 0-5.98-2.68-5.98-5.98c0-3.3 2.68-5.98 5.98-5.98c3.31 0 5.98 2.68 5.98 5.98c0 3.3-2.67 5.98-5.98 5.98z" />
	<path id="Layer" class="s26" d="m180.21 344.3h101.43v6.9h-101.43v-6.9z" />
	<path id="Layer" fill-rule="evenodd" class="s27" d="m183.66 269.67c0-25.22 20.44-45.67 45.66-45.67h3.21c25.21 0 45.66 20.45 45.66 45.67v81.53h-94.53l0-81.53zm50.71 74.63h36.91v-57.5h-36.91v57.5zm0-113.34v48.94h36.91v-9.99c0-9.98-3.82-19.58-10.69-26.83c-6.87-7.25-16.25-11.59-26.22-12.12zm-43.81 113.34h36.91v-57.5h-36.91v57.5zm0-64.41h36.91v-48.94c-9.97 0.54-19.35 4.88-26.22 12.12c-6.87 7.25-10.69 16.85-10.69 26.83v9.99z" />
	<path id="Layer" class="s8" d="m137.23 349.43c-0.71 0.53-1.57 0.81-2.46 0.81h-42.16c-2.7 0-4.63-2.63-3.81-5.21l9.17-28.99c0.32-1.01 0.96-1.89 1.81-2.51c0.85-0.63 1.88-0.96 2.94-0.96h40.24c0.78 0 1.55 0.19 2.25 0.54c0.7 0.36 1.3 0.87 1.76 1.5c0.46 0.63 0.77 1.36 0.9 2.13c0.12 0.77 0.07 1.56-0.17 2.31l-8.95 28.28c-0.27 0.85-0.8 1.59-1.52 2.11v-0.01z" />
	<path id="Layer" class="s6" d="m125.59 328.47c0.96 1.3-5.83 7.16-7.62 8.67c-0.04 0.05-0.09 0.08-0.14 0.11c-0.06 0.03-0.12 0.04-0.18 0.04c-0.06 0-0.12-0.02-0.18-0.04c-0.05-0.03-0.1-0.07-0.14-0.11c-0.99-1.49-4.64-7.36-2.97-8.67c1.92-1.51 4.53 2.49 4.73 2.82c0.36-0.33 5.39-4.33 6.5-2.82h0z" />
	<path id="Layer" class="s6" d="m119.51 329.49c-0.42-0.13-0.44-1.28-0.04-2.56c0.4-1.29 1.07-2.22 1.49-2.09c0.42 0.13 0.43 1.28 0.03 2.56c-0.39 1.29-1.06 2.22-1.48 2.09z" />
	<path id="Layer" class="s10" d="m139.89 344.14l-0.15-2.24c-2.53-1.83-6.2-1.07-7.46-3.24c-1.13-1.93 1.01-3 1.01-3c0 0-2.73-0.86-2.18-3.06c0.45-1.81 2.63-2.07 2.63-2.07c0 0-1.73-1.36-0.64-3.24c0.62-1.08 2.95-1.14 5.35-0.56c0.19 0.05-4.34-4.13-2.27-6.64c1.2-1.46 7.31 3.51 8.65 6.79c0.91 2.25-0.6 3.15-0.48 3.31c1.8 2.48-0.68 4.28-0.68 4.28c1.8 2.47-0.71 4.97-0.71 4.97c1.02 3.82-3.07 4.69-3.07 4.69l0 0.01z" />
	<path id="Layer" class="s28" d="m132.96 335.26c2.68 0.01 7.62 0.45 9.97 3.33" />
	<path id="Layer" class="s28" d="m133.46 330.07c2.15 0.27 7.21 1.15 10.2 3.75" />
	<path id="Layer" class="s28" d="m137.95 326.04c1.93 0.64 4.37 1.71 6.21 3.37" />
	<path id="Layer" class="s10" d="m24.91 351.53l23.26-0.3l6.74 9.47l3.88-5.02c0 0 15.87-22.11 25.24-28.23c4.23-2.76 11.29-5.49 14.17-6.4c2.88-0.91 15.79-4.27 14.98-1.16c-0.8 3.11-8.96 5.38-8.96 5.38c0 0 9.02-0.07 11.33 1.76c2.31 1.83-0.5 3.89-0.5 3.89c2.06 3.63-2.05 4.69-2.05 4.69c1.67 5.66-24.04 6.74-24.04 6.74c-2.1 2.03 1.25-2.95-12.74 23.17c0 0-5.14 7.61-21.31 20.83c-5.9 3.44-21.3-11.5-27.05-25.65l-2.95-9.17h0z" />
	<path id="Layer" class="s12" d="m57.88 355.88l-2.74 3.94" />
	<path id="Layer" class="s20" d="m104.98 324.77c-2.79 0.02-6.94 0.1-9.74 0.33" />
	<path id="Layer" class="s20" d="m95.79 329.94c7.89-0.68 16.13 0.24 19.08 0.65" />
	<path id="Layer" class="s20" d="m96.54 335.18c5.34-0.33 12.16 0.06 16.11 0.36" />
	<g id="Layer">
		<path id="Layer" class="s2" d="m1440.29-56.1v56h-1440v-56h1440v0z" />
	</g>
	<g id="Layer" style="opacity: .8">
		<path id="Layer" class="s29" d="m947.99 54.92l-23.4 24.45l-23.4-24.45l-23.4 24.45l-23.4-24.45l-23.42 24.45l-23.42-24.45" />
		<path id="Layer" class="s29" d="m947.99 88.2l-23.4 24.45l-23.4-24.45l-23.4 24.45l-23.4-24.45l-23.42 24.45l-23.42-24.45" />
		<path id="Layer" class="s29" d="m947.99 22l-23.4 24.45l-23.4-24.45l-23.4 24.45l-23.4-24.45l-23.42 24.45l-23.42-24.45" />
	</g>
	<path id="Layer" class="s30" d="m1117.38 300.55c-22.48-29.54-34.38-64.82-34.38-102.03c0-57.67 29-110.72 77.6-141.9l1.14 1.77c-47.99 30.81-76.64 83.2-76.64 140.14c0 36.76 11.74 71.59 33.95 100.75l-1.67 1.28v-0.01z" />
	<path id="Layer" class="s30" d="m1171.12 346.62l1-1.85c24.19 13.16 51.64 20.11 79.37 20.11c91.74 0 166.39-74.63 166.39-166.39c0-91.74-74.63-166.39-166.39-166.39v-2.1c92.91 0 168.51 75.6 168.51 168.51c0 92.91-75.6 168.51-168.51 168.51c-28.06 0-55.87-7.03-80.37-20.4z" />
	<path id="Layer" class="s30" d="m1331.23 328.22l-2.22-3.59c44.14-27.2 70.49-74.34 70.49-126.12h4.22c0 53.25-27.09 101.75-72.49 129.71v0z" />
	<path id="Layer" class="s30" d="m1251.5 350.76c-78.43 0-143.54-58.77-151.47-136.64l4.2-0.43c7.67 75.75 71 132.87 147.24 132.87c16.24 0 32.18-2.62 47.42-7.76l1.35 3.99c-15.66 5.28-32.06 7.97-48.75 7.97l0.01 0z" />
	<path id="Layer" class="s30" d="m1105.36 174.88l-4.14-0.65c5.67-35.33 23.82-67.71 51.09-91.15c27.57-23.7 62.8-36.76 99.2-36.76c29.38 0 57.89 8.38 82.47 24.25c28.63 18.49 50.49 46.36 61.52 78.46l-3.99 1.37c-10.74-31.22-31.99-58.31-59.83-76.3c-23.9-15.43-51.62-23.58-80.19-23.58c-35.38 0-69.65 12.69-96.45 35.74c-26.53 22.79-44.16 54.27-49.68 88.61v0.01z" />
	<path id="Layer" class="s30" d="m1251.47 308.48c-10.74 0-21.38-1.54-31.59-4.62l1.22-4.05c9.8 2.95 20.03 4.44 30.38 4.44c58.3 0 105.74-47.44 105.74-105.74c0-23.6-7.6-45.91-21.97-64.54l3.34-2.57c14.95 19.36 22.86 42.57 22.86 67.11c0 60.64-49.33 109.96-109.96 109.96l-0.02 0.01z" />
	<path id="Layer" class="s30" d="m1177.25 279.59c-22.68-20.77-35.68-50.32-35.7-81.05c0-21.65 6.28-42.6 18.18-60.59l3.51 2.32c-11.43 17.3-17.48 37.45-17.48 58.26c0 29.57 12.51 57.98 34.32 77.97l-2.85 3.1l0.02-0.01z" />
	<path id="Layer" class="s30" d="m1185.71 115.73l-2.63-3.28c19.62-15.63 43.28-23.88 68.41-23.88c22.03 0 43.3 6.48 61.48 18.77l-2.36 3.5c-17.49-11.82-37.93-18.06-59.12-18.06c-24.15 0-46.91 7.93-65.78 22.95v0z" />
	<path id="Layer" class="s30" d="m1251.49 289.58c-40.86 0-76.97-27.47-87.77-66.82l2.02-0.57c10.59 38.45 45.85 65.29 85.77 65.29c14.45 0 28.81-3.56 41.51-10.27l0.98 1.87c-13 6.87-27.7 10.5-42.51 10.5v0z" />
	<path id="Layer" class="s30" d="m1315.86 262.93l-1.53-1.49c16.83-16.81 26.08-39.15 26.08-62.91c0-49.05-39.9-88.95-88.95-88.95c-49.05 0-88.95 39.9-88.95 88.95h-2.1c0-50.21 40.86-91.07 91.07-91.07c50.23 0 91.07 40.86 91.07 91.07c0 24.33-9.48 47.2-26.68 64.4h-0.01z" />
	<path id="Layer" class="s30" d="m1194.84 198.51h4.22c0 28.91 23.53 52.43 52.43 52.43c28.91 0 52.43-23.53 52.43-52.43c0-28.91-23.53-52.43-52.43-52.43v-4.22c31.24 0 56.65 25.41 56.65 56.65c0 31.24-25.41 56.65-56.65 56.65c-31.22 0-56.63-25.41-56.65-56.65z" />
	<path id="Layer" class="s30" d="m1223.35 198.51c0-15.53 12.63-28.16 28.16-28.16c8.62 0 16.65 3.87 22.03 10.62l-1.65 1.32c-4.99-6.25-12.41-9.82-20.38-9.82c-14.36 0-26.04 11.69-26.04 26.04c0 14.36 11.69 26.04 26.04 26.04c14.36 0 26.04-11.69 26.04-26.04h2.1c0 15.53-12.63 28.16-28.16 28.16c-15.51 0-28.14-12.63-28.14-28.16z" />
	<path id="Layer" class="s30" d="m835.81 414.45c-10.34-13.59-15.81-29.82-15.81-46.93c0-26.53 13.34-50.93 35.69-65.27l0.52 0.81c-22.07 14.16-35.25 38.26-35.25 64.45c0 16.91 5.41 32.93 15.62 46.34l-0.77 0.59v0.01z" />
	<path id="Layer" class="s30" d="m897.5 445.02c-12.9 0-25.69-3.23-36.96-9.38l0.46-0.85c11.12 6.05 23.75 9.25 36.5 9.25c42.19 0 76.53-34.33 76.53-76.53c0-42.19-34.33-76.53-76.53-76.53v-0.97c42.73 0 77.5 34.76 77.5 77.5c0 42.73-34.76 77.5-77.5 77.5v0.01z" />
	<path id="Layer" class="s30" d="m934.17 427.16l-1.02-1.65c20.3-12.51 32.42-34.2 32.42-58.01h1.94c0 24.49-12.46 46.8-33.34 59.66l0 0z" />
	<path id="Layer" class="s30" d="m897.5 437.54c-36.07 0-66.02-27.03-69.67-62.85l1.93-0.2c3.53 34.84 32.65 61.11 67.72 61.11c7.47 0 14.8-1.2 21.81-3.57l0.62 1.83c-7.2 2.43-14.74 3.67-22.42 3.67l0.01 0.01z" />
	<path id="Layer" class="s30" d="m830.27 356.64l-1.9-0.3c2.61-16.24 10.96-31.14 23.5-41.92c12.68-10.9 28.89-16.91 45.63-16.91c13.51 0 26.62 3.85 37.93 11.15c13.16 8.51 23.22 21.33 28.29 36.09l-1.83 0.63c-4.94-14.36-14.71-26.83-27.52-35.1c-10.99-7.1-23.74-10.85-36.88-10.85c-16.27 0-32.03 5.84-44.36 16.44c-12.2 10.49-20.31 24.97-22.85 40.76l-0.01 0.01z" />
	<path id="Layer" class="s30" d="m882.97 415.96l0.56-1.86c4.5 1.35 9.21 2.04 13.97 2.04c26.81 0 48.63-21.82 48.63-48.63c0-10.86-3.5-21.12-10.11-29.69l1.54-1.18c6.87 8.91 10.51 19.58 10.51 30.87c0 27.88-22.68 50.57-50.57 50.57c-4.94 0-9.83-0.7-14.53-2.12z" />
	<path id="Layer" class="s30" d="m863.34 404.79c-10.43-9.55-16.41-23.15-16.42-37.28c0-9.96 2.89-19.6 8.36-27.87l1.62 1.07c-5.26 7.96-8.04 17.23-8.04 26.8c0 13.6 5.76 26.67 15.79 35.86l-1.31 1.43l0-0.01z" />
	<path id="Layer" class="s30" d="m867.23 329.43l-1.21-1.51c9.02-7.19 19.9-10.98 31.46-10.98c10.14 0 19.92 2.98 28.28 8.63l-1.08 1.61c-8.04-5.44-17.44-8.31-27.19-8.31c-11.1 0-21.57 3.65-30.25 10.56h-0.01z" />
	<path id="Layer" class="s30" d="m897.5 409.38c-18.79 0-35.4-12.63-40.37-30.73l0.93-0.26c4.87 17.68 21.09 30.03 39.45 30.03c6.65 0 13.25-1.63 19.09-4.72l0.45 0.86c-5.98 3.16-12.74 4.83-19.55 4.83l0-0.01z" />
	<path id="Layer" class="s30" d="m927.1 397.14l-0.7-0.69c7.74-7.73 11.99-18.01 11.99-28.94c0-22.56-18.35-40.91-40.91-40.91c-22.56 0-40.91 18.35-40.91 40.91h-0.97c0-23.1 18.8-41.89 41.89-41.89c23.11 0 41.89 18.8 41.89 41.89c0 11.19-4.36 21.71-12.27 29.62l-0.01 0.01z" />
	<path id="Layer" class="s30" d="m897.5 393.55c-14.36 0-26.04-11.69-26.05-26.06h1.94c0 13.29 10.82 24.11 24.11 24.11c13.29 0 24.11-10.82 24.11-24.11c0-13.29-10.82-24.11-24.11-24.11v-1.94c14.36 0 26.05 11.69 26.05 26.06c0 14.37-11.68 26.06-26.05 26.06l0-0.01z" />
	<path id="Layer" class="s30" d="m897.49 380.44c-7.13 0-12.94-5.81-12.94-12.95c0-7.14 5.81-12.95 12.95-12.95c3.96 0 7.66 1.78 10.13 4.89l-0.76 0.61c-2.29-2.88-5.7-4.52-9.37-4.52c-6.61 0-11.98 5.38-11.98 11.98c0 6.6 5.38 11.97 11.98 11.97c6.61 0 11.98-5.37 11.98-11.97h0.97c0 7.14-5.81 12.95-12.95 12.95l-0.01-0.01z" />
	<path id="Layer" class="s30" d="m35.52 167.37c-13.74-18.05-21.01-39.62-21.01-62.36c0-35.25 17.72-67.68 47.43-86.74l0.69 1.08c-29.33 18.83-46.84 50.85-46.84 85.66c0 22.47 7.18 43.76 20.75 61.58l-1.02 0.78h0z" />
	<path id="Layer" class="s30" d="m117.49 207.99c-17.15 0-34.14-4.3-49.12-12.47l0.61-1.13c14.79 8.04 31.57 12.29 48.51 12.29c56.08 0 101.71-45.61 101.71-101.7c0-56.07-45.62-101.7-101.71-101.7v-1.28c56.8 0 103 46.21 103 103c0 56.79-46.2 103-103 103v-0.01z" />
	<path id="Layer" class="s30" d="m166.23 184.29l-1.35-2.2c26.98-16.62 43.08-45.44 43.08-77.09h2.58c0 32.55-16.56 62.19-44.31 79.28v0.01z" />
	<path id="Layer" class="s30" d="m117.49 198.05c-47.93 0-87.73-35.92-92.58-83.52l2.57-0.26c4.69 46.31 43.4 81.22 90 81.22c9.93 0 19.67-1.59 28.99-4.74l0.82 2.44c-9.57 3.23-19.6 4.87-29.8 4.87v-0.01z" />
	<path id="Layer" class="s30" d="m28.17 90.56l-2.53-0.4c3.47-21.59 14.56-41.38 31.23-55.71c16.85-14.49 38.38-22.47 60.63-22.47c17.96 0 35.39 5.12 50.41 14.82c17.5 11.31 30.86 28.34 37.6 47.96l-2.43 0.84c-6.57-19.08-19.55-35.65-36.57-46.64c-14.61-9.43-31.55-14.41-49.02-14.41c-21.62 0-42.57 7.75-58.95 21.84c-16.22 13.93-26.99 33.17-30.37 54.16l0 0.01z" />
	<path id="Layer" class="s30" d="m117.49 172.21c-6.56 0-13.07-0.94-19.31-2.82l0.75-2.47c5.99 1.8 12.24 2.71 18.56 2.71c35.64 0 64.63-29 64.63-64.63c0-14.43-4.64-28.06-13.43-39.45l2.04-1.57c9.14 11.83 13.97 26.02 13.97 41.02c0 37.06-30.15 67.21-67.21 67.21l0 0z" />
	<path id="Layer" class="s30" d="m72.1 154.56c-13.86-12.69-21.81-30.76-21.82-49.54c0-13.24 3.84-26.05 11.12-37.04l2.15 1.42c-6.99 10.57-10.69 22.89-10.69 35.61c0 18.08 7.65 35.44 20.98 47.66l-1.74 1.9v-0.01z" />
	<path id="Layer" class="s30" d="m77.29 54.39l-1.61-2c11.99-9.55 26.45-14.59 41.81-14.59c13.47 0 26.47 3.96 37.58 11.47l-1.44 2.14c-10.69-7.22-23.19-11.04-36.14-11.04c-14.76 0-28.67 4.85-40.2 14.03l0-0.01z" />
	<path id="Layer" class="s30" d="m117.49 160.66c-24.97 0-47.04-16.79-53.65-40.84l1.24-0.35c6.47 23.5 28.02 39.91 52.42 39.91c8.84 0 17.61-2.18 25.38-6.28l0.6 1.14c-7.95 4.2-16.94 6.42-25.99 6.42v0z" />
	<path id="Layer" class="s30" d="m156.85 144.37l-0.94-0.91c10.29-10.27 15.94-23.93 15.94-38.45c0-29.98-24.39-54.37-54.37-54.37c-29.98 0-54.37 24.39-54.37 54.37h-1.28c0-30.68 24.97-55.66 55.66-55.66c30.7 0 55.67 24.97 55.67 55.66c0 14.87-5.8 28.86-16.31 39.37l0-0.01z" />
	<path id="Layer" class="s30" d="m117.49 139.62c-19.08 0-34.61-15.54-34.62-34.63h2.58c0 17.66 14.38 32.04 32.04 32.04c17.67 0 32.05-14.37 32.05-32.04c0-17.66-14.38-32.04-32.05-32.04v-2.58c19.1 0 34.63 15.54 34.63 34.63c0 19.1-15.53 34.63-34.63 34.63v-0.01z" />
	<path id="Layer" class="s30" d="m117.49 122.22c-9.48 0-17.2-7.72-17.2-17.21c0-9.49 7.72-17.21 17.21-17.21c5.27 0 10.18 2.36 13.47 6.49l-1.01 0.8c-3.05-3.82-7.58-6-12.46-6c-8.77 0-15.91 7.14-15.91 15.91c0 8.77 7.14 15.91 15.91 15.91c8.78 0 15.92-7.14 15.92-15.91h1.28c0 9.49-7.71 17.21-17.21 17.21v0.01z" />
	<path id="Layer" fill-rule="evenodd" class="s2" d="m1345.17 98.17v13.33c0 0.44-0.18 0.87-0.49 1.18c-0.31 0.32-0.74 0.49-1.18 0.49h-13.33v-1.67h13.33v-13.33h1.67zm-5-3.33c0.93 0 1.67 0.75 1.67 1.67v11.67c0 0.44-0.18 0.87-0.49 1.18c-0.31 0.31-0.74 0.49-1.18 0.49h-11.67c-0.93 0-1.67-0.75-1.67-1.67v-11.67c0-0.44 0.18-0.87 0.49-1.18c0.31-0.31 0.74-0.49 1.18-0.49h11.67zm-11.67 1.67v11.67h11.67v-11.67h-11.67zm4.17 8.33h5.83v1.67h-5.83v-1.67zm-2.5-3.33h8.33v1.67h-8.33v-1.67zm0-3.33h8.33v1.67h-8.33v-1.67z" />
	<g id="Layer" style="opacity: .6">
		<path id="Layer" class="s29" d="m492.99 272.92l-23.4 24.45l-23.4-24.45l-23.4 24.45l-23.4-24.45l-23.42 24.45l-23.42-24.45" />
		<path id="Layer" class="s29" d="m492.99 306.2l-23.4 24.45l-23.4-24.45l-23.4 24.45l-23.4-24.45l-23.42 24.45l-23.42-24.45" />
		<path id="Layer" class="s29" d="m492.99 240l-23.4 24.45l-23.4-24.45l-23.4 24.45l-23.4-24.45l-23.42 24.45l-23.42-24.45" />
	</g>
</svg>