<svg version="1.2" baseProfile="tiny-ps" xmlns="http://www.w3.org/2000/svg" viewBox="0 0 1440 500" width="1440" height="500">
	<title>Group 1000001890 (1)-svg</title>
	<defs>
		<clipPath clipPathUnits="userSpaceOnUse" id="cp1">
			<path d="m0 0h1440v436h-1440v-436z" />
		</clipPath>
	</defs>
	<style>
		tspan { white-space:pre }
		.s0 { fill: #f0f0f0 } 
		.s1 { fill: #ffffff } 
		.s2 { opacity: .2;fill: #ffcdd2 } 
		.s3 { fill: #000000 } 
		.s4 { fill: #ca7358 } 
		.s5 { fill: #ffbe21 } 
		.s6 { fill: none;stroke: #ca7358;stroke-width: 4 } 
		.s7 { fill: #30242a } 
		.s8 { fill: #ffb7d5 } 
		.s9 { fill: #eaa58b } 
		.s10 { fill: none;stroke: #f5ebdd;stroke-linecap:round;stroke-linejoin:round;stroke-width: 4 } 
		.s11 { fill: none;stroke: #a15842;stroke-linecap:round;stroke-linejoin:round;stroke-width: 2 } 
		.s12 { fill: none;stroke: #a15842;stroke-linecap:round;stroke-linejoin:round;stroke-width: 4 } 
		.s13 { fill: none;stroke: #f5ebdd;stroke-linecap:round;stroke-width: 4 } 
		.s14 { fill: #4756df } 
		.s15 { fill: none;stroke: #3ec1f3;stroke-linecap:round;stroke-width: 4 } 
		.s16 { fill: none;stroke: #30242a;stroke-linecap:round;stroke-width: 4 } 
		.s17 { fill: #ff7235 } 
		.s18 { fill: none;stroke: #ff7235;stroke-width: 2 } 
		.s19 { fill: none;stroke: #a15842;stroke-linecap:round;stroke-linejoin:round;stroke-width: 1.5 } 
		.s20 { fill: #fd8369 } 
		.s21 { fill: #dfdfdf } 
		.s22 { fill: #56cad8 } 
		.s23 { fill: #a15842 } 
		.s24 { fill: none;stroke: #ffb7d5;stroke-linecap:round;stroke-linejoin:round;stroke-width: 4 } 
		.s25 { fill: #f5ebdd } 
		.s26 { fill: #ffcdd2 } 
		.s27 { fill: none;stroke: #a15842;stroke-linecap:round;stroke-linejoin:round } 
		.s28 { fill: none;stroke: #cb9ca1;stroke-opacity:.4;stroke-width: 2 } 
		.s29 { opacity: .6;fill: #ffcdd2 } 
	</style>
	<path id="Layer" class="s0" d="m0 0h1440v500h-1440v-500z" />
	<path id="Layer" class="s1" d="m0-105h1440v2914h-1440v-2914z" />
	<g id="Clip-Path" clip-path="url(#cp1)">
		<g id="Layer">
			<path id="Layer" class="s1" d="m218.11 595.84c-201.51 0-364.39-162.88-364.39-364.39c0-201.51 162.88-364.39 364.39-364.39c201.51 0 364.39 162.88 364.39 364.39c0 201.51-162.88 364.39-364.39 364.39z" />
		</g>
	</g>
	<path id="Layer" class="s2" d="m0 0h1440v498h-1440v-498z" />
	<path id="Layer" class="s3" d="m267.52 497.36c-0.49-0.27-0.9-0.67-1.19-1.14l-14.9-24.57h12.75l8.02 21.72c0.18 0.49 0.24 1.02 0.18 1.55c-0.07 0.52-0.26 1.02-0.56 1.45c-0.3 0.43-0.7 0.79-1.17 1.03c-0.47 0.24-0.99 0.37-1.51 0.37c-0.56 0-1.11-0.14-1.6-0.41z" />
	<path id="Layer" class="s3" d="m155.64 497.77c-0.53 0-1.04-0.13-1.51-0.37c-0.47-0.24-0.87-0.6-1.17-1.03c-0.3-0.43-0.49-0.93-0.56-1.45c-0.07-0.52-0.01-1.05 0.18-1.55l8.02-21.72h12.75l-14.9 24.57c-0.29 0.48-0.71 0.87-1.19 1.14c-0.49 0.27-1.04 0.41-1.6 0.41z" />
	<path id="Layer" class="s4" d="m142.77 407.11h138.68v72.45h-138.68v-72.45z" />
	<path id="Layer" class="s5" d="m152.37 416.44h120.03v53.8h-120.03v-53.8z" />
	<path id="Layer" class="s6" d="m152.21 443.42h120.18" />
	<path id="Layer" class="s7" d="m212.38 433.94c-1.89 0-3.42-1.53-3.42-3.42c0-1.89 1.53-3.42 3.42-3.42c1.89 0 3.42 1.53 3.42 3.42c0 1.89-1.53 3.42-3.42 3.42z" />
	<path id="Layer" class="s7" d="m212.38 460.05c-1.89 0-3.42-1.53-3.42-3.42c0-1.89 1.53-3.42 3.42-3.42c1.89 0 3.42 1.53 3.42 3.42c0 1.89-1.53 3.42-3.42 3.42z" />
	<path id="Layer" class="s8" d="m189.46 390.41c4.72 4.72 7.37 11.11 7.37 17.78v89.57h-83.33v-114.73h58.18c6.67 0 13.07 2.65 17.78 7.37z" />
	<path id="Layer" class="s8" d="m125.1 328.2c4.72 4.72 7.37 11.11 7.37 17.79v151.78h-132.46v-151.78c0-6.67 2.65-13.07 7.37-17.78c4.72-4.72 11.11-7.37 17.78-7.37h82.16c6.67 0 13.07 2.65 17.79 7.37z" />
	<path id="Layer" class="s8" d="m154.64 421.04c4.72 4.72 7.37 11.11 7.37 17.78v58.94h-162.01v-58.94c0-6.67 2.65-13.07 7.37-17.78c4.72-4.72 11.11-7.37 17.78-7.37h111.7c6.67 0 13.07 2.65 17.78 7.37z" />
	<path id="Layer" class="s6" d="m83.8 441.6h67.83" />
	<path id="Layer" class="s6" d="m162 438.83v58.94" />
	<path id="Layer" class="s6" d="m0 382.67h52.59" />
	<path id="Layer" class="s7" d="m101.06 368.01c0 0 29.23 6.53 44.16 14.93c15.35 8.63 16.79 20.75 26.37 49.84c4.2 12.75 6.31 21.9 8.58 28.17l-26.09 12.32c-1.24-2.31-2.35-4.58-3.26-6.69c0 0-11.96-0.53-13.1-16.54c-0.85-11.96-1.26-20.81-5.44-29.74l-71.3-52.44l40.08 0.14z" />
	<path id="Layer" class="s7" d="m190.86 472.14c0.13 0.02 0.26 0.05 0.4 0.06c9.24 1.4 13.09 3.2 14.62 7.39l-38.56 17.97c-0.44 0.2-0.94 0.25-1.41 0.13c-0.47-0.12-0.88-0.4-1.17-0.8c-0.16-0.22-0.28-0.48-0.34-0.75c-0.06-0.27-0.07-0.55-0.03-0.82c0.04-0.27 0.14-0.53 0.29-0.77c0.15-0.23 0.34-0.44 0.56-0.6l25.4-11.53c-0.6-3.42-0.51-6.92 0.25-10.3z" />
	<path id="Layer" class="s9" d="m154.08 473.27l26.09-12.32c1.33 3.7 2.72 6.4 4.62 8.25c1.58 1.55 3.52 2.49 6.08 2.94c-0.76 3.38-0.85 6.88-0.25 10.3l-25.41 11.53c0.1-0.07 0.2-0.13 0.31-0.18l0.93-0.44c-1.51-2.18-3.88-5.73-6.42-9.83c-2.02-3.22-4.1-6.77-5.95-10.24z" />
	<path id="Layer" class="s10" d="m151.03 467.02l27.15-12.72" />
	<path id="Layer" class="s7" d="m46.18 380.58l1.09-11.98h21.46c0 0 36.07 8.63 51.4 15.99c15.26 7.31 13.43 24.3 10.55 54.04c-1.47 15.16-3.3 25.57-3.2 32.94h-28.3c-0.16-2.39-0.26-4.92-0.31-7.57c0 0-11.04-5.23-5.29-22.17c3.85-11.35 7.18-18.87 7.18-28.72h-24.89c-4.14 0-8.24-0.86-12.03-2.53c-3.79-1.67-7.19-4.12-9.99-7.17c-2.79-3.06-4.92-6.67-6.24-10.59c-1.32-3.93-1.81-8.09-1.44-12.21z" />
	<path id="Layer" class="s7" d="m134.19 485.4c7.19 4.89 9.73 8.08 9.33 12.36l-42.57-0.06c-0.46-0.02-0.89-0.21-1.2-0.54c-0.32-0.33-0.49-0.77-0.49-1.23c0-0.46 0.18-0.89 0.49-1.22c0.32-0.33 0.75-0.52 1.2-0.54h28.41c0 0 1.56-5.25 4.84-8.77z" />
	<path id="Layer" class="s9" d="m127.47 471.56c0.05 4.2 0.73 7.41 2.46 9.95c0.93 1.35 2.12 2.49 3.5 3.38l0.76 0.51c-3.29 3.51-4.84 8.77-4.84 8.77h-26.89c-1.02-4.17-1.8-8.4-2.34-12.66c-0.39-2.97-0.72-6.3-0.96-9.95h28.31z" />
	<path id="Layer" class="s11" d="m100.44 377.03c6.87 2.2 14.98 4.88 20.21 7.46c11.94 5.89 13.47 17.36 12.17 36.47" />
	<path id="Layer" class="s12" d="m101.06 413.83h7.72" />
	<path id="Layer" class="s13" d="m98.88 464.51h28.92" />
	<path id="Layer" class="s8" d="m75.97 390.41c4.72 4.72 7.37 11.11 7.37 17.78v89.57h-83.33v-114.73h58.18c6.67 0 13.07 2.65 17.78 7.37z" />
	<path id="Layer" class="s6" d="m83.96 413.1v84.29" />
	<path id="Layer" class="s14" d="m302.71 452.59c7.15 0 12.99-4.29 13.21-9.64v54.73h-26.43v-54.73c0.24 5.35 6.06 9.64 13.22 9.64z" />
	<path id="Layer" class="s15" d="m290.04 479.84c4.55-2.5 10.86-6.86 14.7-13.26c6.53-10.88-4.82-14.15-6.38-2.64c-1.94 14.36 8.39 20.42 17.07 21.35" />
	<path id="Layer" class="s15" d="m315.5 472.36c-5.17 3.54-14.33 11.67-17.82 24.77" />
	<path id="Layer" class="s15" d="m315.54 489.87c-3.39 1-7.74 3.17-11.02 7.3" />
	<path id="Layer" class="s15" d="m306.06 445.8c2.2 3.83 5.48 6.94 9.44 8.92" />
	<path id="Layer" class="s7" d="m302.71 452.59c-7.15 0-12.99-4.29-13.21-9.64h26.42c-0.23 5.35-6.05 9.64-13.21 9.64z" />
	<path id="Layer" class="s16" d="m310.17 394.91l-7.15 53.79" />
	<path id="Layer" class="s16" d="m312.46 416.59l-8.36 31.66" />
	<path id="Layer" class="s7" d="m286.51 429.22c-5.96-2.55-10.21-5.94-9.51-7.59c0.7-1.65 6.1-0.91 12.06 1.63c5.96 2.55 10.21 5.94 9.51 7.59c-0.7 1.65-6.1 0.91-12.06-1.63z" />
	<path id="Layer" class="s7" d="m307.48 436.01c-0.61-1.61 4.77-5.13 12.02-7.86c7.25-2.73 13.61-3.64 14.22-2.03c0.61 1.61-4.77 5.13-12.02 7.86c-7.25 2.73-13.61 3.64-14.22 2.04z" />
	<path id="Layer" class="s7" d="m297.58 418.86c-4.19-3.16-6.94-6.58-6.14-7.64c0.8-1.06 4.85 0.64 9.04 3.79c4.19 3.16 6.94 6.58 6.14 7.64c-0.8 1.06-4.85-0.64-9.04-3.8z" />
	<path id="Layer" class="s16" d="m293.69 401.44l8.08 49.75" />
	<path id="Layer" class="s8" d="m307.02 406.6c0.75-1.24 1.78-2.28 3.01-3.03c1.23-0.75 2.63-1.2 4.07-1.3c1.44-0.1 2.89 0.14 4.22 0.72c1.33 0.58 2.5 1.46 3.41 2.58c0.91 1.12 1.54 2.45 1.84 3.86c0.29 1.42 0.24 2.88-0.15 4.27c-0.39 1.39-1.11 2.67-2.1 3.73c-0.99 1.06-2.22 1.86-3.58 2.34c-0.46-2.95-1.69-5.72-3.57-8.04c-1.88-2.31-4.35-4.08-7.15-5.13z" />
	<path id="Layer" class="s13" d="m311.14 412.19c1.64-3.75 4.59-6.77 8.29-8.5" />
	<path id="Layer" class="s13" d="m312.51 413.55c2.85-2.96 6.69-4.77 10.79-5.08" />
	<path id="Layer" class="s17" d="m317.74 419.76c-1.75 0.62-3.65 0.68-5.44 0.18c-1.79-0.5-3.38-1.55-4.55-2.99c-1.17-1.44-1.87-3.21-2-5.06c-0.13-1.85 0.31-3.7 1.27-5.29c2.8 1.04 5.26 2.81 7.15 5.13c1.88 2.31 3.12 5.09 3.57 8.04z" />
	<path id="Layer" class="s8" d="m311.56 389.57c-2.83 0.95-5.36 2.63-7.32 4.88c-0.9-1.14-1.5-2.47-1.77-3.89c-0.27-1.42-0.19-2.88 0.22-4.27c0.41-1.38 1.16-2.65 2.16-3.69c1.01-1.04 2.25-1.82 3.62-2.28c1.37-0.46 2.83-0.58 4.26-0.35c1.43 0.22 2.78 0.79 3.95 1.65c1.16 0.86 2.11 1.98 2.74 3.28c0.64 1.3 0.96 2.73 0.92 4.18c-2.92-0.62-5.95-0.44-8.78 0.51z" />
	<path id="Layer" class="s13" d="m313.86 391.58c0.62-4.04-0.25-8.17-2.46-11.62" />
	<path id="Layer" class="s13" d="m311.98 392c-0.82-4.03-3.1-7.61-6.39-10.07" />
	<path id="Layer" class="s17" d="m311.56 389.57c2.83-0.95 5.86-1.12 8.78-0.51c-0.04 1.86-0.65 3.66-1.75 5.15c-1.1 1.5-2.64 2.62-4.4 3.2c-1.76 0.59-3.66 0.62-5.44 0.09c-1.78-0.53-3.35-1.6-4.5-3.06c1.96-2.25 4.49-3.93 7.32-4.88z" />
	<path id="Layer" class="s8" d="m292.2 395.64c-1.59 2.52-2.49 5.42-2.59 8.4c-1.41-0.31-2.73-0.96-3.84-1.89c-1.11-0.93-1.98-2.11-2.53-3.45c-0.56-1.34-0.78-2.78-0.66-4.23c0.12-1.44 0.59-2.83 1.36-4.05c0.77-1.22 1.83-2.24 3.08-2.97c1.25-0.73 2.66-1.15 4.1-1.22c1.44-0.07 2.88 0.21 4.2 0.81c1.31 0.6 2.46 1.51 3.35 2.66c-2.65 1.37-4.89 3.42-6.48 5.94z" />
	<path id="Layer" class="s13" d="m295.26 395.74c-2.07-3.53-5.36-6.18-9.24-7.46" />
	<path id="Layer" class="s13" d="m294.07 397.25c-3.18-2.6-7.21-3.94-11.32-3.76" />
	<path id="Layer" class="s17" d="m292.2 395.64c1.59-2.52 3.83-4.57 6.48-5.94c1.14 1.46 1.8 3.25 1.89 5.1c0.09 1.85-0.39 3.69-1.39 5.26c-0.99 1.57-2.45 2.79-4.16 3.51c-1.71 0.71-3.61 0.88-5.42 0.48c0.1-2.98 1-5.88 2.59-8.4z" />
	<path id="Layer" class="s9" d="m61.57 294.94c-3.73-1.24-8.08-6.53-4.98-10.88c4.12-5.77 11.19 1.87 11.19 1.87c3-2.19 5.27-5.22 6.53-8.71c0.93 0.31 3.73 0.62 5.91 0c0 0 0.93 2.49 1.55 6.84c0.08 0.6 0.18 1.17 0.29 1.73c0 0 0.08 0.76 0.39 2.01c0.39 1.54 0.66 2.25 0.66 2.25c0.96 3.47 1.77 6.14 0.53 9.25c-1.09 2.74-3.42 5.91-10.88 4.98l0.43 3.27h-22.25c-0.12-1.3-0.27-2.86-0.43-4.53c2.52-0.85 8.84-3.38 11.06-8.06z" />
	<path id="Layer" class="s18" d="m82.96 291.28c-2.24 0-4.05-1.81-4.05-4.05c0-2.24 1.81-4.05 4.05-4.05c2.24 0 4.05 1.81 4.05 4.05c0 2.23-1.81 4.05-4.05 4.05z" />
	<path id="Layer" class="s18" d="m72.86 291.28c-2.24 0-4.05-1.81-4.05-4.05c0-2.24 1.81-4.05 4.05-4.05c2.24 0 4.05 1.81 4.05 4.05c0 2.23-1.81 4.05-4.05 4.05z" />
	<path id="Layer" class="s18" d="m78.91 287.23h-2" />
	<path id="Layer" class="s18" d="m68.82 287.23h-8.46" />
	<path id="Layer" class="s9" d="m111.43 335.33c0 0 10.69-6.22 14.81-8.09c2.51-1.13 6.05-1.44 7.74-0.48c0.57 0.31 0.92 0.79 0.96 1.42c0.18 2.91-3.36 2.54-4.67 3.79l-5.15 7.23c-0.26 0.38-0.44 0.95-0.5 1.6c-0.06 0.65 0.01 1.31 0.19 1.85l2.56 7.56c-3.94 4.16-8.2 6.91-12.59 8.14c-4.05 1.14-8.97-3.45-12.49-7.67l5.91-19.86c1.9 2.64 3.22 4.51 3.22 4.51z" />
	<path id="Layer" class="s17" d="m50.93 307.53h22.25l0.51 3.89c0 0 10.93-0.23 18.66 4.66c5.84 3.7 15.57 10.32 22.04 14.75l-12.02 19.86c-3.26-1.91-6.4-4.02-9.4-6.32l8.08 23.63h-53.79l4.04-56.59c0 0-0.15-1.54-0.37-3.89z" />
	<path id="Layer" class="s19" d="m74.32 312.2l0.47 3.73" />
	<path id="Layer" class="s12" d="m89.09 331.48l4.2 12.44" />
	<path id="Layer" class="s11" d="m80.58 298.57c-0.51 0.31-2.44 0.57-3.22-0.91" />
	<path id="Layer" class="s3" d="m73.04 288.75c-0.52 0-0.93-0.42-0.93-0.93c0-0.51 0.42-0.93 0.93-0.93c0.52 0 0.93 0.42 0.93 0.93c0 0.52-0.42 0.93-0.93 0.93z" />
	<path id="Layer" class="s3" d="m81.2 288.12c-0.52 0-0.93-0.42-0.93-0.93c0-0.52 0.42-0.93 0.93-0.93c0.52 0 0.93 0.42 0.93 0.93c0 0.51-0.42 0.93-0.93 0.93z" />
	<path id="Layer" class="s11" d="m60.64 287.79l3.42 2.18" />
	<path id="Layer" class="s19" d="m69.07 308.15l0.5 4.03" />
	<path id="Layer" class="s19" d="m64.41 308.15l0.5 4.03" />
	<path id="Layer" class="s19" d="m59.75 308.15l0.5 4.03" />
	<path id="Layer" class="s11" d="m72.54 304.81c-1.48-0.26-3.55-0.81-5.21-1.95" />
	<path id="Layer" class="s12" d="m48.69 351.25l0.91-19.15" />
	<path id="Layer" fill-rule="evenodd" class="s20" d="m270.13 398.3c3.62-0.06 6.6 2.35 6.64 5.38c0.05 3.03-2.85 5.54-6.48 5.58l-39.49 0.6l-0.17-10.96l39.5-0.6z" />
	<path id="Layer" fill-rule="evenodd" class="s21" d="m271.4 398.03l-55.93 0.8l-0.11-7.63l55.93-0.79l0.11 7.62z" />
	<path id="Layer" fill-rule="evenodd" class="s22" d="m271.96 392.43l-40.49 0.58l-0.18-12.76l40.48-0.57l0.18 12.76z" />
	<path id="Layer" class="s8" d="m84.67 346.49l4.11 5.18l6.4-2.2l-3.79 6.22l4.93 6.72l-6.49-2.69l-3.62 6.68l-0.41-7.35l-6.27-1.34l5.37-3.36l-0.22-7.84z" />
	<path id="Layer" class="s8" d="m72.85 323.48l3.92 5.1l5.57-2.65l-3.3 5.5l5.15 4.28l-6.6-0.81l-2.27 7.55l-2.27-7.55l-7.21-2.04l7.01-2.86v-6.53z" />
	<path id="Layer" class="s8" d="m60.72 339.34l3.92 5.1l5.57-2.65l-3.3 5.5l5.15 4.28l-6.6-0.81l-2.27 7.55l-2.27-7.55l-7.21-2.04l7.01-2.86v-6.53z" />
	<path id="Layer" class="s8" d="m100.38 349.88l-6.68-4.68l2.35-2.39l-3.12-4.98l6.04 2.49l4.31-3.08l-0.55 5.45l5.19 4.19l-6.42-0.33l-1.12 3.33z" />
	<path id="Layer" class="s8" d="m86.52 313.37l2.95 1.09l3.42 1.87l-1.9 1.83l3.29 3.65l-5.33-1.17l-3.09 3.16l-0.34-4.56l-4.87-2.69l5.32-0.66l0.55-2.5z" />
	<path id="Layer" fill-rule="evenodd" class="s20" d="m286.04 380.9l-55.93 0.8l-0.11-7.63l55.94-0.8l0.1 7.63z" />
	<path id="Layer" class="s17" d="m28.8 324.36c2.32-8.49 10-12.79 14.69-12.79h7.82l2.49 47.89l-25 5.91c-7.03-11.5-2.87-30.48 0-41.01z" />
	<path id="Layer" class="s23" d="m51.38 273.73c-7.47 0-13.53-6.06-13.53-13.53c0-7.47 6.06-13.53 13.53-13.53c7.47 0 13.53 6.06 13.53 13.53c0 7.47-6.06 13.53-13.53 13.53z" />
	<path id="Layer" class="s7" d="m60 269.06c-0.83 0.38 6.18-15.95 9.76-13.41c3.37 2.4-5.53 11.49-9.76 13.41z" />
	<path id="Layer" class="s7" d="m59.9 270.22c-0.77 0.91-18.7-5.31-16.22-8.9c2.37-3.45 16.98 7.99 16.22 8.9z" />
	<path id="Layer" class="s23" d="m34.41 295.96c4.69-7.05 17.43-4.24 17.43-4.24c-0.31-3.87-1.32-15.03 6.73-21.16c8.05-6.13 18.27-2.9 21.99 1.93c1.52 1.98 2.26 4.64 2.69 7.55c-2.47 0.43-6.1-0.45-6.1-0.45c-4.96 5.81-9.39 6.73-9.39 6.73c-3.47-3.61-9.55-3.49-10.54 1.98c-1.03 5.68 7.69 8.24 7.69 8.24c0 0 0.81 10.21-3.53 13.9c-1.33 1.1-2.91 1.84-4.59 2.14c-3.26 0.68-6.84 0.22-10.12 0.98c-2.89 0.65-5.65 1.8-8.17 3.39c-0.99-0.91-1.9-1.92-2.72-3.01c-2.86-3.77-6.27-10.62-1.38-17.98z" />
	<path id="Layer" class="s8" d="m57.61 314.77l3.92 5.1l5.57-2.65l-3.3 5.5l5.15 4.28l-6.6-0.82l-2.27 7.55l-2.27-7.55l-7.21-2.04l7.01-2.86v-6.53z" />
	<path id="Layer" class="s8" d="m38.62 319.29l-4.9 6.89l5.17 8.19l-7.31-3.63l-5.17 5.05c1.76-12.53 3.33-14.1 3.96-15.35l0.66 0.9l7.6-2.04z" />
	<path id="Layer" class="s8" d="m49.75 359l-3.42-10.91l-9.98 1.55l7.8-6.86l-5.6-6.55l10.29 3.73l1.64-2.82c2.65 3 4.24 6.72 5.1 11.5l-1.75 0.06l-4.08 10.3z" />
	<path id="Layer" class="s8" d="m259.93 242.04c7.15 7.15 11.17 16.85 11.17 26.97v75.25h-80.73v-75.25c0-10.12 4.02-19.82 11.17-26.97c7.15-7.15 16.85-11.17 26.97-11.17h4.45c10.12 0 19.82 4.02 26.97 11.17z" />
	<path id="Layer" fill-rule="evenodd" class="s4" d="m215.13 298.52h37.72v47.84h-37.72v-47.84zm0.93 0.93v45.99h35.87v-45.99h-35.87z" />
	<path id="Layer" class="s4" d="m215.13 298.52h37.72v9.89h-37.72v-9.89z" />
	<path id="Layer" fill-rule="evenodd" class="s4" d="m252.1 273.68h23.46v72.91h-23.46v-72.91zm0.93 0.93v71.06h21.6v-71.06h-21.6z" />
	<path id="Layer" fill-rule="evenodd" class="s4" d="m185.52 259.31h30.36v87.05h-30.36v-87.05zm0.93 0.93v85.19h28.5v-85.19h-28.5z" />
	<path id="Layer" class="s4" d="m206.31 272.04c0.71 0.71 1.11 1.68 1.11 2.69v8.85h-8.05v-8.85c0-1.01 0.4-1.98 1.11-2.69c0.71-0.71 1.68-1.11 2.69-1.11h0.44c1.01 0 1.98 0.4 2.69 1.11z" />
	<path id="Layer" class="s24" d="m208.34 277.82h-9.89" />
	<path id="Layer" class="s25" d="m203.62 293.62c1.01 0 1.98 0.4 2.69 1.11c0.71 0.71 1.11 1.68 1.11 2.69v8.85h-8.05v-8.85c0-1.01 0.4-1.98 1.11-2.69c0.71-0.71 1.68-1.11 2.69-1.11h0.44v0z" />
	<path id="Layer" class="s24" d="m208.34 300.52h-9.89" />
	<path id="Layer" class="s25" d="m206.31 317.43c0.71 0.71 1.11 1.68 1.11 2.69v8.85h-8.05v-8.85c0-1.01 0.4-1.97 1.11-2.69c0.71-0.71 1.68-1.11 2.69-1.11h0.44c1.01 0 1.98 0.4 2.69 1.11z" />
	<path id="Layer" class="s24" d="m208.34 323.21h-9.89" />
	<path id="Layer" class="s7" d="m206.31 340.12c0.71 0.71 1.11 1.68 1.11 2.69v8.13h-8.05v-8.13c0-1.01 0.4-1.98 1.11-2.69c0.71-0.71 1.68-1.11 2.69-1.11h0.44c1.01 0 1.98 0.4 2.69 1.11z" />
	<path id="Layer" class="s25" d="m271.31 290.84c0.71 0.71 1.11 1.68 1.11 2.69v8.85h-8.05v-8.85c0-1.01 0.4-1.98 1.11-2.69c0.71-0.71 1.68-1.11 2.69-1.11h0.44c1.01 0 1.98 0.4 2.69 1.11z" />
	<path id="Layer" class="s24" d="m273.34 296.63h-9.89" />
	<path id="Layer" class="s25" d="m270.08 312.71c0.46 0.19 0.88 0.47 1.23 0.83c0.35 0.35 0.63 0.77 0.82 1.23c0.19 0.46 0.29 0.96 0.29 1.46v8.85h-8.05v-8.85c0-1.01 0.4-1.98 1.11-2.69c0.71-0.71 1.68-1.11 2.69-1.11h0.44c0.5 0 0.99 0.1 1.46 0.29z" />
	<path id="Layer" class="s24" d="m273.34 319.32h-9.89" />
	<path id="Layer" class="s4" d="m271.31 336.23c0.71 0.71 1.11 1.68 1.11 2.69v8.85h-8.05v-8.85c0-1.01 0.4-1.98 1.11-2.69c0.71-0.71 1.68-1.11 2.69-1.11h0.44c1.01 0 1.98 0.4 2.69 1.11z" />
	<path id="Layer" class="s24" d="m273.34 342.01h-9.89" />
	<path id="Layer" class="s4" d="m185.52 259.31h30.36v3.8h-30.36v-3.8z" />
	<path id="Layer" class="s4" d="m252.1 271.84h23.46v3.79h-23.46v-3.79z" />
	<path id="Layer" class="s25" d="m238.01 317.38h8.05v10.35h-8.05v-10.35z" />
	<path id="Layer" class="s24" d="m246.99 321.99h-9.89" />
	<path id="Layer" class="s24" d="m242.04 328.19v-6.21" />
	<path id="Layer" class="s4" d="m238.01 336.08h8.05v10.35h-8.05v-10.35z" />
	<path id="Layer" class="s24" d="m246.99 340.68h-9.89" />
	<path id="Layer" class="s24" d="m242.04 346.89v-6.21" />
	<path id="Layer" class="s7" d="m222.84 317.38h8.05v10.35h-8.05v-10.35z" />
	<path id="Layer" class="s24" d="m231.81 321.99h-9.89" />
	<path id="Layer" class="s24" d="m226.86 328.19v-6.21" />
	<path id="Layer" class="s25" d="m222.84 336.08h8.05v10.35h-8.05v-10.35z" />
	<path id="Layer" class="s24" d="m231.81 340.68h-9.89" />
	<path id="Layer" class="s24" d="m226.86 346.89v-6.21" />
	<path id="Layer" class="s25" d="m247.5 258.96c-3.3 0-5.98-2.68-5.98-5.98c0-3.3 2.68-5.98 5.98-5.98c3.3 0 5.98 2.68 5.98 5.98c0 3.3-2.68 5.98-5.98 5.98z" />
	<path id="Layer" class="s25" d="m180.02 344.3h101.44v6.9h-101.44v-6.9z" />
	<path id="Layer" fill-rule="evenodd" class="s26" d="m229.13 224h3.21c25.21 0 45.66 20.45 45.66 45.67v81.53h-94.53v-81.53c0-25.22 20.45-45.67 45.67-45.67zm5.05 120.3h36.91v-57.5h-36.91v57.5zm0-64.4h36.91v-9.99c0-9.98-3.83-19.58-10.69-26.83c-6.87-7.24-16.25-11.58-26.22-12.12v48.94zm-43.82 64.4h36.91v-57.5h-36.91v57.5zm0-64.4h36.91v-48.94c-9.97 0.53-19.35 4.87-26.22 12.12c-6.87 7.25-10.69 16.85-10.69 26.83v9.99z" />
	<path id="Layer" class="s7" d="m134.58 350.25h-42.16c-2.7 0-4.63-2.63-3.81-5.21l9.18-28.99c0.32-1.01 0.95-1.89 1.81-2.51c0.85-0.62 1.88-0.96 2.94-0.96h40.24c0.78 0 1.55 0.18 2.25 0.54c0.7 0.35 1.3 0.87 1.76 1.5c0.46 0.63 0.77 1.36 0.9 2.13c0.13 0.77 0.07 1.56-0.17 2.31l-8.95 28.28c-0.27 0.85-0.8 1.58-1.52 2.11c-0.72 0.52-1.58 0.81-2.47 0.81z" />
	<path id="Layer" class="s5" d="m117.79 337.15c-0.04 0.05-0.09 0.08-0.15 0.11c-0.06 0.02-0.12 0.04-0.18 0.04c-0.06 0-0.12-0.01-0.18-0.04c-0.05-0.03-0.1-0.06-0.15-0.11c-0.98-1.5-4.64-7.36-2.97-8.67c1.92-1.51 4.54 2.49 4.73 2.82c0.37-0.33 5.4-4.33 6.51-2.82c0.96 1.3-5.83 7.16-7.62 8.67z" />
	<path id="Layer" class="s5" d="m119.32 329.49c-0.42-0.13-0.44-1.28-0.04-2.56c0.4-1.28 1.06-2.22 1.48-2.09c0.42 0.13 0.44 1.28 0.04 2.56c-0.4 1.28-1.06 2.22-1.48 2.09z" />
	<path id="Layer" class="s9" d="m139.56 341.89c-2.54-1.82-6.2-1.07-7.47-3.23c-1.13-1.94 1.02-3 1.02-3c0 0-2.73-0.86-2.19-3.06c0.45-1.81 2.63-2.07 2.63-2.07c0 0-1.73-1.36-0.64-3.24c0.62-1.08 2.95-1.14 5.35-0.56c0.19 0.05-4.34-4.13-2.27-6.64c1.2-1.46 7.31 3.5 8.65 6.79c0.91 2.25-0.59 3.15-0.48 3.31c1.8 2.48-0.67 4.28-0.67 4.28c1.8 2.48-0.72 4.97-0.72 4.97c1.03 3.82-3.07 4.69-3.07 4.69l-0.14-2.24z" />
	<path id="Layer" class="s27" d="m132.78 335.26c2.67 0.01 7.61 0.45 9.97 3.33" />
	<path id="Layer" class="s27" d="m133.28 330.07c2.15 0.26 7.21 1.15 10.2 3.75" />
	<path id="Layer" class="s27" d="m137.76 326.04c1.93 0.64 4.38 1.7 6.21 3.37" />
	<path id="Layer" class="s9" d="m47.98 351.23l6.74 9.47l3.88-5.02c0 0 15.87-22.12 25.24-28.23c4.23-2.76 11.29-5.49 14.17-6.4c2.88-0.91 15.78-4.27 14.98-1.16c-0.8 3.11-8.97 5.38-8.97 5.38c0 0 9.02-0.07 11.33 1.76c2.31 1.83-0.49 3.89-0.49 3.89c2.06 3.63-2.06 4.69-2.06 4.69c1.67 5.66-24.03 6.74-24.03 6.74c-2.1 2.03 1.24-2.95-12.75 23.17c0 0-5.13 7.62-21.3 20.83c-5.9 3.43-21.3-11.51-27.05-25.65l-2.95-9.17l23.26-0.3z" />
	<path id="Layer" class="s11" d="m57.69 355.88l-2.74 3.94" />
	<path id="Layer" class="s19" d="m104.79 324.77c-2.79 0.02-6.94 0.1-9.74 0.33" />
	<path id="Layer" class="s19" d="m95.61 329.94c7.89-0.68 16.13 0.24 19.07 0.65" />
	<path id="Layer" class="s19" d="m96.35 335.18c5.34-0.32 12.17 0.06 16.12 0.36" />
	<g id="Layer" style="opacity: .8">
		<path id="Layer" class="s28" d="m632.45 54.92l-23.42 24.45l-23.42-24.45l-23.4 24.45l-23.4-24.45l-23.4 24.45l-23.4-24.45" />
		<path id="Layer" class="s28" d="m632.45 88.2l-23.42 24.45l-23.42-24.45l-23.4 24.45l-23.4-24.45l-23.4 24.45l-23.4-24.45" />
		<path id="Layer" class="s28" d="m632.45 22l-23.42 24.45l-23.42-24.45l-23.4 24.45l-23.4-24.45l-23.4 24.45l-23.4-24.45" />
	</g>
	<path id="Layer" class="s29" d="m322.62 300.56l-1.67-1.28c22.21-29.16 33.95-63.99 33.95-100.75c0-56.94-28.65-109.33-76.64-140.14l1.14-1.77c48.6 31.18 77.6 84.24 77.6 141.9c0 37.21-11.9 72.49-34.38 102.03z" />
	<path id="Layer" class="s29" d="m188.51 367.02c-92.91 0-168.51-75.6-168.51-168.51c0-92.91 75.6-168.51 168.51-168.51v2.1c-91.76 0-166.39 74.65-166.39 166.39c0 91.76 74.65 166.39 166.39 166.39c27.73 0 55.18-6.95 79.37-20.11l1 1.85c-24.5 13.37-52.31 20.4-80.37 20.4z" />
	<path id="Layer" class="s29" d="m108.77 328.22c-45.4-27.96-72.49-76.46-72.49-129.71h4.22c0 51.78 26.35 98.92 70.49 126.12l-2.22 3.59z" />
	<path id="Layer" class="s29" d="m188.51 350.76c-16.69 0-33.09-2.69-48.75-7.97l1.35-3.99c15.24 5.14 31.18 7.76 47.42 7.76c76.24 0 139.57-57.12 147.25-132.87l4.2 0.43c-7.93 77.87-73.04 136.64-151.47 136.64z" />
	<path id="Layer" class="s29" d="m334.64 174.87c-5.52-34.34-23.15-65.82-49.68-88.61c-26.8-23.05-61.07-35.74-96.45-35.74c-28.57 0-56.29 8.15-80.19 23.58c-27.84 17.99-49.09 45.08-59.83 76.3l-3.99-1.37c11.04-32.1 32.89-59.97 61.52-78.46c24.58-15.87 53.09-24.25 82.47-24.25c36.4 0 71.63 13.06 99.2 36.76c27.27 23.44 45.42 55.82 51.09 91.15l-4.14 0.65z" />
	<path id="Layer" class="s29" d="m188.51 308.47c-60.63 0-109.96-49.32-109.96-109.96c0-24.54 7.91-47.75 22.86-67.11l3.34 2.57c-14.37 18.63-21.97 40.94-21.97 64.54c0 58.3 47.44 105.74 105.74 105.74c10.35 0 20.58-1.49 30.38-4.44l1.22 4.05c-10.21 3.08-20.85 4.62-31.59 4.62z" />
	<path id="Layer" class="s29" d="m262.77 279.6l-2.85-3.1c21.81-19.99 34.32-48.4 34.32-77.97c0-20.81-6.05-40.96-17.48-58.26l3.51-2.32c11.9 17.99 18.18 38.94 18.18 60.59c-0.02 30.73-13.02 60.28-35.7 81.05z" />
	<path id="Layer" class="s29" d="m254.29 115.73c-18.87-15.02-41.63-22.95-65.78-22.95c-21.19 0-41.63 6.24-59.12 18.06l-2.36-3.5c18.18-12.29 39.45-18.77 61.48-18.77c25.13 0 48.79 8.25 68.41 23.88l-2.63 3.28z" />
	<path id="Layer" class="s29" d="m188.51 289.58c-14.81 0-29.51-3.63-42.51-10.5l0.98-1.86c12.7 6.71 27.06 10.27 41.51 10.27c39.92 0 75.18-26.84 85.77-65.29l2.02 0.57c-10.8 39.35-46.91 66.82-87.77 66.82z" />
	<path id="Layer" class="s29" d="m124.13 262.93c-17.2-17.2-26.68-40.07-26.68-64.4c0-50.21 40.84-91.07 91.07-91.07c50.21 0 91.07 40.86 91.07 91.07h-2.1c0-49.05-39.9-88.95-88.95-88.95c-49.05 0-88.95 39.9-88.95 88.95c0 23.76 9.25 46.1 26.08 62.91l-1.53 1.49z" />
	<path id="Layer" class="s29" d="m188.51 255.16c-31.24 0-56.65-25.41-56.65-56.65c0-31.24 25.41-56.65 56.65-56.65v4.22c-28.9 0-52.43 23.52-52.43 52.43c0 28.9 23.52 52.43 52.43 52.43c28.9 0 52.43-23.52 52.43-52.43h4.22c-0.02 31.24-25.43 56.65-56.65 56.65z" />
	<path id="Layer" class="s29" d="m188.51 226.67c-15.53 0-28.16-12.63-28.16-28.16h2.1c0 14.35 11.68 26.04 26.04 26.04c14.35 0 26.04-11.68 26.04-26.04c0-14.35-11.68-26.04-26.04-26.04c-7.97 0-15.39 3.57-20.38 9.82l-1.65-1.31c5.38-6.75 13.41-10.62 22.03-10.62c15.53 0 28.16 12.63 28.16 28.16c0 15.53-12.63 28.16-28.14 28.16z" />
	<path id="Layer" class="s29" d="m604.19 414.44l-0.77-0.59c10.21-13.41 15.61-29.43 15.61-46.34c0-26.19-13.18-50.29-35.25-64.45l0.52-0.81c22.35 14.34 35.69 38.74 35.69 65.27c0 17.11-5.47 33.34-15.81 46.93z" />
	<path id="Layer" class="s29" d="m542.5 445.01c-42.74 0-77.5-34.77-77.5-77.5c0-42.74 34.77-77.5 77.5-77.5v0.97c-42.2 0-76.53 34.34-76.53 76.53c0 42.2 34.34 76.53 76.53 76.53c12.75 0 25.38-3.2 36.5-9.25l0.46 0.85c-11.27 6.15-24.06 9.38-36.96 9.38z" />
	<path id="Layer" class="s29" d="m505.83 427.16c-20.88-12.86-33.34-35.17-33.34-59.66h1.94c0 23.81 12.12 45.5 32.42 58.01l-1.02 1.65z" />
	<path id="Layer" class="s29" d="m542.51 437.53c-7.68 0-15.22-1.24-22.42-3.67l0.62-1.83c7.01 2.37 14.34 3.57 21.81 3.57c35.07 0 64.19-26.27 67.72-61.11l1.93 0.2c-3.65 35.82-33.6 62.85-69.67 62.85z" />
	<path id="Layer" class="s29" d="m609.72 356.63c-2.54-15.79-10.65-30.27-22.85-40.76c-12.33-10.6-28.09-16.44-44.36-16.44c-13.14 0-25.89 3.75-36.88 10.85c-12.81 8.27-22.58 20.74-27.52 35.1l-1.83-0.63c5.08-14.76 15.13-27.58 28.29-36.09c11.31-7.3 24.42-11.15 37.93-11.15c16.74 0 32.95 6.01 45.63 16.91c12.54 10.78 20.89 25.68 23.5 41.92l-1.9 0.3z" />
	<path id="Layer" class="s29" d="m542.5 418.08c-27.89 0-50.57-22.69-50.57-50.57c0-11.29 3.64-21.96 10.51-30.87l1.54 1.18c-6.61 8.57-10.11 18.83-10.11 29.69c0 26.81 21.82 48.63 48.63 48.63c4.76 0 9.47-0.69 13.97-2.04l0.56 1.86c-4.7 1.42-9.59 2.12-14.53 2.12z" />
	<path id="Layer" class="s29" d="m576.66 404.8l-1.31-1.43c10.03-9.19 15.79-22.26 15.79-35.86c0-9.57-2.78-18.84-8.04-26.8l1.62-1.07c5.47 8.27 8.36 17.91 8.36 27.87c-0.01 14.13-5.99 27.73-16.42 37.28z" />
	<path id="Layer" class="s29" d="m572.76 329.43c-8.68-6.91-19.15-10.56-30.25-10.56c-9.75 0-19.15 2.87-27.19 8.31l-1.08-1.61c8.36-5.65 18.14-8.63 28.28-8.63c11.56 0 22.44 3.79 31.46 10.98l-1.21 1.51z" />
	<path id="Layer" class="s29" d="m542.5 409.39c-6.81 0-13.57-1.67-19.55-4.83l0.45-0.86c5.84 3.09 12.44 4.72 19.09 4.72c18.36 0 34.58-12.34 39.45-30.03l0.93 0.26c-4.97 18.1-21.58 30.73-40.37 30.73z" />
	<path id="Layer" class="s29" d="m512.89 397.13c-7.91-7.91-12.27-18.43-12.27-29.62c0-23.09 18.78-41.89 41.89-41.89c23.09 0 41.89 18.79 41.89 41.89h-0.97c0-22.56-18.35-40.91-40.91-40.91c-22.56 0-40.91 18.35-40.91 40.91c0 10.93 4.25 21.2 11.99 28.94l-0.7 0.69z" />
	<path id="Layer" class="s29" d="m542.5 393.56c-14.37 0-26.05-11.69-26.05-26.06c0-14.37 11.69-26.06 26.05-26.06v1.94c-13.29 0-24.11 10.82-24.11 24.11c0 13.29 10.82 24.11 24.11 24.11c13.29 0 24.11-10.82 24.11-24.11h1.94c-0.01 14.37-11.69 26.06-26.05 26.06z" />
	<path id="Layer" class="s29" d="m542.51 380.45c-7.14 0-12.95-5.81-12.95-12.95h0.97c0 6.6 5.37 11.98 11.98 11.98c6.6 0 11.98-5.37 11.98-11.98c0-6.6-5.37-11.98-11.98-11.98c-3.67 0-7.08 1.64-9.38 4.52l-0.76-0.61c2.47-3.11 6.17-4.89 10.13-4.89c7.14 0 12.95 5.81 12.95 12.95c0 7.14-5.81 12.95-12.94 12.95z" />
	<path id="Layer" class="s29" d="m1404.48 167.37l-1.02-0.78c13.57-17.82 20.75-39.11 20.75-61.58c0-34.81-17.51-66.83-46.84-85.66l0.69-1.08c29.71 19.06 47.44 51.49 47.44 86.74c0 22.74-7.28 44.31-21.02 62.36z" />
	<path id="Layer" class="s29" d="m1322.51 208c-56.8 0-103-46.21-103-103c0-56.79 46.2-103 103-103v1.28c-56.09 0-101.71 45.63-101.71 101.7c0 56.09 45.64 101.7 101.71 101.7c16.94 0 33.72-4.25 48.51-12.29l0.61 1.13c-14.98 8.17-31.97 12.47-49.12 12.47z" />
	<path id="Layer" class="s29" d="m1273.77 184.28c-27.75-17.09-44.31-46.73-44.31-79.28h2.58c0 31.65 16.1 60.47 43.08 77.09l-1.35 2.2z" />
	<path id="Layer" class="s29" d="m1322.51 198.06c-10.2 0-20.22-1.64-29.8-4.87l0.83-2.44c9.31 3.15 19.06 4.74 28.98 4.74c46.6 0 85.31-34.91 90-81.22l2.57 0.26c-4.85 47.6-44.65 83.52-92.58 83.52z" />
	<path id="Layer" class="s29" d="m1411.83 90.55c-3.38-20.99-14.15-40.23-30.37-54.16c-16.38-14.09-37.32-21.84-58.95-21.84c-17.46 0-34.41 4.98-49.02 14.41c-17.02 10.99-30 27.56-36.57 46.64l-2.43-0.84c6.74-19.62 20.1-36.65 37.6-47.96c15.03-9.7 32.45-14.82 50.41-14.82c22.25 0 43.78 7.98 60.63 22.47c16.67 14.33 27.76 34.12 31.23 55.71l-2.53 0.4z" />
	<path id="Layer" class="s29" d="m1322.51 172.21c-37.06 0-67.21-30.15-67.21-67.21c0-15 4.83-29.19 13.97-41.02l2.04 1.57c-8.79 11.39-13.43 25.02-13.43 39.45c0 35.63 28.99 64.63 64.63 64.63c6.32 0 12.58-0.91 18.57-2.71l0.74 2.47c-6.24 1.89-12.75 2.82-19.31 2.82z" />
	<path id="Layer" class="s29" d="m1367.9 154.57l-1.74-1.9c13.33-12.22 20.98-29.58 20.98-47.66c0-12.72-3.7-25.04-10.68-35.61l2.15-1.42c7.27 10.99 11.11 23.8 11.11 37.04c-0.01 18.78-7.96 36.84-21.82 49.54z" />
	<path id="Layer" class="s29" d="m1362.71 54.4c-11.53-9.18-25.44-14.03-40.2-14.03c-12.95 0-25.45 3.82-36.14 11.04l-1.44-2.14c11.11-7.51 24.11-11.47 37.58-11.47c15.36 0 29.82 5.04 41.81 14.59l-1.61 2z" />
	<path id="Layer" class="s29" d="m1322.51 160.66c-9.05 0-18.04-2.22-25.99-6.42l0.6-1.14c7.77 4.1 16.54 6.28 25.38 6.28c24.4 0 45.95-16.41 52.42-39.91l1.24 0.35c-6.6 24.05-28.68 40.84-53.65 40.84z" />
	<path id="Layer" class="s29" d="m1283.15 144.38c-10.51-10.51-16.31-24.5-16.31-39.37c0-30.69 24.97-55.66 55.67-55.66c30.69 0 55.66 24.98 55.66 55.66h-1.28c0-29.98-24.39-54.37-54.37-54.37c-29.98 0-54.37 24.39-54.37 54.37c0 14.52 5.65 28.18 15.94 38.45l-0.94 0.91z" />
	<path id="Layer" class="s29" d="m1322.51 139.63c-19.1 0-34.63-15.53-34.63-34.63c0-19.09 15.53-34.63 34.63-34.63v2.58c-17.67 0-32.05 14.38-32.05 32.04c0 17.67 14.38 32.04 32.05 32.04c17.67 0 32.04-14.38 32.04-32.04h2.58c-0.01 19.09-15.54 34.63-34.62 34.63z" />
	<path id="Layer" class="s29" d="m1322.51 122.21c-9.49 0-17.21-7.72-17.21-17.21h1.28c0 8.77 7.14 15.92 15.92 15.92c8.77 0 15.91-7.14 15.91-15.92c0-8.77-7.14-15.91-15.91-15.91c-4.88 0-9.41 2.18-12.46 6l-1.01-0.8c3.29-4.13 8.2-6.49 13.47-6.49c9.49 0 17.21 7.72 17.21 17.21c0 9.49-7.72 17.21-17.2 17.21z" />
	<g id="Layer" style="opacity: .6">
		<path id="Layer" class="s28" d="m1087.45 272.92l-23.42 24.45l-23.42-24.45l-23.4 24.45l-23.4-24.45l-23.4 24.45l-23.4-24.45" />
		<path id="Layer" class="s28" d="m1087.45 306.2l-23.42 24.45l-23.42-24.45l-23.4 24.45l-23.4-24.45l-23.4 24.45l-23.4-24.45" />
		<path id="Layer" class="s28" d="m1087.45 240l-23.42 24.45l-23.42-24.45l-23.4 24.45l-23.4-24.45l-23.4 24.45l-23.4-24.45" />
	</g>
	<g id="Layer">
		<path id="Layer" class="s1" d="m-0.29-56.1h1440v56h-1440v-56z" />
	</g>
</svg>